<?xml version="1.0" encoding="utf-8"?>
<!-- Generator: Adobe Illustrator 23.0.0, SVG Export Plug-In . SVG Version: 6.00 Build 0)  -->
<svg version="1.1" id="Layer_1" xmlns="http://www.w3.org/2000/svg" xmlns:xlink="http://www.w3.org/1999/xlink" x="0px" y="0px"
	 viewBox="0 0 100 100" style="enable-background:new 0 0 100 100;" xml:space="preserve">
<style type="text/css">
	.st0{fill:url(#SVGID_1_);}
	.st1{fill:#0C0150;}
	.st2{clip-path:url(#SVGID_3_);}
	.st3{fill:#1EA8C4;}
	.st4{opacity:0.8;}
	.st5{fill:#ED209F;}
	.st6{fill:#FFFFFF;}
	.st7{fill:url(#SVGID_6_);}
	.st8{fill:url(#SVGID_7_);}
	.st9{fill:url(#SVGID_8_);}
</style>
<g>
	<linearGradient id="SVGID_1_" gradientUnits="userSpaceOnUse" x1="84.7114" y1="33.6172" x2="63.0768" y2="66.3419">
		<stop  offset="0" style="stop-color:#601373"/>
		<stop  offset="1" style="stop-color:#820A6E"/>
	</linearGradient>
	<polygon class="st0" points="52.1,73.4 60.8,84.6 92.9,30.5 84.8,18.6 	"/>
	<polygon class="st1" points="52.1,73.4 3.6,72.5 11.5,82.5 60.8,84.6 	"/>
	<g>
		<g>
			<defs>
				<polygon id="SVGID_2_" points="84.8,18.6 52.1,73.4 3.6,72.5 35.7,20.7 				"/>
			</defs>
			<clipPath id="SVGID_3_">
				<use xlink:href="#SVGID_2_"  style="overflow:visible;"/>
			</clipPath>
			<g class="st2">
				<g>
					<defs>
						<rect id="SVGID_4_" x="-1.4" y="13.6" width="91.2" height="64.8"/>
					</defs>
					<clipPath id="SVGID_5_">
						<use xlink:href="#SVGID_4_"  style="overflow:visible;"/>
					</clipPath>
					<g style="clip-path:url(#SVGID_5_);">
						
							<image style="overflow:visible;" width="191" height="136" xlink:href="CA991500.jpg"  transform="matrix(0.48 0 0 0.48 -1.44 13.44)">
						</image>
					</g>
				</g>
			</g>
		</g>
	</g>
</g>
<g>
	<g>
		<path class="st3" d="M55.6,72.1C55.6,72.1,55.6,72.1,55.6,72.1L2,70.7c-0.1,0-0.3-0.1-0.3-0.2c-0.1-0.1-0.1-0.3,0-0.4l32.5-52.7
			c0.1-0.1,0.2-0.2,0.3-0.2l54.6-2.6c0.1,0,0.3,0.1,0.3,0.2c0.1,0.1,0.1,0.3,0,0.4L55.9,72C55.9,72.1,55.7,72.1,55.6,72.1z M2.6,70
			l52.8,1.4l33-55.9L34.7,18L2.6,70z"/>
	</g>
	<g>
		<path class="st3" d="M65.1,85C65.1,85,65.1,85,65.1,85l-53.9-1.2c-0.1,0-0.2-0.1-0.3-0.2L1.7,70.6c-0.1-0.1-0.1-0.3,0-0.4
			C1.7,70.1,1.8,70,2,70l53.6,1.4c0.1,0,0.2,0.1,0.3,0.2l9.5,12.8c0.1,0.1,0.1,0.3,0,0.4C65.4,84.9,65.2,85,65.1,85z M11.5,83
			l52.9,1.2l-8.9-12.1L2.7,70.7L11.5,83z"/>
	</g>
	<g>
		<path class="st3" d="M65.1,85c-0.1,0-0.2-0.1-0.3-0.2L55.3,72c-0.1-0.1-0.1-0.3,0-0.4l33.5-56.7c0.1-0.1,0.2-0.2,0.3-0.2
			c0.1,0,0.2,0.1,0.3,0.2l8.5,12.8c0.1,0.1,0.1,0.3,0,0.4L65.4,84.8C65.4,84.9,65.3,85,65.1,85C65.1,85,65.1,85,65.1,85z M56.1,71.8
			l9,12.2l32.1-56l-8.1-12.1L56.1,71.8z"/>
	</g>
</g>
<g>
	<g class="st4">
		<g>
			<path class="st5" d="M51.5,31l1.2,3.3c-4.3,2.4-8.6,4.7-12.9,7.1l-1.3-3.2l12.2-6.7L51.5,31z"/>
		</g>
		<g>
			<polygon class="st5" points="53.6,36.7 54.8,39.9 41.9,47 40.7,43.7 			"/>
		</g>
		<g>
			<polygon class="st6" points="35.1,38.7 40.2,52 56.6,43.1 58.3,47.6 37.3,59.1 30,41.5 			"/>
		</g>
	</g>
	<g>
		<linearGradient id="SVGID_6_" gradientUnits="userSpaceOnUse" x1="52.2832" y1="36.101" x2="19.0879" y2="36.4172">
			<stop  offset="0" style="stop-color:#0C0150;stop-opacity:0"/>
			<stop  offset="1" style="stop-color:#0C0150"/>
		</linearGradient>
		<path class="st7" d="M52.7,34.3L51.5,31l-0.8,0.4l-12.2,6.7l1.3,3.2C44,39,48.4,36.6,52.7,34.3z"/>
		<linearGradient id="SVGID_7_" gradientUnits="userSpaceOnUse" x1="52.3372" y1="41.7711" x2="19.1419" y2="42.0873">
			<stop  offset="0" style="stop-color:#0C0150;stop-opacity:0"/>
			<stop  offset="1" style="stop-color:#0C0150"/>
		</linearGradient>
		<polygon class="st8" points="41.9,47 54.8,39.9 53.6,36.7 40.7,43.7 		"/>
		<linearGradient id="SVGID_8_" gradientUnits="userSpaceOnUse" x1="52.404" y1="48.7796" x2="19.2086" y2="49.0958">
			<stop  offset="0" style="stop-color:#0C0150;stop-opacity:0"/>
			<stop  offset="1" style="stop-color:#0C0150"/>
		</linearGradient>
		<polygon class="st9" points="56.6,43.1 40.2,52 35.1,38.7 30,41.5 37.3,59.1 58.3,47.6 		"/>
	</g>
</g>
</svg>
