<?xml version="1.0" encoding="utf-8"?>
<!-- Generator: Adobe Illustrator 23.0.0, SVG Export Plug-In . SVG Version: 6.00 Build 0)  -->
<svg version="1.1" id="Layer_1" xmlns="http://www.w3.org/2000/svg" xmlns:xlink="http://www.w3.org/1999/xlink" x="0px" y="0px"
	 viewBox="0 0 159 100" style="enable-background:new 0 0 159 100;" xml:space="preserve">
<style type="text/css">
	.st0{fill:url(#SVGID_1_);}
	.st1{fill:url(#SVGID_2_);}
	.st2{opacity:0.7;clip-path:url(#SVGID_3_);}
	.st3{fill:url(#SVGID_4_);}
	.st4{fill:url(#SVGID_5_);}
	.st5{fill:url(#SVGID_6_);}
	.st6{fill:url(#SVGID_7_);}
	.st7{fill:url(#SVGID_8_);}
	.st8{fill:url(#SVGID_9_);}
	.st9{fill:url(#SVGID_10_);}
	.st10{fill:url(#SVGID_11_);}
	.st11{fill:url(#SVGID_12_);}
	.st12{fill:url(#SVGID_13_);}
	.st13{fill:url(#SVGID_14_);}
	.st14{fill:url(#SVGID_15_);}
	.st15{fill:url(#SVGID_16_);}
	.st16{fill:url(#SVGID_17_);}
	.st17{fill:url(#SVGID_18_);}
	.st18{fill:url(#SVGID_19_);}
	.st19{fill:url(#SVGID_20_);}
	.st20{fill:url(#SVGID_21_);}
	.st21{fill:url(#SVGID_22_);}
	.st22{fill:url(#SVGID_23_);}
	.st23{fill:url(#SVGID_24_);}
	.st24{fill:url(#SVGID_25_);}
	.st25{fill:url(#SVGID_27_);}
	.st26{fill:url(#SVGID_28_);}
	.st27{fill:url(#SVGID_29_);}
	.st28{fill:url(#SVGID_30_);}
	.st29{fill:url(#SVGID_31_);}
	.st30{fill:url(#SVGID_32_);}
	.st31{fill:url(#SVGID_33_);}
	.st32{fill:url(#SVGID_34_);}
	.st33{fill:url(#SVGID_35_);}
	.st34{fill:url(#SVGID_36_);}
	.st35{fill:url(#SVGID_37_);}
	.st36{fill:url(#SVGID_38_);}
	.st37{fill:#D12281;}
</style>
<linearGradient id="SVGID_1_" gradientUnits="userSpaceOnUse" x1="17.2982" y1="64.8332" x2="17.9696" y2="23.8791">
	<stop  offset="0" style="stop-color:#0C0150;stop-opacity:0"/>
	<stop  offset="0.9955" style="stop-color:#0C0128"/>
</linearGradient>
<rect x="11" y="9.6" class="st0" width="13.4" height="60.9"/>
<linearGradient id="SVGID_2_" gradientUnits="userSpaceOnUse" x1="37.3264" y1="68.2134" x2="36.6551" y2="18.5314">
	<stop  offset="0" style="stop-color:#0C0150;stop-opacity:0"/>
	<stop  offset="0.9955" style="stop-color:#0C0128"/>
</linearGradient>
<rect x="30.2" y="9.6" class="st1" width="13.4" height="60.9"/>
<g>
	<defs>
		
			<rect id="SVGID_26_" x="107.8" y="15.9" transform="matrix(-1.836970e-16 1 -1 -1.836970e-16 167.8741 -89.1261)" width="41.4" height="47"/>
	</defs>
	<clipPath id="SVGID_3_">
		<use xlink:href="#SVGID_26_"  style="overflow:visible;"/>
	</clipPath>
	<g class="st2">
		<g>
			
				<linearGradient id="SVGID_4_" gradientUnits="userSpaceOnUse" x1="313.0449" y1="549.6407" x2="389.7601" y2="478.5906" gradientTransform="matrix(0 1 -1 0 619 -300)">
				<stop  offset="0" style="stop-color:#D12281"/>
				<stop  offset="0.5279" style="stop-color:#E16828"/>
				<stop  offset="1" style="stop-color:#4FAD7F"/>
			</linearGradient>
			<path class="st3" d="M74.1,99.6V19.9h77.1v79.7H74.1z M74.2,20.1v79.3H151V20.1H74.2z"/>
		</g>
		<g>
			
				<linearGradient id="SVGID_5_" gradientUnits="userSpaceOnUse" x1="327.9125" y1="565.6938" x2="404.6278" y2="494.6437" gradientTransform="matrix(0 1 -1 0 619 -300)">
				<stop  offset="0" style="stop-color:#D12281"/>
				<stop  offset="0.5279" style="stop-color:#E16828"/>
				<stop  offset="1" style="stop-color:#4FAD7F"/>
			</linearGradient>
			<rect x="74.1" y="91.9" class="st4" width="77" height="0.2"/>
		</g>
		<g>
			
				<linearGradient id="SVGID_6_" gradientUnits="userSpaceOnUse" x1="324.09" y1="561.5665" x2="400.8053" y2="490.5164" gradientTransform="matrix(0 1 -1 0 619 -300)">
				<stop  offset="0" style="stop-color:#D12281"/>
				<stop  offset="0.5279" style="stop-color:#E16828"/>
				<stop  offset="1" style="stop-color:#4FAD7F"/>
			</linearGradient>
			<rect x="74.1" y="83.6" class="st5" width="77" height="0.2"/>
		</g>
		<g>
			
				<linearGradient id="SVGID_7_" gradientUnits="userSpaceOnUse" x1="320.4424" y1="557.6281" x2="397.1576" y2="486.5779" gradientTransform="matrix(0 1 -1 0 619 -300)">
				<stop  offset="0" style="stop-color:#D12281"/>
				<stop  offset="0.5279" style="stop-color:#E16828"/>
				<stop  offset="1" style="stop-color:#4FAD7F"/>
			</linearGradient>
			<rect x="74.1" y="75.7" class="st6" width="77" height="0.2"/>
		</g>
		<g>
			
				<linearGradient id="SVGID_8_" gradientUnits="userSpaceOnUse" x1="316.6199" y1="553.5007" x2="393.3351" y2="482.4506" gradientTransform="matrix(0 1 -1 0 619 -300)">
				<stop  offset="0" style="stop-color:#D12281"/>
				<stop  offset="0.5279" style="stop-color:#E16828"/>
				<stop  offset="1" style="stop-color:#4FAD7F"/>
			</linearGradient>
			<rect x="74.1" y="67.4" class="st7" width="77" height="0.2"/>
		</g>
		<g>
			
				<linearGradient id="SVGID_9_" gradientUnits="userSpaceOnUse" x1="313.0789" y1="549.6775" x2="389.7942" y2="478.6274" gradientTransform="matrix(0 1 -1 0 619 -300)">
				<stop  offset="0" style="stop-color:#D12281"/>
				<stop  offset="0.5279" style="stop-color:#E16828"/>
				<stop  offset="1" style="stop-color:#4FAD7F"/>
			</linearGradient>
			<rect x="74.1" y="59.7" class="st8" width="77" height="0.2"/>
		</g>
		<g>
			
				<linearGradient id="SVGID_10_" gradientUnits="userSpaceOnUse" x1="309.2564" y1="545.5502" x2="385.9717" y2="474.5001" gradientTransform="matrix(0 1 -1 0 619 -300)">
				<stop  offset="0" style="stop-color:#D12281"/>
				<stop  offset="0.5279" style="stop-color:#E16828"/>
				<stop  offset="1" style="stop-color:#4FAD7F"/>
			</linearGradient>
			<rect x="74.1" y="51.5" class="st9" width="77" height="0.2"/>
		</g>
		<g>
			
				<linearGradient id="SVGID_11_" gradientUnits="userSpaceOnUse" x1="305.7155" y1="541.7269" x2="382.4308" y2="470.6768" gradientTransform="matrix(0 1 -1 0 619 -300)">
				<stop  offset="0" style="stop-color:#D12281"/>
				<stop  offset="0.5279" style="stop-color:#E16828"/>
				<stop  offset="1" style="stop-color:#4FAD7F"/>
			</linearGradient>
			<rect x="74.1" y="43.8" class="st10" width="77" height="0.2"/>
		</g>
		<g>
			
				<linearGradient id="SVGID_12_" gradientUnits="userSpaceOnUse" x1="301.893" y1="537.5997" x2="378.6082" y2="466.5495" gradientTransform="matrix(0 1 -1 0 619 -300)">
				<stop  offset="0" style="stop-color:#D12281"/>
				<stop  offset="0.5279" style="stop-color:#E16828"/>
				<stop  offset="1" style="stop-color:#4FAD7F"/>
			</linearGradient>
			<rect x="74.1" y="35.5" class="st11" width="77" height="0.2"/>
		</g>
		<g>
			
				<linearGradient id="SVGID_13_" gradientUnits="userSpaceOnUse" x1="298.2646" y1="533.682" x2="374.9799" y2="462.6319" gradientTransform="matrix(0 1 -1 0 619 -300)">
				<stop  offset="0" style="stop-color:#D12281"/>
				<stop  offset="0.5279" style="stop-color:#E16828"/>
				<stop  offset="1" style="stop-color:#4FAD7F"/>
			</linearGradient>
			<rect x="74.1" y="27.7" class="st12" width="77" height="0.2"/>
		</g>
		<g>
			
				<linearGradient id="SVGID_14_" gradientUnits="userSpaceOnUse" x1="328.9307" y1="566.7932" x2="405.6459" y2="495.743" gradientTransform="matrix(0 1 -1 0 619 -300)">
				<stop  offset="0" style="stop-color:#D12281"/>
				<stop  offset="0.5279" style="stop-color:#E16828"/>
				<stop  offset="1" style="stop-color:#4FAD7F"/>
			</linearGradient>
			<rect x="80.7" y="20" class="st13" width="0.2" height="79.5"/>
		</g>
		<g>
			
				<linearGradient id="SVGID_15_" gradientUnits="userSpaceOnUse" x1="324.8035" y1="562.3369" x2="401.5188" y2="491.2868" gradientTransform="matrix(0 1 -1 0 619 -300)">
				<stop  offset="0" style="stop-color:#D12281"/>
				<stop  offset="0.5279" style="stop-color:#E16828"/>
				<stop  offset="1" style="stop-color:#4FAD7F"/>
			</linearGradient>
			<rect x="88.9" y="20" class="st14" width="0.2" height="79.5"/>
		</g>
		<g>
			
				<linearGradient id="SVGID_16_" gradientUnits="userSpaceOnUse" x1="320.8649" y1="558.0843" x2="397.5802" y2="487.0341" gradientTransform="matrix(0 1 -1 0 619 -300)">
				<stop  offset="0" style="stop-color:#D12281"/>
				<stop  offset="0.5279" style="stop-color:#E16828"/>
				<stop  offset="1" style="stop-color:#4FAD7F"/>
			</linearGradient>
			<rect x="96.8" y="20" class="st15" width="0.2" height="79.5"/>
		</g>
		<g>
			
				<linearGradient id="SVGID_17_" gradientUnits="userSpaceOnUse" x1="316.7377" y1="553.628" x2="393.453" y2="482.5779" gradientTransform="matrix(0 1 -1 0 619 -300)">
				<stop  offset="0" style="stop-color:#D12281"/>
				<stop  offset="0.5279" style="stop-color:#E16828"/>
				<stop  offset="1" style="stop-color:#4FAD7F"/>
			</linearGradient>
			<rect x="105.1" y="20" class="st16" width="0.2" height="79.5"/>
		</g>
		<g>
			
				<linearGradient id="SVGID_18_" gradientUnits="userSpaceOnUse" x1="312.9143" y1="549.4998" x2="389.6296" y2="478.4496" gradientTransform="matrix(0 1 -1 0 619 -300)">
				<stop  offset="0" style="stop-color:#D12281"/>
				<stop  offset="0.5279" style="stop-color:#E16828"/>
				<stop  offset="1" style="stop-color:#4FAD7F"/>
			</linearGradient>
			<rect x="112.8" y="20" class="st17" width="0.2" height="79.5"/>
		</g>
		<g>
			
				<linearGradient id="SVGID_19_" gradientUnits="userSpaceOnUse" x1="308.7872" y1="545.0435" x2="385.5024" y2="473.9934" gradientTransform="matrix(0 1 -1 0 619 -300)">
				<stop  offset="0" style="stop-color:#D12281"/>
				<stop  offset="0.5279" style="stop-color:#E16828"/>
				<stop  offset="1" style="stop-color:#4FAD7F"/>
			</linearGradient>
			<rect x="121.1" y="20" class="st18" width="0.2" height="79.5"/>
		</g>
		<g>
			
				<linearGradient id="SVGID_20_" gradientUnits="userSpaceOnUse" x1="304.9638" y1="540.9153" x2="381.679" y2="469.8652" gradientTransform="matrix(0 1 -1 0 619 -300)">
				<stop  offset="0" style="stop-color:#D12281"/>
				<stop  offset="0.5279" style="stop-color:#E16828"/>
				<stop  offset="1" style="stop-color:#4FAD7F"/>
			</linearGradient>
			<rect x="128.7" y="20" class="st19" width="0.2" height="79.5"/>
		</g>
		<g>
			
				<linearGradient id="SVGID_21_" gradientUnits="userSpaceOnUse" x1="300.8366" y1="536.459" x2="377.5519" y2="465.4089" gradientTransform="matrix(0 1 -1 0 619 -300)">
				<stop  offset="0" style="stop-color:#D12281"/>
				<stop  offset="0.5279" style="stop-color:#E16828"/>
				<stop  offset="1" style="stop-color:#4FAD7F"/>
			</linearGradient>
			<rect x="137" y="20" class="st20" width="0.2" height="79.5"/>
		</g>
		<g>
			
				<linearGradient id="SVGID_22_" gradientUnits="userSpaceOnUse" x1="296.9189" y1="532.229" x2="373.6342" y2="461.1789" gradientTransform="matrix(0 1 -1 0 619 -300)">
				<stop  offset="0" style="stop-color:#D12281"/>
				<stop  offset="0.5279" style="stop-color:#E16828"/>
				<stop  offset="1" style="stop-color:#4FAD7F"/>
			</linearGradient>
			<rect x="144.9" y="20" class="st21" width="0.2" height="79.5"/>
		</g>
	</g>
</g>
<g>
	<g>
		<linearGradient id="SVGID_23_" gradientUnits="userSpaceOnUse" x1="86.4466" y1="26.6789" x2="-12.7375" y2="52.2688">
			<stop  offset="5.434346e-07" style="stop-color:#FFFFFF"/>
			<stop  offset="1" style="stop-color:#D12281"/>
		</linearGradient>
		<path class="st22" d="M20.6,42c0-3.6,2.7-6.4,6.5-6.4c2.3,0,4.3,1.2,5.3,3l-0.8,0.5c-0.8-1.5-2.5-2.6-4.5-2.6
			c-3.3,0-5.5,2.5-5.5,5.5c0,3.1,2.3,5.5,5.5,5.5c2,0,3.7-1,4.5-2.6l0.8,0.5c-1,1.8-3,3-5.4,3C23.3,48.4,20.6,45.6,20.6,42z"/>
		<linearGradient id="SVGID_24_" gradientUnits="userSpaceOnUse" x1="87.2022" y1="29.6077" x2="-11.9818" y2="55.1975">
			<stop  offset="5.434346e-07" style="stop-color:#FFFFFF"/>
			<stop  offset="1" style="stop-color:#D12281"/>
		</linearGradient>
		<path class="st23" d="M39.5,43.1h-3.9v5.1h-0.9V35.8h4.9c2,0,3.7,1.7,3.7,3.7c0,1.7-1.2,3.1-2.7,3.5l3.1,5.2h-1.1L39.5,43.1z
			 M35.6,42.2h4c1.5,0,2.7-1.2,2.7-2.8c0-1.5-1.2-2.8-2.7-2.8h-4V42.2z"/>
		<linearGradient id="SVGID_25_" gradientUnits="userSpaceOnUse" x1="87.8273" y1="32.0307" x2="-11.3567" y2="57.6206">
			<stop  offset="5.434346e-07" style="stop-color:#FFFFFF"/>
			<stop  offset="1" style="stop-color:#D12281"/>
		</linearGradient>
		<path class="st24" d="M52.7,47.3v0.9h-7.2V35.8h7.1v0.9h-6.1v4.8h5.7v0.9h-5.7v4.9H52.7z"/>
		<linearGradient id="SVGID_27_" gradientUnits="userSpaceOnUse" x1="88.6102" y1="35.0649" x2="-10.5738" y2="60.6548">
			<stop  offset="5.434346e-07" style="stop-color:#FFFFFF"/>
			<stop  offset="1" style="stop-color:#D12281"/>
		</linearGradient>
		<path class="st25" d="M62.4,45.1h-6.2l-1.2,3.2h-1l4.8-12.5h1l4.8,12.5h-1L62.4,45.1z M62.1,44.2l-2.8-7.2l-2.8,7.2H62.1z"/>
		<linearGradient id="SVGID_28_" gradientUnits="userSpaceOnUse" x1="88.9305" y1="36.3065" x2="-10.2535" y2="61.8963">
			<stop  offset="5.434346e-07" style="stop-color:#FFFFFF"/>
			<stop  offset="1" style="stop-color:#D12281"/>
		</linearGradient>
		<path class="st26" d="M73.2,36.7h-3.9v11.6h-1V36.7h-3.9v-0.9h8.8V36.7z"/>
		<linearGradient id="SVGID_29_" gradientUnits="userSpaceOnUse" x1="89.6728" y1="39.1836" x2="-9.5112" y2="64.7735">
			<stop  offset="5.434346e-07" style="stop-color:#FFFFFF"/>
			<stop  offset="1" style="stop-color:#D12281"/>
		</linearGradient>
		<path class="st27" d="M82.3,47.3v0.9h-7.2V35.8h7.1v0.9h-6.1v4.8h5.7v0.9h-5.7v4.9H82.3z"/>
		<linearGradient id="SVGID_30_" gradientUnits="userSpaceOnUse" x1="90.4228" y1="42.0907" x2="-8.7612" y2="67.6805">
			<stop  offset="5.434346e-07" style="stop-color:#FFFFFF"/>
			<stop  offset="1" style="stop-color:#D12281"/>
		</linearGradient>
		<path class="st28" d="M93.5,43.1v5.1h-0.9v-5.1L88,35.8h1.1l4,6.4l3.9-6.4H98L93.5,43.1z"/>
		<linearGradient id="SVGID_31_" gradientUnits="userSpaceOnUse" x1="91.2857" y1="45.435" x2="-7.8983" y2="71.0248">
			<stop  offset="5.434346e-07" style="stop-color:#FFFFFF"/>
			<stop  offset="1" style="stop-color:#D12281"/>
		</linearGradient>
		<path class="st29" d="M98.1,42c0-3.6,2.8-6.4,6.4-6.4c3.6,0,6.4,2.9,6.4,6.4c0,3.6-2.8,6.4-6.4,6.4C101,48.4,98.1,45.6,98.1,42z
			 M110,42c0-3.1-2.4-5.5-5.5-5.5c-3.1,0-5.5,2.5-5.5,5.5c0,3.1,2.4,5.5,5.5,5.5C107.6,47.5,110,45.1,110,42z"/>
		<linearGradient id="SVGID_32_" gradientUnits="userSpaceOnUse" x1="92.008" y1="48.2347" x2="-7.176" y2="73.8245">
			<stop  offset="5.434346e-07" style="stop-color:#FFFFFF"/>
			<stop  offset="1" style="stop-color:#D12281"/>
		</linearGradient>
		<path class="st30" d="M113.1,44.1v-8.3h0.9v8.3c0,2,1.3,3.5,3.6,3.5c2.4,0,3.6-1.4,3.6-3.5v-8.3h0.9v8.3c0,2.6-1.8,4.4-4.6,4.4
			C114.9,48.4,113.1,46.7,113.1,44.1z"/>
		<linearGradient id="SVGID_33_" gradientUnits="userSpaceOnUse" x1="92.8497" y1="51.4968" x2="-6.3344" y2="77.0866">
			<stop  offset="5.434346e-07" style="stop-color:#FFFFFF"/>
			<stop  offset="1" style="stop-color:#D12281"/>
		</linearGradient>
		<path class="st31" d="M130,43.1h-3.9v5.1h-0.9V35.8h4.9c2,0,3.7,1.7,3.7,3.7c0,1.7-1.2,3.1-2.7,3.5l3.1,5.2H133L130,43.1z
			 M126.1,42.2h4c1.5,0,2.7-1.2,2.7-2.8c0-1.5-1.2-2.8-2.7-2.8h-4V42.2z"/>
	</g>
	<g>
		<linearGradient id="SVGID_34_" gradientUnits="userSpaceOnUse" x1="93.0955" y1="49.2649" x2="64.3303" y2="79.7112">
			<stop  offset="5.434346e-07" style="stop-color:#FFFFFF"/>
			<stop  offset="1" style="stop-color:#D12281"/>
		</linearGradient>
		<path class="st32" d="M70.8,59.8h1L75.1,71l3.5-11.2h1.1L83.1,71l3.2-11.2h1l-3.6,12.5h-1.1L79.1,61l-3.5,11.2h-1.1L70.8,59.8z"/>
		<linearGradient id="SVGID_35_" gradientUnits="userSpaceOnUse" x1="102.2704" y1="57.9332" x2="73.5052" y2="88.3795">
			<stop  offset="5.434346e-07" style="stop-color:#FFFFFF"/>
			<stop  offset="1" style="stop-color:#D12281"/>
		</linearGradient>
		<path class="st33" d="M88.2,66c0-3.6,2.8-6.4,6.4-6.4c3.6,0,6.4,2.9,6.4,6.4c0,3.6-2.8,6.4-6.4,6.4C91,72.4,88.2,69.6,88.2,66z
			 M100.1,66c0-3.1-2.4-5.5-5.5-5.5c-3.1,0-5.5,2.5-5.5,5.5c0,3.1,2.4,5.5,5.5,5.5C97.7,71.5,100.1,69.1,100.1,66z"/>
		<linearGradient id="SVGID_36_" gradientUnits="userSpaceOnUse" x1="109.2879" y1="64.5631" x2="80.5227" y2="95.0095">
			<stop  offset="5.434346e-07" style="stop-color:#FFFFFF"/>
			<stop  offset="1" style="stop-color:#D12281"/>
		</linearGradient>
		<path class="st34" d="M108.3,67.1h-3.9v5.1h-0.9V59.8h4.9c2,0,3.7,1.7,3.7,3.7c0,1.7-1.2,3.1-2.7,3.5l3.1,5.2h-1.1L108.3,67.1z
			 M104.4,66.2h4c1.5,0,2.7-1.2,2.7-2.8c0-1.5-1.2-2.8-2.7-2.8h-4V66.2z"/>
		<linearGradient id="SVGID_37_" gradientUnits="userSpaceOnUse" x1="114.4863" y1="69.4746" x2="85.7211" y2="99.9209">
			<stop  offset="5.434346e-07" style="stop-color:#FFFFFF"/>
			<stop  offset="1" style="stop-color:#D12281"/>
		</linearGradient>
		<path class="st35" d="M121.2,71.3v0.9h-6.8V59.8h0.9v11.6H121.2z"/>
		<linearGradient id="SVGID_38_" gradientUnits="userSpaceOnUse" x1="119.2168" y1="73.9438" x2="90.4516" y2="104.3902">
			<stop  offset="5.434346e-07" style="stop-color:#FFFFFF"/>
			<stop  offset="1" style="stop-color:#D12281"/>
		</linearGradient>
		<path class="st36" d="M133.7,66c0,3.4-2.4,6.2-5.9,6.2h-4.7V59.8h4.7C131.2,59.8,133.7,62.6,133.7,66z M132.7,66
			c0-3-2-5.3-4.9-5.3h-3.7v10.7h3.7C130.7,71.3,132.7,69,132.7,66z"/>
	</g>
	<g>
		<g>
			<path class="st37" d="M25.1,60.9l0.8,0.3c0.3-0.3,0.5-0.7,0.9-1.1c0.3-0.4,0.7-0.8,1-1.2c0.4-0.4,0.8-0.7,1.2-1
				c0.4-0.3,0.9-0.4,1.3-0.4c0.4,0,0.9,0.1,1.4,0.4c0.5,0.3,0.9,0.6,1.3,1c0.4,0.4,0.7,0.8,0.9,1.3c0.2,0.5,0.4,0.9,0.4,1.4
				c0,0.8-0.2,1.7-0.5,2.6c-0.3,0.9-0.7,1.8-1.2,2.6c-0.5,0.9-1,1.6-1.6,2.4c-0.6,0.7-1.2,1.4-1.8,1.9c-0.4,0.3-0.7,0.6-1.1,0.9
				c-0.4,0.3-0.8,0.4-1.3,0.5c-0.1,0-0.3,0-0.4,0.1c-0.2,0-0.3,0-0.4,0c-0.7,0-1.3-0.1-1.8-0.4c-0.6-0.3-1-0.6-1.4-1
				s-0.7-0.9-0.9-1.5c-0.2-0.6-0.3-1.2-0.3-1.8v-0.5c0-0.4,0.1-1,0.3-1.7c0.2-0.7,0.5-1.4,0.8-2.1c0.3-0.7,0.7-1.3,1.2-1.8
				C24.1,61.1,24.6,60.9,25.1,60.9z M23.6,62.6l0.7-0.8c-0.2,0.1-0.3,0.2-0.4,0.3C23.8,62.3,23.7,62.4,23.6,62.6z M24,64.9L24,64.9
				L24,64.9L24,64.9z M24.3,70.5c0.9-0.3,1.8-0.7,2.7-1.4c0.8-0.7,1.6-1.5,2.2-2.4c0.6-0.9,1.2-1.8,1.6-2.9c0.4-1,0.8-2,0.9-2.9
				c0-0.1,0.1-0.3,0.1-0.4c0-0.1,0-0.3,0-0.4c0-0.2,0-0.4-0.1-0.5c-0.3,0-0.7,0.2-1.2,0.6c-0.5,0.4-1,0.8-1.4,1.3
				c-0.4,0.5-0.8,1-1.2,1.6c-0.3,0.5-0.5,1-0.5,1.3c0,0.4,0.2,0.7,0.6,1c-0.1,0.2-0.3,0.3-0.4,0.3c-0.6,0-1-0.2-1.4-0.6
				s-0.7-0.8-1-1.2c-0.3,0.8-0.6,1.6-0.8,2.4c-0.3,0.8-0.4,1.6-0.4,2.5c0,0.3,0,0.6,0,0.9C24.2,69.9,24.2,70.2,24.3,70.5z
				 M25.3,62.5L25.3,62.5c-0.2,0.2-0.5,0.5-0.6,0.8c-0.2,0.3-0.3,0.7-0.5,1c0.1-0.1,0.1-0.2,0.3-0.4c0.1-0.2,0.2-0.4,0.4-0.6
				c0.1-0.2,0.2-0.4,0.3-0.6C25.2,62.7,25.3,62.5,25.3,62.5z M24.4,62.8c0.2-0.1,0.3-0.3,0.4-0.6L24.4,62.8z M26.9,60.9
				c0-0.1,0.1-0.2,0.3-0.4s0.4-0.4,0.6-0.6c0.2-0.2,0.4-0.4,0.6-0.6c0.2-0.2,0.3-0.3,0.4-0.4h-0.1c-0.7,0.6-1.4,1.3-1.9,2.1
				L26.9,60.9z M27.2,62.9c0.4-0.6,0.8-1.1,1.2-1.6c0.4-0.5,0.8-1,1.3-1.5v0h0c0,0,0,0,0,0c0,0,0,0,0,0c-0.2,0.2-0.5,0.4-0.7,0.6
				c-0.3,0.2-0.5,0.5-0.7,0.8c-0.2,0.3-0.4,0.6-0.6,0.9C27.4,62.3,27.3,62.6,27.2,62.9z M27.5,61.2c0.1-0.2,0.2-0.3,0.4-0.5
				c0.1-0.1,0.2-0.3,0.4-0.4c-0.1,0.1-0.2,0.2-0.4,0.4C27.6,61,27.5,61.2,27.5,61.2z M32.3,65.3c-0.4,0.8-0.8,1.5-1.3,2.2
				c-0.5,0.7-1,1.4-1.5,2c-0.1,0.1-0.1,0.1-0.1,0.2c0,0.1-0.1,0.1-0.1,0.2c0.2-0.3,0.5-0.6,0.8-0.9c0.4-0.4,0.7-0.8,1-1.2
				c0.3-0.4,0.6-0.9,0.9-1.3C32.2,66,32.3,65.6,32.3,65.3z M29.3,67.8c0.2-0.2,0.4-0.4,0.5-0.6c0.1-0.2,0.3-0.5,0.4-0.7
				c-0.1,0.1-0.3,0.4-0.5,0.7C29.4,67.5,29.3,67.7,29.3,67.8z M29.5,68.5L29.5,68.5C29.4,68.5,29.4,68.5,29.5,68.5z M29.9,68
				c0.1-0.2,0.3-0.4,0.5-0.7c0.2-0.2,0.3-0.4,0.5-0.7L29.9,68L29.9,68L29.9,68z M30.9,66.6c0,0,0,0.1,0,0.1L30.9,66.6z M31.5,67.6
				L31.5,67.6L31.5,67.6L31.5,67.6z"/>
			<path class="st37" d="M48.8,53.3c0.6,0.1,1.2,0.4,1.6,0.8c0.4,0.4,0.7,0.9,0.9,1.4c0.2,0.5,0.4,1.1,0.5,1.7s0.1,1.2,0.1,1.7
				s-0.1,1.3-0.2,2.2s-0.3,1.9-0.5,3c-0.2,1.1-0.5,2.1-0.9,3.2c-0.3,1.1-0.8,2-1.2,2.9c-0.5,0.9-1,1.6-1.6,2.1
				c-0.6,0.5-1.3,0.8-2,0.8c-0.2,0-0.3,0-0.4,0c-1-0.2-1.6-0.6-1.8-1.2c-0.2-0.6-0.4-1.3-0.4-2.2c0-0.7,0-1.5,0.1-2.2
				c0.1-0.7,0.1-1.5,0.1-2.2c-0.6,0.8-1.1,1.6-1.7,2.5c-0.6,0.8-1.2,1.6-1.9,2.4c-0.5,0.7-1.2,1-2,1c-0.3,0-0.7-0.1-1-0.2
				c-0.3-0.1-0.6-0.3-0.9-0.5c-0.3-0.2-0.5-0.5-0.7-0.8c-0.2-0.3-0.3-0.6-0.3-1c0-0.4,0.1-1,0.3-1.7s0.4-1.4,0.7-2.2
				c0.3-0.8,0.5-1.5,0.8-2.3c0.3-0.7,0.5-1.3,0.6-1.8c0.1-0.3,0.1-0.5,0.2-0.8s0-0.5,0-0.8c0-0.1,0-0.2-0.1-0.4
				c0-0.1-0.1-0.3-0.1-0.4c0.1,0,0.1,0,0.2,0c0.1,0,0.2,0,0.2,0c0.3,0,0.5,0.1,0.9,0.4c0.3,0.2,0.6,0.4,0.8,0.6
				c0.3,0.3,0.5,0.6,0.7,0.9c0.1,0.3,0.2,0.7,0.2,1.1c0,1-0.2,2-0.6,2.9c-0.4,0.9-0.7,1.9-1,2.8c-0.1,0.2-0.1,0.4-0.2,0.5v0.1
				c0.3-0.3,0.6-0.6,0.9-1c0.3-0.4,0.6-0.7,0.9-1c0.1-0.1,0.3-0.4,0.6-0.8c0.3-0.4,0.7-0.9,1-1.4c0.4-0.5,0.7-1,1-1.4
				c0.3-0.4,0.5-0.6,0.5-0.7l-0.5-0.6c0-0.1,0-0.2,0.1-0.3c0.1,0,0.2,0,0.3,0c0.6,0,1.2,0.3,1.7,0.8s0.8,1.1,0.9,1.7
				c0.1,0.4,0.1,0.8,0.1,1.2c0,0.4,0,0.8,0,1.2c0,1.1-0.1,2.2-0.2,3.3c-0.1,0.4-0.1,0.9-0.2,1.3c-0.1,0.4-0.1,0.9-0.1,1.3v0.3
				c0.7-0.5,1.3-1.3,1.9-2.5c0.6-1.2,1-2.5,1.5-3.9c0.4-1.4,0.7-2.7,0.9-4.1c0.2-1.3,0.3-2.4,0.3-3.3c0-1.3-0.3-2.5-0.9-3.7
				C49.1,54,49,53.9,49,53.8s-0.1-0.2-0.1-0.3V53.3z M36.9,68.3c0.1-0.1,0.2-0.3,0.4-0.7c0.1-0.3,0.3-0.7,0.4-1.1
				c0.1-0.4,0.2-0.7,0.4-1.1c0.1-0.4,0.2-0.6,0.3-0.8l-0.1,0c-0.2,0.6-0.4,1.3-0.6,1.9S37.1,67.7,36.9,68.3z M40.1,68.3
				c0.1-0.2,0.4-0.5,0.7-0.9c0.3-0.4,0.6-0.8,1-1.3c0.3-0.5,0.6-0.9,0.9-1.3c0.3-0.4,0.4-0.7,0.5-0.8h0c-0.5,0.7-1,1.4-1.5,2.1
				C41.1,66.9,40.6,67.6,40.1,68.3z M40.9,66.5C40.9,66.5,40.8,66.5,40.9,66.5L40.9,66.5z M41.4,65.6c0,0,0,0.1,0,0.2
				C41.4,65.7,41.4,65.7,41.4,65.6z M41.7,64.4c-0.1,0.1-0.1,0.1-0.1,0.2L41.7,64.4z M41.8,65.2L41.8,65.2L41.8,65.2L41.8,65.2z
				 M42.8,65.3L42.8,65.3L42.8,65.3L42.8,65.3z M43,62.7c0-0.1,0.1-0.1,0.1-0.1s0.1-0.1,0.1-0.1l-0.1,0c0,0.1-0.1,0.1-0.1,0.2
				S43,62.7,43,62.7z M45,67.7L45,67.7l-0.3,1.9c0,0.3,0,0.5,0,0.6h0.1l-0.1-0.6l0.1-0.1L45,67.7z M47.8,69.2L47.8,69.2L47.8,69.2
				L47.8,69.2z M48.4,67.8c-0.1,0.1-0.1,0.2-0.2,0.4L48.4,67.8z M49.2,65c-0.1,0.3-0.2,0.6-0.3,0.9c-0.1,0.3-0.2,0.6-0.3,0.9
				c0.1-0.3,0.2-0.5,0.3-0.8c0.1-0.3,0.2-0.5,0.3-0.8L49.2,65z M50.1,65.9c0.2-0.7,0.4-1.5,0.6-2.2c0.2-0.7,0.3-1.5,0.4-2.2L51,61.6
				c-0.3,1.4-0.6,2.7-0.9,4c-0.4,1.3-0.8,2.6-1.4,4c0.1-0.1,0.2-0.3,0.4-0.7c0.1-0.3,0.3-0.7,0.4-1.1s0.3-0.7,0.4-1.1
				C50,66.4,50.1,66.1,50.1,65.9z M49.3,66.7L49.3,66.7C49.3,66.7,49.3,66.6,49.3,66.7L49.3,66.7z M49.6,63.8
				c-0.1,0.2-0.1,0.3-0.1,0.3L49.6,63.8z M49.7,65.4L49.7,65.4l0-0.2l0.1,0v0l-0.1,0.1V65.4z M49.9,62.5c-0.1,0.1-0.2,0.2-0.2,0.3
				c0,0.1,0,0.3,0,0.4L49.9,62.5L50,62c-0.1,0.1-0.1,0.1-0.1,0.2s0,0.1,0,0.1C49.9,62.4,49.9,62.4,49.9,62.5z M49.8,64.8L49.8,64.8
				C49.8,64.8,49.9,64.8,49.8,64.8L49.8,64.8z M50,61.7c0,0.1,0,0.2,0,0.3L50,61.7L50,61.7z M50.1,61.1c0,0,0,0.1,0,0.1h0L50.1,61.1
				L50.1,61.1z M50.2,66.7L50.2,66.7L50.2,66.7L50.2,66.7z M50.4,66L50.4,66L50.4,66L50.4,66z M51.1,61.4c0-0.1,0-0.2,0.1-0.2
				c0-0.1,0-0.1,0-0.2h-0.1V61.4z M51.2,60.5v-0.2h-0.1C51.2,60.4,51.2,60.4,51.2,60.5L51.2,60.5z"/>
			<path class="st37" d="M53.9,73.2c-0.6,0-1.2-0.2-1.7-0.7s-0.8-1-0.8-1.7c0-0.6,0.1-1.3,0.2-2.1c0.2-0.9,0.4-1.7,0.6-2.6
				c0.2-0.9,0.5-1.8,0.7-2.6c0.2-0.9,0.4-1.6,0.6-2.2c0.2-0.5,0.3-1.1,0.5-1.7c0.2-0.6,0.2-1.2,0.2-1.7c0-0.1,0-0.2,0-0.3
				c0-0.1-0.1-0.2-0.1-0.3c0.1-0.1,0.2-0.2,0.4-0.2c0.1,0,0.2,0,0.3,0.1c0.1,0.1,0.2,0.1,0.3,0.1c0.5,0.3,0.9,0.6,1.2,1.1
				c0.3,0.5,0.5,1,0.5,1.6c0,0.6-0.1,1.4-0.3,2.3c-0.2,0.9-0.4,1.8-0.6,2.7c-0.3,0.9-0.5,1.8-0.8,2.7c-0.3,0.9-0.5,1.6-0.7,2.3
				l0.1,0c1.2-1.6,2.3-3.2,3.5-4.8c1.1-1.6,2.4-3.2,3.7-4.7c0.5-0.6,1-1.2,1.5-1.8c0.5-0.6,1-1.2,1.5-1.7c0.2-0.2,0.3-0.3,0.5-0.5
				c0.2-0.2,0.4-0.3,0.6-0.3c0.2,0,0.4,0.1,0.7,0.2s0.5,0.3,0.8,0.4c0.3,0.2,0.5,0.4,0.6,0.6c0.2,0.2,0.3,0.4,0.3,0.7
				c0,0.1,0,0.3-0.1,0.6c-0.1,0.3-0.2,0.5-0.3,0.8c-0.1,0.3-0.2,0.6-0.3,0.8c-0.1,0.3-0.2,0.5-0.2,0.6c-0.3,0.7-0.7,1.7-1.1,3.1
				c-0.5,1.3-0.9,2.7-1.4,4.1s-0.8,2.8-1.2,4.1c-0.3,1.3-0.5,2.3-0.5,3c0,0.5,0.2,0.8,0.5,1c0,0.3-0.1,0.4-0.4,0.4
				c-0.6,0-1.1-0.1-1.4-0.3c-0.4-0.2-0.7-0.5-0.9-0.9c-0.2-0.4-0.3-0.8-0.4-1.3c-0.1-0.5-0.1-1-0.1-1.5c0-0.7,0.1-1.4,0.2-2.1
				s0.3-1.5,0.5-2.3c0.2-0.8,0.4-1.5,0.7-2.3s0.5-1.5,0.7-2.1c0.2-0.6,0.4-1.3,0.7-1.8c0.3-0.6,0.5-1.2,0.7-1.8
				c-0.1,0.1-0.1,0.1-0.2,0.1c-0.1,0-0.1,0.1-0.2,0.1c-0.9,0.9-1.8,2-2.6,3.1c-0.8,1.1-1.5,2.2-2.2,3.3c-0.2,0.4-0.5,0.8-0.9,1.4
				c-0.3,0.6-0.7,1.2-1.1,1.8c-0.4,0.6-0.8,1.2-1.2,1.7s-0.7,0.9-1,1.2C54.4,73.1,54.1,73.2,53.9,73.2z M55.2,71.3l0.1-0.2
				C55.2,71.1,55.2,71.2,55.2,71.3z M56.6,67.8c-0.1,0.1-0.3,0.3-0.4,0.4c-0.1,0.2-0.2,0.3-0.3,0.4c0.1-0.1,0.3-0.3,0.3-0.4
				C56.4,68.1,56.5,68,56.6,67.8z M56.2,69.8l0.2-0.2c0-0.1,0.1-0.1,0.1-0.1c0,0,0.1-0.1,0.1-0.1c-0.1,0.1-0.1,0.1-0.2,0.2
				C56.3,69.6,56.3,69.7,56.2,69.8z M56.5,69L56.5,69C56.5,69,56.5,69,56.5,69z M56.9,67.3c0.1-0.1,0.1-0.2,0.2-0.3
				c0.1-0.1,0.1-0.1,0.2-0.3c0.2-0.2,0.3-0.4,0.4-0.6c0.1-0.2,0.3-0.4,0.4-0.6c0.9-1.4,2-2.8,3.1-4c1.1-1.2,2.2-2.5,3.3-3.9l0.1-0.2
				l-0.1-0.1c-1.1,1.1-2.1,2.3-3.1,3.5c-1,1.2-2,2.4-2.9,3.7c-0.3,0.5-0.7,1-1,1.4c-0.3,0.5-0.6,1-0.9,1.5L56.9,67.3z M56.9,68.5
				L56.9,68.5L56.9,68.5L56.9,68.5z M56.9,68.7c0.1-0.2,0.3-0.3,0.4-0.5c0.1-0.2,0.2-0.3,0.3-0.5C57.3,68,57.1,68.4,56.9,68.7z
				 M57.6,67.2h-0.1c0,0.1,0,0.1-0.1,0.2h0.2V67.2L57.6,67.2z M58.2,66.7c-0.1,0.1-0.2,0.3-0.3,0.4c-0.1,0.1-0.2,0.3-0.3,0.5
				C57.9,67.3,58.1,67,58.2,66.7z M57.8,66.9L57.8,66.9L57.8,66.9c-0.1,0.1-0.1,0.2,0,0.2C57.8,67,57.8,67,57.8,66.9l0.2,0
				C58,66.9,57.9,66.9,57.8,66.9z M57.7,67.9L57.7,67.9L57.7,67.9L57.7,67.9z M58,66.6L58,66.6L58,66.6c-0.1,0.1-0.1,0.2,0,0.2v0.1
				c0,0,0,0,0,0V66.6c0.1,0.1,0.1,0.1,0.1,0L58,66.6C58,66.6,58,66.6,58,66.6z M58.2,66.3L58.2,66.3L58.2,66.3
				c-0.1,0.2-0.1,0.2,0,0.3c0-0.1,0.1-0.2,0.2-0.2C58.3,66.3,58.3,66.3,58.2,66.3z M58.3,66L58.3,66L58.3,66c0,0.1,0,0.2,0,0.3
				C58.3,66.3,58.4,66.2,58.3,66l0.1,0L58.3,66C58.3,66.1,58.3,66,58.3,66z M58.5,66.4l0-0.2L58.5,66.4L58.5,66.4z M60.5,63.8
				l0.2-0.3h0.1l0.2-0.2c0-0.1,0.1-0.2,0.3-0.4c0.1-0.2,0.2-0.3,0.3-0.4c0-0.1,0.1-0.2,0.2-0.3c0.1-0.2,0.2-0.3,0.4-0.5
				c0.2-0.2,0.3-0.3,0.4-0.5s0.2-0.2,0.3-0.3l-0.1,0v-0.2c-0.2,0.3-0.4,0.5-0.6,0.8c-0.2,0.3-0.5,0.5-0.7,0.7
				c0.1-0.1,0.2-0.3,0.5-0.6c0.3-0.3,0.5-0.6,0.8-1c0.3-0.3,0.6-0.7,0.9-1c0.3-0.3,0.5-0.6,0.6-0.7c-1.1,1.1-2.1,2.2-3,3.3
				c-0.9,1.1-1.8,2.3-2.6,3.5v0.1l0,0.2c0.2-0.3,0.4-0.6,0.5-0.8c0.2-0.2,0.4-0.5,0.6-0.7c-0.1,0.2-0.1,0.3-0.2,0.4l0.3-0.2h0.1
				c0.1-0.1,0.2-0.2,0.2-0.3c0.1-0.1,0.1-0.2,0.2-0.4l0.1-0.1C60.4,63.9,60.5,63.8,60.5,63.8L60.5,63.8z M59.2,65.4l-0.3,0.5
				c0.1-0.1,0.1-0.1,0.3-0.2v0C59.1,65.6,59.2,65.5,59.2,65.4z M59.2,65.6L59.2,65.6l0,0.1C59.1,65.7,59.2,65.7,59.2,65.6z
				 M62.5,72.6L62.5,72.6l0-0.1h0V72.6z M62.8,71.1l-0.3,1l0.1,0c0.1-0.2,0.1-0.4,0.1-0.5C62.8,71.5,62.8,71.3,62.8,71.1z
				 M67.3,58.3l-0.1,0c-0.4,0.9-0.9,1.9-1.3,3s-0.8,2.2-1.2,3.3s-0.7,2.3-1,3.4c-0.3,1.1-0.6,2.2-0.9,3.1c0.1-0.1,0.1-0.1,0.2-0.3
				c0.4-0.9,0.7-1.9,0.9-2.9c0.3-1,0.5-1.9,0.9-2.9c0.4-1.1,0.8-2.3,1.3-3.4C66.5,60.5,66.9,59.4,67.3,58.3z M63.2,60.5
				c0.1-0.1,0.2-0.2,0.2-0.3c0.1-0.1,0.1-0.2,0.3-0.2c0.1-0.1,0.1-0.2,0.2-0.3c0.1-0.1,0.1-0.2,0.1-0.3l0.5-0.6l-1.6,1.8
				c0.1-0.1,0.1-0.1,0.2-0.1C63,60.5,63.1,60.5,63.2,60.5z M63.9,62.4L63.9,62.4L63.9,62.4L63.9,62.4z M64.1,61.6
				C64.1,61.7,64.1,61.7,64.1,61.6C64.1,61.7,64.1,61.7,64.1,61.6L64.1,61.6L64.1,61.6z M64.3,61.1l-0.1,0.3l0.1,0V61.1z M64.3,61.1
				l0.1-0.1c0.2-0.4,0.4-0.8,0.6-1.3c0.2-0.4,0.4-0.8,0.6-1.3v-0.2c-0.3,0.4-0.5,0.9-0.7,1.4C64.8,60.1,64.5,60.6,64.3,61.1z
				 M66.2,59c-0.1,0.2-0.3,0.4-0.4,0.7c-0.1,0.2-0.2,0.5-0.3,0.7c0.1-0.2,0.2-0.5,0.3-0.7S66.1,59.3,66.2,59z M66.5,58.4L66.5,58.4
				l0,0.1L66.5,58.4z"/>
		</g>
	</g>
</g>
</svg>
