<?xml version="1.0" encoding="utf-8"?>
<!-- Generator: Adobe Illustrator 23.0.0, SVG Export Plug-In . SVG Version: 6.00 Build 0)  -->
<svg version="1.1" id="Layer_1" xmlns="http://www.w3.org/2000/svg" xmlns:xlink="http://www.w3.org/1999/xlink" x="0px" y="0px"
	 viewBox="0 0 69.6 67.9" style="enable-background:new 0 0 69.6 67.9;" xml:space="preserve">
<style type="text/css">
	.st0{fill:#0C0150;}
	.st1{opacity:0.7;clip-path:url(#SVGID_15_);}
	.st2{fill:url(#SVGID_16_);}
	.st3{fill:url(#SVGID_17_);}
	.st4{fill:url(#SVGID_18_);}
	.st5{fill:url(#SVGID_19_);}
	.st6{fill:url(#SVGID_20_);}
	.st7{fill:url(#SVGID_21_);}
	.st8{fill:url(#SVGID_22_);}
	.st9{fill:url(#SVGID_23_);}
	.st10{fill:url(#SVGID_24_);}
	.st11{fill:url(#SVGID_25_);}
	.st12{fill:url(#SVGID_26_);}
	.st13{fill:url(#SVGID_27_);}
	.st14{fill:url(#SVGID_28_);}
	.st15{fill:url(#SVGID_29_);}
	.st16{fill:url(#SVGID_30_);}
	.st17{fill:url(#SVGID_31_);}
	.st18{fill:url(#SVGID_32_);}
	.st19{fill:url(#SVGID_33_);}
	.st20{fill:url(#SVGID_34_);}
	.st21{fill-rule:evenodd;clip-rule:evenodd;fill:#FFFFFF;}
	.st22{fill-rule:evenodd;clip-rule:evenodd;fill:#ED209F;}
	.st23{opacity:0.6;}
	.st24{fill:#D12281;}
	.st25{fill:#0C0128;}
	.st26{fill:#FFFFFF;}
	.st27{fill:#030C30;}
	.st28{opacity:0.7;clip-path:url(#SVGID_35_);}
	.st29{fill:url(#SVGID_36_);}
	.st30{fill:url(#SVGID_37_);}
	.st31{fill:url(#SVGID_38_);}
	.st32{fill:url(#SVGID_39_);}
	.st33{fill:url(#SVGID_40_);}
	.st34{fill:url(#SVGID_41_);}
	.st35{fill:url(#SVGID_42_);}
	.st36{fill:url(#SVGID_43_);}
	.st37{fill:url(#SVGID_44_);}
	.st38{fill:url(#SVGID_45_);}
	.st39{fill:url(#SVGID_46_);}
	.st40{fill:url(#SVGID_47_);}
	.st41{fill:url(#SVGID_48_);}
	.st42{fill:url(#SVGID_49_);}
	.st43{fill:url(#SVGID_50_);}
	.st44{fill:url(#SVGID_51_);}
	.st45{fill:url(#SVGID_52_);}
	.st46{fill:url(#SVGID_53_);}
	.st47{fill:url(#SVGID_54_);}
	.st48{fill:url(#SVGID_59_);}
	.st49{clip-path:url(#SVGID_61_);}
	.st50{clip-path:url(#SVGID_63_);}
	.st51{fill:none;stroke:#1EA8C4;stroke-width:2;stroke-linecap:round;stroke-linejoin:round;stroke-miterlimit:10;}
	.st52{fill:#1A1787;}
	.st53{fill:url(#SVGID_66_);}
	.st54{fill:url(#SVGID_67_);}
	.st55{opacity:0.7;clip-path:url(#SVGID_68_);}
	.st56{fill:url(#SVGID_69_);}
	.st57{fill:url(#SVGID_70_);}
	.st58{fill:url(#SVGID_71_);}
	.st59{fill:url(#SVGID_72_);}
	.st60{fill:url(#SVGID_73_);}
	.st61{fill:url(#SVGID_74_);}
	.st62{fill:url(#SVGID_75_);}
	.st63{fill:url(#SVGID_76_);}
	.st64{fill:url(#SVGID_77_);}
	.st65{fill:url(#SVGID_78_);}
	.st66{fill:url(#SVGID_79_);}
	.st67{fill:url(#SVGID_80_);}
	.st68{fill:url(#SVGID_81_);}
	.st69{fill:url(#SVGID_82_);}
	.st70{fill:url(#SVGID_83_);}
	.st71{fill:url(#SVGID_84_);}
	.st72{fill:url(#SVGID_85_);}
	.st73{fill:url(#SVGID_86_);}
	.st74{fill:url(#SVGID_87_);}
	.st75{fill:url(#SVGID_88_);}
	.st76{fill:url(#SVGID_89_);}
	.st77{fill:url(#SVGID_90_);}
	.st78{fill:url(#SVGID_91_);}
	.st79{fill:url(#SVGID_92_);}
	.st80{fill:url(#SVGID_93_);}
	.st81{fill:url(#SVGID_94_);}
	.st82{fill:url(#SVGID_95_);}
	.st83{fill:url(#SVGID_96_);}
	.st84{fill:url(#SVGID_97_);}
	.st85{fill:url(#SVGID_98_);}
	.st86{fill:url(#SVGID_99_);}
	.st87{fill:url(#SVGID_100_);}
	.st88{fill:url(#SVGID_101_);}
	.st89{fill:url(#SVGID_102_);}
	.st90{opacity:0.7;clip-path:url(#SVGID_104_);}
	.st91{fill:url(#SVGID_105_);}
	.st92{fill:url(#SVGID_106_);}
	.st93{fill:url(#SVGID_107_);}
	.st94{fill:url(#SVGID_108_);}
	.st95{fill:url(#SVGID_109_);}
	.st96{fill:url(#SVGID_110_);}
	.st97{fill:url(#SVGID_111_);}
	.st98{fill:url(#SVGID_112_);}
	.st99{fill:url(#SVGID_113_);}
	.st100{fill:url(#SVGID_114_);}
	.st101{fill:url(#SVGID_115_);}
	.st102{fill:url(#SVGID_116_);}
	.st103{fill:url(#SVGID_117_);}
	.st104{fill:url(#SVGID_118_);}
	.st105{fill:url(#SVGID_119_);}
	.st106{fill:url(#SVGID_120_);}
	.st107{fill:url(#SVGID_121_);}
	.st108{fill:url(#SVGID_122_);}
	.st109{fill:url(#SVGID_123_);}
	.st110{fill:url(#SVGID_127_);}
	.st111{clip-path:url(#SVGID_129_);}
	.st112{clip-path:url(#SVGID_131_);}
	.st113{opacity:0.8;}
	.st114{fill:#ED209F;}
	.st115{fill:url(#SVGID_134_);}
	.st116{fill:url(#SVGID_135_);}
	.st117{fill:url(#SVGID_136_);}
	.st118{fill:url(#SVGID_137_);}
	.st119{fill:url(#SVGID_138_);}
	.st120{fill:url(#SVGID_139_);}
	.st121{opacity:0.4;}
	.st122{opacity:0.7;clip-path:url(#SVGID_142_);}
	.st123{fill:url(#SVGID_143_);}
	.st124{fill:url(#SVGID_144_);}
	.st125{fill:url(#SVGID_145_);}
	.st126{fill:url(#SVGID_146_);}
	.st127{fill:url(#SVGID_147_);}
	.st128{fill:url(#SVGID_148_);}
	.st129{fill:url(#SVGID_149_);}
	.st130{fill:url(#SVGID_150_);}
	.st131{fill:url(#SVGID_151_);}
	.st132{fill:url(#SVGID_152_);}
	.st133{fill:url(#SVGID_153_);}
	.st134{fill:url(#SVGID_154_);}
	.st135{fill:url(#SVGID_155_);}
	.st136{fill:url(#SVGID_156_);}
	.st137{fill:url(#SVGID_157_);}
	.st138{fill:url(#SVGID_158_);}
	.st139{fill:url(#SVGID_159_);}
	.st140{fill:url(#SVGID_160_);}
	.st141{fill:url(#SVGID_161_);}
	.st142{opacity:0.7;clip-path:url(#SVGID_162_);}
	.st143{fill:url(#SVGID_163_);}
	.st144{fill:url(#SVGID_164_);}
	.st145{fill:url(#SVGID_165_);}
	.st146{fill:url(#SVGID_166_);}
	.st147{fill:url(#SVGID_167_);}
	.st148{fill:url(#SVGID_168_);}
	.st149{fill:url(#SVGID_169_);}
	.st150{fill:url(#SVGID_170_);}
	.st151{fill:url(#SVGID_171_);}
	.st152{fill:url(#SVGID_172_);}
	.st153{fill:url(#SVGID_173_);}
	.st154{fill:url(#SVGID_174_);}
	.st155{fill:url(#SVGID_175_);}
	.st156{fill:url(#SVGID_176_);}
	.st157{fill:url(#SVGID_177_);}
	.st158{fill:url(#SVGID_178_);}
	.st159{fill:url(#SVGID_179_);}
	.st160{fill:url(#SVGID_180_);}
	.st161{fill:url(#SVGID_181_);}
	.st162{fill:url(#SVGID_188_);}
	.st163{fill:url(#SVGID_189_);}
	.st164{fill:#23045B;}
	.st165{fill:url(#SVGID_190_);}
	.st166{clip-path:url(#SVGID_192_);}
	.st167{clip-path:url(#SVGID_194_);}
	.st168{fill:url(#SVGID_197_);}
	.st169{fill:url(#SVGID_198_);}
	.st170{fill:url(#SVGID_199_);}
	.st171{opacity:0.7;clip-path:url(#SVGID_200_);}
	.st172{fill:url(#SVGID_201_);}
	.st173{fill:url(#SVGID_202_);}
	.st174{fill:url(#SVGID_203_);}
	.st175{fill:url(#SVGID_204_);}
	.st176{fill:url(#SVGID_205_);}
	.st177{fill:url(#SVGID_206_);}
	.st178{fill:url(#SVGID_207_);}
	.st179{fill:url(#SVGID_208_);}
	.st180{fill:url(#SVGID_209_);}
	.st181{fill:url(#SVGID_210_);}
	.st182{fill:url(#SVGID_211_);}
	.st183{fill:url(#SVGID_212_);}
	.st184{fill:url(#SVGID_213_);}
	.st185{fill:url(#SVGID_214_);}
	.st186{fill:url(#SVGID_215_);}
	.st187{fill:url(#SVGID_216_);}
	.st188{fill:url(#SVGID_217_);}
	.st189{fill:url(#SVGID_218_);}
	.st190{fill:url(#SVGID_219_);}
	.st191{fill:url(#SVGID_222_);}
	.st192{fill:url(#SVGID_223_);}
	.st193{fill:url(#SVGID_225_);}
	.st194{fill:url(#SVGID_226_);}
</style>
<g>
	<g>
		<g>
			<g>
				<path class="st24" d="M59.7,10.8c-0.1-0.1-0.2-0.1-0.3-0.2C53,3.8,44.1,0,34.8,0S16.5,3.9,10.2,10.7c-0.1,0-0.2,0.1-0.2,0.2
					c-0.1,0.1-0.1,0.2-0.1,0.2C-2.1,24-2.1,43.9,9.8,56.8l0,0c0,0.1,0.1,0.2,0.1,0.2c0.1,0.1,0.2,0.1,0.3,0.2
					c6.4,6.8,15.3,10.6,24.6,10.6S53,64,59.4,57.2c0.1-0.1,0.2-0.1,0.3-0.2c0.1-0.1,0.1-0.2,0.1-0.2c11.9-12.9,11.9-32.8,0-45.7
					C59.8,11,59.7,10.9,59.7,10.8z M25.5,4.8C22.9,8,21,11.6,19.8,15.5v0c-2.1-1-4.1-2.2-6-3.7C17.1,8.7,21.1,6.3,25.5,4.8z
					 M11.4,14.3c2.3,1.8,4.7,3.3,7.4,4.5c-1.1,4.4-1.7,8.9-1.8,13.4H4.3C4.7,25.7,7.2,19.4,11.4,14.3z M4.3,35.6H17
					c0.1,4.5,0.7,9,1.8,13.4c-2.6,1.2-5.1,2.7-7.4,4.5C7.2,48.5,4.7,42.2,4.3,35.6z M13.8,56c1.9-1.5,3.9-2.7,6-3.7
					c1.2,3.9,3.2,7.5,5.8,10.7C21.1,61.6,17.1,59.2,13.8,56z M33.1,64.3c-4.2-1.1-7.8-6.1-10.2-13.2c3.3-1.1,6.7-1.8,10.2-1.9V64.3z
					 M33.1,45.8c-3.8,0.1-7.5,0.8-11.1,2c-1-4-1.5-8.1-1.6-12.1h12.7V45.8z M33.1,32.2H20.4c0.1-4.1,0.6-8.2,1.6-12.1
					c3.6,1.2,7.3,1.9,11.1,2V32.2z M33.1,18.7c-3.5-0.2-6.9-0.8-10.2-1.9c2.3-7.1,6-12.1,10.2-13.2V18.7z M55.8,11.9
					c-1.9,1.4-3.9,2.7-6,3.7v0c-1.2-3.9-3.2-7.5-5.8-10.7C48.5,6.3,52.5,8.7,55.8,11.9z M36.5,3.6c4.2,1.1,7.8,6.1,10.2,13.2
					c-3.3,1.1-6.7,1.8-10.2,1.9L36.5,3.6L36.5,3.6z M36.5,22.1c3.8-0.1,7.5-0.8,11.1-2c1,4,1.5,8.1,1.6,12.1H36.5V22.1z M36.5,35.6
					h12.7c-0.1,4.1-0.6,8.2-1.6,12.1c-3.6-1.2-7.3-1.9-11.1-2V35.6z M36.5,64.3V49.1c3.5,0.2,6.9,0.8,10.2,1.9
					C44.3,58.2,40.7,63.2,36.5,64.3z M44.1,63.1c2.6-3.2,4.6-6.8,5.8-10.7v0c2.1,1,4.1,2.2,6,3.7C52.5,59.2,48.5,61.6,44.1,63.1z
					 M58.2,53.6c-2.3-1.8-4.7-3.3-7.4-4.5c1.1-4.4,1.7-8.9,1.8-13.4h12.7C64.9,42.2,62.4,48.5,58.2,53.6z M52.6,32.2
					c-0.1-4.5-0.7-9-1.8-13.4c2.6-1.2,5.1-2.7,7.4-4.5c4.2,5,6.7,11.3,7.1,17.9L52.6,32.2L52.6,32.2z"/>
			</g>
		</g>
	</g>
</g>
</svg>
