<?xml version="1.0" encoding="utf-8"?>
<!-- Generator: Adobe Illustrator 23.0.0, SVG Export Plug-In . SVG Version: 6.00 Build 0)  -->
<svg version="1.1" id="Layer_1" xmlns="http://www.w3.org/2000/svg" xmlns:xlink="http://www.w3.org/1999/xlink" x="0px" y="0px"
	 viewBox="0 0 80 80" style="enable-background:new 0 0 80 80;" xml:space="preserve">
<style type="text/css">
	.st0{fill:#0C0150;}
	.st1{opacity:0.7;clip-path:url(#SVGID_15_);}
	.st2{fill:url(#SVGID_16_);}
	.st3{fill:url(#SVGID_17_);}
	.st4{fill:url(#SVGID_18_);}
	.st5{fill:url(#SVGID_19_);}
	.st6{fill:url(#SVGID_20_);}
	.st7{fill:url(#SVGID_21_);}
	.st8{fill:url(#SVGID_22_);}
	.st9{fill:url(#SVGID_23_);}
	.st10{fill:url(#SVGID_24_);}
	.st11{fill:url(#SVGID_25_);}
	.st12{fill:url(#SVGID_26_);}
	.st13{fill:url(#SVGID_27_);}
	.st14{fill:url(#SVGID_28_);}
	.st15{fill:url(#SVGID_29_);}
	.st16{fill:url(#SVGID_30_);}
	.st17{fill:url(#SVGID_31_);}
	.st18{fill:url(#SVGID_32_);}
	.st19{fill:url(#SVGID_33_);}
	.st20{fill:url(#SVGID_34_);}
	.st21{fill-rule:evenodd;clip-rule:evenodd;fill:#FFFFFF;}
	.st22{fill-rule:evenodd;clip-rule:evenodd;fill:#ED209F;}
	.st23{opacity:0.6;}
	.st24{fill:#FFFFFF;}
	.st25{fill:#0C0128;}
	.st26{fill:#030C30;}
	.st27{opacity:0.7;clip-path:url(#SVGID_35_);}
	.st28{fill:url(#SVGID_36_);}
	.st29{fill:url(#SVGID_37_);}
	.st30{fill:url(#SVGID_38_);}
	.st31{fill:url(#SVGID_39_);}
	.st32{fill:url(#SVGID_40_);}
	.st33{fill:url(#SVGID_41_);}
	.st34{fill:url(#SVGID_42_);}
	.st35{fill:url(#SVGID_43_);}
	.st36{fill:url(#SVGID_44_);}
	.st37{fill:url(#SVGID_45_);}
	.st38{fill:url(#SVGID_46_);}
	.st39{fill:url(#SVGID_47_);}
	.st40{fill:url(#SVGID_48_);}
	.st41{fill:url(#SVGID_49_);}
	.st42{fill:url(#SVGID_50_);}
	.st43{fill:url(#SVGID_51_);}
	.st44{fill:url(#SVGID_52_);}
	.st45{fill:url(#SVGID_53_);}
	.st46{fill:url(#SVGID_54_);}
	.st47{fill:url(#SVGID_59_);}
	.st48{clip-path:url(#SVGID_61_);}
	.st49{fill:none;stroke:#1EA8C4;stroke-width:2;stroke-linecap:round;stroke-linejoin:round;stroke-miterlimit:10;}
	.st50{fill:#1A1787;}
	.st51{fill:url(#SVGID_62_);}
	.st52{fill:url(#SVGID_63_);}
	.st53{opacity:0.7;clip-path:url(#SVGID_64_);}
	.st54{fill:url(#SVGID_65_);}
	.st55{fill:url(#SVGID_66_);}
	.st56{fill:url(#SVGID_67_);}
	.st57{fill:url(#SVGID_68_);}
	.st58{fill:url(#SVGID_69_);}
	.st59{fill:url(#SVGID_70_);}
	.st60{fill:url(#SVGID_71_);}
	.st61{fill:url(#SVGID_72_);}
	.st62{fill:url(#SVGID_73_);}
	.st63{fill:url(#SVGID_74_);}
	.st64{fill:url(#SVGID_75_);}
	.st65{fill:url(#SVGID_76_);}
	.st66{fill:url(#SVGID_77_);}
	.st67{fill:url(#SVGID_78_);}
	.st68{fill:url(#SVGID_79_);}
	.st69{fill:url(#SVGID_80_);}
	.st70{fill:url(#SVGID_81_);}
	.st71{fill:url(#SVGID_82_);}
	.st72{fill:url(#SVGID_83_);}
	.st73{fill:url(#SVGID_84_);}
	.st74{fill:url(#SVGID_85_);}
	.st75{fill:url(#SVGID_86_);}
	.st76{fill:url(#SVGID_87_);}
	.st77{fill:url(#SVGID_88_);}
	.st78{fill:url(#SVGID_89_);}
	.st79{fill:url(#SVGID_90_);}
	.st80{fill:url(#SVGID_91_);}
	.st81{fill:url(#SVGID_92_);}
	.st82{fill:url(#SVGID_93_);}
	.st83{fill:url(#SVGID_94_);}
	.st84{fill:url(#SVGID_95_);}
	.st85{fill:url(#SVGID_96_);}
	.st86{fill:url(#SVGID_97_);}
	.st87{fill:url(#SVGID_98_);}
	.st88{opacity:0.7;clip-path:url(#SVGID_100_);}
	.st89{fill:url(#SVGID_101_);}
	.st90{fill:url(#SVGID_102_);}
	.st91{fill:url(#SVGID_103_);}
	.st92{fill:url(#SVGID_104_);}
	.st93{fill:url(#SVGID_105_);}
	.st94{fill:url(#SVGID_106_);}
	.st95{fill:url(#SVGID_107_);}
	.st96{fill:url(#SVGID_108_);}
	.st97{fill:url(#SVGID_109_);}
	.st98{fill:url(#SVGID_110_);}
	.st99{fill:url(#SVGID_111_);}
	.st100{fill:url(#SVGID_112_);}
	.st101{fill:url(#SVGID_113_);}
	.st102{fill:url(#SVGID_114_);}
	.st103{fill:url(#SVGID_115_);}
	.st104{fill:url(#SVGID_116_);}
	.st105{fill:url(#SVGID_117_);}
	.st106{fill:url(#SVGID_118_);}
	.st107{fill:url(#SVGID_119_);}
	.st108{fill:url(#SVGID_123_);}
	.st109{clip-path:url(#SVGID_124_);}
	.st110{opacity:0.8;}
	.st111{fill:#ED209F;}
	.st112{fill:url(#SVGID_125_);}
	.st113{fill:url(#SVGID_126_);}
	.st114{fill:url(#SVGID_127_);}
	.st115{fill:url(#SVGID_129_);}
	.st116{fill:url(#SVGID_130_);}
	.st117{fill:url(#SVGID_131_);}
	.st118{opacity:0.4;}
	.st119{opacity:0.7;clip-path:url(#SVGID_134_);}
	.st120{fill:url(#SVGID_135_);}
	.st121{fill:url(#SVGID_136_);}
	.st122{fill:url(#SVGID_137_);}
	.st123{fill:url(#SVGID_138_);}
	.st124{fill:url(#SVGID_139_);}
	.st125{fill:url(#SVGID_140_);}
	.st126{fill:url(#SVGID_141_);}
	.st127{fill:url(#SVGID_142_);}
	.st128{fill:url(#SVGID_143_);}
	.st129{fill:url(#SVGID_144_);}
	.st130{fill:url(#SVGID_145_);}
	.st131{fill:url(#SVGID_146_);}
	.st132{fill:url(#SVGID_147_);}
	.st133{fill:url(#SVGID_148_);}
	.st134{fill:url(#SVGID_149_);}
	.st135{fill:url(#SVGID_150_);}
	.st136{fill:url(#SVGID_151_);}
	.st137{fill:url(#SVGID_152_);}
	.st138{fill:url(#SVGID_153_);}
	.st139{opacity:0.7;clip-path:url(#SVGID_154_);}
	.st140{fill:url(#SVGID_155_);}
	.st141{fill:url(#SVGID_156_);}
	.st142{fill:url(#SVGID_157_);}
	.st143{fill:url(#SVGID_158_);}
	.st144{fill:url(#SVGID_159_);}
	.st145{fill:url(#SVGID_160_);}
	.st146{fill:url(#SVGID_161_);}
	.st147{fill:url(#SVGID_162_);}
	.st148{fill:url(#SVGID_163_);}
	.st149{fill:url(#SVGID_164_);}
	.st150{fill:url(#SVGID_165_);}
	.st151{fill:url(#SVGID_166_);}
	.st152{fill:url(#SVGID_167_);}
	.st153{fill:url(#SVGID_168_);}
	.st154{fill:url(#SVGID_169_);}
	.st155{fill:url(#SVGID_170_);}
	.st156{fill:url(#SVGID_171_);}
	.st157{fill:url(#SVGID_172_);}
	.st158{fill:url(#SVGID_173_);}
	.st159{fill:url(#SVGID_180_);}
	.st160{fill:url(#SVGID_181_);}
	.st161{fill:#23045B;}
	.st162{fill:url(#SVGID_182_);}
	.st163{clip-path:url(#SVGID_183_);}
	.st164{fill:url(#SVGID_184_);}
	.st165{fill:url(#SVGID_185_);}
	.st166{fill:url(#SVGID_186_);}
	.st167{opacity:0.7;clip-path:url(#SVGID_187_);}
	.st168{fill:url(#SVGID_188_);}
	.st169{fill:url(#SVGID_189_);}
	.st170{fill:url(#SVGID_190_);}
	.st171{fill:url(#SVGID_192_);}
	.st172{fill:url(#SVGID_193_);}
	.st173{fill:url(#SVGID_194_);}
	.st174{fill:url(#SVGID_195_);}
	.st175{fill:url(#SVGID_196_);}
	.st176{fill:url(#SVGID_197_);}
	.st177{fill:url(#SVGID_198_);}
	.st178{fill:url(#SVGID_199_);}
	.st179{fill:url(#SVGID_200_);}
	.st180{fill:url(#SVGID_201_);}
	.st181{fill:url(#SVGID_202_);}
	.st182{fill:url(#SVGID_203_);}
	.st183{fill:url(#SVGID_204_);}
	.st184{fill:url(#SVGID_205_);}
	.st185{fill:url(#SVGID_206_);}
	.st186{fill:url(#SVGID_207_);}
	.st187{fill:url(#SVGID_210_);}
	.st188{fill:url(#SVGID_211_);}
	.st189{fill:url(#SVGID_213_);}
	.st190{fill:url(#SVGID_214_);}
</style>
<path class="st24" d="M3,61.9c0,4.8,2,9.2,5.1,12.4v0h0c3.2,3.2,7.5,5.1,12.4,5.1h42c4.8,0,9.2-2,12.4-5.1h0.5v-0.5
	c2.9-3.1,4.6-7.3,4.6-11.8v-42c0-4.6-1.8-8.7-4.6-11.8V7.5h-0.5c-3.2-3.2-7.5-5.1-12.4-5.1h-42c-4.8,0-9.2,2-12.4,5.1h0v0
	C5,10.7,3,15,3,19.9V61.9z M4.9,61.9V41.8h3.2v29.6C6.1,68.7,4.9,65.5,4.9,61.9z M40.6,53.8c-2.8-0.2-5.4-1.3-7.4-3l7.4-7.4V53.8z
	 M42.4,42.9l7.7,7.6c-2.1,1.9-4.7,3.1-7.7,3.3V42.9z M44,41.8h10.4c-0.2,2.8-1.3,5.3-3,7.4L44,41.8z M44,39.9l7.4-7.4
	c1.7,2,2.8,4.6,3,7.4H44z M42.4,38.9V28c2.9,0.2,5.6,1.4,7.7,3.3L42.4,38.9z M40.6,38.4L33.1,31c2-1.7,4.6-2.8,7.4-3V38.4z
	 M39.5,39.9H28.6c0.2-2.9,1.4-5.6,3.2-7.6L39.5,39.9z M39.5,41.8l-7.7,7.6c-1.8-2.1-3-4.7-3.2-7.6H39.5z M31.8,52.1
	c2.4,2.1,5.4,3.4,8.8,3.6v10.5c-6.3-0.2-11.9-2.7-16.2-6.7L31.8,52.1z M42.4,55.7c3.5-0.2,6.6-1.6,9-3.8l7.5,7.4
	c-4.3,4.1-10.1,6.7-16.5,6.9V55.7z M52.8,50.5c2-2.4,3.3-5.4,3.5-8.7h10.5c-0.2,6.2-2.7,11.8-6.6,16.1L52.8,50.5z M56.3,39.9
	c-0.2-3.3-1.5-6.3-3.5-8.7l7.5-7.4c3.9,4.3,6.4,9.9,6.6,16.1H56.3z M51.5,29.9c-2.4-2.2-5.6-3.6-9-3.8V15.5
	c6.4,0.2,12.2,2.8,16.5,6.9L51.5,29.9z M40.6,26.1c-3.3,0.2-6.4,1.5-8.8,3.6l-7.5-7.4c4.3-4,10-6.5,16.2-6.7V26.1z M30.5,31
	c-2.2,2.4-3.5,5.5-3.8,8.9H16.2c0.2-6.3,2.8-12,6.8-16.4L30.5,31z M26.7,41.8c0.2,3.4,1.6,6.5,3.8,8.9L23,58.2
	c-4-4.3-6.6-10-6.8-16.4H26.7z M23,60.8c4.6,4.3,10.8,7,17.6,7.3v4.3H11.3L23,60.8z M42.4,68.1c6.9-0.2,13.1-3,17.8-7.5l11.9,11.8
	H42.4V68.1z M61.6,59.2c4.2-4.6,6.9-10.7,7.1-17.4h4.8v29.2L61.6,59.2z M68.7,39.9c-0.2-6.7-2.9-12.8-7.1-17.4l11.9-11.8v29.2H68.7z
	 M60.3,21.2c-4.7-4.5-10.9-7.3-17.8-7.5V9.4h29.7L60.3,21.2z M40.6,13.7c-6.8,0.2-12.9,2.9-17.6,7.3L11.3,9.4h29.2V13.7z M21.7,22.3
	c-4.4,4.7-7.1,10.9-7.4,17.7H10V10.7L21.7,22.3z M14.3,41.8c0.2,6.8,3,13,7.4,17.7L10,71.1V41.8H14.3z M11,74.3h29.6v3.2H20.5
	C16.9,77.5,13.6,76.3,11,74.3z M62.5,77.5H42.4v-3.2H72C69.4,76.3,66.1,77.5,62.5,77.5z M75.4,70.7V41.8h2.8v20.1
	C78.1,65.2,77.1,68.2,75.4,70.7z M78.1,19.9v20.1h-2.8V11C77.1,13.5,78.1,16.6,78.1,19.9z M72,7.5H42.4V4.3h20.1
	C66.1,4.3,69.4,5.5,72,7.5z M20.5,4.3h20.1v3.2H11C13.6,5.5,16.9,4.3,20.5,4.3z M8.1,10.4v29.6H4.9V19.9C4.9,16.3,6.1,13,8.1,10.4z"
	/>
</svg>
