<?xml version="1.0" encoding="utf-8"?>
<!-- Generator: Adobe Illustrator 23.0.0, SVG Export Plug-In . SVG Version: 6.00 Build 0)  -->
<svg version="1.1" id="Layer_1" xmlns="http://www.w3.org/2000/svg" xmlns:xlink="http://www.w3.org/1999/xlink" x="0px" y="0px"
	 viewBox="0 0 80 80" style="enable-background:new 0 0 80 80;" xml:space="preserve">
<style type="text/css">
	.st0{fill:#0C0150;}
	.st1{opacity:0.7;clip-path:url(#SVGID_15_);}
	.st2{fill:url(#SVGID_16_);}
	.st3{fill:url(#SVGID_17_);}
	.st4{fill:url(#SVGID_18_);}
	.st5{fill:url(#SVGID_19_);}
	.st6{fill:url(#SVGID_20_);}
	.st7{fill:url(#SVGID_21_);}
	.st8{fill:url(#SVGID_22_);}
	.st9{fill:url(#SVGID_23_);}
	.st10{fill:url(#SVGID_24_);}
	.st11{fill:url(#SVGID_25_);}
	.st12{fill:url(#SVGID_26_);}
	.st13{fill:url(#SVGID_27_);}
	.st14{fill:url(#SVGID_28_);}
	.st15{fill:url(#SVGID_29_);}
	.st16{fill:url(#SVGID_30_);}
	.st17{fill:url(#SVGID_31_);}
	.st18{fill:url(#SVGID_32_);}
	.st19{fill:url(#SVGID_33_);}
	.st20{fill:url(#SVGID_34_);}
	.st21{fill-rule:evenodd;clip-rule:evenodd;fill:#FFFFFF;}
	.st22{fill-rule:evenodd;clip-rule:evenodd;fill:#ED209F;}
	.st23{opacity:0.6;}
	.st24{fill:#FFFFFF;}
	.st25{fill:#0C0128;}
	.st26{fill:#030C30;}
	.st27{opacity:0.7;clip-path:url(#SVGID_35_);}
	.st28{fill:url(#SVGID_36_);}
	.st29{fill:url(#SVGID_37_);}
	.st30{fill:url(#SVGID_38_);}
	.st31{fill:url(#SVGID_39_);}
	.st32{fill:url(#SVGID_40_);}
	.st33{fill:url(#SVGID_41_);}
	.st34{fill:url(#SVGID_42_);}
	.st35{fill:url(#SVGID_43_);}
	.st36{fill:url(#SVGID_44_);}
	.st37{fill:url(#SVGID_45_);}
	.st38{fill:url(#SVGID_46_);}
	.st39{fill:url(#SVGID_47_);}
	.st40{fill:url(#SVGID_48_);}
	.st41{fill:url(#SVGID_49_);}
	.st42{fill:url(#SVGID_50_);}
	.st43{fill:url(#SVGID_51_);}
	.st44{fill:url(#SVGID_52_);}
	.st45{fill:url(#SVGID_53_);}
	.st46{fill:url(#SVGID_54_);}
	.st47{fill:url(#SVGID_59_);}
	.st48{clip-path:url(#SVGID_61_);}
	.st49{fill:none;stroke:#1EA8C4;stroke-width:2;stroke-linecap:round;stroke-linejoin:round;stroke-miterlimit:10;}
	.st50{fill:#1A1787;}
	.st51{fill:url(#SVGID_62_);}
	.st52{fill:url(#SVGID_63_);}
	.st53{opacity:0.7;clip-path:url(#SVGID_64_);}
	.st54{fill:url(#SVGID_65_);}
	.st55{fill:url(#SVGID_66_);}
	.st56{fill:url(#SVGID_67_);}
	.st57{fill:url(#SVGID_68_);}
	.st58{fill:url(#SVGID_69_);}
	.st59{fill:url(#SVGID_70_);}
	.st60{fill:url(#SVGID_71_);}
	.st61{fill:url(#SVGID_72_);}
	.st62{fill:url(#SVGID_73_);}
	.st63{fill:url(#SVGID_74_);}
	.st64{fill:url(#SVGID_75_);}
	.st65{fill:url(#SVGID_76_);}
	.st66{fill:url(#SVGID_77_);}
	.st67{fill:url(#SVGID_78_);}
	.st68{fill:url(#SVGID_79_);}
	.st69{fill:url(#SVGID_80_);}
	.st70{fill:url(#SVGID_81_);}
	.st71{fill:url(#SVGID_82_);}
	.st72{fill:url(#SVGID_83_);}
	.st73{fill:url(#SVGID_84_);}
	.st74{fill:url(#SVGID_85_);}
	.st75{fill:url(#SVGID_86_);}
	.st76{fill:url(#SVGID_87_);}
	.st77{fill:url(#SVGID_88_);}
	.st78{fill:url(#SVGID_89_);}
	.st79{fill:url(#SVGID_90_);}
	.st80{fill:url(#SVGID_91_);}
	.st81{fill:url(#SVGID_92_);}
	.st82{fill:url(#SVGID_93_);}
	.st83{fill:url(#SVGID_94_);}
	.st84{fill:url(#SVGID_95_);}
	.st85{fill:url(#SVGID_96_);}
	.st86{fill:url(#SVGID_97_);}
	.st87{fill:url(#SVGID_98_);}
	.st88{opacity:0.7;clip-path:url(#SVGID_100_);}
	.st89{fill:url(#SVGID_101_);}
	.st90{fill:url(#SVGID_102_);}
	.st91{fill:url(#SVGID_103_);}
	.st92{fill:url(#SVGID_104_);}
	.st93{fill:url(#SVGID_105_);}
	.st94{fill:url(#SVGID_106_);}
	.st95{fill:url(#SVGID_107_);}
	.st96{fill:url(#SVGID_108_);}
	.st97{fill:url(#SVGID_109_);}
	.st98{fill:url(#SVGID_110_);}
	.st99{fill:url(#SVGID_111_);}
	.st100{fill:url(#SVGID_112_);}
	.st101{fill:url(#SVGID_113_);}
	.st102{fill:url(#SVGID_114_);}
	.st103{fill:url(#SVGID_115_);}
	.st104{fill:url(#SVGID_116_);}
	.st105{fill:url(#SVGID_117_);}
	.st106{fill:url(#SVGID_118_);}
	.st107{fill:url(#SVGID_119_);}
	.st108{fill:url(#SVGID_123_);}
	.st109{clip-path:url(#SVGID_124_);}
	.st110{opacity:0.8;}
	.st111{fill:#ED209F;}
	.st112{fill:url(#SVGID_125_);}
	.st113{fill:url(#SVGID_126_);}
	.st114{fill:url(#SVGID_127_);}
	.st115{fill:url(#SVGID_129_);}
	.st116{fill:url(#SVGID_130_);}
	.st117{fill:url(#SVGID_131_);}
	.st118{opacity:0.4;}
	.st119{opacity:0.7;clip-path:url(#SVGID_134_);}
	.st120{fill:url(#SVGID_135_);}
	.st121{fill:url(#SVGID_136_);}
	.st122{fill:url(#SVGID_137_);}
	.st123{fill:url(#SVGID_138_);}
	.st124{fill:url(#SVGID_139_);}
	.st125{fill:url(#SVGID_140_);}
	.st126{fill:url(#SVGID_141_);}
	.st127{fill:url(#SVGID_142_);}
	.st128{fill:url(#SVGID_143_);}
	.st129{fill:url(#SVGID_144_);}
	.st130{fill:url(#SVGID_145_);}
	.st131{fill:url(#SVGID_146_);}
	.st132{fill:url(#SVGID_147_);}
	.st133{fill:url(#SVGID_148_);}
	.st134{fill:url(#SVGID_149_);}
	.st135{fill:url(#SVGID_150_);}
	.st136{fill:url(#SVGID_151_);}
	.st137{fill:url(#SVGID_152_);}
	.st138{fill:url(#SVGID_153_);}
	.st139{opacity:0.7;clip-path:url(#SVGID_154_);}
	.st140{fill:url(#SVGID_155_);}
	.st141{fill:url(#SVGID_156_);}
	.st142{fill:url(#SVGID_157_);}
	.st143{fill:url(#SVGID_158_);}
	.st144{fill:url(#SVGID_159_);}
	.st145{fill:url(#SVGID_160_);}
	.st146{fill:url(#SVGID_161_);}
	.st147{fill:url(#SVGID_162_);}
	.st148{fill:url(#SVGID_163_);}
	.st149{fill:url(#SVGID_164_);}
	.st150{fill:url(#SVGID_165_);}
	.st151{fill:url(#SVGID_166_);}
	.st152{fill:url(#SVGID_167_);}
	.st153{fill:url(#SVGID_168_);}
	.st154{fill:url(#SVGID_169_);}
	.st155{fill:url(#SVGID_170_);}
	.st156{fill:url(#SVGID_171_);}
	.st157{fill:url(#SVGID_172_);}
	.st158{fill:url(#SVGID_173_);}
	.st159{fill:url(#SVGID_180_);}
	.st160{fill:url(#SVGID_181_);}
	.st161{fill:#23045B;}
	.st162{fill:url(#SVGID_182_);}
	.st163{clip-path:url(#SVGID_183_);}
	.st164{fill:url(#SVGID_184_);}
	.st165{fill:url(#SVGID_185_);}
	.st166{fill:url(#SVGID_186_);}
	.st167{opacity:0.7;clip-path:url(#SVGID_187_);}
	.st168{fill:url(#SVGID_188_);}
	.st169{fill:url(#SVGID_189_);}
	.st170{fill:url(#SVGID_190_);}
	.st171{fill:url(#SVGID_192_);}
	.st172{fill:url(#SVGID_193_);}
	.st173{fill:url(#SVGID_194_);}
	.st174{fill:url(#SVGID_195_);}
	.st175{fill:url(#SVGID_196_);}
	.st176{fill:url(#SVGID_197_);}
	.st177{fill:url(#SVGID_198_);}
	.st178{fill:url(#SVGID_199_);}
	.st179{fill:url(#SVGID_200_);}
	.st180{fill:url(#SVGID_201_);}
	.st181{fill:url(#SVGID_202_);}
	.st182{fill:url(#SVGID_203_);}
	.st183{fill:url(#SVGID_204_);}
	.st184{fill:url(#SVGID_205_);}
	.st185{fill:url(#SVGID_206_);}
	.st186{fill:url(#SVGID_207_);}
	.st187{fill:url(#SVGID_210_);}
	.st188{fill:url(#SVGID_211_);}
	.st189{fill:url(#SVGID_213_);}
	.st190{fill:url(#SVGID_214_);}
</style>
<g id="Out_line_1_">
	<g>
		<path class="st24" d="M77.4,50.1h-1.3V1.5c0-0.7-0.6-1.3-1.3-1.3H30.1c-0.7,0-1.3,0.6-1.3,1.3v9.2h-5.3c-0.7,0-1.3,0.6-1.3,1.3
			v14.5H6.5c-0.7,0-1.3,0.6-1.3,1.3v6.6c-0.7,0-1.3,0.6-1.3,1.3v6.6H1.2c-0.7,0-1.3,0.6-1.3,1.3V54h2.6v-9.2h1.3v26.3
			c0,0.3,0.1,0.5,0.2,0.7l2.6,3.9c0.4,0.6,1.2,0.8,1.8,0.4c0.1-0.1,0.3-0.2,0.4-0.4l2.6-3.9c0.1-0.2,0.2-0.5,0.2-0.7v-7.9h10.5v9.2
			c0,0.7,0.6,1.3,1.3,1.3h13.1v3.9c0,0.7,0.6,1.3,1.3,1.3h39.4c0.7,0,1.3-0.6,1.3-1.3V51.4C78.7,50.7,78.1,50.1,77.4,50.1z
			 M74.8,52.7L63,68.5c-2.2,2.9-6.3,3.5-9.2,1.3c-0.5-0.4-0.9-0.8-1.3-1.3L40.6,52.7H74.8z M31.4,2.8h42.1v47.3h-3.9V12
			c0-0.7-0.6-1.3-1.3-1.3H31.4V2.8z M7.8,29h19.7v11.8H11.7v-5.3c0-0.7-0.6-1.3-1.3-1.3H7.8V29z M11.7,46.1v-2.6h10.5v2.6H11.7z
			 M6.5,36.9h2.6v5.3H6.5V36.9z M7.8,72.7l-1.3-2V44.8h2.6v25.9L7.8,72.7z M11.7,48.8h15.8v11.8H11.7V48.8z M24.9,71.1v-7.9h3.9
			c0.7,0,1.3-0.6,1.3-1.3V47.4c0-0.7-0.6-1.3-1.3-1.3h-3.9v-2.6h3.9c0.7,0,1.3-0.6,1.3-1.3V27.7c0-0.7-0.6-1.3-1.3-1.3h-3.9V13.3
			h42.1v36.8H38c-0.7,0-1.3,0.6-1.3,1.3v19.7H24.9z M39.3,76.4v-21l11,14.7c3,4.1,8.8,4.9,12.9,1.8c0.7-0.5,1.3-1.1,1.8-1.8l11-14.7
			v21H39.3z"/>
		<path class="st24" d="M45.9,48.8c4.9,0,9.3-2.7,11.6-7c0,0,0.1,0,0.1-0.1l2-1c0.4-0.2,0.7-0.7,0.7-1.2v-7.9c0-0.7-0.6-1.3-1.3-1.3
			c-0.2,0-0.4,0-0.6,0.1l-0.4,0.2c-2.7-6.7-10.4-10-17.1-7.2c-2.9,1.2-5.2,3.3-6.7,6c0,0-0.1,0-0.1,0.1l-2,1
			c-0.4,0.2-0.7,0.7-0.7,1.2v7.9c0,0.7,0.6,1.3,1.3,1.3c0.2,0,0.4,0,0.6-0.1l0.4-0.2C35.7,45.5,40.5,48.8,45.9,48.8z M45.9,46.1
			c-4.3,0-8.2-2.7-9.8-6.7c3-1.2,6.4-0.7,9,1.2c2.1,1.6,4.6,2.4,7.2,2.4c0.4,0,0.8,0,1.2-0.1C51.4,45,48.7,46.1,45.9,46.1z
			 M45.9,25.1c4.3,0,8.2,2.7,9.8,6.7c-3,1.2-6.4,0.7-9-1.2c-2.4-1.8-5.4-2.6-8.3-2.3C40.3,26.2,43,25.1,45.9,25.1z M34.1,32.5
			l1.3-0.6c3.2-1.6,6.9-1.2,9.8,0.9c3.6,2.7,8.5,3.2,12.5,1.1l0.1-0.1v4.9l-1.3,0.6c-3.2,1.6-6.9,1.2-9.8-0.9
			c-3.6-2.7-8.5-3.2-12.5-1.1l-0.1,0.1V32.5z"/>
	</g>
</g>
</svg>
