<?xml version="1.0" encoding="utf-8"?>
<!-- Generator: Adobe Illustrator 23.0.0, SVG Export Plug-In . SVG Version: 6.00 Build 0)  -->
<svg version="1.1" id="Layer_1" xmlns="http://www.w3.org/2000/svg" xmlns:xlink="http://www.w3.org/1999/xlink" x="0px" y="0px"
	 viewBox="0 0 80 80" style="enable-background:new 0 0 80 80;" xml:space="preserve">
<style type="text/css">
	.st0{fill:#0C0150;}
	.st1{opacity:0.7;clip-path:url(#SVGID_15_);}
	.st2{fill:url(#SVGID_16_);}
	.st3{fill:url(#SVGID_17_);}
	.st4{fill:url(#SVGID_18_);}
	.st5{fill:url(#SVGID_19_);}
	.st6{fill:url(#SVGID_20_);}
	.st7{fill:url(#SVGID_21_);}
	.st8{fill:url(#SVGID_22_);}
	.st9{fill:url(#SVGID_23_);}
	.st10{fill:url(#SVGID_24_);}
	.st11{fill:url(#SVGID_25_);}
	.st12{fill:url(#SVGID_26_);}
	.st13{fill:url(#SVGID_27_);}
	.st14{fill:url(#SVGID_28_);}
	.st15{fill:url(#SVGID_29_);}
	.st16{fill:url(#SVGID_30_);}
	.st17{fill:url(#SVGID_31_);}
	.st18{fill:url(#SVGID_32_);}
	.st19{fill:url(#SVGID_33_);}
	.st20{fill:url(#SVGID_34_);}
	.st21{fill-rule:evenodd;clip-rule:evenodd;fill:#FFFFFF;}
	.st22{fill-rule:evenodd;clip-rule:evenodd;fill:#ED209F;}
	.st23{opacity:0.6;}
	.st24{fill:#FFFFFF;}
	.st25{fill:#0C0128;}
	.st26{fill:#030C30;}
	.st27{opacity:0.7;clip-path:url(#SVGID_35_);}
	.st28{fill:url(#SVGID_36_);}
	.st29{fill:url(#SVGID_37_);}
	.st30{fill:url(#SVGID_38_);}
	.st31{fill:url(#SVGID_39_);}
	.st32{fill:url(#SVGID_40_);}
	.st33{fill:url(#SVGID_41_);}
	.st34{fill:url(#SVGID_42_);}
	.st35{fill:url(#SVGID_43_);}
	.st36{fill:url(#SVGID_44_);}
	.st37{fill:url(#SVGID_45_);}
	.st38{fill:url(#SVGID_46_);}
	.st39{fill:url(#SVGID_47_);}
	.st40{fill:url(#SVGID_48_);}
	.st41{fill:url(#SVGID_49_);}
	.st42{fill:url(#SVGID_50_);}
	.st43{fill:url(#SVGID_51_);}
	.st44{fill:url(#SVGID_52_);}
	.st45{fill:url(#SVGID_53_);}
	.st46{fill:url(#SVGID_54_);}
	.st47{fill:url(#SVGID_59_);}
	.st48{clip-path:url(#SVGID_61_);}
	.st49{fill:none;stroke:#1EA8C4;stroke-width:2;stroke-linecap:round;stroke-linejoin:round;stroke-miterlimit:10;}
	.st50{fill:#1A1787;}
	.st51{fill:url(#SVGID_62_);}
	.st52{fill:url(#SVGID_63_);}
	.st53{opacity:0.7;clip-path:url(#SVGID_64_);}
	.st54{fill:url(#SVGID_65_);}
	.st55{fill:url(#SVGID_66_);}
	.st56{fill:url(#SVGID_67_);}
	.st57{fill:url(#SVGID_68_);}
	.st58{fill:url(#SVGID_69_);}
	.st59{fill:url(#SVGID_70_);}
	.st60{fill:url(#SVGID_71_);}
	.st61{fill:url(#SVGID_72_);}
	.st62{fill:url(#SVGID_73_);}
	.st63{fill:url(#SVGID_74_);}
	.st64{fill:url(#SVGID_75_);}
	.st65{fill:url(#SVGID_76_);}
	.st66{fill:url(#SVGID_77_);}
	.st67{fill:url(#SVGID_78_);}
	.st68{fill:url(#SVGID_79_);}
	.st69{fill:url(#SVGID_80_);}
	.st70{fill:url(#SVGID_81_);}
	.st71{fill:url(#SVGID_82_);}
	.st72{fill:url(#SVGID_83_);}
	.st73{fill:url(#SVGID_84_);}
	.st74{fill:url(#SVGID_85_);}
	.st75{fill:url(#SVGID_86_);}
	.st76{fill:url(#SVGID_87_);}
	.st77{fill:url(#SVGID_88_);}
	.st78{fill:url(#SVGID_89_);}
	.st79{fill:url(#SVGID_90_);}
	.st80{fill:url(#SVGID_91_);}
	.st81{fill:url(#SVGID_92_);}
	.st82{fill:url(#SVGID_93_);}
	.st83{fill:url(#SVGID_94_);}
	.st84{fill:url(#SVGID_95_);}
	.st85{fill:url(#SVGID_96_);}
	.st86{fill:url(#SVGID_97_);}
	.st87{fill:url(#SVGID_98_);}
	.st88{opacity:0.7;clip-path:url(#SVGID_100_);}
	.st89{fill:url(#SVGID_101_);}
	.st90{fill:url(#SVGID_102_);}
	.st91{fill:url(#SVGID_103_);}
	.st92{fill:url(#SVGID_104_);}
	.st93{fill:url(#SVGID_105_);}
	.st94{fill:url(#SVGID_106_);}
	.st95{fill:url(#SVGID_107_);}
	.st96{fill:url(#SVGID_108_);}
	.st97{fill:url(#SVGID_109_);}
	.st98{fill:url(#SVGID_110_);}
	.st99{fill:url(#SVGID_111_);}
	.st100{fill:url(#SVGID_112_);}
	.st101{fill:url(#SVGID_113_);}
	.st102{fill:url(#SVGID_114_);}
	.st103{fill:url(#SVGID_115_);}
	.st104{fill:url(#SVGID_116_);}
	.st105{fill:url(#SVGID_117_);}
	.st106{fill:url(#SVGID_118_);}
	.st107{fill:url(#SVGID_119_);}
	.st108{fill:url(#SVGID_123_);}
	.st109{clip-path:url(#SVGID_124_);}
	.st110{opacity:0.8;}
	.st111{fill:#ED209F;}
	.st112{fill:url(#SVGID_125_);}
	.st113{fill:url(#SVGID_126_);}
	.st114{fill:url(#SVGID_127_);}
	.st115{fill:url(#SVGID_129_);}
	.st116{fill:url(#SVGID_130_);}
	.st117{fill:url(#SVGID_131_);}
	.st118{opacity:0.4;}
	.st119{opacity:0.7;clip-path:url(#SVGID_134_);}
	.st120{fill:url(#SVGID_135_);}
	.st121{fill:url(#SVGID_136_);}
	.st122{fill:url(#SVGID_137_);}
	.st123{fill:url(#SVGID_138_);}
	.st124{fill:url(#SVGID_139_);}
	.st125{fill:url(#SVGID_140_);}
	.st126{fill:url(#SVGID_141_);}
	.st127{fill:url(#SVGID_142_);}
	.st128{fill:url(#SVGID_143_);}
	.st129{fill:url(#SVGID_144_);}
	.st130{fill:url(#SVGID_145_);}
	.st131{fill:url(#SVGID_146_);}
	.st132{fill:url(#SVGID_147_);}
	.st133{fill:url(#SVGID_148_);}
	.st134{fill:url(#SVGID_149_);}
	.st135{fill:url(#SVGID_150_);}
	.st136{fill:url(#SVGID_151_);}
	.st137{fill:url(#SVGID_152_);}
	.st138{fill:url(#SVGID_153_);}
	.st139{opacity:0.7;clip-path:url(#SVGID_154_);}
	.st140{fill:url(#SVGID_155_);}
	.st141{fill:url(#SVGID_156_);}
	.st142{fill:url(#SVGID_157_);}
	.st143{fill:url(#SVGID_158_);}
	.st144{fill:url(#SVGID_159_);}
	.st145{fill:url(#SVGID_160_);}
	.st146{fill:url(#SVGID_161_);}
	.st147{fill:url(#SVGID_162_);}
	.st148{fill:url(#SVGID_163_);}
	.st149{fill:url(#SVGID_164_);}
	.st150{fill:url(#SVGID_165_);}
	.st151{fill:url(#SVGID_166_);}
	.st152{fill:url(#SVGID_167_);}
	.st153{fill:url(#SVGID_168_);}
	.st154{fill:url(#SVGID_169_);}
	.st155{fill:url(#SVGID_170_);}
	.st156{fill:url(#SVGID_171_);}
	.st157{fill:url(#SVGID_172_);}
	.st158{fill:url(#SVGID_173_);}
	.st159{fill:url(#SVGID_180_);}
	.st160{fill:url(#SVGID_181_);}
	.st161{fill:#23045B;}
	.st162{fill:url(#SVGID_182_);}
	.st163{clip-path:url(#SVGID_183_);}
	.st164{fill:url(#SVGID_184_);}
	.st165{fill:url(#SVGID_185_);}
	.st166{fill:url(#SVGID_186_);}
	.st167{opacity:0.7;clip-path:url(#SVGID_187_);}
	.st168{fill:url(#SVGID_188_);}
	.st169{fill:url(#SVGID_189_);}
	.st170{fill:url(#SVGID_190_);}
	.st171{fill:url(#SVGID_192_);}
	.st172{fill:url(#SVGID_193_);}
	.st173{fill:url(#SVGID_194_);}
	.st174{fill:url(#SVGID_195_);}
	.st175{fill:url(#SVGID_196_);}
	.st176{fill:url(#SVGID_197_);}
	.st177{fill:url(#SVGID_198_);}
	.st178{fill:url(#SVGID_199_);}
	.st179{fill:url(#SVGID_200_);}
	.st180{fill:url(#SVGID_201_);}
	.st181{fill:url(#SVGID_202_);}
	.st182{fill:url(#SVGID_203_);}
	.st183{fill:url(#SVGID_204_);}
	.st184{fill:url(#SVGID_205_);}
	.st185{fill:url(#SVGID_206_);}
	.st186{fill:url(#SVGID_207_);}
	.st187{fill:url(#SVGID_210_);}
	.st188{fill:url(#SVGID_211_);}
	.st189{fill:url(#SVGID_213_);}
	.st190{fill:url(#SVGID_214_);}
</style>
<g>
	<g>
		<g>
			<g>
				<path class="st24" d="M64.9,16.4c-0.1-0.1-0.2-0.1-0.3-0.2C58.2,9.4,49.3,5.6,40,5.6c-9.3,0-18.2,3.9-24.6,10.7
					c-0.1,0-0.2,0.1-0.2,0.2c-0.1,0.1-0.1,0.2-0.1,0.2C3.1,29.5,3.1,49.4,15,62.4l0,0c0,0.1,0.1,0.2,0.1,0.2
					c0.1,0.1,0.2,0.1,0.3,0.2c6.4,6.8,15.3,10.6,24.6,10.6s18.2-3.8,24.6-10.6c0.1-0.1,0.2-0.1,0.3-0.2c0.1-0.1,0.1-0.2,0.1-0.2
					c11.9-12.9,11.9-32.8,0-45.7C65,16.5,64.9,16.5,64.9,16.4z M30.7,10.4c-2.6,3.2-4.6,6.8-5.8,10.7v0c-2.1-1-4.1-2.2-6-3.7
					C22.3,14.2,26.3,11.8,30.7,10.4z M16.6,19.9c2.3,1.8,4.7,3.3,7.4,4.5c-1.1,4.4-1.7,8.9-1.8,13.4H9.5
					C9.9,31.2,12.4,24.9,16.6,19.9z M9.5,41.2h12.7c0.1,4.5,0.7,9,1.8,13.4c-2.6,1.2-5.1,2.7-7.4,4.5C12.4,54.1,9.9,47.8,9.5,41.2z
					 M19,61.6c1.9-1.5,3.9-2.7,6-3.7c1.2,3.9,3.2,7.5,5.8,10.7C26.3,67.2,22.3,64.8,19,61.6z M38.3,69.8c-4.2-1.1-7.8-6.1-10.2-13.2
					c3.3-1.1,6.7-1.8,10.2-1.9V69.8z M38.3,51.3c-3.8,0.1-7.5,0.8-11.1,2c-1-4-1.5-8.1-1.6-12.1h12.7V51.3z M38.3,37.8H25.6
					c0.1-4.1,0.6-8.2,1.6-12.1c3.6,1.2,7.3,1.9,11.1,2V37.8z M38.3,24.3c-3.5-0.2-6.9-0.8-10.2-1.9c2.3-7.1,6-12.1,10.2-13.2V24.3z
					 M61,17.4c-1.9,1.4-3.9,2.7-6,3.7v0c-1.2-3.9-3.2-7.5-5.8-10.7C53.7,11.8,57.7,14.2,61,17.4z M41.7,9.2
					c4.2,1.1,7.8,6.1,10.2,13.2c-3.3,1.1-6.7,1.8-10.2,1.9L41.7,9.2L41.7,9.2z M41.7,27.7c3.8-0.1,7.5-0.8,11.1-2
					c1,4,1.5,8.1,1.6,12.1H41.7V27.7z M41.7,41.2h12.7c-0.1,4.1-0.6,8.2-1.6,12.1c-3.6-1.2-7.3-1.9-11.1-2V41.2z M41.7,69.8V54.7
					c3.5,0.2,6.9,0.8,10.2,1.9C49.5,63.7,45.9,68.7,41.7,69.8z M49.3,68.6c2.6-3.2,4.6-6.8,5.8-10.7v0c2.1,1,4.1,2.2,6,3.7
					C57.7,64.8,53.7,67.2,49.3,68.6z M63.4,59.1c-2.3-1.8-4.7-3.3-7.4-4.5c1.1-4.4,1.7-8.9,1.8-13.4h12.7
					C70.1,47.8,67.6,54.1,63.4,59.1z M57.8,37.8c-0.1-4.5-0.7-9-1.8-13.4c2.6-1.2,5.1-2.7,7.4-4.5c4.2,5,6.7,11.3,7.1,17.9
					L57.8,37.8L57.8,37.8z"/>
			</g>
		</g>
	</g>
</g>
</svg>
