<?xml version="1.0" encoding="utf-8"?>
<!-- Generator: Adobe Illustrator 23.0.0, SVG Export Plug-In . SVG Version: 6.00 Build 0)  -->
<svg version="1.1" id="Layer_1" xmlns="http://www.w3.org/2000/svg" xmlns:xlink="http://www.w3.org/1999/xlink" x="0px" y="0px"
	 viewBox="0 0 80 61.1" style="enable-background:new 0 0 80 61.1;" xml:space="preserve">
<style type="text/css">
	.st0{fill:#0C0150;}
	.st1{opacity:0.7;clip-path:url(#SVGID_15_);}
	.st2{fill:url(#SVGID_16_);}
	.st3{fill:url(#SVGID_17_);}
	.st4{fill:url(#SVGID_18_);}
	.st5{fill:url(#SVGID_19_);}
	.st6{fill:url(#SVGID_20_);}
	.st7{fill:url(#SVGID_21_);}
	.st8{fill:url(#SVGID_22_);}
	.st9{fill:url(#SVGID_23_);}
	.st10{fill:url(#SVGID_24_);}
	.st11{fill:url(#SVGID_25_);}
	.st12{fill:url(#SVGID_26_);}
	.st13{fill:url(#SVGID_27_);}
	.st14{fill:url(#SVGID_28_);}
	.st15{fill:url(#SVGID_29_);}
	.st16{fill:url(#SVGID_30_);}
	.st17{fill:url(#SVGID_31_);}
	.st18{fill:url(#SVGID_32_);}
	.st19{fill:url(#SVGID_33_);}
	.st20{fill:url(#SVGID_34_);}
	.st21{fill-rule:evenodd;clip-rule:evenodd;fill:#FFFFFF;}
	.st22{fill-rule:evenodd;clip-rule:evenodd;fill:#ED209F;}
	.st23{opacity:0.6;}
	.st24{fill:#D12281;}
	.st25{fill:#0C0128;}
	.st26{fill:#FFFFFF;}
	.st27{fill:#030C30;}
	.st28{opacity:0.7;clip-path:url(#SVGID_35_);}
	.st29{fill:url(#SVGID_36_);}
	.st30{fill:url(#SVGID_37_);}
	.st31{fill:url(#SVGID_38_);}
	.st32{fill:url(#SVGID_39_);}
	.st33{fill:url(#SVGID_40_);}
	.st34{fill:url(#SVGID_41_);}
	.st35{fill:url(#SVGID_42_);}
	.st36{fill:url(#SVGID_43_);}
	.st37{fill:url(#SVGID_44_);}
	.st38{fill:url(#SVGID_45_);}
	.st39{fill:url(#SVGID_46_);}
	.st40{fill:url(#SVGID_47_);}
	.st41{fill:url(#SVGID_48_);}
	.st42{fill:url(#SVGID_49_);}
	.st43{fill:url(#SVGID_50_);}
	.st44{fill:url(#SVGID_51_);}
	.st45{fill:url(#SVGID_52_);}
	.st46{fill:url(#SVGID_53_);}
	.st47{fill:url(#SVGID_54_);}
	.st48{fill:url(#SVGID_59_);}
	.st49{clip-path:url(#SVGID_61_);}
	.st50{clip-path:url(#SVGID_63_);}
	.st51{fill:none;stroke:#1EA8C4;stroke-width:2;stroke-linecap:round;stroke-linejoin:round;stroke-miterlimit:10;}
	.st52{fill:#1A1787;}
	.st53{fill:url(#SVGID_66_);}
	.st54{fill:url(#SVGID_67_);}
	.st55{opacity:0.7;clip-path:url(#SVGID_68_);}
	.st56{fill:url(#SVGID_69_);}
	.st57{fill:url(#SVGID_70_);}
	.st58{fill:url(#SVGID_71_);}
	.st59{fill:url(#SVGID_72_);}
	.st60{fill:url(#SVGID_73_);}
	.st61{fill:url(#SVGID_74_);}
	.st62{fill:url(#SVGID_75_);}
	.st63{fill:url(#SVGID_76_);}
	.st64{fill:url(#SVGID_77_);}
	.st65{fill:url(#SVGID_78_);}
	.st66{fill:url(#SVGID_79_);}
	.st67{fill:url(#SVGID_80_);}
	.st68{fill:url(#SVGID_81_);}
	.st69{fill:url(#SVGID_82_);}
	.st70{fill:url(#SVGID_83_);}
	.st71{fill:url(#SVGID_84_);}
	.st72{fill:url(#SVGID_85_);}
	.st73{fill:url(#SVGID_86_);}
	.st74{fill:url(#SVGID_87_);}
	.st75{fill:url(#SVGID_88_);}
	.st76{fill:url(#SVGID_89_);}
	.st77{fill:url(#SVGID_90_);}
	.st78{fill:url(#SVGID_91_);}
	.st79{fill:url(#SVGID_92_);}
	.st80{fill:url(#SVGID_93_);}
	.st81{fill:url(#SVGID_94_);}
	.st82{fill:url(#SVGID_95_);}
	.st83{fill:url(#SVGID_96_);}
	.st84{fill:url(#SVGID_97_);}
	.st85{fill:url(#SVGID_98_);}
	.st86{fill:url(#SVGID_99_);}
	.st87{fill:url(#SVGID_100_);}
	.st88{fill:url(#SVGID_101_);}
	.st89{fill:url(#SVGID_102_);}
	.st90{opacity:0.7;clip-path:url(#SVGID_104_);}
	.st91{fill:url(#SVGID_105_);}
	.st92{fill:url(#SVGID_106_);}
	.st93{fill:url(#SVGID_107_);}
	.st94{fill:url(#SVGID_108_);}
	.st95{fill:url(#SVGID_109_);}
	.st96{fill:url(#SVGID_110_);}
	.st97{fill:url(#SVGID_111_);}
	.st98{fill:url(#SVGID_112_);}
	.st99{fill:url(#SVGID_113_);}
	.st100{fill:url(#SVGID_114_);}
	.st101{fill:url(#SVGID_115_);}
	.st102{fill:url(#SVGID_116_);}
	.st103{fill:url(#SVGID_117_);}
	.st104{fill:url(#SVGID_118_);}
	.st105{fill:url(#SVGID_119_);}
	.st106{fill:url(#SVGID_120_);}
	.st107{fill:url(#SVGID_121_);}
	.st108{fill:url(#SVGID_122_);}
	.st109{fill:url(#SVGID_123_);}
	.st110{fill:url(#SVGID_127_);}
	.st111{clip-path:url(#SVGID_129_);}
	.st112{clip-path:url(#SVGID_131_);}
	.st113{opacity:0.8;}
	.st114{fill:#ED209F;}
	.st115{fill:url(#SVGID_134_);}
	.st116{fill:url(#SVGID_135_);}
	.st117{fill:url(#SVGID_136_);}
	.st118{fill:url(#SVGID_137_);}
	.st119{fill:url(#SVGID_138_);}
	.st120{fill:url(#SVGID_139_);}
	.st121{opacity:0.4;}
	.st122{opacity:0.7;clip-path:url(#SVGID_142_);}
	.st123{fill:url(#SVGID_143_);}
	.st124{fill:url(#SVGID_144_);}
	.st125{fill:url(#SVGID_145_);}
	.st126{fill:url(#SVGID_146_);}
	.st127{fill:url(#SVGID_147_);}
	.st128{fill:url(#SVGID_148_);}
	.st129{fill:url(#SVGID_149_);}
	.st130{fill:url(#SVGID_150_);}
	.st131{fill:url(#SVGID_151_);}
	.st132{fill:url(#SVGID_152_);}
	.st133{fill:url(#SVGID_153_);}
	.st134{fill:url(#SVGID_154_);}
	.st135{fill:url(#SVGID_155_);}
	.st136{fill:url(#SVGID_156_);}
	.st137{fill:url(#SVGID_157_);}
	.st138{fill:url(#SVGID_158_);}
	.st139{fill:url(#SVGID_159_);}
	.st140{fill:url(#SVGID_160_);}
	.st141{fill:url(#SVGID_161_);}
	.st142{opacity:0.7;clip-path:url(#SVGID_162_);}
	.st143{fill:url(#SVGID_163_);}
	.st144{fill:url(#SVGID_164_);}
	.st145{fill:url(#SVGID_165_);}
	.st146{fill:url(#SVGID_166_);}
	.st147{fill:url(#SVGID_167_);}
	.st148{fill:url(#SVGID_168_);}
	.st149{fill:url(#SVGID_169_);}
	.st150{fill:url(#SVGID_170_);}
	.st151{fill:url(#SVGID_171_);}
	.st152{fill:url(#SVGID_172_);}
	.st153{fill:url(#SVGID_173_);}
	.st154{fill:url(#SVGID_174_);}
	.st155{fill:url(#SVGID_175_);}
	.st156{fill:url(#SVGID_176_);}
	.st157{fill:url(#SVGID_177_);}
	.st158{fill:url(#SVGID_178_);}
	.st159{fill:url(#SVGID_179_);}
	.st160{fill:url(#SVGID_180_);}
	.st161{fill:url(#SVGID_181_);}
	.st162{fill:url(#SVGID_188_);}
	.st163{fill:url(#SVGID_189_);}
	.st164{fill:#23045B;}
	.st165{fill:url(#SVGID_190_);}
	.st166{clip-path:url(#SVGID_192_);}
	.st167{clip-path:url(#SVGID_194_);}
	.st168{fill:url(#SVGID_197_);}
	.st169{fill:url(#SVGID_198_);}
	.st170{fill:url(#SVGID_199_);}
	.st171{opacity:0.7;clip-path:url(#SVGID_200_);}
	.st172{fill:url(#SVGID_201_);}
	.st173{fill:url(#SVGID_202_);}
	.st174{fill:url(#SVGID_203_);}
	.st175{fill:url(#SVGID_204_);}
	.st176{fill:url(#SVGID_205_);}
	.st177{fill:url(#SVGID_206_);}
	.st178{fill:url(#SVGID_207_);}
	.st179{fill:url(#SVGID_208_);}
	.st180{fill:url(#SVGID_209_);}
	.st181{fill:url(#SVGID_210_);}
	.st182{fill:url(#SVGID_211_);}
	.st183{fill:url(#SVGID_212_);}
	.st184{fill:url(#SVGID_213_);}
	.st185{fill:url(#SVGID_214_);}
	.st186{fill:url(#SVGID_215_);}
	.st187{fill:url(#SVGID_216_);}
	.st188{fill:url(#SVGID_217_);}
	.st189{fill:url(#SVGID_218_);}
	.st190{fill:url(#SVGID_219_);}
	.st191{fill:url(#SVGID_222_);}
	.st192{fill:url(#SVGID_223_);}
	.st193{fill:url(#SVGID_225_);}
	.st194{fill:url(#SVGID_226_);}
</style>
<g>
	<g>
		<g>
			<g>
				<path class="st24" d="M78.4,42.2h-2.5V9.3c0-0.7-0.6-1.3-1.3-1.3H13.9V1.8c0-0.7-0.6-1.3-1.3-1.3H8.9c-2.8,0-5.1,2.3-5.1,5.1
					v50.5c0,2.8,2.3,5.1,5.1,5.1h65.7c0.7,0,1.3-0.6,1.3-1.3v-5.1h2.5c0.7,0,1.3-0.6,1.3-1.3V43.5C79.7,42.8,79.1,42.2,78.4,42.2z
					 M6.4,5.5C6.4,4.1,7.5,3,8.9,3h2.5v48H8.9c-0.9,0-1.8,0.2-2.5,0.7V5.5z M73.3,58.6H8.9c-1.4,0-2.5-1.1-2.5-2.5s1.1-2.5,2.5-2.5
					h3.8c0.7,0,1.3-0.6,1.3-1.3V10.6h59.4v31.6H50.6c0,0,0,0,0,0c-0.2,0-0.4,0-0.5,0.1l-10.1,5.1c-0.6,0.3-0.9,1.1-0.6,1.7
					c0.1,0.2,0.3,0.4,0.6,0.6L50,54.7c0.2,0.1,0.4,0.1,0.6,0.1h22.7V58.6z M69.5,44.7v7.6H67v-7.6H69.5z M51.9,47.2v-2.5h12.6v2.5
					H51.9z M64.5,49.8v2.5H51.9v-2.5H64.5z M49.3,45.5v6l-6-3L49.3,45.5z M77.1,52.3h-5.1v-7.6h5.1V52.3z"/>
			</g>
		</g>
		<g>
			<g>
				<path class="st24" d="M32.9,24.5h12.6c0.7,0,1.3-0.6,1.3-1.3v-7.6c0-0.7-0.6-1.3-1.3-1.3H32.9c-0.7,0-1.3,0.6-1.3,1.3v2.5h-3.8
					v-2.5c0-0.7-0.6-1.3-1.3-1.3H19c-0.7,0-1.3,0.6-1.3,1.3v7.6c0,0.7,0.6,1.3,1.3,1.3h2.5v3.8H19c-0.7,0-1.3,0.6-1.3,1.3v7.6
					c0,0.7,0.6,1.3,1.3,1.3h7.6c0.7,0,1.3-0.6,1.3-1.3v-2.5h3.8v2.5c0,0.7,0.6,1.3,1.3,1.3h12.6c0.7,0,1.3-0.6,1.3-1.3v-7.6
					c0-0.7-0.6-1.3-1.3-1.3H32.9c-0.7,0-1.3,0.6-1.3,1.3v2.5h-3.8v-2.5c0-0.7-0.6-1.3-1.3-1.3h-2.5v-3.8h2.5c0.7,0,1.3-0.6,1.3-1.3
					v-2.5h3.8v2.5C31.6,23.9,32.2,24.5,32.9,24.5z M34.2,16.9h10.1V22H34.2V16.9z M34.2,30.8h10.1v5.1H34.2V30.8z M25.3,30.8v5.1
					h-5.1v-5.1H25.3z M25.3,22h-5.1v-5.1h5.1V22z"/>
			</g>
		</g>
		<g>
			<g>
				<path class="st24" d="M65.8,32.1v-1.4c3.4-3.5,3.4-9.1-0.1-12.5s-9.1-3.4-12.5,0.1c-3.4,3.4-3.4,8.9,0,12.4v1.4h-2.5v2.5h17.7
					v-2.5H65.8z M64.1,28.7c-0.2,0.2-0.3,0.3-0.5,0.5c-0.3,0.2-0.4,0.6-0.4,0.9v1.9h-2.5v-3.3l3.4-3.4l-1.8-1.8l-2.9,2.9l-2.9-2.9
					l-1.8,1.8l3.4,3.4v3.3h-2.5v-1.9c0-0.4-0.2-0.7-0.4-0.9c-2.6-2.3-2.8-6.3-0.5-8.9c2.3-2.6,6.3-2.8,8.9-0.5
					C66.2,22.1,66.5,26.1,64.1,28.7z"/>
			</g>
		</g>
		<g>
			<g>
				<rect x="17.7" y="47.2" class="st24" width="17.7" height="2.5"/>
			</g>
		</g>
		<g>
			<g>
				<rect x="17.7" y="52.3" class="st24" width="17.7" height="2.5"/>
			</g>
		</g>
		<g>
			<g>
				<rect x="22.8" y="42.2" class="st24" width="12.6" height="2.5"/>
			</g>
		</g>
		<g>
			<g>
				<rect x="17.7" y="42.2" class="st24" width="2.5" height="2.5"/>
			</g>
		</g>
	</g>
</g>
</svg>
