<?xml version="1.0" encoding="utf-8"?>
<!-- Generator: Adobe Illustrator 23.0.0, SVG Export Plug-In . SVG Version: 6.00 Build 0)  -->
<svg version="1.1" id="Layer_1" xmlns="http://www.w3.org/2000/svg" xmlns:xlink="http://www.w3.org/1999/xlink" x="0px" y="0px"
	 viewBox="0 0 77.7 77.6" style="enable-background:new 0 0 77.7 77.6;" xml:space="preserve">
<style type="text/css">
	.st0{fill:#0C0150;}
	.st1{opacity:0.7;clip-path:url(#SVGID_15_);}
	.st2{fill:url(#SVGID_16_);}
	.st3{fill:url(#SVGID_17_);}
	.st4{fill:url(#SVGID_18_);}
	.st5{fill:url(#SVGID_19_);}
	.st6{fill:url(#SVGID_20_);}
	.st7{fill:url(#SVGID_21_);}
	.st8{fill:url(#SVGID_22_);}
	.st9{fill:url(#SVGID_23_);}
	.st10{fill:url(#SVGID_24_);}
	.st11{fill:url(#SVGID_25_);}
	.st12{fill:url(#SVGID_26_);}
	.st13{fill:url(#SVGID_27_);}
	.st14{fill:url(#SVGID_28_);}
	.st15{fill:url(#SVGID_29_);}
	.st16{fill:url(#SVGID_30_);}
	.st17{fill:url(#SVGID_31_);}
	.st18{fill:url(#SVGID_32_);}
	.st19{fill:url(#SVGID_33_);}
	.st20{fill:url(#SVGID_34_);}
	.st21{fill-rule:evenodd;clip-rule:evenodd;fill:#FFFFFF;}
	.st22{fill-rule:evenodd;clip-rule:evenodd;fill:#ED209F;}
	.st23{opacity:0.6;}
	.st24{fill:#D12281;}
	.st25{fill:#0C0128;}
	.st26{fill:#FFFFFF;}
	.st27{fill:#030C30;}
	.st28{opacity:0.7;clip-path:url(#SVGID_35_);}
	.st29{fill:url(#SVGID_36_);}
	.st30{fill:url(#SVGID_37_);}
	.st31{fill:url(#SVGID_38_);}
	.st32{fill:url(#SVGID_39_);}
	.st33{fill:url(#SVGID_40_);}
	.st34{fill:url(#SVGID_41_);}
	.st35{fill:url(#SVGID_42_);}
	.st36{fill:url(#SVGID_43_);}
	.st37{fill:url(#SVGID_44_);}
	.st38{fill:url(#SVGID_45_);}
	.st39{fill:url(#SVGID_46_);}
	.st40{fill:url(#SVGID_47_);}
	.st41{fill:url(#SVGID_48_);}
	.st42{fill:url(#SVGID_49_);}
	.st43{fill:url(#SVGID_50_);}
	.st44{fill:url(#SVGID_51_);}
	.st45{fill:url(#SVGID_52_);}
	.st46{fill:url(#SVGID_53_);}
	.st47{fill:url(#SVGID_54_);}
	.st48{fill:url(#SVGID_59_);}
	.st49{clip-path:url(#SVGID_61_);}
	.st50{clip-path:url(#SVGID_63_);}
	.st51{fill:none;stroke:#1EA8C4;stroke-width:2;stroke-linecap:round;stroke-linejoin:round;stroke-miterlimit:10;}
	.st52{fill:#1A1787;}
	.st53{fill:url(#SVGID_66_);}
	.st54{fill:url(#SVGID_67_);}
	.st55{opacity:0.7;clip-path:url(#SVGID_68_);}
	.st56{fill:url(#SVGID_69_);}
	.st57{fill:url(#SVGID_70_);}
	.st58{fill:url(#SVGID_71_);}
	.st59{fill:url(#SVGID_72_);}
	.st60{fill:url(#SVGID_73_);}
	.st61{fill:url(#SVGID_74_);}
	.st62{fill:url(#SVGID_75_);}
	.st63{fill:url(#SVGID_76_);}
	.st64{fill:url(#SVGID_77_);}
	.st65{fill:url(#SVGID_78_);}
	.st66{fill:url(#SVGID_79_);}
	.st67{fill:url(#SVGID_80_);}
	.st68{fill:url(#SVGID_81_);}
	.st69{fill:url(#SVGID_82_);}
	.st70{fill:url(#SVGID_83_);}
	.st71{fill:url(#SVGID_84_);}
	.st72{fill:url(#SVGID_85_);}
	.st73{fill:url(#SVGID_86_);}
	.st74{fill:url(#SVGID_87_);}
	.st75{fill:url(#SVGID_88_);}
	.st76{fill:url(#SVGID_89_);}
	.st77{fill:url(#SVGID_90_);}
	.st78{fill:url(#SVGID_91_);}
	.st79{fill:url(#SVGID_92_);}
	.st80{fill:url(#SVGID_93_);}
	.st81{fill:url(#SVGID_94_);}
	.st82{fill:url(#SVGID_95_);}
	.st83{fill:url(#SVGID_96_);}
	.st84{fill:url(#SVGID_97_);}
	.st85{fill:url(#SVGID_98_);}
	.st86{fill:url(#SVGID_99_);}
	.st87{fill:url(#SVGID_100_);}
	.st88{fill:url(#SVGID_101_);}
	.st89{fill:url(#SVGID_102_);}
	.st90{opacity:0.7;clip-path:url(#SVGID_104_);}
	.st91{fill:url(#SVGID_105_);}
	.st92{fill:url(#SVGID_106_);}
	.st93{fill:url(#SVGID_107_);}
	.st94{fill:url(#SVGID_108_);}
	.st95{fill:url(#SVGID_109_);}
	.st96{fill:url(#SVGID_110_);}
	.st97{fill:url(#SVGID_111_);}
	.st98{fill:url(#SVGID_112_);}
	.st99{fill:url(#SVGID_113_);}
	.st100{fill:url(#SVGID_114_);}
	.st101{fill:url(#SVGID_115_);}
	.st102{fill:url(#SVGID_116_);}
	.st103{fill:url(#SVGID_117_);}
	.st104{fill:url(#SVGID_118_);}
	.st105{fill:url(#SVGID_119_);}
	.st106{fill:url(#SVGID_120_);}
	.st107{fill:url(#SVGID_121_);}
	.st108{fill:url(#SVGID_122_);}
	.st109{fill:url(#SVGID_123_);}
	.st110{fill:url(#SVGID_127_);}
	.st111{clip-path:url(#SVGID_129_);}
	.st112{clip-path:url(#SVGID_131_);}
	.st113{opacity:0.8;}
	.st114{fill:#ED209F;}
	.st115{fill:url(#SVGID_134_);}
	.st116{fill:url(#SVGID_135_);}
	.st117{fill:url(#SVGID_136_);}
	.st118{fill:url(#SVGID_137_);}
	.st119{fill:url(#SVGID_138_);}
	.st120{fill:url(#SVGID_139_);}
	.st121{opacity:0.4;}
	.st122{opacity:0.7;clip-path:url(#SVGID_142_);}
	.st123{fill:url(#SVGID_143_);}
	.st124{fill:url(#SVGID_144_);}
	.st125{fill:url(#SVGID_145_);}
	.st126{fill:url(#SVGID_146_);}
	.st127{fill:url(#SVGID_147_);}
	.st128{fill:url(#SVGID_148_);}
	.st129{fill:url(#SVGID_149_);}
	.st130{fill:url(#SVGID_150_);}
	.st131{fill:url(#SVGID_151_);}
	.st132{fill:url(#SVGID_152_);}
	.st133{fill:url(#SVGID_153_);}
	.st134{fill:url(#SVGID_154_);}
	.st135{fill:url(#SVGID_155_);}
	.st136{fill:url(#SVGID_156_);}
	.st137{fill:url(#SVGID_157_);}
	.st138{fill:url(#SVGID_158_);}
	.st139{fill:url(#SVGID_159_);}
	.st140{fill:url(#SVGID_160_);}
	.st141{fill:url(#SVGID_161_);}
	.st142{opacity:0.7;clip-path:url(#SVGID_162_);}
	.st143{fill:url(#SVGID_163_);}
	.st144{fill:url(#SVGID_164_);}
	.st145{fill:url(#SVGID_165_);}
	.st146{fill:url(#SVGID_166_);}
	.st147{fill:url(#SVGID_167_);}
	.st148{fill:url(#SVGID_168_);}
	.st149{fill:url(#SVGID_169_);}
	.st150{fill:url(#SVGID_170_);}
	.st151{fill:url(#SVGID_171_);}
	.st152{fill:url(#SVGID_172_);}
	.st153{fill:url(#SVGID_173_);}
	.st154{fill:url(#SVGID_174_);}
	.st155{fill:url(#SVGID_175_);}
	.st156{fill:url(#SVGID_176_);}
	.st157{fill:url(#SVGID_177_);}
	.st158{fill:url(#SVGID_178_);}
	.st159{fill:url(#SVGID_179_);}
	.st160{fill:url(#SVGID_180_);}
	.st161{fill:url(#SVGID_181_);}
	.st162{fill:url(#SVGID_188_);}
	.st163{fill:url(#SVGID_189_);}
	.st164{fill:#23045B;}
	.st165{fill:url(#SVGID_190_);}
	.st166{clip-path:url(#SVGID_192_);}
	.st167{clip-path:url(#SVGID_194_);}
	.st168{fill:url(#SVGID_197_);}
	.st169{fill:url(#SVGID_198_);}
	.st170{fill:url(#SVGID_199_);}
	.st171{opacity:0.7;clip-path:url(#SVGID_200_);}
	.st172{fill:url(#SVGID_201_);}
	.st173{fill:url(#SVGID_202_);}
	.st174{fill:url(#SVGID_203_);}
	.st175{fill:url(#SVGID_204_);}
	.st176{fill:url(#SVGID_205_);}
	.st177{fill:url(#SVGID_206_);}
	.st178{fill:url(#SVGID_207_);}
	.st179{fill:url(#SVGID_208_);}
	.st180{fill:url(#SVGID_209_);}
	.st181{fill:url(#SVGID_210_);}
	.st182{fill:url(#SVGID_211_);}
	.st183{fill:url(#SVGID_212_);}
	.st184{fill:url(#SVGID_213_);}
	.st185{fill:url(#SVGID_214_);}
	.st186{fill:url(#SVGID_215_);}
	.st187{fill:url(#SVGID_216_);}
	.st188{fill:url(#SVGID_217_);}
	.st189{fill:url(#SVGID_218_);}
	.st190{fill:url(#SVGID_219_);}
	.st191{fill:url(#SVGID_222_);}
	.st192{fill:url(#SVGID_223_);}
	.st193{fill:url(#SVGID_225_);}
	.st194{fill:url(#SVGID_226_);}
</style>
<path class="st24" d="M0.7,59.5c0,4.8,2,9.2,5.1,12.4v0h0C9,75,13.3,77,18.1,77h42c4.8,0,9.2-2,12.4-5.1H73v-0.5
	c2.9-3.1,4.6-7.3,4.6-11.8v-42c0-4.6-1.8-8.7-4.6-11.8V5.1h-0.5C69.4,2,65,0,60.2,0h-42C13.3,0,9,2,5.8,5.1h0v0
	c-3.2,3.2-5.1,7.5-5.1,12.4V59.5z M2.5,59.5V39.4h3.2V69C3.8,66.4,2.5,63.1,2.5,59.5z M38.2,51.4c-2.8-0.2-5.4-1.3-7.4-3l7.4-7.4
	V51.4z M40.1,40.5l7.7,7.6c-2.1,1.9-4.7,3.1-7.7,3.3V40.5z M41.7,39.4h10.4c-0.2,2.8-1.3,5.3-3,7.4L41.7,39.4z M41.7,37.6l7.4-7.4
	c1.7,2,2.8,4.6,3,7.4H41.7z M40.1,36.5V25.6c2.9,0.2,5.6,1.4,7.7,3.3L40.1,36.5z M38.2,36l-7.4-7.4c2-1.7,4.6-2.8,7.4-3V36z
	 M37.1,37.6H26.2c0.2-2.9,1.4-5.6,3.2-7.6L37.1,37.6z M37.1,39.4l-7.7,7.6c-1.8-2.1-3-4.7-3.2-7.6H37.1z M29.5,49.7
	c2.4,2.1,5.4,3.4,8.8,3.6v10.5C32,63.6,26.3,61.1,22,57.1L29.5,49.7z M40.1,53.3c3.5-0.2,6.6-1.6,9-3.8l7.5,7.4
	c-4.3,4.1-10.1,6.7-16.5,6.9V53.3z M50.4,48.1c2-2.4,3.3-5.4,3.5-8.7h10.5c-0.2,6.2-2.7,11.8-6.6,16.1L50.4,48.1z M54,37.6
	c-0.2-3.3-1.5-6.3-3.5-8.7l7.5-7.4c3.9,4.3,6.4,9.9,6.6,16.1H54z M49.1,27.5c-2.4-2.2-5.6-3.6-9-3.8V13.2c6.4,0.2,12.2,2.8,16.5,6.9
	L49.1,27.5z M38.2,23.7c-3.3,0.2-6.4,1.5-8.8,3.6L22,19.9c4.3-4,10-6.5,16.2-6.7V23.7z M28.1,28.6c-2.2,2.4-3.5,5.5-3.8,8.9H13.8
	c0.2-6.3,2.8-12,6.8-16.4L28.1,28.6z M24.4,39.4c0.2,3.4,1.6,6.5,3.8,8.9l-7.5,7.4c-4-4.3-6.6-10-6.8-16.4H24.4z M20.6,58.4
	c4.6,4.3,10.8,7,17.6,7.3V70H9L20.6,58.4z M40.1,65.7c6.9-0.2,13.1-3,17.8-7.5L69.8,70H40.1V65.7z M59.2,56.9
	c4.2-4.6,6.9-10.7,7.1-17.4h4.8v29.2L59.2,56.9z M66.4,37.6c-0.2-6.7-2.9-12.8-7.1-17.4L71.1,8.3v29.2H66.4z M57.9,18.8
	c-4.7-4.5-10.9-7.3-17.8-7.5V7h29.7L57.9,18.8z M38.2,11.3c-6.8,0.2-12.9,2.9-17.6,7.3L9,7h29.2V11.3z M19.3,19.9
	c-4.4,4.7-7.1,10.9-7.4,17.7H7.7V8.3L19.3,19.9z M12,39.4c0.2,6.8,3,13,7.4,17.7L7.7,68.7V39.4H12z M8.7,71.9h29.6v3.2H18.1
	C14.6,75.1,11.3,73.9,8.7,71.9z M60.2,75.1H40.1v-3.2h29.6C67,73.9,63.7,75.1,60.2,75.1z M73,68.3V39.4h2.8v20.1
	C75.8,62.8,74.8,65.8,73,68.3z M75.8,17.5v20.1H73V8.7C74.8,11.2,75.8,14.2,75.8,17.5z M69.7,5.1H40.1V1.9h20.1
	C63.7,1.9,67,3.1,69.7,5.1z M18.1,1.9h20.1v3.2H8.7C11.3,3.1,14.6,1.9,18.1,1.9z M5.8,8v29.6H2.5V17.5C2.5,13.9,3.8,10.6,5.8,8z"/>
</svg>
