<?xml version="1.0" encoding="utf-8"?>
<!-- Generator: Adobe Illustrator 23.0.0, SVG Export Plug-In . SVG Version: 6.00 Build 0)  -->
<svg version="1.1" id="Layer_1" xmlns="http://www.w3.org/2000/svg" xmlns:xlink="http://www.w3.org/1999/xlink" x="0px" y="0px"
	 viewBox="0 0 80 80" style="enable-background:new 0 0 80 80;" xml:space="preserve">
<style type="text/css">
	.st0{fill:#0C0150;}
	.st1{opacity:0.7;clip-path:url(#SVGID_15_);}
	.st2{fill:url(#SVGID_16_);}
	.st3{fill:url(#SVGID_17_);}
	.st4{fill:url(#SVGID_18_);}
	.st5{fill:url(#SVGID_19_);}
	.st6{fill:url(#SVGID_20_);}
	.st7{fill:url(#SVGID_21_);}
	.st8{fill:url(#SVGID_22_);}
	.st9{fill:url(#SVGID_23_);}
	.st10{fill:url(#SVGID_24_);}
	.st11{fill:url(#SVGID_25_);}
	.st12{fill:url(#SVGID_26_);}
	.st13{fill:url(#SVGID_27_);}
	.st14{fill:url(#SVGID_28_);}
	.st15{fill:url(#SVGID_29_);}
	.st16{fill:url(#SVGID_30_);}
	.st17{fill:url(#SVGID_31_);}
	.st18{fill:url(#SVGID_32_);}
	.st19{fill:url(#SVGID_33_);}
	.st20{fill:url(#SVGID_34_);}
	.st21{fill-rule:evenodd;clip-rule:evenodd;fill:#FFFFFF;}
	.st22{fill-rule:evenodd;clip-rule:evenodd;fill:#ED209F;}
	.st23{opacity:0.6;}
	.st24{fill:#FFFFFF;}
	.st25{fill:#0C0128;}
	.st26{fill:#030C30;}
	.st27{opacity:0.7;clip-path:url(#SVGID_35_);}
	.st28{fill:url(#SVGID_36_);}
	.st29{fill:url(#SVGID_37_);}
	.st30{fill:url(#SVGID_38_);}
	.st31{fill:url(#SVGID_39_);}
	.st32{fill:url(#SVGID_40_);}
	.st33{fill:url(#SVGID_41_);}
	.st34{fill:url(#SVGID_42_);}
	.st35{fill:url(#SVGID_43_);}
	.st36{fill:url(#SVGID_44_);}
	.st37{fill:url(#SVGID_45_);}
	.st38{fill:url(#SVGID_46_);}
	.st39{fill:url(#SVGID_47_);}
	.st40{fill:url(#SVGID_48_);}
	.st41{fill:url(#SVGID_49_);}
	.st42{fill:url(#SVGID_50_);}
	.st43{fill:url(#SVGID_51_);}
	.st44{fill:url(#SVGID_52_);}
	.st45{fill:url(#SVGID_53_);}
	.st46{fill:url(#SVGID_54_);}
	.st47{fill:url(#SVGID_59_);}
	.st48{clip-path:url(#SVGID_61_);}
	.st49{fill:none;stroke:#1EA8C4;stroke-width:2;stroke-linecap:round;stroke-linejoin:round;stroke-miterlimit:10;}
	.st50{fill:#1A1787;}
	.st51{fill:url(#SVGID_62_);}
	.st52{fill:url(#SVGID_63_);}
	.st53{opacity:0.7;clip-path:url(#SVGID_64_);}
	.st54{fill:url(#SVGID_65_);}
	.st55{fill:url(#SVGID_66_);}
	.st56{fill:url(#SVGID_67_);}
	.st57{fill:url(#SVGID_68_);}
	.st58{fill:url(#SVGID_69_);}
	.st59{fill:url(#SVGID_70_);}
	.st60{fill:url(#SVGID_71_);}
	.st61{fill:url(#SVGID_72_);}
	.st62{fill:url(#SVGID_73_);}
	.st63{fill:url(#SVGID_74_);}
	.st64{fill:url(#SVGID_75_);}
	.st65{fill:url(#SVGID_76_);}
	.st66{fill:url(#SVGID_77_);}
	.st67{fill:url(#SVGID_78_);}
	.st68{fill:url(#SVGID_79_);}
	.st69{fill:url(#SVGID_80_);}
	.st70{fill:url(#SVGID_81_);}
	.st71{fill:url(#SVGID_82_);}
	.st72{fill:url(#SVGID_83_);}
	.st73{fill:url(#SVGID_84_);}
	.st74{fill:url(#SVGID_85_);}
	.st75{fill:url(#SVGID_86_);}
	.st76{fill:url(#SVGID_87_);}
	.st77{fill:url(#SVGID_88_);}
	.st78{fill:url(#SVGID_89_);}
	.st79{fill:url(#SVGID_90_);}
	.st80{fill:url(#SVGID_91_);}
	.st81{fill:url(#SVGID_92_);}
	.st82{fill:url(#SVGID_93_);}
	.st83{fill:url(#SVGID_94_);}
	.st84{fill:url(#SVGID_95_);}
	.st85{fill:url(#SVGID_96_);}
	.st86{fill:url(#SVGID_97_);}
	.st87{fill:url(#SVGID_98_);}
	.st88{opacity:0.7;clip-path:url(#SVGID_100_);}
	.st89{fill:url(#SVGID_101_);}
	.st90{fill:url(#SVGID_102_);}
	.st91{fill:url(#SVGID_103_);}
	.st92{fill:url(#SVGID_104_);}
	.st93{fill:url(#SVGID_105_);}
	.st94{fill:url(#SVGID_106_);}
	.st95{fill:url(#SVGID_107_);}
	.st96{fill:url(#SVGID_108_);}
	.st97{fill:url(#SVGID_109_);}
	.st98{fill:url(#SVGID_110_);}
	.st99{fill:url(#SVGID_111_);}
	.st100{fill:url(#SVGID_112_);}
	.st101{fill:url(#SVGID_113_);}
	.st102{fill:url(#SVGID_114_);}
	.st103{fill:url(#SVGID_115_);}
	.st104{fill:url(#SVGID_116_);}
	.st105{fill:url(#SVGID_117_);}
	.st106{fill:url(#SVGID_118_);}
	.st107{fill:url(#SVGID_119_);}
	.st108{fill:url(#SVGID_123_);}
	.st109{clip-path:url(#SVGID_124_);}
	.st110{opacity:0.8;}
	.st111{fill:#ED209F;}
	.st112{fill:url(#SVGID_125_);}
	.st113{fill:url(#SVGID_126_);}
	.st114{fill:url(#SVGID_127_);}
	.st115{fill:url(#SVGID_129_);}
	.st116{fill:url(#SVGID_130_);}
	.st117{fill:url(#SVGID_131_);}
	.st118{opacity:0.4;}
	.st119{opacity:0.7;clip-path:url(#SVGID_134_);}
	.st120{fill:url(#SVGID_135_);}
	.st121{fill:url(#SVGID_136_);}
	.st122{fill:url(#SVGID_137_);}
	.st123{fill:url(#SVGID_138_);}
	.st124{fill:url(#SVGID_139_);}
	.st125{fill:url(#SVGID_140_);}
	.st126{fill:url(#SVGID_141_);}
	.st127{fill:url(#SVGID_142_);}
	.st128{fill:url(#SVGID_143_);}
	.st129{fill:url(#SVGID_144_);}
	.st130{fill:url(#SVGID_145_);}
	.st131{fill:url(#SVGID_146_);}
	.st132{fill:url(#SVGID_147_);}
	.st133{fill:url(#SVGID_148_);}
	.st134{fill:url(#SVGID_149_);}
	.st135{fill:url(#SVGID_150_);}
	.st136{fill:url(#SVGID_151_);}
	.st137{fill:url(#SVGID_152_);}
	.st138{fill:url(#SVGID_153_);}
	.st139{opacity:0.7;clip-path:url(#SVGID_154_);}
	.st140{fill:url(#SVGID_155_);}
	.st141{fill:url(#SVGID_156_);}
	.st142{fill:url(#SVGID_157_);}
	.st143{fill:url(#SVGID_158_);}
	.st144{fill:url(#SVGID_159_);}
	.st145{fill:url(#SVGID_160_);}
	.st146{fill:url(#SVGID_161_);}
	.st147{fill:url(#SVGID_162_);}
	.st148{fill:url(#SVGID_163_);}
	.st149{fill:url(#SVGID_164_);}
	.st150{fill:url(#SVGID_165_);}
	.st151{fill:url(#SVGID_166_);}
	.st152{fill:url(#SVGID_167_);}
	.st153{fill:url(#SVGID_168_);}
	.st154{fill:url(#SVGID_169_);}
	.st155{fill:url(#SVGID_170_);}
	.st156{fill:url(#SVGID_171_);}
	.st157{fill:url(#SVGID_172_);}
	.st158{fill:url(#SVGID_173_);}
	.st159{fill:url(#SVGID_180_);}
	.st160{fill:url(#SVGID_181_);}
	.st161{fill:#23045B;}
	.st162{fill:url(#SVGID_182_);}
	.st163{clip-path:url(#SVGID_183_);}
	.st164{fill:url(#SVGID_184_);}
	.st165{fill:url(#SVGID_185_);}
	.st166{fill:url(#SVGID_186_);}
	.st167{opacity:0.7;clip-path:url(#SVGID_187_);}
	.st168{fill:url(#SVGID_188_);}
	.st169{fill:url(#SVGID_189_);}
	.st170{fill:url(#SVGID_190_);}
	.st171{fill:url(#SVGID_192_);}
	.st172{fill:url(#SVGID_193_);}
	.st173{fill:url(#SVGID_194_);}
	.st174{fill:url(#SVGID_195_);}
	.st175{fill:url(#SVGID_196_);}
	.st176{fill:url(#SVGID_197_);}
	.st177{fill:url(#SVGID_198_);}
	.st178{fill:url(#SVGID_199_);}
	.st179{fill:url(#SVGID_200_);}
	.st180{fill:url(#SVGID_201_);}
	.st181{fill:url(#SVGID_202_);}
	.st182{fill:url(#SVGID_203_);}
	.st183{fill:url(#SVGID_204_);}
	.st184{fill:url(#SVGID_205_);}
	.st185{fill:url(#SVGID_206_);}
	.st186{fill:url(#SVGID_207_);}
	.st187{fill:url(#SVGID_210_);}
	.st188{fill:url(#SVGID_211_);}
	.st189{fill:url(#SVGID_213_);}
	.st190{fill:url(#SVGID_214_);}
</style>
<g>
	<g>
		<path class="st24" d="M70,41.2L70,41.2c0,0.7,0.6,1.3,1.3,1.3h5.1c0.7,0,1.3-0.6,1.3-1.3l0,0c0-0.7-0.6-1.3-1.3-1.3h-5.1
			C70.6,40,70,40.5,70,41.2z"/>
		<path class="st24" d="M76.4,26L76.4,26c-0.4-0.6-1.1-0.8-1.7-0.4L70.4,28c-0.6,0.4-0.8,1.1-0.4,1.7v0c0.4,0.6,1.1,0.8,1.7,0.4
			l4.2-2.5C76.5,27.3,76.7,26.6,76.4,26z"/>
		<path class="st24" d="M70.4,54.4l4.2,2.5c0.6,0.4,1.4,0.2,1.7-0.4v0c0.4-0.6,0.2-1.4-0.4-1.7l-4.2-2.5c-0.6-0.4-1.4-0.2-1.7,0.4
			l0,0C69.6,53.3,69.8,54.1,70.4,54.4z"/>
		<path class="st24" d="M15.3,36.1L15.3,36.1c-0.7,0-1.3,0.6-1.3,1.3V40c0,0.7,0.6,1.3,1.3,1.3h0c0.7,0,1.3-0.6,1.3-1.3v-2.5
			C16.6,36.7,16,36.1,15.3,36.1z"/>
		<path class="st24" d="M10.2,36.1L10.2,36.1c-0.7,0-1.3,0.6-1.3,1.3V40c0,0.7,0.6,1.3,1.3,1.3h0c0.7,0,1.3-0.6,1.3-1.3v-2.5
			C11.5,36.7,10.9,36.1,10.2,36.1z"/>
		<path class="st24" d="M66.6,36.2L59.8,34V18.3c0-2.8-2.3-5.1-5.1-5.1c-2.8,0-5.1,2.3-5.1,5.1v0.9L20.1,31.1h-8.7
			c-5.6,0-10.2,4.6-10.2,10.2c0,4.8,3.3,8.8,7.8,9.9l4.9,20.9c0.1,0.6,0.7,1,1.2,1c0.1,0,0.2,0,0.2,0l9.6-1.8c0,0,0,0,0,0
			c0.6-0.1,1.1-0.4,1.5-0.8c0.6-0.6,0.9-1.3,0.9-2.2c0-0.8-0.3-1.6-0.9-2.2l-1.3-1.3l-3.1-12.5l27.4,11v0.9c0,2.8,2.3,5.1,5.1,5.1
			c2.8,0,5.1-2.3,5.1-5.1V48.5l6.8-2.3c0.5-0.2,0.9-0.7,0.9-1.2v-7.6C67.5,36.9,67.1,36.4,66.6,36.2z M3.8,41.2
			c0-4.2,3.4-7.6,7.6-7.6h7.6v15.3h-7.6C7.3,48.9,3.8,45.4,3.8,41.2z M23.3,66.3l1.5,1.5c0.1,0.1,0.1,0.3,0.1,0.4
			c0,0.1,0,0.2-0.2,0.4c-0.1,0.1-0.1,0.1-0.2,0.1l-8.3,1.6l-4.4-18.9h7.6L23,65.7C23,65.9,23.1,66.1,23.3,66.3z M21.7,49.3V33.2
			l28-11.2v38.5L21.7,49.3z M57.3,64.1c0,1.4-1.1,2.5-2.5,2.5c-1.4,0-2.5-1.1-2.5-2.5v-1.3h0V19.6h0v-1.3c0-1.4,1.1-2.5,2.5-2.5
			c1.4,0,2.5,1.1,2.5,2.5v16.5v12.7V64.1z M64.9,44.1l-5.1,1.7v-9.2l5.1,1.7V44.1z"/>
	</g>
</g>
</svg>
