<?xml version="1.0" encoding="utf-8"?>
<!-- Generator: Adobe Illustrator 23.0.0, SVG Export Plug-In . SVG Version: 6.00 Build 0)  -->
<svg version="1.1" id="Layer_1" xmlns="http://www.w3.org/2000/svg" xmlns:xlink="http://www.w3.org/1999/xlink" x="0px" y="0px"
	 viewBox="0 0 100 100" style="enable-background:new 0 0 100 100;" xml:space="preserve">
<style type="text/css">
	.st0{fill-rule:evenodd;clip-rule:evenodd;fill:#FFFFFF;}
	.st1{fill-rule:evenodd;clip-rule:evenodd;fill:#ED209F;}
</style>
<g>
	<g>
		<polygon class="st0" points="26.3,37.6 50.1,61 70.6,40.4 66.1,35.8 50.1,51.7 31.2,32.6 		"/>
		<path class="st1" d="M37.3,32l4.6,4.7c4.2-4.2,8.5-8.4,12.7-12.6l-4.6-4.7l-0.8,0.7L37.3,32z"/>
		<polygon class="st1" points="45.4,40.1 50,44.8 62.6,32.1 58,27.5 		"/>
	</g>
	<g>
		<path class="st0" d="M64.1,75.6l6.3,5.3h1.8v-8l-1.8,0l0,5.2c-0.3-0.2-0.6-0.4-0.9-0.7L63.6,73l-1.3,0v8h1.8L64.1,75.6z"/>
		<polygon class="st0" points="15.6,81 25.1,80.9 25.1,79.1 17.7,79.1 17.7,71.2 15.6,71.2 		"/>
		<polygon class="st0" points="54.1,75.2 57.4,80.9 59.6,80.9 54.7,73 53.4,73 48.9,81 50.8,81 		"/>
		<polygon class="st0" points="74.7,74.4 78.6,74.4 78.6,80.9 80.5,81 80.5,74.5 84.4,74.4 84.4,73 74.7,73 		"/>
		<polygon class="st1" points="30.8,80.9 36.2,77.9 35.6,76.6 30.1,79.7 		"/>
		<polygon class="st1" points="27.1,74.3 27.8,75.5 33.1,72.5 32.5,71.4 		"/>
		<polygon class="st1" points="28.6,76.9 29.3,78.1 32.3,76.4 31.6,75.3 		"/>
		<polygon class="st0" points="43,78.7 46.3,73 48.5,73 43.6,81 42.3,81 37.8,73 39.7,73 		"/>
	</g>
</g>
</svg>
