<?xml version="1.0" encoding="utf-8"?>
<!-- Generator: Adobe Illustrator 23.0.0, SVG Export Plug-In . SVG Version: 6.00 Build 0)  -->
<svg version="1.1" id="Layer_1" xmlns="http://www.w3.org/2000/svg" xmlns:xlink="http://www.w3.org/1999/xlink" x="0px" y="0px"
	 viewBox="0 0 100 100" style="enable-background:new 0 0 100 100;" xml:space="preserve">
<style type="text/css">
	.st0{fill-rule:evenodd;clip-rule:evenodd;fill:#FFFFFF;}
	.st1{fill-rule:evenodd;clip-rule:evenodd;fill:#ED209F;}
</style>
<g>
	<g>
		<polygon class="st0" points="15.6,31.9 50.2,65.9 80,36 73.4,29.3 50.1,52.4 22.6,24.7 		"/>
		<path class="st1" d="M31.6,23.8l6.7,6.8c6.2-6.1,12.3-12.2,18.4-18.3l-6.6-6.8l-1.2,1.1L31.6,23.8z"/>
		<polygon class="st1" points="43.3,35.5 50,42.3 68.3,24 61.6,17.2 		"/>
	</g>
	<g>
		<path class="st0" d="M70.4,87.2l9.2,7.7h2.6V83.3l-2.6,0l0,7.6c-0.5-0.3-0.8-0.6-1.3-1l-8.6-6.6l-1.9,0v11.6h2.6L70.4,87.2z"/>
		<polygon class="st0" points="0,94.9 13.8,94.9 13.8,92.3 3.1,92.2 3.1,80.8 0,80.8 		"/>
		<polygon class="st0" points="55.9,86.6 60.8,94.9 63.9,94.9 56.8,83.3 55,83.3 48.4,94.9 51.2,94.9 		"/>
		<polygon class="st0" points="85.9,85.4 91.5,85.4 91.5,94.9 94.4,94.9 94.4,85.5 100,85.4 100,83.3 85.9,83.4 		"/>
		<polygon class="st1" points="22.1,94.8 30,90.5 29,88.6 21.1,93.1 		"/>
		<polygon class="st1" points="16.8,85.3 17.7,87 25.4,82.7 24.5,81 		"/>
		<polygon class="st1" points="19,89.1 19.9,90.7 24.2,88.3 23.3,86.7 		"/>
		<polygon class="st0" points="39.8,91.7 44.6,83.4 47.8,83.4 40.7,94.9 38.9,94.9 32.3,83.3 35.1,83.3 		"/>
	</g>
</g>
</svg>
