<?xml version="1.0" encoding="utf-8"?>
<!-- Generator: Adobe Illustrator 23.0.0, SVG Export Plug-In . SVG Version: 6.00 Build 0)  -->
<svg version="1.1" id="Layer_1" xmlns="http://www.w3.org/2000/svg" xmlns:xlink="http://www.w3.org/1999/xlink" x="0px" y="0px"
	 viewBox="0 0 173.9 29.4" style="enable-background:new 0 0 173.9 29.4;" xml:space="preserve">
<style type="text/css">
	.st0{fill:url(#SVGID_1_);}
	.st1{fill:url(#SVGID_2_);}
	.st2{fill:url(#SVGID_3_);}
	.st3{fill:url(#SVGID_4_);}
	.st4{fill:#010101;}
</style>
<g>
	<path d="M108.5,14.9c0,2.3-1.3,3.6-3.6,3.6h-2.8v-7.2h2.8C107.2,11.3,108.5,12.6,108.5,14.9z M106.9,14.9c0-1.5-0.7-2.2-2.1-2.2
		h-1.1v4.5h1.1C106.2,17.1,106.9,16.4,106.9,14.9z"/>
	<path d="M112.4,17.4c0.7,0,1.2-0.1,1.7-0.3v1.2c-0.6,0.2-1.2,0.3-2,0.3c-1.8,0-2.8-1-2.8-2.8c0-1.7,1-2.9,2.7-2.9
		c1.4,0,2.4,0.8,2.4,2.6c0,0.2,0,0.5,0,0.7h-3.5C111,17,111.5,17.4,112.4,17.4z M110.9,15.3h2.1c0-0.8-0.4-1.1-1-1.1
		C111.4,14.2,111,14.5,110.9,15.3z"/>
	<path d="M120.6,13.1l-2.1,5.4h-1.5l-2.1-5.4h1.7l0.6,1.9c0.2,0.6,0.4,1.2,0.6,2c0.2-0.8,0.4-1.4,0.6-2l0.6-1.9H120.6z"/>
	<path d="M124,17.4c0.7,0,1.2-0.1,1.7-0.3v1.2c-0.6,0.2-1.2,0.3-2,0.3c-1.8,0-2.8-1-2.8-2.8c0-1.7,1-2.9,2.7-2.9
		c1.4,0,2.4,0.8,2.4,2.6c0,0.2,0,0.5,0,0.7h-3.5C122.6,17,123.1,17.4,124,17.4z M122.4,15.3h2.1c0-0.8-0.4-1.1-1-1.1
		C123,14.2,122.6,14.5,122.4,15.3z"/>
	<path d="M127.1,10.8h1.5v7.7h-1.5V10.8z"/>
	<path d="M129.7,15.8c0-1.8,1.1-2.9,2.8-2.9c1.7,0,2.8,1.1,2.8,2.8c0,1.8-1.1,2.9-2.8,2.9C130.7,18.6,129.7,17.6,129.7,15.8z
		 M133.8,15.8c0-1-0.5-1.6-1.3-1.6c-0.8,0-1.3,0.6-1.3,1.6c0,1,0.5,1.6,1.3,1.6C133.3,17.4,133.8,16.8,133.8,15.8z"/>
	<path d="M141.7,15.7c0,1.7-0.9,2.9-2.8,2.9c-0.3,0-0.6,0-1-0.1v1.9h-1.5v-7.3h1.3l0.1,0.5c0.5-0.4,1.1-0.6,1.7-0.6
		C140.8,12.9,141.7,13.9,141.7,15.7z M140.1,15.8c0-1-0.4-1.5-1.1-1.5c-0.5,0-0.9,0.2-1.1,0.5v2.5c0.3,0.1,0.6,0.1,0.9,0.1
		C139.7,17.4,140.1,16.7,140.1,15.8z"/>
	<path d="M150.6,14.9v3.6h-1.5v-3.4c0-0.6-0.2-0.9-0.7-0.9c-0.4,0-0.7,0.2-0.9,0.5v3.7h-1.5v-3.4c0-0.6-0.2-0.8-0.7-0.8
		c-0.3,0-0.6,0.2-0.9,0.5v3.7h-1.5v-5.4h1.3l0.1,0.4c0.4-0.4,1-0.6,1.6-0.6c0.7,0,1.2,0.3,1.4,0.7c0.5-0.5,1-0.7,1.7-0.7
		C150.2,13,150.6,13.8,150.6,14.9z"/>
	<path d="M154.7,17.4c0.7,0,1.2-0.1,1.7-0.3v1.2c-0.6,0.2-1.2,0.3-2,0.3c-1.8,0-2.8-1-2.8-2.8c0-1.7,1-2.9,2.7-2.9
		c1.4,0,2.4,0.8,2.4,2.6c0,0.2,0,0.5,0,0.7h-3.5C153.3,17,153.8,17.4,154.7,17.4z M153.2,15.3h2.1c0-0.8-0.4-1.1-1-1.1
		C153.7,14.2,153.3,14.5,153.2,15.3z"/>
	<path d="M163,15.2v3.3h-1.5v-3.2c0-0.7-0.3-1.1-1-1.1c-0.4,0-0.8,0.2-1.1,0.5v3.8h-1.5v-5.4h1.3l0.1,0.5c0.5-0.4,1-0.6,1.7-0.6
		C162.3,12.9,163,13.7,163,15.2z"/>
	<path d="M168.1,17.1v1.2c-0.5,0.2-0.9,0.2-1.5,0.2c-1.5,0-2-0.8-2-2.2v-2h-0.8v-1.3h0.8l0.4-1.4h1.1v1.4h1.9v1.3h-1.9v1.8
		c0,0.8,0.3,1.1,1,1.1C167.4,17.4,167.8,17.3,168.1,17.1z"/>
</g>
<g>
	<g>
		<g>
			
				<linearGradient id="SVGID_1_" gradientUnits="userSpaceOnUse" x1="11.9626" y1="26.7489" x2="35.5019" y2="8.1453" gradientTransform="matrix(1 0 0 -1 0 32)">
				<stop  offset="4.102398e-07" style="stop-color:#25C3EA"/>
				<stop  offset="1" style="stop-color:#573594"/>
			</linearGradient>
			<path class="st0" d="M21.2,14.1h-3.8c-0.6,0-1.1-0.5-1.1-1.1V9.1c0-0.6,0.5-1.1,1.1-1.1h3.8c0.6,0,1.1,0.5,1.1,1.1V13
				C22.3,13.6,21.8,14.1,21.2,14.1z M17.3,9c-0.1,0-0.2,0.1-0.2,0.2V13c0,0.1,0.1,0.2,0.2,0.2h3.8c0.1,0,0.2-0.1,0.2-0.2V9.1
				c0-0.1-0.1-0.2-0.2-0.2L17.3,9L17.3,9z"/>
		</g>
		<g>
			
				<linearGradient id="SVGID_2_" gradientUnits="userSpaceOnUse" x1="8.6789" y1="22.5941" x2="32.2183" y2="3.9905" gradientTransform="matrix(1 0 0 -1 0 32)">
				<stop  offset="4.102398e-07" style="stop-color:#25C3EA"/>
				<stop  offset="1" style="stop-color:#573594"/>
			</linearGradient>
			<path class="st1" d="M21.2,20.8h-3.8c-0.6,0-1.1-0.5-1.1-1.1v-3.8c0-0.6,0.5-1.1,1.1-1.1h3.8c0.6,0,1.1,0.5,1.1,1.1v3.8
				C22.3,20.3,21.8,20.8,21.2,20.8z M17.3,15.7c-0.1,0-0.2,0.1-0.2,0.2v3.8c0,0.1,0.1,0.2,0.2,0.2h3.8c0.1,0,0.2-0.1,0.2-0.2v-3.8
				c0-0.1-0.1-0.2-0.2-0.2C21.1,15.7,17.3,15.7,17.3,15.7z"/>
		</g>
		<g>
			
				<linearGradient id="SVGID_3_" gradientUnits="userSpaceOnUse" x1="14.5001" y1="29.9596" x2="38.0394" y2="11.356" gradientTransform="matrix(1 0 0 -1 0 32)">
				<stop  offset="4.102398e-07" style="stop-color:#25C3EA"/>
				<stop  offset="1" style="stop-color:#573594"/>
			</linearGradient>
			<path class="st2" d="M27.8,14.1H24c-0.6,0-1.1-0.5-1.1-1.1V9.1C22.9,8.5,23.4,8,24,8h3.8c0.6,0,1.1,0.5,1.1,1.1V13
				C28.9,13.6,28.5,14.1,27.8,14.1z M24,9c-0.1,0-0.2,0.1-0.2,0.2V13c0,0.1,0.1,0.2,0.2,0.2h3.8c0.1,0,0.2-0.1,0.2-0.2V9.1
				c0,0-0.1-0.1-0.2-0.1H24z"/>
		</g>
		<g>
			
				<linearGradient id="SVGID_4_" gradientUnits="userSpaceOnUse" x1="11.2163" y1="25.8048" x2="34.7557" y2="7.2011" gradientTransform="matrix(1 0 0 -1 0 32)">
				<stop  offset="4.102398e-07" style="stop-color:#25C3EA"/>
				<stop  offset="1" style="stop-color:#573594"/>
			</linearGradient>
			<path class="st3" d="M27.8,20.8H24c-0.6,0-1.1-0.5-1.1-1.1v-3.8c0-0.6,0.5-1.1,1.1-1.1h3.8c0.6,0,1.1,0.5,1.1,1.1v3.8
				C28.9,20.3,28.5,20.8,27.8,20.8z M24,15.7c-0.1,0-0.2,0.1-0.2,0.2v3.8c0,0.1,0.1,0.2,0.2,0.2h3.8c0.1,0,0.2-0.1,0.2-0.2v-3.8
				c0-0.1-0.1-0.2-0.2-0.2C27.8,15.7,24,15.7,24,15.7z"/>
		</g>
	</g>
	<g>
		<path class="st4" d="M40.7,17.1h-2.3L38,18.3h-1.9l2.6-6.9h1.6l2.6,6.9H41L40.7,17.1z M40.3,15.8l-0.7-2.2l-0.7,2.2H40.3z"/>
		<path class="st4" d="M48.8,15.6c0,1.6-0.8,2.8-2.7,2.8c-0.2,0-0.5,0-0.7,0v1.8h-1.7v-7h1.4l0.1,0.4c0.5-0.4,1-0.6,1.6-0.6
			C48,13,48.8,13.9,48.8,15.6z M47.1,15.7c0-0.8-0.3-1.3-0.9-1.3c-0.4,0-0.7,0.1-0.9,0.4v2.1C45.5,17,45.8,17,46,17
			C46.8,17,47.1,16.5,47.1,15.7z"/>
		<path class="st4" d="M55,15.6c0,1.6-0.8,2.8-2.7,2.8c-0.2,0-0.5,0-0.7,0v1.8h-1.7v-7h1.4l0.1,0.4c0.5-0.4,1-0.6,1.6-0.6
			C54.2,13,55,13.9,55,15.6z M53.3,15.7c0-0.8-0.3-1.3-0.9-1.3c-0.4,0-0.7,0.1-0.9,0.4v2.1C51.7,17,52,17,52.2,17
			C53,17,53.3,16.5,53.3,15.7z"/>
		<path class="st4" d="M64.4,14.9c0,2.2-1.2,3.4-3.5,3.4h-2.8v-6.9h2.8C63.2,11.4,64.4,12.7,64.4,14.9z M62.6,14.9
			c0-1.3-0.6-1.9-1.8-1.9H60v3.9h0.9C62,16.8,62.6,16.1,62.6,14.9z"/>
		<path class="st4" d="M68.2,17.1c0.7,0,1.1-0.1,1.7-0.3v1.3c-0.6,0.2-1.2,0.3-2,0.3c-1.8,0-2.8-1-2.8-2.7s1-2.8,2.7-2.8
			c1.4,0,2.3,0.7,2.3,2.4c0,0.3,0,0.6,0,0.8h-3.2C67,16.8,67.4,17.1,68.2,17.1z M66.9,15.2h1.6c0-0.6-0.3-0.8-0.8-0.8
			C67.3,14.4,67,14.6,66.9,15.2z"/>
		<path class="st4" d="M70.9,18.1v-1.4c0.5,0.3,1.2,0.4,1.9,0.4c0.7,0,0.9-0.1,0.9-0.3c0-0.2-0.1-0.3-1.1-0.5
			c-1.1-0.2-1.7-0.6-1.7-1.6c0-1.1,0.8-1.7,2.3-1.7c0.8,0,1.3,0.1,1.9,0.3v1.3c-0.6-0.2-1.2-0.3-1.8-0.3c-0.6,0-0.8,0.1-0.8,0.3
			s0.1,0.3,1.1,0.5c1.2,0.2,1.8,0.6,1.8,1.7s-0.8,1.7-2.5,1.7C72.1,18.4,71.4,18.3,70.9,18.1z"/>
		<path class="st4" d="M76.1,11.4c0-0.6,0.4-1,1.1-1s1.1,0.3,1.1,1s-0.4,0.9-1.1,0.9S76.1,12,76.1,11.4z M76.3,13.1H78v5.2h-1.7
			V13.1z"/>
		<path class="st4" d="M84.1,18.6c0,1.1-1.1,1.7-2.9,1.7c-1.7,0-2.4-0.4-2.4-1.2c0-0.6,0.3-0.9,0.7-1.2c-0.3-0.2-0.4-0.4-0.4-0.9
			c0-0.4,0.2-0.7,0.5-1c-0.3-0.3-0.5-0.7-0.5-1.2c0-1.1,0.8-1.8,2.3-1.8c0.2,0,0.3,0,0.5,0c0.8-0.3,1.5-0.4,2.2-0.4v1.1
			c-0.3,0-0.6,0-0.8,0c0.3,0.3,0.4,0.6,0.4,1.1c0,1-0.8,1.8-2.3,1.8c-0.3,0-0.6,0-0.8-0.1c0,0.1-0.1,0.1-0.1,0.2
			c0,0.2,0.1,0.3,0.6,0.3l1.5,0.1C83.5,17.3,84.1,17.7,84.1,18.6z M82.6,18.8c0-0.2-0.2-0.3-0.5-0.3l-1.6-0.1
			c-0.1,0.1-0.2,0.3-0.2,0.4c0,0.3,0.2,0.5,1.1,0.5C82.2,19.3,82.6,19.1,82.6,18.8z M80.7,14.8c0,0.4,0.2,0.6,0.7,0.6
			s0.7-0.2,0.7-0.6c0-0.4-0.2-0.6-0.7-0.6C80.9,14.2,80.7,14.4,80.7,14.8z"/>
		<path class="st4" d="M89.9,15.1v3.2h-1.7v-3c0-0.6-0.3-0.8-0.7-0.8c-0.3,0-0.6,0.1-0.9,0.4v3.5h-1.7v-5.2h1.4l0.1,0.4
			c0.4-0.4,1-0.5,1.6-0.5C89.3,13,89.9,13.7,89.9,15.1z"/>
		<path class="st4" d="M99.4,18.6c-0.9,0-1.5-0.1-1.9-0.6c-0.6,0.3-1.2,0.5-2,0.5c-1.6,0-2.5-0.7-2.5-2c0-0.9,0.5-1.6,1.3-2
			c-0.3-0.5-0.5-0.9-0.5-1.4c0-1.2,0.9-1.9,2.2-1.9c1.3,0,2.1,0.6,2.1,1.7c0,0.9-0.5,1.5-1.5,1.9l1,1.1c0.1-0.3,0.2-0.6,0.2-1h1.4
			c0,0.8-0.2,1.5-0.6,2c0.3,0.2,0.5,0.2,0.8,0.2V18.6z M95.7,17.2c0.3,0,0.6,0,0.8-0.1l-1.4-1.5c-0.3,0.2-0.5,0.4-0.5,0.8
			C94.6,16.9,95,17.2,95.7,17.2z M95.3,13.2c0,0.3,0.1,0.5,0.4,0.8c0.6-0.2,0.9-0.4,0.9-0.8c0-0.4-0.2-0.5-0.6-0.5
			C95.5,12.6,95.3,12.8,95.3,13.2z"/>
	</g>
</g>
</svg>
