<?xml version="1.0" encoding="utf-8"?>
<!-- Generator: Adobe Illustrator 23.0.0, SVG Export Plug-In . SVG Version: 6.00 Build 0)  -->
<svg version="1.1" id="Layer_1" xmlns="http://www.w3.org/2000/svg" xmlns:xlink="http://www.w3.org/1999/xlink" x="0px" y="0px"
	 viewBox="0 0 77 70" style="enable-background:new 0 0 77 70;" xml:space="preserve">
<style type="text/css">
	.st0{opacity:0.47;}
	.st1{fill:#030C30;}
</style>
<g class="st0">
	<g>
		<path class="st1" d="M33.3,33.7H21.8c-2.3,0-4.1-1.8-4.1-4.1V18c0-2.3,1.8-4.1,4.1-4.1h11.5c2.3,0,4.1,1.8,4.1,4.1v11.5
			C37.4,31.8,35.6,33.7,33.3,33.7z M21.8,15.4c-1.4,0-2.6,1.2-2.6,2.6v11.5c0,1.4,1.2,2.6,2.6,2.6h11.5c1.4,0,2.6-1.2,2.6-2.6V18
			c0-1.4-1.2-2.6-2.6-2.6H21.8z"/>
	</g>
	<g>
		<path class="st1" d="M33.3,56.1H21.8c-2.3,0-4.1-1.8-4.1-4.1V40.4c0-2.3,1.8-4.1,4.1-4.1h11.5c2.3,0,4.1,1.8,4.1,4.1V52
			C37.4,54.2,35.6,56.1,33.3,56.1z M21.8,37.8c-1.4,0-2.6,1.2-2.6,2.6V52c0,1.4,1.2,2.6,2.6,2.6h11.5c1.4,0,2.6-1.2,2.6-2.6V40.4
			c0-1.4-1.2-2.6-2.6-2.6H21.8z"/>
	</g>
	<g>
		<path class="st1" d="M55.2,33.7H43.7c-2.3,0-4.1-1.8-4.1-4.1V18c0-2.3,1.8-4.1,4.1-4.1h11.5c2.3,0,4.1,1.8,4.1,4.1v11.5
			C59.4,31.8,57.5,33.7,55.2,33.7z M43.7,15.4c-1.4,0-2.6,1.2-2.6,2.6v11.5c0,1.4,1.2,2.6,2.6,2.6h11.5c1.4,0,2.6-1.2,2.6-2.6V18
			c0-1.4-1.2-2.6-2.6-2.6H43.7z"/>
	</g>
	<g>
		<path class="st1" d="M55.2,56.1H43.7c-2.3,0-4.1-1.8-4.1-4.1V40.4c0-2.3,1.8-4.1,4.1-4.1h11.5c2.3,0,4.1,1.8,4.1,4.1V52
			C59.4,54.2,57.5,56.1,55.2,56.1z M43.7,37.8c-1.4,0-2.6,1.2-2.6,2.6V52c0,1.4,1.2,2.6,2.6,2.6h11.5c1.4,0,2.6-1.2,2.6-2.6V40.4
			c0-1.4-1.2-2.6-2.6-2.6H43.7z"/>
	</g>
</g>
</svg>
