<?xml version="1.0" encoding="utf-8"?>
<!-- Generator: Adobe Illustrator 23.0.0, SVG Export Plug-In . SVG Version: 6.00 Build 0)  -->
<svg version="1.1" id="Layer_1" xmlns="http://www.w3.org/2000/svg" xmlns:xlink="http://www.w3.org/1999/xlink" x="0px" y="0px"
	 viewBox="0 0 77 70" style="enable-background:new 0 0 77 70;" xml:space="preserve">
<style type="text/css">
	.st0{opacity:0.47;}
</style>
<g id="Out_line" class="st0">
	<path d="M56.6,39.7c0.4-0.1,0.7-0.6,0.7-1v-8.5c0-0.6-0.5-1.1-1.1-1.1c-0.1,0-0.2,0-0.3,0.1l-1.5,0.5c-2.6-7.8-11.1-12-18.9-9.4
		c-3.9,1.3-7.1,4.2-8.8,8l-2.7,0.9c-0.4,0.1-0.7,0.6-0.7,1v8.5c0,0.6,0.5,1.1,1.1,1.1c0.1,0,0.2,0,0.3-0.1l1.5-0.5
		c2.6,7.8,11.1,12,18.9,9.4c3.9-1.3,7.1-4.2,8.8-8L56.6,39.7z M40.2,21.7c5.5,0,10.4,3.5,12.1,8.7c-3.9,1.1-8,0.7-11.6-1.1
		c-3.5-1.8-7.4-2.3-11.3-1.7C31.8,23.9,35.9,21.7,40.2,21.7z M25.3,31l2.1-0.7c4.1-1.4,8.5-1.1,12.4,0.9c4.3,2.2,9.4,2.5,14,1
		l1.4-0.5V38l-2.1,0.7c-4.1,1.4-8.5,1.1-12.4-0.9c-4.3-2.2-9.4-2.5-14-1l-1.4,0.5V31z M40.2,47.3c-5.5,0-10.4-3.5-12.1-8.7
		c3.9-1.1,8-0.7,11.6,1.1c3.5,1.8,7.4,2.3,11.3,1.7C48.7,45,44.6,47.3,40.2,47.3L40.2,47.3z"/>
	<path d="M33.8,13.1h4.3v2.1h-4.3V13.1z"/>
	<path d="M42.3,13.1h4.3v2.1h-4.3V13.1z"/>
	<path d="M60.5,13.1h-9.6v2.1h8.5v8.5h2.1v-9.6C61.5,13.6,61.1,13.1,60.5,13.1C60.5,13.1,60.5,13.1,60.5,13.1z"/>
	<path d="M59.4,28.1h2.1v4.3h-2.1V28.1z"/>
	<path d="M59.4,36.6h2.1v4.3h-2.1V36.6z"/>
	<path d="M59.4,53.7h-8.5v2.1h9.6c0.6,0,1.1-0.5,1.1-1.1c0,0,0,0,0,0v-9.6h-2.1V53.7z"/>
	<path d="M42.3,53.7h4.3v2.1h-4.3V53.7z"/>
	<path d="M33.8,53.7h4.3v2.1h-4.3V53.7z"/>
	<path d="M21,45.1h-2.1v9.6c0,0.6,0.5,1.1,1.1,1.1c0,0,0,0,0,0h9.6v-2.1H21V45.1z"/>
	<path d="M18.9,36.6H21v4.3h-2.1V36.6z"/>
	<path d="M18.9,28.1H21v4.3h-2.1V28.1z"/>
	<path d="M21,15.3h8.5v-2.1h-9.6c-0.6,0-1.1,0.5-1.1,1.1c0,0,0,0,0,0v9.6H21V15.3z"/>
	<path d="M15.7,14.2H9.3c-0.6,0-1.1,0.5-1.1,1.1c0,0,0,0,0,0v38.4c0,0.6,0.5,1.1,1.1,1.1c0,0,0,0,0,0h6.4c0.6,0,1.1-0.5,1.1-1.1
		c0,0,0,0,0,0V15.3C16.7,14.7,16.3,14.2,15.7,14.2C15.7,14.2,15.7,14.2,15.7,14.2z M10.3,52.6V16.3h4.3v2.1h-2.1v2.1h2.1v2.1h-2.1
		v2.1h2.1V27h-2.1v2.1h2.1v2.1h-2.1v2.1h2.1v2.1h-2.1v2.1h2.1v2.1h-2.1v2.1h2.1v2.1h-2.1v2.1h2.1v2.1h-2.1v2.1h2.1v2.1H10.3z"/>
	<path d="M71.1,14.2h-4.3c-0.6,0-1.1,0.5-1.1,1.1c0,0,0,0,0,0v5.3h-2.1c-0.6,0-1.1,0.5-1.1,1.1c0,0,0,0,0,0v8.5h2.1v-7.5h1.1v27.7
		c0,0.1,0,0.3,0.1,0.4l2.1,5.3c0.2,0.5,0.8,0.8,1.4,0.6c0.3-0.1,0.5-0.3,0.6-0.6l2.1-5.3c0.1-0.1,0.1-0.3,0.1-0.4V15.3
		C72.2,14.7,71.7,14.2,71.1,14.2C71.1,14.2,71.1,14.2,71.1,14.2z M67.9,16.3h2.1v4.3h-2.1V16.3z M69,52.9l-1.1-2.7V22.7h2.1v27.5
		L69,52.9z"/>
</g>
</svg>
