<?xml version="1.0" encoding="utf-8"?>
<!-- Generator: Adobe Illustrator 23.0.0, SVG Export Plug-In . SVG Version: 6.00 Build 0)  -->
<svg version="1.1" id="Layer_1" xmlns="http://www.w3.org/2000/svg" xmlns:xlink="http://www.w3.org/1999/xlink" x="0px" y="0px"
	 viewBox="0 0 173.9 29.4" style="enable-background:new 0 0 173.9 29.4;" xml:space="preserve">
<style type="text/css">
	.st0{fill:#010101;}
	.st1{fill:url(#SVGID_1_);}
	.st2{fill:url(#SVGID_2_);}
	.st3{fill:url(#SVGID_3_);}
	.st4{fill:url(#SVGID_4_);}
	.st5{fill:url(#SVGID_5_);}
	.st6{fill:url(#SVGID_6_);}
	.st7{fill:url(#SVGID_7_);}
	.st8{fill:url(#SVGID_8_);}
	.st9{fill:url(#SVGID_9_);}
	.st10{fill:url(#SVGID_10_);}
	.st11{fill:url(#SVGID_11_);}
	.st12{fill:url(#SVGID_12_);}
	.st13{fill:url(#SVGID_13_);}
	.st14{fill:url(#SVGID_14_);}
	.st15{fill:url(#SVGID_15_);}
</style>
<g>
	<g>
		<g>
			<path class="st0" d="M59.3,14.9c0,1.4-1,2.1-2.5,2.1h-3v-6.9H57c1.3,0,2.1,0.7,2.1,1.8c0,0.7-0.3,1.1-0.7,1.3
				C58.9,13.6,59.3,14.1,59.3,14.9z M55.5,11.4v1.5h1c0.6,0,0.9-0.3,0.9-0.7c0-0.5-0.2-0.7-0.9-0.7H55.5z M57.5,14.9
				c0-0.5-0.3-0.8-0.9-0.8h-1.1v1.6h1C57.2,15.8,57.5,15.5,57.5,14.9z"/>
			<path class="st0" d="M63.6,11.8v1.7c-0.1,0-0.3-0.1-0.5-0.1c-0.4,0-0.8,0.1-1.1,0.7v3h-1.7v-5.2h1.4l0.1,0.5
				c0.4-0.5,0.8-0.7,1.4-0.7C63.3,11.7,63.5,11.7,63.6,11.8z"/>
			<path class="st0" d="M68.9,14v3h-1.4l-0.1-0.4c-0.4,0.3-0.9,0.5-1.6,0.5c-1.1,0-1.7-0.6-1.7-1.6c0-1,0.8-1.7,2-1.7
				c0.5,0,0.8,0,1.1,0.1v-0.2c0-0.5-0.3-0.7-1.1-0.7c-0.6,0-1.1,0.1-1.6,0.3V12c0.5-0.2,1.2-0.3,2-0.3C68.3,11.7,68.9,12.4,68.9,14z
				 M66.4,16c0.3,0,0.6-0.1,0.8-0.3v-0.6C67,15,66.7,15,66.5,15c-0.4,0-0.7,0.2-0.7,0.5C65.8,15.8,66,16,66.4,16z"/>
			<path class="st0" d="M75.1,13.9V17h-1.7v-3c0-0.6-0.3-0.8-0.7-0.8c-0.3,0-0.6,0.1-0.9,0.4V17h-1.7v-5.2h1.4l0.1,0.4
				c0.4-0.4,1-0.5,1.6-0.5C74.5,11.7,75.1,12.4,75.1,13.9z"/>
			<path class="st0" d="M81.2,9.6V17h-1.4l-0.1-0.4c-0.4,0.4-1.1,0.6-1.5,0.6c-1.3,0-2.2-0.8-2.2-2.7c0-1.8,1.2-2.8,2.6-2.8
				c0.3,0,0.6,0,0.8,0.1V9.6H81.2z M79.5,15.3v-2.1c-0.2-0.1-0.4-0.1-0.7-0.1c-0.7,0-1.1,0.4-1.1,1.3c0,0.9,0.3,1.3,0.9,1.3
				C79,15.7,79.3,15.6,79.5,15.3z"/>
			<path class="st0" d="M82.2,10.1c0-0.6,0.4-1,1.1-1s1.1,0.3,1.1,1s-0.4,0.9-1.1,0.9S82.2,10.7,82.2,10.1z M82.4,11.9h1.7V17h-1.7
				V11.9z"/>
			<path class="st0" d="M90.4,13.9V17h-1.7v-3c0-0.6-0.3-0.8-0.7-0.8c-0.3,0-0.6,0.1-0.9,0.4V17h-1.7v-5.2h1.4l0.1,0.4
				c0.4-0.4,1-0.5,1.6-0.5C89.8,11.7,90.4,12.4,90.4,13.9z"/>
			<path class="st0" d="M96.4,17.3c0,1.1-1.1,1.7-2.9,1.7c-1.7,0-2.4-0.4-2.4-1.2c0-0.6,0.3-0.9,0.7-1.2c-0.3-0.2-0.4-0.4-0.4-0.9
				c0-0.4,0.2-0.7,0.5-1c-0.3-0.3-0.5-0.7-0.5-1.2c0-1.1,0.8-1.8,2.3-1.8c0.2,0,0.3,0,0.5,0c0.8-0.3,1.5-0.4,2.2-0.4v1.1
				c-0.3,0-0.5,0-0.8,0c0.3,0.3,0.4,0.6,0.4,1.1c0,1-0.8,1.8-2.3,1.8c-0.3,0-0.6,0-0.8-0.1c0,0.1-0.1,0.1-0.1,0.2
				c0,0.2,0.1,0.3,0.6,0.3l1.5,0.1C95.8,16,96.4,16.5,96.4,17.3z M94.9,17.5c0-0.2-0.2-0.3-0.5-0.3l-1.6-0.1
				c-0.1,0.1-0.2,0.3-0.2,0.4c0,0.3,0.2,0.5,1.1,0.5C94.5,18,94.9,17.8,94.9,17.5z M93,13.5c0,0.4,0.2,0.6,0.7,0.6
				c0.5,0,0.7-0.2,0.7-0.6c0-0.4-0.2-0.6-0.7-0.6C93.2,12.9,93,13.1,93,13.5z"/>
			<path class="st0" d="M105.5,17.3c-0.9,0-1.5-0.1-1.9-0.6c-0.6,0.3-1.2,0.5-2,0.5c-1.6,0-2.5-0.7-2.5-2c0-0.9,0.5-1.6,1.3-2
				c-0.3-0.5-0.5-0.9-0.5-1.4c0-1.2,0.9-1.9,2.2-1.9c1.3,0,2.1,0.6,2.1,1.7c0,0.9-0.5,1.5-1.5,1.9l1,1.1c0.1-0.3,0.2-0.6,0.2-1h1.4
				c0,0.8-0.2,1.5-0.6,2c0.3,0.2,0.5,0.2,0.8,0.2V17.3z M101.8,15.9c0.3,0,0.6,0,0.8-0.1l-1.4-1.5c-0.3,0.2-0.5,0.4-0.5,0.8
				C100.7,15.6,101.1,15.9,101.8,15.9z M101.4,11.9c0,0.3,0.1,0.5,0.4,0.8c0.6-0.2,0.9-0.4,0.9-0.8c0-0.4-0.2-0.5-0.6-0.5
				C101.6,11.3,101.4,11.5,101.4,11.9z"/>
			<path class="st0" d="M110.4,10.1V17h-1.8v-6.9H110.4z"/>
			<path class="st0" d="M116.7,9.6V17h-1.4l-0.1-0.4c-0.4,0.4-1.1,0.6-1.5,0.6c-1.3,0-2.2-0.8-2.2-2.7c0-1.8,1.2-2.8,2.6-2.8
				c0.3,0,0.6,0,0.8,0.1V9.6H116.7z M114.9,15.3v-2.1c-0.2-0.1-0.4-0.1-0.7-0.1c-0.7,0-1.1,0.4-1.1,1.3c0,0.9,0.3,1.3,0.9,1.3
				C114.4,15.7,114.7,15.6,114.9,15.3z"/>
			<path class="st0" d="M120.6,15.8c0.7,0,1.1-0.1,1.7-0.3v1.3c-0.6,0.2-1.2,0.3-2,0.3c-1.8,0-2.8-1-2.8-2.7c0-1.7,1-2.8,2.7-2.8
				c1.4,0,2.3,0.7,2.3,2.4c0,0.3,0,0.6,0,0.8h-3.2C119.5,15.6,119.9,15.8,120.6,15.8z M119.3,13.9h1.6c0-0.6-0.3-0.8-0.8-0.8
				C119.8,13.1,119.4,13.3,119.3,13.9z"/>
			<path class="st0" d="M128.6,13.9V17h-1.7v-3c0-0.6-0.3-0.8-0.7-0.8c-0.3,0-0.6,0.1-0.9,0.4V17h-1.7v-5.2h1.4l0.1,0.4
				c0.4-0.4,1-0.5,1.6-0.5C128,11.7,128.6,12.4,128.6,13.9z"/>
			<path class="st0" d="M133.6,15.5v1.4c-0.5,0.1-0.9,0.2-1.5,0.2c-1.5,0-2.1-0.8-2.1-2.2v-1.7h-0.7v-1.4h0.7l0.4-1.4h1.2v1.4h1.8
				v1.4h-1.8v1.4c0,0.7,0.2,1,0.8,1C132.9,15.7,133.3,15.7,133.6,15.5z"/>
			<path class="st0" d="M134.2,10.1c0-0.6,0.4-1,1.1-1s1.1,0.3,1.1,1s-0.4,0.9-1.1,0.9S134.2,10.7,134.2,10.1z M134.4,11.9h1.7V17
				h-1.7V11.9z"/>
			<path class="st0" d="M141.2,15.5v1.4c-0.5,0.1-0.9,0.2-1.5,0.2c-1.5,0-2.1-0.8-2.1-2.2v-1.7H137v-1.4h0.7l0.4-1.4h1.2v1.4h1.8
				v1.4h-1.8v1.4c0,0.7,0.2,1,0.8,1C140.5,15.7,140.9,15.7,141.2,15.5z"/>
			<path class="st0" d="M147.2,11.9l-2.1,5.1l-0.7,1.9h-1.7l0.8-1.9l-2.1-5.1h1.9l1,3.2l1-3.2H147.2z"/>
		</g>
	</g>
	<g id="Out_line_2_">
		<linearGradient id="SVGID_1_" gradientUnits="userSpaceOnUse" x1="30.6036" y1="7.4667" x2="55.7407" y2="20.391">
			<stop  offset="4.102398e-07" style="stop-color:#25C3EA"/>
			<stop  offset="1" style="stop-color:#573594"/>
		</linearGradient>
		<path class="st1" d="M45.7,14.5c0.1,0,0.2-0.1,0.2-0.2v-2c0-0.1-0.1-0.2-0.2-0.2c0,0-0.1,0-0.1,0l-0.4,0.1
			c-0.6-1.8-2.6-2.8-4.4-2.2c-0.9,0.3-1.6,1-2,1.8l-0.6,0.2c-0.1,0-0.2,0.1-0.2,0.2v2c0,0.1,0.1,0.2,0.2,0.2c0,0,0.1,0,0.1,0
			l0.4-0.1c0.6,1.8,2.6,2.8,4.4,2.2c0.9-0.3,1.6-1,2-1.8L45.7,14.5z M41.9,10.3c1.3,0,2.4,0.8,2.8,2c-0.9,0.3-1.9,0.2-2.7-0.3
			c-0.8-0.4-1.7-0.5-2.6-0.4C40,10.8,40.9,10.3,41.9,10.3z M38.4,12.5l0.5-0.2c0.9-0.3,2-0.2,2.9,0.2c1,0.5,2.2,0.6,3.3,0.2l0.3-0.1
			v1.5l-0.5,0.2c-0.9,0.3-2,0.2-2.9-0.2c-1-0.5-2.2-0.6-3.3-0.2l-0.3,0.1V12.5z M41.9,16.3c-1.3,0-2.4-0.8-2.8-2
			c0.9-0.3,1.9-0.2,2.7,0.3c0.8,0.4,1.7,0.5,2.6,0.4C43.9,15.7,42.9,16.3,41.9,16.3L41.9,16.3z"/>
		<linearGradient id="SVGID_2_" gradientUnits="userSpaceOnUse" x1="32.3102" y1="4.1476" x2="57.4473" y2="17.0718">
			<stop  offset="4.102398e-07" style="stop-color:#25C3EA"/>
			<stop  offset="1" style="stop-color:#573594"/>
		</linearGradient>
		<path class="st2" d="M40.4,8.3h1v0.5h-1V8.3z"/>
		<linearGradient id="SVGID_3_" gradientUnits="userSpaceOnUse" x1="32.7245" y1="3.3418" x2="57.8616" y2="16.2661">
			<stop  offset="4.102398e-07" style="stop-color:#25C3EA"/>
			<stop  offset="1" style="stop-color:#573594"/>
		</linearGradient>
		<path class="st3" d="M42.4,8.3h1v0.5h-1V8.3z"/>
		<linearGradient id="SVGID_4_" gradientUnits="userSpaceOnUse" x1="33.0788" y1="2.6527" x2="58.2159" y2="15.577">
			<stop  offset="4.102398e-07" style="stop-color:#25C3EA"/>
			<stop  offset="1" style="stop-color:#573594"/>
		</linearGradient>
		<path class="st4" d="M46.6,8.3h-2.2v0.5h2v2h0.5V8.6C46.9,8.4,46.8,8.3,46.6,8.3C46.6,8.3,46.6,8.3,46.6,8.3z"/>
		<linearGradient id="SVGID_5_" gradientUnits="userSpaceOnUse" x1="31.9904" y1="4.7695" x2="57.1276" y2="17.6937">
			<stop  offset="4.102398e-07" style="stop-color:#25C3EA"/>
			<stop  offset="1" style="stop-color:#573594"/>
		</linearGradient>
		<path class="st5" d="M46.4,11.8h0.5v1h-0.5V11.8z"/>
		<linearGradient id="SVGID_6_" gradientUnits="userSpaceOnUse" x1="31.1847" y1="6.3366" x2="56.3218" y2="19.2609">
			<stop  offset="4.102398e-07" style="stop-color:#25C3EA"/>
			<stop  offset="1" style="stop-color:#573594"/>
		</linearGradient>
		<path class="st6" d="M46.4,13.8h0.5v1h-0.5V13.8z"/>
		<linearGradient id="SVGID_7_" gradientUnits="userSpaceOnUse" x1="29.8696" y1="8.8944" x2="55.0067" y2="21.8186">
			<stop  offset="4.102398e-07" style="stop-color:#25C3EA"/>
			<stop  offset="1" style="stop-color:#573594"/>
		</linearGradient>
		<path class="st7" d="M46.4,17.7h-2v0.5h2.2c0.1,0,0.2-0.1,0.2-0.2c0,0,0,0,0,0v-2.2h-0.5V17.7z"/>
		<linearGradient id="SVGID_8_" gradientUnits="userSpaceOnUse" x1="28.8971" y1="10.7859" x2="54.0342" y2="23.7102">
			<stop  offset="4.102398e-07" style="stop-color:#25C3EA"/>
			<stop  offset="1" style="stop-color:#573594"/>
		</linearGradient>
		<path class="st8" d="M42.4,17.7h1v0.5h-1V17.7z"/>
		<linearGradient id="SVGID_9_" gradientUnits="userSpaceOnUse" x1="28.4828" y1="11.5917" x2="53.6199" y2="24.5159">
			<stop  offset="4.102398e-07" style="stop-color:#25C3EA"/>
			<stop  offset="1" style="stop-color:#573594"/>
		</linearGradient>
		<path class="st9" d="M40.4,17.7h1v0.5h-1V17.7z"/>
		<linearGradient id="SVGID_10_" gradientUnits="userSpaceOnUse" x1="28.1285" y1="12.2807" x2="53.2656" y2="25.205">
			<stop  offset="4.102398e-07" style="stop-color:#25C3EA"/>
			<stop  offset="1" style="stop-color:#573594"/>
		</linearGradient>
		<path class="st10" d="M37.5,15.8H37V18c0,0.1,0.1,0.2,0.2,0.2c0,0,0,0,0,0h2.2v-0.5h-2V15.8z"/>
		<linearGradient id="SVGID_11_" gradientUnits="userSpaceOnUse" x1="29.2168" y1="10.164" x2="54.3539" y2="23.0883">
			<stop  offset="4.102398e-07" style="stop-color:#25C3EA"/>
			<stop  offset="1" style="stop-color:#573594"/>
		</linearGradient>
		<path class="st11" d="M37,13.8h0.5v1H37V13.8z"/>
		<linearGradient id="SVGID_12_" gradientUnits="userSpaceOnUse" x1="30.0226" y1="8.5968" x2="55.1597" y2="21.5211">
			<stop  offset="4.102398e-07" style="stop-color:#25C3EA"/>
			<stop  offset="1" style="stop-color:#573594"/>
		</linearGradient>
		<path class="st12" d="M37,11.8h0.5v1H37V11.8z"/>
		<linearGradient id="SVGID_13_" gradientUnits="userSpaceOnUse" x1="31.3377" y1="6.0391" x2="56.4748" y2="18.9634">
			<stop  offset="4.102398e-07" style="stop-color:#25C3EA"/>
			<stop  offset="1" style="stop-color:#573594"/>
		</linearGradient>
		<path class="st13" d="M37.5,8.8h2V8.3h-2.2c-0.1,0-0.2,0.1-0.2,0.2c0,0,0,0,0,0v2.2h0.5V8.8z"/>
		<linearGradient id="SVGID_14_" gradientUnits="userSpaceOnUse" x1="29.2572" y1="10.0855" x2="54.3943" y2="23.0097">
			<stop  offset="4.102398e-07" style="stop-color:#25C3EA"/>
			<stop  offset="1" style="stop-color:#573594"/>
		</linearGradient>
		<path class="st14" d="M36.2,8.6h-1.5c-0.1,0-0.2,0.1-0.2,0.2c0,0,0,0,0,0v8.9c0,0.1,0.1,0.2,0.2,0.2c0,0,0,0,0,0h1.5
			c0.1,0,0.2-0.1,0.2-0.2c0,0,0,0,0,0V8.8C36.5,8.7,36.4,8.6,36.2,8.6C36.2,8.6,36.2,8.6,36.2,8.6z M35,17.5V9.1h1v0.5h-0.5v0.5H36
			v0.5h-0.5v0.5H36v0.5h-0.5V12H36v0.5h-0.5V13H36v0.5h-0.5V14H36v0.5h-0.5V15H36v0.5h-0.5V16H36v0.5h-0.5V17H36v0.5H35z"/>
		<linearGradient id="SVGID_15_" gradientUnits="userSpaceOnUse" x1="31.9529" y1="4.8424" x2="57.09" y2="17.7667">
			<stop  offset="4.102398e-07" style="stop-color:#25C3EA"/>
			<stop  offset="1" style="stop-color:#573594"/>
		</linearGradient>
		<path class="st15" d="M49.1,8.6h-1c-0.1,0-0.2,0.1-0.2,0.2c0,0,0,0,0,0v1.2h-0.5c-0.1,0-0.2,0.1-0.2,0.2c0,0,0,0,0,0v2h0.5v-1.7
			h0.2V17c0,0,0,0.1,0,0.1l0.5,1.2c0.1,0.1,0.2,0.2,0.3,0.1c0.1,0,0.1-0.1,0.1-0.1l0.5-1.2c0,0,0-0.1,0-0.1V8.8
			C49.3,8.7,49.2,8.6,49.1,8.6C49.1,8.6,49.1,8.6,49.1,8.6z M48.4,9.1h0.5v1h-0.5V9.1z M48.6,17.6l-0.2-0.6v-6.4h0.5v6.4L48.6,17.6z
			"/>
	</g>
</g>
</svg>
