<?xml version="1.0" encoding="utf-8"?>
<!-- Generator: Adobe Illustrator 23.0.0, SVG Export Plug-In . SVG Version: 6.00 Build 0)  -->
<svg version="1.1" id="Layer_1" xmlns="http://www.w3.org/2000/svg" xmlns:xlink="http://www.w3.org/1999/xlink" x="0px" y="0px"
	 viewBox="0 0 362.1 72.4" style="enable-background:new 0 0 362.1 72.4;" xml:space="preserve">
<style type="text/css">
	.st0{fill:#030C30;}
	.st1{fill:url(#SVGID_1_);}
	.st2{fill:url(#SVGID_2_);}
</style>
<g>
	<g>
		<path class="st0" d="M47,37c0-10.5,6-16.3,16.3-16.3c3.3,0,5.7,0.3,7.5,1.1v7.6c-1.4-0.7-3.5-1.2-6.3-1.2c-5.4,0-8.4,2.7-8.4,8.5
			c0,5.9,2.8,8.2,8.4,8.2c2.8,0,4.9-0.6,6.6-1.5V51c-1.9,0.9-4.9,1.6-8,1.6C52.7,52.5,47,47,47,37z"/>
		<path class="st0" d="M105.1,36.5c0,10.1-5.8,16-15.6,16c-9.7,0-15.6-5.8-15.6-15.9c0-10,5.8-16,15.6-16
			C99.3,20.6,105.1,26.5,105.1,36.5z M83.1,36.6c0,5.4,2.5,8.3,6.5,8.3c4,0,6.5-2.9,6.5-8.3c0-5.3-2.5-8.3-6.5-8.3
			C85.5,28.2,83.1,31.2,83.1,36.6z"/>
		<path class="st0" d="M136.1,21.5v30.2h-7.8l-10.5-15.5c0,1.3,0,2.7,0,4v11.5h-8.3V21.5h7.8L127.8,37c0-1.4,0-2.9,0-4.3V21.5H136.1
			z"/>
		<path class="st0" d="M167,29.1h-9.3v22.5h-9V29.1h-9.3v-7.7H167V29.1z"/>
		<path class="st0" d="M187.7,47.5h-9.3l-1.3,4.2h-9.4l11.5-30.2h8.1l11.5,30.2H189L187.7,47.5z M185.7,41.1l-2.6-8.3l-2.6,8.3
			H185.7z"/>
		<path class="st0" d="M200.2,37c0-10.5,6-16.3,16.3-16.3c3.3,0,5.7,0.3,7.5,1.1v7.6c-1.4-0.7-3.5-1.2-6.3-1.2
			c-5.4,0-8.4,2.7-8.4,8.5c0,5.9,2.8,8.2,8.4,8.2c2.8,0,4.9-0.6,6.6-1.5V51c-1.9,0.9-4.9,1.6-8,1.6C205.9,52.5,200.2,47,200.2,37z"
			/>
		<path class="st0" d="M253.8,29.1h-9.3v22.5h-9V29.1h-9.3v-7.7h27.5V29.1z"/>
	</g>
	<g>
		<g>
			<radialGradient id="SVGID_1_" cx="248.2054" cy="-5.1555" r="120.5884" gradientUnits="userSpaceOnUse">
				<stop  offset="0" style="stop-color:#00C7EF"/>
				<stop  offset="1" style="stop-color:#5300AA"/>
			</radialGradient>
			<path class="st1" d="M279.2,53c-9.3,0-13.8-4.7-13.8-14.3V21h10v18.2c0,3.9,1.1,5.4,3.9,5.4c2.8,0,3.8-1.5,3.8-5.4V21h10v17.5
				C293.1,48.1,288.4,53,279.2,53z M266.5,22v16.7c0,9.1,4.1,13.3,12.8,13.3c8.6,0,12.9-4.4,12.9-13.6V22h-7.9v17.2
				c0,3-0.6,6.4-4.9,6.4c-4.4,0-4.9-3.4-4.9-6.4V22H266.5z"/>
		</g>
		<g>
			<radialGradient id="SVGID_2_" cx="248.2054" cy="-5.1555" r="120.5884" gradientUnits="userSpaceOnUse">
				<stop  offset="0" style="stop-color:#00C7EF"/>
				<stop  offset="1" style="stop-color:#5300AA"/>
			</radialGradient>
			<path class="st2" d="M307.7,53c-4.6,0-8.2-0.6-10.8-1.8l-0.3-0.1v-9.2l0.8,0.4c2.9,1.6,6.2,2.4,10.3,2.4c4.1,0,4.7-0.8,4.7-1.6
				c0-1-0.9-1.5-6.4-2.6c-6.6-1.4-9.4-4.4-9.4-9.9c0-6.5,4.9-10.4,13.1-10.4c4.3,0,7.4,0.5,10.2,1.6l0.3,0.1v8.5l-0.7-0.2
				c-3.3-1-6.3-1.6-9.2-1.6c-3.9,0-4.6,0.5-4.6,1.3c0,0.7,0.4,1,5.1,2c8.2,1.8,11.2,4.6,11.2,10.4C322,49.2,317,53,307.7,53z
				 M297.6,50.4c2.4,1,5.9,1.6,10.1,1.6c6.1,0,13.3-1.7,13.3-9.8c0-5.3-2.7-7.7-10.4-9.4c-4.5-0.9-5.9-1.3-5.9-3
				c0-2.1,2.7-2.3,5.6-2.3c2.7,0,5.7,0.5,8.8,1.4v-6.4c-2.6-1-5.6-1.4-9.5-1.4c-7.7,0-12.1,3.4-12.1,9.4c0,5,2.5,7.6,8.6,8.9
				c5.3,1.1,7.2,1.7,7.2,3.6c0,2.3-2.7,2.6-5.7,2.6c-3.9,0-7.2-0.7-10-2.1V50.4z"/>
		</g>
	</g>
</g>
</svg>
