<?xml version="1.0" encoding="utf-8"?>
<!-- Generator: Adobe Illustrator 23.0.0, SVG Export Plug-In . SVG Version: 6.00 Build 0)  -->
<svg version="1.1" id="Layer_1" xmlns="http://www.w3.org/2000/svg" xmlns:xlink="http://www.w3.org/1999/xlink" x="0px" y="0px"
	 viewBox="0 0 173.9 29.4" style="enable-background:new 0 0 173.9 29.4;" xml:space="preserve">
<style type="text/css">
	.st0{fill:#010101;}
	.st1{fill:url(#SVGID_1_);}
	.st2{fill:url(#SVGID_2_);}
	.st3{fill:url(#SVGID_3_);}
	.st4{fill:url(#SVGID_4_);}
</style>
<g>
	<g>
		<g>
			<path class="st0" d="M59.9,16.8c0,2.2-1.2,3.4-3.5,3.4h-2.8v-6.9h2.8C58.7,13.3,59.9,14.6,59.9,16.8z M58.1,16.8
				c0-1.3-0.6-1.9-1.8-1.9h-0.9v3.9h0.9C57.5,18.7,58.1,18.1,58.1,16.8z"/>
			<path class="st0" d="M60.7,13.3c0-0.6,0.4-1,1.1-1s1.1,0.3,1.1,1s-0.4,0.9-1.1,0.9S60.7,13.9,60.7,13.3z M60.9,15.1h1.7v5.2h-1.7
				V15.1z"/>
			<path class="st0" d="M68.7,20.5c0,1.1-1.1,1.7-2.9,1.7c-1.7,0-2.4-0.4-2.4-1.2c0-0.6,0.3-0.9,0.7-1.2c-0.3-0.2-0.4-0.4-0.4-0.9
				c0-0.4,0.2-0.7,0.5-1c-0.3-0.3-0.5-0.7-0.5-1.2c0-1.1,0.8-1.8,2.3-1.8c0.2,0,0.3,0,0.5,0c0.8-0.3,1.5-0.4,2.2-0.4v1.1
				c-0.3,0-0.6,0-0.8,0c0.3,0.3,0.4,0.6,0.4,1.1c0,1-0.8,1.8-2.3,1.8c-0.3,0-0.6,0-0.8-0.1c0,0.1-0.1,0.1-0.1,0.2
				c0,0.2,0.1,0.3,0.6,0.3l1.5,0.1C68.1,19.2,68.7,19.7,68.7,20.5z M67.2,20.7c0-0.2-0.2-0.3-0.5-0.3L65,20.3
				c-0.1,0.1-0.2,0.3-0.2,0.4c0,0.3,0.2,0.5,1.1,0.5C66.8,21.2,67.2,21,67.2,20.7z M65.3,16.7c0,0.4,0.2,0.6,0.7,0.6
				c0.5,0,0.7-0.2,0.7-0.6c0-0.4-0.2-0.6-0.7-0.6C65.5,16.1,65.3,16.3,65.3,16.7z"/>
			<path class="st0" d="M69.3,13.3c0-0.6,0.4-1,1.1-1s1.1,0.3,1.1,1s-0.4,0.9-1.1,0.9S69.3,13.9,69.3,13.3z M69.5,15.1h1.7v5.2h-1.7
				V15.1z"/>
			<path class="st0" d="M76.3,18.7v1.4c-0.5,0.1-0.9,0.2-1.5,0.2c-1.5,0-2.1-0.8-2.1-2.2v-1.7h-0.7v-1.4h0.7l0.4-1.4h1.2v1.4h1.8
				v1.4h-1.8v1.4c0,0.7,0.2,1,0.8,1C75.6,18.9,76,18.9,76.3,18.7z"/>
			<path class="st0" d="M81.6,17.2v3h-1.4l-0.1-0.4c-0.4,0.3-0.9,0.5-1.6,0.5c-1.1,0-1.7-0.6-1.7-1.6c0-1,0.8-1.7,2-1.7
				c0.5,0,0.8,0,1.1,0.1v-0.2c0-0.5-0.3-0.7-1.1-0.7c-0.6,0-1.1,0.1-1.6,0.3v-1.4c0.5-0.2,1.2-0.3,2-0.3
				C81,14.9,81.6,15.6,81.6,17.2z M79.1,19.2c0.3,0,0.6-0.1,0.8-0.3v-0.6c-0.2,0-0.5-0.1-0.7-0.1c-0.4,0-0.7,0.2-0.7,0.5
				C78.5,19,78.7,19.2,79.1,19.2z"/>
			<path class="st0" d="M82.8,12.8h1.7v7.4h-1.7V12.8z"/>
			<path class="st0" d="M95.2,13.3v6.9h-1.7V16c-0.1,0.2-0.2,0.4-0.3,0.6l-1.1,1.9H91l-1.2-1.9l-0.3-0.4v4.1h-1.7v-6.9h1.6l2,3.2
				l2-3.2H95.2z"/>
			<path class="st0" d="M101,17.2v3h-1.4l-0.1-0.4c-0.4,0.3-0.9,0.5-1.6,0.5c-1.1,0-1.7-0.6-1.7-1.6c0-1,0.8-1.7,2-1.7
				c0.5,0,0.8,0,1.1,0.1v-0.2c0-0.5-0.3-0.7-1.1-0.7c-0.6,0-1.1,0.1-1.6,0.3v-1.4c0.5-0.2,1.2-0.3,2-0.3
				C100.4,14.9,101,15.6,101,17.2z M98.5,19.2c0.3,0,0.6-0.1,0.8-0.3v-0.6c-0.2,0-0.5-0.1-0.7-0.1c-0.4,0-0.7,0.2-0.7,0.5
				C97.9,19,98.1,19.2,98.5,19.2z"/>
			<path class="st0" d="M105.5,15v1.7c-0.1,0-0.3-0.1-0.5-0.1c-0.4,0-0.8,0.1-1.1,0.7v3h-1.7v-5.2h1.4l0.1,0.5
				c0.4-0.5,0.8-0.7,1.4-0.7C105.2,14.9,105.4,14.9,105.5,15z"/>
			<path class="st0" d="M111.6,20.2h-1.9l-0.7-1.4c-0.2-0.3-0.4-0.4-0.6-0.4H108v1.8h-1.7v-7.4h1.7v4h0.3c0.3,0,0.4-0.1,0.5-0.4
				l0.8-1.4l1.9,0l-1,1.7c-0.2,0.3-0.4,0.6-0.7,0.7c0.2,0.1,0.4,0.3,0.6,0.6L111.6,20.2z"/>
			<path class="st0" d="M115.1,19c0.7,0,1.1-0.1,1.7-0.3v1.3c-0.6,0.2-1.2,0.3-2,0.3c-1.8,0-2.8-1-2.8-2.7c0-1.7,1-2.8,2.7-2.8
				c1.4,0,2.3,0.7,2.3,2.4c0,0.3,0,0.6,0,0.8h-3.2C113.9,18.7,114.3,19,115.1,19z M113.8,17.1h1.6c0-0.6-0.3-0.8-0.8-0.8
				C114.2,16.3,113.9,16.5,113.8,17.1z"/>
			<path class="st0" d="M121.8,18.7v1.4c-0.5,0.1-0.9,0.2-1.5,0.2c-1.5,0-2.1-0.8-2.1-2.2v-1.7h-0.7v-1.4h0.7l0.4-1.4h1.2v1.4h1.8
				v1.4H120v1.4c0,0.7,0.2,1,0.8,1C121.1,18.9,121.5,18.9,121.8,18.7z"/>
			<path class="st0" d="M122.4,13.3c0-0.6,0.4-1,1.1-1s1.1,0.3,1.1,1s-0.4,0.9-1.1,0.9S122.4,13.9,122.4,13.3z M122.6,15.1h1.7v5.2
				h-1.7V15.1z"/>
			<path class="st0" d="M130.6,17v3.2h-1.7v-3c0-0.6-0.3-0.8-0.7-0.8c-0.3,0-0.6,0.1-0.9,0.4v3.5h-1.7v-5.2h1.4l0.1,0.4
				c0.4-0.4,1-0.5,1.6-0.5C130,14.9,130.6,15.6,130.6,17z"/>
			<path class="st0" d="M136.6,20.5c0,1.1-1.1,1.7-2.9,1.7c-1.7,0-2.4-0.4-2.4-1.2c0-0.6,0.3-0.9,0.7-1.2c-0.3-0.2-0.4-0.4-0.4-0.9
				c0-0.4,0.2-0.7,0.5-1c-0.3-0.3-0.5-0.7-0.5-1.2c0-1.1,0.8-1.8,2.3-1.8c0.2,0,0.3,0,0.5,0c0.8-0.3,1.5-0.4,2.2-0.4v1.1
				c-0.3,0-0.5,0-0.8,0c0.3,0.3,0.4,0.6,0.4,1.1c0,1-0.8,1.8-2.3,1.8c-0.3,0-0.6,0-0.8-0.1c0,0.1-0.1,0.1-0.1,0.2
				c0,0.2,0.1,0.3,0.6,0.3l1.5,0.1C136.1,19.2,136.6,19.7,136.6,20.5z M135.1,20.7c0-0.2-0.2-0.3-0.5-0.3l-1.6-0.1
				c-0.1,0.1-0.2,0.3-0.2,0.4c0,0.3,0.2,0.5,1.1,0.5C134.8,21.2,135.1,21,135.1,20.7z M133.2,16.7c0,0.4,0.2,0.6,0.7,0.6
				c0.5,0,0.7-0.2,0.7-0.6c0-0.4-0.2-0.6-0.7-0.6C133.5,16.1,133.2,16.3,133.2,16.7z"/>
		</g>
	</g>
	<g>
		<linearGradient id="SVGID_1_" gradientUnits="userSpaceOnUse" x1="38.0532" y1="9.7314" x2="49.6877" y2="22.8203">
			<stop  offset="4.102398e-07" style="stop-color:#25C3EA"/>
			<stop  offset="1" style="stop-color:#573594"/>
		</linearGradient>
		<path class="st1" d="M47.2,9.7h-0.6c-0.3,0-0.3,0.4,0,0.4h0.6c0.6,0,1.1,0.5,1.1,1.1v4.6c0,0.6-0.5,1.1-1.1,1.1h-0.7
			c0,0-0.1,0-0.1,0l-1.2,0.9v-0.8c0-0.1-0.1-0.2-0.2-0.2h-2.4c-0.2,0-0.4-0.1-0.6-0.2v-2.2c0-0.4-0.2-0.8-0.5-1v-2.3
			c0-0.6,0.5-1.1,1.1-1.1h2.8c0.3,0,0.3-0.4,0-0.4h-2.8c-0.8,0-1.5,0.7-1.5,1.5v2.1c-0.1,0-0.2,0-0.3,0h-3.6c-0.7,0-1.2,0.5-1.2,1.2
			v0.4c0,0.3,0.4,0.3,0.4,0v-0.4c0-0.4,0.4-0.8,0.8-0.8h3.6c0.5,0,0.8,0.4,0.8,0.8v2.3c0,0,0,0,0,0.1v1.3c0,0,0,0,0,0.1h-0.4
			c-0.5,0-0.8,0.3-0.9,0.8c0,0,0,0-0.1,0l-0.9,0.7v-0.5c0-0.1-0.1-0.2-0.2-0.2h-2c-0.5,0-0.8-0.4-0.8-0.8v-2c0-0.3-0.4-0.3-0.4,0v2
			c0,0.7,0.5,1.2,1.2,1.2H39v0.7c0,0.2,0.2,0.3,0.3,0.2l1-0.8v2.2c0,0.5,0.4,0.9,0.9,0.9h1.2V23c0,0.2,0.2,0.3,0.3,0.2l0.8-0.6h0.2
			c0.5,0,0.9-0.4,0.9-0.9v-0.4c0-0.3-0.4-0.3-0.4,0v0.4c0,0.3-0.2,0.5-0.5,0.5h-0.3c0,0-0.1,0-0.1,0l-0.5,0.4v-0.3
			c0-0.1-0.1-0.2-0.2-0.2h-1.4c-0.3,0-0.5-0.2-0.5-0.5v-2.6c0-0.3,0.2-0.5,0.5-0.5h2.6c0.3,0,0.5,0.2,0.5,0.5v1c0,0.3,0.4,0.3,0.4,0
			v-1c0-0.5-0.4-0.9-0.9-0.9h-1.8c0,0,0-1,0-1c0.2,0.1,0.4,0.1,0.6,0.1h2.2v1c0,0.2,0.2,0.3,0.3,0.2l1.5-1.1h0.6
			c0.8,0,1.5-0.7,1.5-1.5v-4.6C48.7,10.4,48.1,9.7,47.2,9.7L47.2,9.7z"/>
		<linearGradient id="SVGID_2_" gradientUnits="userSpaceOnUse" x1="39.6278" y1="8.3318" x2="51.2623" y2="21.4206">
			<stop  offset="4.102398e-07" style="stop-color:#25C3EA"/>
			<stop  offset="1" style="stop-color:#573594"/>
		</linearGradient>
		<path class="st2" d="M45.4,11.2c-0.3-0.1-0.5,0.1-0.5,0.4c0,0.3-0.1,0.6-0.3,0.8L44.1,13c0-0.1-0.1-0.1-0.2-0.1h-1.1
			c-0.1,0-0.2,0.1-0.2,0.2v2.4c0,0.1,0.1,0.2,0.2,0.2h1.1c0.1,0,0.1,0,0.2-0.1c0.2,0.1,0.5,0.2,0.7,0.2h1.9c0.3,0,0.5-0.2,0.5-0.5
			c0-0.1,0-1.8,0-1.9c0-0.3-0.2-0.5-0.5-0.5l-1,0l0-0.1c0.2-0.4,0.2-0.9-0.1-1.4C45.6,11.3,45.5,11.2,45.4,11.2
			C45.3,11.2,45.5,11.2,45.4,11.2C45.2,11.1,45.5,11.2,45.4,11.2L45.4,11.2z M43.7,15.3h-0.7v-2h0.7V15.3z M46.7,13.2
			c0.1,0,0.1,0.1,0.1,0.1c0,0,0,0.1,0,0.3c0,0.8,0,1.5,0,1.6c0,0,0,0.1,0,0.1c0,0-0.1,0-0.1,0h-1.9c-0.2,0-0.4-0.1-0.6-0.2l-0.1-0.1
			v-1.5l0.8-0.9c0.3-0.3,0.4-0.7,0.4-1c0,0,0,0,0,0c0.2,0.3,0.2,0.7,0.1,1L45.3,13c0,0.1,0,0.1,0,0.2c0,0.1,0.1,0.1,0.2,0.1
			L46.7,13.2z"/>
		<linearGradient id="SVGID_3_" gradientUnits="userSpaceOnUse" x1="35.3266" y1="12.1551" x2="46.9611" y2="25.244">
			<stop  offset="4.102398e-07" style="stop-color:#25C3EA"/>
			<stop  offset="1" style="stop-color:#573594"/>
		</linearGradient>
		<path class="st3" d="M37.7,16.6c-0.1,0-0.2,0.1-0.2,0.2c0,0.1,0.1,0.2,0.2,0.2h0.6l-0.1,0.7c0,0.1,0.1,0.2,0.2,0.2c0,0,0,0,0,0
			c0.1,0,0.2-0.1,0.2-0.2l0.1-0.7h0.5l-0.1,0.7c0,0.1,0.1,0.2,0.2,0.2c0,0,0,0,0,0c0.1,0,0.2-0.1,0.2-0.2l0.1-0.7h0.8
			c0.1,0,0.2-0.1,0.2-0.2c0-0.1-0.1-0.2-0.2-0.2h-0.7l0.1-0.5h0.6c0.1,0,0.2-0.1,0.2-0.2s-0.1-0.2-0.2-0.2h-0.6l0.1-0.7
			c0-0.1-0.1-0.2-0.2-0.2c-0.1,0-0.2,0.1-0.2,0.2l-0.1,0.7h-0.5l0.1-0.7c0-0.1-0.1-0.2-0.2-0.2c-0.1,0-0.2,0.1-0.2,0.2l-0.1,0.7
			h-0.8c-0.1,0-0.2,0.1-0.2,0.2s0.1,0.2,0.2,0.2h0.7l-0.1,0.5L37.7,16.6z M38.9,16.1h0.5l-0.1,0.5h-0.5L38.9,16.1z"/>
		<linearGradient id="SVGID_4_" gradientUnits="userSpaceOnUse" x1="35.3535" y1="12.1312" x2="46.988" y2="25.22">
			<stop  offset="4.102398e-07" style="stop-color:#25C3EA"/>
			<stop  offset="1" style="stop-color:#573594"/>
		</linearGradient>
		<path class="st4" d="M42.6,19.6c-0.2-0.1-0.4-0.2-0.6-0.1c-0.3,0.1-0.5,0.3-0.5,0.7c0,0.3,0.1,0.5,0.3,0.7
			c0.2,0.2,0.4,0.3,0.8,0.5c0,0,0.1,0,0.1,0s0.1,0,0.1,0c0.6-0.3,1-0.7,1-1.2c0-0.4-0.3-0.7-0.6-0.7C42.9,19.4,42.7,19.5,42.6,19.6
			L42.6,19.6z M43.3,20.2c0,0.3-0.2,0.5-0.7,0.8c-0.5-0.3-0.7-0.5-0.7-0.8c0-0.2,0.1-0.3,0.2-0.4c0,0,0,0,0.1,0c0.1,0,0.2,0,0.2,0.2
			c0,0.1,0.1,0.1,0.2,0.1c0.1,0,0.1,0,0.2-0.1c0.1-0.1,0.2-0.2,0.3-0.1C43.2,19.9,43.3,20,43.3,20.2z"/>
	</g>
</g>
</svg>
