<?xml version="1.0" encoding="utf-8"?>
<!-- Generator: Adobe Illustrator 23.0.0, SVG Export Plug-In . SVG Version: 6.00 Build 0)  -->
<svg version="1.1" id="Layer_1" xmlns="http://www.w3.org/2000/svg" xmlns:xlink="http://www.w3.org/1999/xlink" x="0px" y="0px"
	 viewBox="0 0 77 70" style="enable-background:new 0 0 77 70;" xml:space="preserve">
<style type="text/css">
	.st0{opacity:0.47;}
	.st1{fill:#030C30;}
</style>
<g class="st0">
	<path class="st1" d="M59,6.5h-2.5c-1.1,0-1.1,1.7,0,1.7H59c2.5,0,4.6,2.1,4.6,4.6v19.3c0,2.5-2.1,4.6-4.6,4.6h-2.8
		c-0.2,0-0.4,0.1-0.5,0.2l-5.1,3.9v-3.2c0-0.5-0.4-0.8-0.8-0.8H39.6c-0.8,0-1.6-0.2-2.3-0.6v-9.4c0-1.8-0.9-3.3-2.3-4.2v-9.7
		c0-2.5,2.1-4.6,4.6-4.6h11.7c1.1,0,1.1-1.7,0-1.7H39.6c-3.5,0-6.3,2.8-6.3,6.2v8.9c-0.4-0.1-0.8-0.1-1.2-0.1H16.9
		c-2.8,0-5.1,2.3-5.1,5.1v1.8c0,1.1,1.7,1.1,1.7,0v-1.8c0-1.9,1.5-3.4,3.4-3.4h15.3c1.9,0,3.4,1.5,3.4,3.4v9.7c0,0.1,0,0.1,0,0.2
		v5.3c0,0.1,0,0.2,0,0.3h-1.7c-1.9,0-3.5,1.4-3.8,3.2c-0.1,0-0.1,0.1-0.2,0.1l-3.7,2.9v-2.2c0-0.5-0.4-0.8-0.8-0.8h-8.4
		c-1.9,0-3.4-1.5-3.4-3.4v-8.4c0-1.1-1.7-1.1-1.7,0v8.4c0,2.8,2.3,5.1,5.1,5.1h7.6v3.1c0,0.7,0.8,1.1,1.3,0.7l4.2-3.3v9.4
		c0,2.1,1.7,3.9,3.9,3.9H39v1.9c0,0.7,0.8,1.1,1.3,0.7l3.4-2.6h1c2.1,0,3.9-1.7,3.9-3.9v-1.5c0-1.1-1.7-1.1-1.7,0v1.5
		c0,1.2-1,2.2-2.2,2.2h-1.3c-0.2,0-0.4,0.1-0.5,0.2L40.6,61v-1.1c0-0.5-0.4-0.8-0.8-0.8h-6c-1.2,0-2.2-1-2.2-2.2V46
		c0-1.2,1-2.2,2.2-2.2h10.8c1.2,0,2.2,1,2.2,2.2v4.1c0,1.1,1.7,1.1,1.7,0V46c0-2.1-1.7-3.9-3.9-3.9h-7.5c0-0.1,0-4.3,0-4.3
		c0.7,0.3,1.5,0.4,2.3,0.4h9.3v4.1c0,0.7,0.8,1.1,1.3,0.7l6.2-4.8H59c3.5,0,6.3-2.8,6.3-6.2V12.7C65.2,9.3,62.4,6.5,59,6.5L59,6.5z"
		/>
	<path class="st1" d="M51.4,12.7c-1.1-0.3-2.1,0.6-2.1,1.7c0,1.2-0.4,2.4-1.2,3.2l-2.3,2.6c-0.1-0.2-0.4-0.4-0.7-0.4h-4.5
		c-0.5,0-0.8,0.4-0.8,0.8v10.1c0,0.5,0.4,0.8,0.8,0.8H45c0.3,0,0.6-0.2,0.8-0.5c0.9,0.6,2,0.9,3,0.9h7.9c1.2,0,2.2-1.1,2.2-2.3
		c0-0.5,0-7.7,0-7.9c0-1.2-1-2.2-2.2-2.2l-4.1,0l0.2-0.4c0.8-1.8,0.7-4-0.3-5.7C52.2,13.1,51.8,12.8,51.4,12.7
		C50.9,12.6,51.8,12.8,51.4,12.7C50.3,12.4,51.8,12.8,51.4,12.7L51.4,12.7z M44.2,29.9h-2.8v-8.4h2.8V29.9z M56.7,21.3
		c0.3,0,0.5,0.2,0.5,0.5c0,0.2,0,0.6,0,1.2c0,3.2,0,6.3,0,6.8c0,0.2-0.1,0.3-0.1,0.4c-0.1,0.1-0.2,0.2-0.4,0.2h-7.9
		c-0.9,0-1.9-0.3-2.6-0.9l-0.4-0.3v-6.5l3.4-3.9c1.1-1.2,1.6-2.7,1.6-4.4c0,0,0.1-0.1,0.1,0c0.7,1.3,0.8,2.9,0.3,4.3l-0.7,1.6
		c-0.1,0.3-0.1,0.6,0.1,0.8c0.2,0.2,0.4,0.4,0.7,0.4L56.7,21.3z"/>
	<path class="st1" d="M18.9,35.5c-0.5,0-0.8,0.4-0.8,0.8c0,0.5,0.4,0.8,0.8,0.8h2.5L20.9,40c-0.1,0.5,0.2,0.9,0.7,1c0,0,0.1,0,0.1,0
		c0.4,0,0.8-0.3,0.8-0.7l0.5-3.1h2L24.6,40c-0.1,0.5,0.2,0.9,0.7,1c0,0,0.1,0,0.1,0c0.4,0,0.8-0.3,0.8-0.7l0.5-3.1h3.4
		c0.5,0,0.8-0.4,0.8-0.8c0-0.5-0.4-0.8-0.8-0.8H27l0.3-2h2.7c0.5,0,0.8-0.4,0.8-0.8c0-0.5-0.4-0.8-0.8-0.8h-2.5l0.5-2.8
		c0.1-0.5-0.2-0.9-0.7-1c-0.5-0.1-0.9,0.2-1,0.7L26,31.8h-2l0.5-2.8c0.1-0.5-0.2-0.9-0.7-1c-0.5-0.1-0.9,0.2-1,0.7l-0.5,3.1h-3.4
		c-0.5,0-0.8,0.4-0.8,0.8c0,0.5,0.4,0.8,0.8,0.8H22l-0.3,2L18.9,35.5z M23.7,33.5h2l-0.3,2h-2L23.7,33.5z"/>
	<path class="st1" d="M39.3,48.2c-0.7-0.6-1.6-0.8-2.5-0.6c-1.2,0.3-2.3,1.4-2.3,3.1c0,1.1,0.4,2.1,1.2,2.9c0.7,0.7,1.7,1.4,3.2,2.2
		c0.1,0.1,0.3,0.1,0.4,0.1c0.1,0,0.3,0,0.4-0.1c2.6-1.4,4.4-2.8,4.4-5.1c0-1.8-1.2-2.9-2.4-3.1C40.8,47.4,39.9,47.6,39.3,48.2
		L39.3,48.2z M42.4,50.7c0,1.2-0.8,2.2-3.1,3.4c-2.3-1.3-3.1-2.2-3.1-3.4c0-0.9,0.5-1.4,1-1.5c0.1,0,0.2,0,0.3,0
		c0.4,0,0.8,0.2,1.1,0.7c0.1,0.3,0.4,0.5,0.8,0.5c0.3,0,0.6-0.2,0.7-0.5c0.3-0.6,0.8-0.7,1.3-0.6C41.8,49.4,42.4,49.8,42.4,50.7z"/>
</g>
</svg>
