<?xml version="1.0" encoding="utf-8"?>
<!-- Generator: Adobe Illustrator 23.0.0, SVG Export Plug-In . SVG Version: 6.00 Build 0)  -->
<svg version="1.1" id="Layer_1" xmlns="http://www.w3.org/2000/svg" xmlns:xlink="http://www.w3.org/1999/xlink" x="0px" y="0px"
	 viewBox="0 0 100 43.1" style="enable-background:new 0 0 100 43.1;" xml:space="preserve">
<style type="text/css">
	.st0{opacity:7.000000e-02;clip-path:url(#SVGID_1_);}
	.st1{fill:#0D132F;}
</style>
<g>
	<defs>
		<rect id="SVGID_3_" x="-2.4" y="2.5" width="103.5" height="39.4"/>
	</defs>
	<clipPath id="SVGID_1_">
		<use xlink:href="#SVGID_3_"  style="overflow:visible;"/>
	</clipPath>
	<g class="st0">
		<circle class="st1" cx="0.7" cy="-2" r="0.5"/>
		<circle class="st1" cx="4.3" cy="-2" r="0.5"/>
		<circle class="st1" cx="7.8" cy="-2" r="0.5"/>
		<circle class="st1" cx="11.4" cy="-2" r="0.5"/>
		<circle class="st1" cx="15" cy="-2" r="0.5"/>
		<circle class="st1" cx="18.6" cy="-2" r="0.5"/>
		<circle class="st1" cx="22.2" cy="-2" r="0.5"/>
		<circle class="st1" cx="25.8" cy="-2.1" r="0.5"/>
		<circle class="st1" cx="29.3" cy="-2.1" r="0.5"/>
		<circle class="st1" cx="32.9" cy="-2.1" r="0.5"/>
		<circle class="st1" cx="0.7" cy="1.1" r="0.5"/>
		<circle class="st1" cx="4.3" cy="1" r="0.5"/>
		<circle class="st1" cx="7.9" cy="1" r="0.5"/>
		<circle class="st1" cx="11.4" cy="1" r="0.5"/>
		<circle class="st1" cx="15" cy="1" r="0.5"/>
		<circle class="st1" cx="18.6" cy="1" r="0.5"/>
		<circle class="st1" cx="22.2" cy="1" r="0.5"/>
		<circle class="st1" cx="25.8" cy="1" r="0.5"/>
		<circle class="st1" cx="29.3" cy="1" r="0.5"/>
		<circle class="st1" cx="32.9" cy="1" r="0.5"/>
		<circle class="st1" cx="0.7" cy="4.2" r="0.5"/>
		<circle class="st1" cx="4.3" cy="4.2" r="0.5"/>
		<circle class="st1" cx="7.9" cy="4.1" r="0.5"/>
		<circle class="st1" cx="11.4" cy="4.1" r="0.5"/>
		<circle class="st1" cx="15" cy="4.1" r="0.5"/>
		<circle class="st1" cx="18.6" cy="4.1" r="0.5"/>
		<circle class="st1" cx="22.2" cy="4.1" r="0.5"/>
		<circle class="st1" cx="25.8" cy="4.1" r="0.5"/>
		<circle class="st1" cx="29.4" cy="4.1" r="0.5"/>
		<circle class="st1" cx="32.9" cy="4.1" r="0.5"/>
		<circle class="st1" cx="0.7" cy="7.2" r="0.5"/>
		<circle class="st1" cx="4.3" cy="7.2" r="0.5"/>
		<circle class="st1" cx="7.9" cy="7.2" r="0.5"/>
		<circle class="st1" cx="11.5" cy="7.2" r="0.5"/>
		<circle class="st1" cx="15" cy="7.2" r="0.5"/>
		<circle class="st1" cx="18.6" cy="7.2" r="0.5"/>
		<circle class="st1" cx="22.2" cy="7.1" r="0.5"/>
		<circle class="st1" cx="25.8" cy="7.1" r="0.5"/>
		<circle class="st1" cx="29.4" cy="7.1" r="0.5"/>
		<circle class="st1" cx="32.9" cy="7.1" r="0.5"/>
		<circle class="st1" cx="0.7" cy="9.9" r="0.5"/>
		<circle class="st1" cx="4.3" cy="9.9" r="0.5"/>
		<circle class="st1" cx="7.9" cy="9.9" r="0.5"/>
		<circle class="st1" cx="11.5" cy="9.8" r="0.5"/>
		<circle class="st1" cx="15" cy="9.8" r="0.5"/>
		<circle class="st1" cx="18.6" cy="9.8" r="0.5"/>
		<circle class="st1" cx="22.2" cy="9.8" r="0.5"/>
		<circle class="st1" cx="25.8" cy="9.8" r="0.5"/>
		<circle class="st1" cx="29.4" cy="9.8" r="0.5"/>
		<circle class="st1" cx="33" cy="9.8" r="0.5"/>
		<circle class="st1" cx="0.7" cy="12.9" r="0.5"/>
		<circle class="st1" cx="4.3" cy="12.9" r="0.5"/>
		<circle class="st1" cx="7.9" cy="12.9" r="0.5"/>
		<circle class="st1" cx="11.5" cy="12.9" r="0.5"/>
		<circle class="st1" cx="15.1" cy="12.9" r="0.5"/>
		<circle class="st1" cx="18.6" cy="12.9" r="0.5"/>
		<circle class="st1" cx="22.2" cy="12.9" r="0.5"/>
		<circle class="st1" cx="25.8" cy="12.8" r="0.5"/>
		<circle class="st1" cx="29.4" cy="12.8" r="0.5"/>
		<circle class="st1" cx="33" cy="12.8" r="0.5"/>
		<circle class="st1" cx="0.7" cy="16" r="0.5"/>
		<circle class="st1" cx="4.3" cy="16" r="0.5"/>
		<circle class="st1" cx="7.9" cy="16" r="0.5"/>
		<circle class="st1" cx="11.5" cy="16" r="0.5"/>
		<circle class="st1" cx="15.1" cy="16" r="0.5"/>
		<circle class="st1" cx="18.6" cy="16" r="0.5"/>
		<circle class="st1" cx="22.2" cy="16" r="0.5"/>
		<circle class="st1" cx="25.8" cy="16" r="0.5"/>
		<circle class="st1" cx="29.4" cy="15.9" r="0.5"/>
		<circle class="st1" cx="33" cy="15.9" r="0.5"/>
		<circle class="st1" cx="0.7" cy="19.1" r="0.5"/>
		<circle class="st1" cx="4.3" cy="19.1" r="0.5"/>
		<circle class="st1" cx="7.9" cy="19" r="0.5"/>
		<circle class="st1" cx="11.5" cy="19" r="0.5"/>
		<circle class="st1" cx="15.1" cy="19" r="0.5"/>
		<circle class="st1" cx="18.7" cy="19" r="0.5"/>
		<circle class="st1" cx="22.2" cy="19" r="0.5"/>
		<circle class="st1" cx="25.8" cy="19" r="0.5"/>
		<circle class="st1" cx="29.4" cy="19" r="0.5"/>
		<circle class="st1" cx="33" cy="19" r="0.5"/>
		<circle class="st1" cx="0.8" cy="22.2" r="0.5"/>
		<circle class="st1" cx="4.3" cy="22.2" r="0.5"/>
		<circle class="st1" cx="7.9" cy="22.2" r="0.5"/>
		<circle class="st1" cx="11.5" cy="22.2" r="0.5"/>
		<circle class="st1" cx="15.1" cy="22.2" r="0.5"/>
		<circle class="st1" cx="18.7" cy="22.2" r="0.5"/>
		<circle class="st1" cx="22.2" cy="22.1" r="0.5"/>
		<circle class="st1" cx="25.8" cy="22.1" r="0.5"/>
		<circle class="st1" cx="29.4" cy="22.1" r="0.5"/>
		<circle class="st1" cx="33" cy="22.1" r="0.5"/>
		<circle class="st1" cx="0.8" cy="25.3" r="0.5"/>
		<circle class="st1" cx="4.3" cy="25.2" r="0.5"/>
		<circle class="st1" cx="7.9" cy="25.2" r="0.5"/>
		<circle class="st1" cx="11.5" cy="25.2" r="0.5"/>
		<circle class="st1" cx="15.1" cy="25.2" r="0.5"/>
		<circle class="st1" cx="18.7" cy="25.2" r="0.5"/>
		<circle class="st1" cx="22.3" cy="25.2" r="0.5"/>
		<circle class="st1" cx="25.8" cy="25.2" r="0.5"/>
		<circle class="st1" cx="29.4" cy="25.2" r="0.5"/>
		<circle class="st1" cx="33" cy="25.2" r="0.5"/>
		<circle class="st1" cx="0.8" cy="28.4" r="0.5"/>
		<circle class="st1" cx="4.4" cy="28.4" r="0.5"/>
		<circle class="st1" cx="7.9" cy="28.3" r="0.5"/>
		<circle class="st1" cx="11.5" cy="28.3" r="0.5"/>
		<circle class="st1" cx="15.1" cy="28.3" r="0.5"/>
		<circle class="st1" cx="18.7" cy="28.3" r="0.5"/>
		<circle class="st1" cx="22.3" cy="28.3" r="0.5"/>
		<circle class="st1" cx="25.9" cy="28.3" r="0.5"/>
		<circle class="st1" cx="29.4" cy="28.3" r="0.5"/>
		<circle class="st1" cx="33" cy="28.3" r="0.5"/>
		<circle class="st1" cx="0.8" cy="31.4" r="0.5"/>
		<circle class="st1" cx="4.4" cy="31.4" r="0.5"/>
		<circle class="st1" cx="7.9" cy="31.4" r="0.5"/>
		<circle class="st1" cx="11.5" cy="31.4" r="0.5"/>
		<circle class="st1" cx="15.1" cy="31.4" r="0.5"/>
		<circle class="st1" cx="18.7" cy="31.3" r="0.5"/>
		<circle class="st1" cx="22.3" cy="31.3" r="0.5"/>
		<circle class="st1" cx="25.9" cy="31.3" r="0.5"/>
		<circle class="st1" cx="29.4" cy="31.3" r="0.5"/>
		<circle class="st1" cx="33" cy="31.3" r="0.5"/>
		<circle class="st1" cx="0.8" cy="34.1" r="0.5"/>
		<circle class="st1" cx="4.4" cy="34.1" r="0.5"/>
		<circle class="st1" cx="8" cy="34.1" r="0.5"/>
		<circle class="st1" cx="11.5" cy="34" r="0.5"/>
		<circle class="st1" cx="15.1" cy="34" r="0.5"/>
		<circle class="st1" cx="18.7" cy="34" r="0.5"/>
		<circle class="st1" cx="22.3" cy="34" r="0.5"/>
		<circle class="st1" cx="25.9" cy="34" r="0.5"/>
		<circle class="st1" cx="29.5" cy="34" r="0.5"/>
		<circle class="st1" cx="33" cy="34" r="0.5"/>
		<circle class="st1" cx="0.8" cy="37.1" r="0.5"/>
		<circle class="st1" cx="4.4" cy="37.1" r="0.5"/>
		<circle class="st1" cx="8" cy="37.1" r="0.5"/>
		<circle class="st1" cx="11.5" cy="37.1" r="0.5"/>
		<circle class="st1" cx="15.1" cy="37.1" r="0.5"/>
		<circle class="st1" cx="18.7" cy="37.1" r="0.5"/>
		<circle class="st1" cx="22.3" cy="37" r="0.5"/>
		<circle class="st1" cx="25.9" cy="37" r="0.5"/>
		<circle class="st1" cx="29.5" cy="37" r="0.5"/>
		<circle class="st1" cx="33" cy="37" r="0.5"/>
		<circle class="st1" cx="0.8" cy="40.2" r="0.5"/>
		<circle class="st1" cx="4.4" cy="40.2" r="0.5"/>
		<circle class="st1" cx="8" cy="40.2" r="0.5"/>
		<circle class="st1" cx="11.6" cy="40.2" r="0.5"/>
		<circle class="st1" cx="15.1" cy="40.2" r="0.5"/>
		<circle class="st1" cx="18.7" cy="40.2" r="0.5"/>
		<circle class="st1" cx="22.3" cy="40.2" r="0.5"/>
		<circle class="st1" cx="25.9" cy="40.1" r="0.5"/>
		<circle class="st1" cx="29.5" cy="40.1" r="0.5"/>
		<circle class="st1" cx="33.1" cy="40.1" r="0.5"/>
		<circle class="st1" cx="0.8" cy="43.3" r="0.5"/>
		<circle class="st1" cx="4.4" cy="43.3" r="0.5"/>
		<circle class="st1" cx="8" cy="43.2" r="0.5"/>
		<circle class="st1" cx="11.6" cy="43.2" r="0.5"/>
		<circle class="st1" cx="15.1" cy="43.2" r="0.5"/>
		<circle class="st1" cx="18.7" cy="43.2" r="0.5"/>
		<circle class="st1" cx="22.3" cy="43.2" r="0.5"/>
		<circle class="st1" cx="25.9" cy="43.2" r="0.5"/>
		<circle class="st1" cx="29.5" cy="43.2" r="0.5"/>
		<circle class="st1" cx="33.1" cy="43.2" r="0.5"/>
		<circle class="st1" cx="36.1" cy="-2.1" r="0.5"/>
		<circle class="st1" cx="39.7" cy="-2.1" r="0.5"/>
		<circle class="st1" cx="43.3" cy="-2.1" r="0.5"/>
		<circle class="st1" cx="46.9" cy="-2.1" r="0.5"/>
		<circle class="st1" cx="50.5" cy="-2.1" r="0.5"/>
		<circle class="st1" cx="54.1" cy="-2.1" r="0.5"/>
		<circle class="st1" cx="57.6" cy="-2.2" r="0.5"/>
		<circle class="st1" cx="61.2" cy="-2.2" r="0.5"/>
		<circle class="st1" cx="36.2" cy="0.9" r="0.5"/>
		<circle class="st1" cx="39.7" cy="0.9" r="0.5"/>
		<circle class="st1" cx="43.3" cy="0.9" r="0.5"/>
		<circle class="st1" cx="46.9" cy="0.9" r="0.5"/>
		<circle class="st1" cx="50.5" cy="0.9" r="0.5"/>
		<circle class="st1" cx="54.1" cy="0.9" r="0.5"/>
		<circle class="st1" cx="57.7" cy="0.9" r="0.5"/>
		<circle class="st1" cx="61.2" cy="0.9" r="0.5"/>
		<circle class="st1" cx="36.2" cy="4.1" r="0.5"/>
		<circle class="st1" cx="39.8" cy="4" r="0.5"/>
		<circle class="st1" cx="43.3" cy="4" r="0.5"/>
		<circle class="st1" cx="46.9" cy="4" r="0.5"/>
		<circle class="st1" cx="50.5" cy="4" r="0.5"/>
		<circle class="st1" cx="54.1" cy="4" r="0.5"/>
		<circle class="st1" cx="57.7" cy="4" r="0.5"/>
		<circle class="st1" cx="61.2" cy="4" r="0.5"/>
		<circle class="st1" cx="36.2" cy="7.1" r="0.5"/>
		<circle class="st1" cx="39.8" cy="7.1" r="0.5"/>
		<circle class="st1" cx="43.3" cy="7.1" r="0.5"/>
		<circle class="st1" cx="46.9" cy="7.1" r="0.5"/>
		<circle class="st1" cx="50.5" cy="7.1" r="0.5"/>
		<circle class="st1" cx="54.1" cy="7" r="0.5"/>
		<circle class="st1" cx="57.7" cy="7" r="0.5"/>
		<circle class="st1" cx="61.3" cy="7" r="0.5"/>
		<circle class="st1" cx="36.2" cy="9.8" r="0.5"/>
		<circle class="st1" cx="39.8" cy="9.8" r="0.5"/>
		<circle class="st1" cx="43.4" cy="9.7" r="0.5"/>
		<circle class="st1" cx="46.9" cy="9.7" r="0.5"/>
		<circle class="st1" cx="50.5" cy="9.7" r="0.5"/>
		<circle class="st1" cx="54.1" cy="9.7" r="0.5"/>
		<circle class="st1" cx="57.7" cy="9.7" r="0.5"/>
		<circle class="st1" cx="61.3" cy="9.7" r="0.5"/>
		<circle class="st1" cx="36.2" cy="12.8" r="0.5"/>
		<circle class="st1" cx="39.8" cy="12.8" r="0.5"/>
		<circle class="st1" cx="43.4" cy="12.8" r="0.5"/>
		<circle class="st1" cx="46.9" cy="12.8" r="0.5"/>
		<circle class="st1" cx="50.5" cy="12.8" r="0.5"/>
		<circle class="st1" cx="54.1" cy="12.8" r="0.5"/>
		<circle class="st1" cx="57.7" cy="12.7" r="0.5"/>
		<circle class="st1" cx="61.3" cy="12.7" r="0.5"/>
		<circle class="st1" cx="36.2" cy="15.9" r="0.5"/>
		<circle class="st1" cx="39.8" cy="15.9" r="0.5"/>
		<circle class="st1" cx="43.4" cy="15.9" r="0.5"/>
		<circle class="st1" cx="47" cy="15.9" r="0.5"/>
		<circle class="st1" cx="50.5" cy="15.9" r="0.5"/>
		<circle class="st1" cx="54.1" cy="15.9" r="0.5"/>
		<circle class="st1" cx="57.7" cy="15.9" r="0.5"/>
		<circle class="st1" cx="61.3" cy="15.8" r="0.5"/>
		<circle class="st1" cx="36.2" cy="19" r="0.5"/>
		<circle class="st1" cx="39.8" cy="18.9" r="0.5"/>
		<circle class="st1" cx="43.4" cy="18.9" r="0.5"/>
		<circle class="st1" cx="47" cy="18.9" r="0.5"/>
		<circle class="st1" cx="50.5" cy="18.9" r="0.5"/>
		<circle class="st1" cx="54.1" cy="18.9" r="0.5"/>
		<circle class="st1" cx="57.7" cy="18.9" r="0.5"/>
		<circle class="st1" cx="61.3" cy="18.9" r="0.5"/>
		<circle class="st1" cx="36.2" cy="22.1" r="0.5"/>
		<circle class="st1" cx="39.8" cy="22.1" r="0.5"/>
		<circle class="st1" cx="43.4" cy="22.1" r="0.5"/>
		<circle class="st1" cx="47" cy="22.1" r="0.5"/>
		<circle class="st1" cx="50.6" cy="22.1" r="0.5"/>
		<circle class="st1" cx="54.1" cy="22" r="0.5"/>
		<circle class="st1" cx="57.7" cy="22" r="0.5"/>
		<circle class="st1" cx="61.3" cy="22" r="0.5"/>
		<circle class="st1" cx="36.2" cy="25.1" r="0.5"/>
		<circle class="st1" cx="39.8" cy="25.1" r="0.5"/>
		<circle class="st1" cx="43.4" cy="25.1" r="0.5"/>
		<circle class="st1" cx="47" cy="25.1" r="0.5"/>
		<circle class="st1" cx="50.6" cy="25.1" r="0.5"/>
		<circle class="st1" cx="54.1" cy="25.1" r="0.5"/>
		<circle class="st1" cx="57.7" cy="25.1" r="0.5"/>
		<circle class="st1" cx="61.3" cy="25.1" r="0.5"/>
		<circle class="st1" cx="36.2" cy="28.3" r="0.5"/>
		<circle class="st1" cx="39.8" cy="28.2" r="0.5"/>
		<circle class="st1" cx="43.4" cy="28.2" r="0.5"/>
		<circle class="st1" cx="47" cy="28.2" r="0.5"/>
		<circle class="st1" cx="50.6" cy="28.2" r="0.5"/>
		<circle class="st1" cx="54.2" cy="28.2" r="0.5"/>
		<circle class="st1" cx="57.7" cy="28.2" r="0.5"/>
		<circle class="st1" cx="61.3" cy="28.2" r="0.5"/>
		<circle class="st1" cx="36.3" cy="31.3" r="0.5"/>
		<circle class="st1" cx="39.8" cy="31.3" r="0.5"/>
		<circle class="st1" cx="43.4" cy="31.3" r="0.5"/>
		<circle class="st1" cx="47" cy="31.3" r="0.5"/>
		<circle class="st1" cx="50.6" cy="31.2" r="0.5"/>
		<circle class="st1" cx="54.2" cy="31.2" r="0.5"/>
		<circle class="st1" cx="57.7" cy="31.2" r="0.5"/>
		<circle class="st1" cx="61.3" cy="31.2" r="0.5"/>
		<circle class="st1" cx="36.3" cy="34" r="0.5"/>
		<circle class="st1" cx="39.8" cy="34" r="0.5"/>
		<circle class="st1" cx="43.4" cy="33.9" r="0.5"/>
		<circle class="st1" cx="47" cy="33.9" r="0.5"/>
		<circle class="st1" cx="50.6" cy="33.9" r="0.5"/>
		<circle class="st1" cx="54.2" cy="33.9" r="0.5"/>
		<circle class="st1" cx="57.8" cy="33.9" r="0.5"/>
		<circle class="st1" cx="61.3" cy="33.9" r="0.5"/>
		<circle class="st1" cx="36.3" cy="37" r="0.5"/>
		<circle class="st1" cx="39.9" cy="37" r="0.5"/>
		<circle class="st1" cx="43.4" cy="37" r="0.5"/>
		<circle class="st1" cx="47" cy="37" r="0.5"/>
		<circle class="st1" cx="50.6" cy="37" r="0.5"/>
		<circle class="st1" cx="54.2" cy="36.9" r="0.5"/>
		<circle class="st1" cx="57.8" cy="36.9" r="0.5"/>
		<circle class="st1" cx="61.4" cy="36.9" r="0.5"/>
		<circle class="st1" cx="36.3" cy="40.1" r="0.5"/>
		<circle class="st1" cx="39.9" cy="40.1" r="0.5"/>
		<circle class="st1" cx="43.4" cy="40.1" r="0.5"/>
		<circle class="st1" cx="47" cy="40.1" r="0.5"/>
		<circle class="st1" cx="50.6" cy="40.1" r="0.5"/>
		<circle class="st1" cx="54.2" cy="40.1" r="0.5"/>
		<circle class="st1" cx="57.8" cy="40" r="0.5"/>
		<circle class="st1" cx="61.4" cy="40" r="0.5"/>
		<circle class="st1" cx="36.3" cy="43.2" r="0.5"/>
		<circle class="st1" cx="39.9" cy="43.1" r="0.5"/>
		<circle class="st1" cx="43.5" cy="43.1" r="0.5"/>
		<circle class="st1" cx="47" cy="43.1" r="0.5"/>
		<circle class="st1" cx="50.6" cy="43.1" r="0.5"/>
		<circle class="st1" cx="54.2" cy="43.1" r="0.5"/>
		<circle class="st1" cx="57.8" cy="43.1" r="0.5"/>
		<circle class="st1" cx="61.4" cy="43.1" r="0.5"/>
	</g>
	<g class="st0">
		<circle class="st1" cx="64.2" cy="-2" r="0.5"/>
		<circle class="st1" cx="67.8" cy="-2" r="0.5"/>
		<circle class="st1" cx="71.4" cy="-2" r="0.5"/>
		<circle class="st1" cx="75" cy="-2" r="0.5"/>
		<circle class="st1" cx="78.5" cy="-2" r="0.5"/>
		<circle class="st1" cx="82.1" cy="-2" r="0.5"/>
		<circle class="st1" cx="85.7" cy="-2" r="0.5"/>
		<circle class="st1" cx="89.3" cy="-2.1" r="0.5"/>
		<circle class="st1" cx="92.9" cy="-2.1" r="0.5"/>
		<circle class="st1" cx="96.4" cy="-2.1" r="0.5"/>
		<circle class="st1" cx="64.2" cy="1.1" r="0.5"/>
		<circle class="st1" cx="67.8" cy="1" r="0.5"/>
		<circle class="st1" cx="71.4" cy="1" r="0.5"/>
		<circle class="st1" cx="75" cy="1" r="0.5"/>
		<circle class="st1" cx="78.5" cy="1" r="0.5"/>
		<circle class="st1" cx="82.1" cy="1" r="0.5"/>
		<circle class="st1" cx="85.7" cy="1" r="0.5"/>
		<circle class="st1" cx="89.3" cy="1" r="0.5"/>
		<circle class="st1" cx="92.9" cy="1" r="0.5"/>
		<circle class="st1" cx="96.5" cy="1" r="0.5"/>
		<circle class="st1" cx="64.2" cy="4.2" r="0.5"/>
		<circle class="st1" cx="67.8" cy="4.2" r="0.5"/>
		<circle class="st1" cx="71.4" cy="4.1" r="0.5"/>
		<circle class="st1" cx="75" cy="4.1" r="0.5"/>
		<circle class="st1" cx="78.6" cy="4.1" r="0.5"/>
		<circle class="st1" cx="82.1" cy="4.1" r="0.5"/>
		<circle class="st1" cx="85.7" cy="4.1" r="0.5"/>
		<circle class="st1" cx="89.3" cy="4.1" r="0.5"/>
		<circle class="st1" cx="92.9" cy="4.1" r="0.5"/>
		<circle class="st1" cx="96.5" cy="4.1" r="0.5"/>
		<circle class="st1" cx="64.2" cy="7.2" r="0.5"/>
		<circle class="st1" cx="67.8" cy="7.2" r="0.5"/>
		<circle class="st1" cx="71.4" cy="7.2" r="0.5"/>
		<circle class="st1" cx="75" cy="7.2" r="0.5"/>
		<circle class="st1" cx="78.6" cy="7.2" r="0.5"/>
		<circle class="st1" cx="82.1" cy="7.2" r="0.5"/>
		<circle class="st1" cx="85.7" cy="7.1" r="0.5"/>
		<circle class="st1" cx="89.3" cy="7.1" r="0.5"/>
		<circle class="st1" cx="92.9" cy="7.1" r="0.5"/>
		<circle class="st1" cx="96.5" cy="7.1" r="0.5"/>
		<circle class="st1" cx="64.2" cy="9.9" r="0.5"/>
		<circle class="st1" cx="67.8" cy="9.9" r="0.5"/>
		<circle class="st1" cx="71.4" cy="9.9" r="0.5"/>
		<circle class="st1" cx="75" cy="9.8" r="0.5"/>
		<circle class="st1" cx="78.6" cy="9.8" r="0.5"/>
		<circle class="st1" cx="82.2" cy="9.8" r="0.5"/>
		<circle class="st1" cx="85.7" cy="9.8" r="0.5"/>
		<circle class="st1" cx="89.3" cy="9.8" r="0.5"/>
		<circle class="st1" cx="92.9" cy="9.8" r="0.5"/>
		<circle class="st1" cx="96.5" cy="9.8" r="0.5"/>
		<circle class="st1" cx="64.3" cy="12.9" r="0.5"/>
		<circle class="st1" cx="67.8" cy="12.9" r="0.5"/>
		<circle class="st1" cx="71.4" cy="12.9" r="0.5"/>
		<circle class="st1" cx="75" cy="12.9" r="0.5"/>
		<circle class="st1" cx="78.6" cy="12.9" r="0.5"/>
		<circle class="st1" cx="82.2" cy="12.9" r="0.5"/>
		<circle class="st1" cx="85.7" cy="12.9" r="0.5"/>
		<circle class="st1" cx="89.3" cy="12.8" r="0.5"/>
		<circle class="st1" cx="92.9" cy="12.8" r="0.5"/>
		<circle class="st1" cx="96.5" cy="12.8" r="0.5"/>
		<circle class="st1" cx="64.3" cy="16" r="0.5"/>
		<circle class="st1" cx="67.8" cy="16" r="0.5"/>
		<circle class="st1" cx="71.4" cy="16" r="0.5"/>
		<circle class="st1" cx="75" cy="16" r="0.5"/>
		<circle class="st1" cx="78.6" cy="16" r="0.5"/>
		<circle class="st1" cx="82.2" cy="16" r="0.5"/>
		<circle class="st1" cx="85.8" cy="16" r="0.5"/>
		<circle class="st1" cx="89.3" cy="16" r="0.5"/>
		<circle class="st1" cx="92.9" cy="15.9" r="0.5"/>
		<circle class="st1" cx="96.5" cy="15.9" r="0.5"/>
		<circle class="st1" cx="64.3" cy="19.1" r="0.5"/>
		<circle class="st1" cx="67.9" cy="19.1" r="0.5"/>
		<circle class="st1" cx="71.4" cy="19" r="0.5"/>
		<circle class="st1" cx="75" cy="19" r="0.5"/>
		<circle class="st1" cx="78.6" cy="19" r="0.5"/>
		<circle class="st1" cx="82.2" cy="19" r="0.5"/>
		<circle class="st1" cx="85.8" cy="19" r="0.5"/>
		<circle class="st1" cx="89.4" cy="19" r="0.5"/>
		<circle class="st1" cx="92.9" cy="19" r="0.5"/>
		<circle class="st1" cx="96.5" cy="19" r="0.5"/>
		<circle class="st1" cx="64.3" cy="22.2" r="0.5"/>
		<circle class="st1" cx="67.9" cy="22.2" r="0.5"/>
		<circle class="st1" cx="71.4" cy="22.2" r="0.5"/>
		<circle class="st1" cx="75" cy="22.2" r="0.5"/>
		<circle class="st1" cx="78.6" cy="22.2" r="0.5"/>
		<circle class="st1" cx="82.2" cy="22.2" r="0.5"/>
		<circle class="st1" cx="85.8" cy="22.1" r="0.5"/>
		<circle class="st1" cx="89.4" cy="22.1" r="0.5"/>
		<circle class="st1" cx="92.9" cy="22.1" r="0.5"/>
		<circle class="st1" cx="96.5" cy="22.1" r="0.5"/>
		<circle class="st1" cx="64.3" cy="25.3" r="0.5"/>
		<circle class="st1" cx="67.9" cy="25.2" r="0.5"/>
		<circle class="st1" cx="71.5" cy="25.2" r="0.5"/>
		<circle class="st1" cx="75" cy="25.2" r="0.5"/>
		<circle class="st1" cx="78.6" cy="25.2" r="0.5"/>
		<circle class="st1" cx="82.2" cy="25.2" r="0.5"/>
		<circle class="st1" cx="85.8" cy="25.2" r="0.5"/>
		<circle class="st1" cx="89.4" cy="25.2" r="0.5"/>
		<circle class="st1" cx="93" cy="25.2" r="0.5"/>
		<circle class="st1" cx="96.5" cy="25.2" r="0.5"/>
		<circle class="st1" cx="64.3" cy="28.4" r="0.5"/>
		<circle class="st1" cx="67.9" cy="28.4" r="0.5"/>
		<circle class="st1" cx="71.5" cy="28.3" r="0.5"/>
		<circle class="st1" cx="75" cy="28.3" r="0.5"/>
		<circle class="st1" cx="78.6" cy="28.3" r="0.5"/>
		<circle class="st1" cx="82.2" cy="28.3" r="0.5"/>
		<circle class="st1" cx="85.8" cy="28.3" r="0.5"/>
		<circle class="st1" cx="89.4" cy="28.3" r="0.5"/>
		<circle class="st1" cx="93" cy="28.3" r="0.5"/>
		<circle class="st1" cx="96.5" cy="28.3" r="0.5"/>
		<circle class="st1" cx="64.3" cy="31.4" r="0.5"/>
		<circle class="st1" cx="67.9" cy="31.4" r="0.5"/>
		<circle class="st1" cx="71.5" cy="31.4" r="0.5"/>
		<circle class="st1" cx="75.1" cy="31.4" r="0.5"/>
		<circle class="st1" cx="78.6" cy="31.4" r="0.5"/>
		<circle class="st1" cx="82.2" cy="31.3" r="0.5"/>
		<circle class="st1" cx="85.8" cy="31.3" r="0.5"/>
		<circle class="st1" cx="89.4" cy="31.3" r="0.5"/>
		<circle class="st1" cx="93" cy="31.3" r="0.5"/>
		<circle class="st1" cx="96.6" cy="31.3" r="0.5"/>
		<circle class="st1" cx="64.3" cy="34.1" r="0.5"/>
		<circle class="st1" cx="67.9" cy="34.1" r="0.5"/>
		<circle class="st1" cx="71.5" cy="34.1" r="0.5"/>
		<circle class="st1" cx="75.1" cy="34" r="0.5"/>
		<circle class="st1" cx="78.7" cy="34" r="0.5"/>
		<circle class="st1" cx="82.2" cy="34" r="0.5"/>
		<circle class="st1" cx="85.8" cy="34" r="0.5"/>
		<circle class="st1" cx="89.4" cy="34" r="0.5"/>
		<circle class="st1" cx="93" cy="34" r="0.5"/>
		<circle class="st1" cx="96.6" cy="34" r="0.5"/>
		<circle class="st1" cx="64.3" cy="37.1" r="0.5"/>
		<circle class="st1" cx="67.9" cy="37.1" r="0.5"/>
		<circle class="st1" cx="71.5" cy="37.1" r="0.5"/>
		<circle class="st1" cx="75.1" cy="37.1" r="0.5"/>
		<circle class="st1" cx="78.7" cy="37.1" r="0.5"/>
		<circle class="st1" cx="82.2" cy="37.1" r="0.5"/>
		<circle class="st1" cx="85.8" cy="37" r="0.5"/>
		<circle class="st1" cx="89.4" cy="37" r="0.5"/>
		<circle class="st1" cx="93" cy="37" r="0.5"/>
		<circle class="st1" cx="96.6" cy="37" r="0.5"/>
		<circle class="st1" cx="64.3" cy="40.2" r="0.5"/>
		<circle class="st1" cx="67.9" cy="40.2" r="0.5"/>
		<circle class="st1" cx="71.5" cy="40.2" r="0.5"/>
		<circle class="st1" cx="75.1" cy="40.2" r="0.5"/>
		<circle class="st1" cx="78.7" cy="40.2" r="0.5"/>
		<circle class="st1" cx="82.3" cy="40.2" r="0.5"/>
		<circle class="st1" cx="85.8" cy="40.2" r="0.5"/>
		<circle class="st1" cx="89.4" cy="40.1" r="0.5"/>
		<circle class="st1" cx="93" cy="40.1" r="0.5"/>
		<circle class="st1" cx="96.6" cy="40.1" r="0.5"/>
		<circle class="st1" cx="64.3" cy="43.3" r="0.5"/>
		<circle class="st1" cx="67.9" cy="43.3" r="0.5"/>
		<circle class="st1" cx="71.5" cy="43.2" r="0.5"/>
		<circle class="st1" cx="75.1" cy="43.2" r="0.5"/>
		<circle class="st1" cx="78.7" cy="43.2" r="0.5"/>
		<circle class="st1" cx="82.3" cy="43.2" r="0.5"/>
		<circle class="st1" cx="85.8" cy="43.2" r="0.5"/>
		<circle class="st1" cx="89.4" cy="43.2" r="0.5"/>
		<circle class="st1" cx="93" cy="43.2" r="0.5"/>
		<circle class="st1" cx="96.6" cy="43.2" r="0.5"/>
		<circle class="st1" cx="99.7" cy="-2.1" r="0.5"/>
		<circle class="st1" cx="103.3" cy="-2.1" r="0.5"/>
		<circle class="st1" cx="106.8" cy="-2.1" r="0.5"/>
		<circle class="st1" cx="110.4" cy="-2.1" r="0.5"/>
		<circle class="st1" cx="114" cy="-2.1" r="0.5"/>
		<circle class="st1" cx="117.6" cy="-2.1" r="0.5"/>
		<circle class="st1" cx="121.2" cy="-2.2" r="0.5"/>
		<circle class="st1" cx="124.8" cy="-2.2" r="0.5"/>
		<circle class="st1" cx="99.7" cy="0.9" r="0.5"/>
		<circle class="st1" cx="103.3" cy="0.9" r="0.5"/>
		<circle class="st1" cx="106.9" cy="0.9" r="0.5"/>
		<circle class="st1" cx="110.4" cy="0.9" r="0.5"/>
		<circle class="st1" cx="114" cy="0.9" r="0.5"/>
		<circle class="st1" cx="117.6" cy="0.9" r="0.5"/>
		<circle class="st1" cx="121.2" cy="0.9" r="0.5"/>
		<circle class="st1" cx="124.8" cy="0.9" r="0.5"/>
		<circle class="st1" cx="99.7" cy="4.1" r="0.5"/>
		<circle class="st1" cx="103.3" cy="4" r="0.5"/>
		<circle class="st1" cx="106.9" cy="4" r="0.5"/>
		<circle class="st1" cx="110.4" cy="4" r="0.5"/>
		<circle class="st1" cx="114" cy="4" r="0.5"/>
		<circle class="st1" cx="117.6" cy="4" r="0.5"/>
		<circle class="st1" cx="121.2" cy="4" r="0.5"/>
		<circle class="st1" cx="124.8" cy="4" r="0.5"/>
		<circle class="st1" cx="99.7" cy="7.1" r="0.5"/>
		<circle class="st1" cx="103.3" cy="7.1" r="0.5"/>
		<circle class="st1" cx="106.9" cy="7.1" r="0.5"/>
		<circle class="st1" cx="110.5" cy="7.1" r="0.5"/>
		<circle class="st1" cx="114" cy="7.1" r="0.5"/>
		<circle class="st1" cx="117.6" cy="7" r="0.5"/>
		<circle class="st1" cx="121.2" cy="7" r="0.5"/>
		<circle class="st1" cx="124.8" cy="7" r="0.5"/>
		<circle class="st1" cx="99.7" cy="9.8" r="0.5"/>
		<circle class="st1" cx="103.3" cy="9.8" r="0.5"/>
		<circle class="st1" cx="106.9" cy="9.7" r="0.5"/>
		<circle class="st1" cx="110.5" cy="9.7" r="0.5"/>
		<circle class="st1" cx="114" cy="9.7" r="0.5"/>
		<circle class="st1" cx="117.6" cy="9.7" r="0.5"/>
		<circle class="st1" cx="121.2" cy="9.7" r="0.5"/>
		<circle class="st1" cx="124.8" cy="9.7" r="0.5"/>
		<circle class="st1" cx="99.7" cy="12.8" r="0.5"/>
		<circle class="st1" cx="103.3" cy="12.8" r="0.5"/>
		<circle class="st1" cx="106.9" cy="12.8" r="0.5"/>
		<circle class="st1" cx="110.5" cy="12.8" r="0.5"/>
		<circle class="st1" cx="114.1" cy="12.8" r="0.5"/>
		<circle class="st1" cx="117.6" cy="12.8" r="0.5"/>
		<circle class="st1" cx="121.2" cy="12.7" r="0.5"/>
		<circle class="st1" cx="124.8" cy="12.7" r="0.5"/>
		<circle class="st1" cx="99.7" cy="15.9" r="0.5"/>
		<circle class="st1" cx="103.3" cy="15.9" r="0.5"/>
		<circle class="st1" cx="106.9" cy="15.9" r="0.5"/>
		<circle class="st1" cx="110.5" cy="15.9" r="0.5"/>
		<circle class="st1" cx="114.1" cy="15.9" r="0.5"/>
		<circle class="st1" cx="117.6" cy="15.9" r="0.5"/>
		<circle class="st1" cx="121.2" cy="15.9" r="0.5"/>
		<circle class="st1" cx="124.8" cy="15.8" r="0.5"/>
		<circle class="st1" cx="99.7" cy="19" r="0.5"/>
		<circle class="st1" cx="103.3" cy="18.9" r="0.5"/>
		<circle class="st1" cx="106.9" cy="18.9" r="0.5"/>
		<circle class="st1" cx="110.5" cy="18.9" r="0.5"/>
		<circle class="st1" cx="114.1" cy="18.9" r="0.5"/>
		<circle class="st1" cx="117.7" cy="18.9" r="0.5"/>
		<circle class="st1" cx="121.2" cy="18.9" r="0.5"/>
		<circle class="st1" cx="124.8" cy="18.9" r="0.5"/>
		<circle class="st1" cx="99.8" cy="22.1" r="0.5"/>
		<circle class="st1" cx="103.3" cy="22.1" r="0.5"/>
		<circle class="st1" cx="106.9" cy="22.1" r="0.5"/>
		<circle class="st1" cx="110.5" cy="22.1" r="0.5"/>
		<circle class="st1" cx="114.1" cy="22.1" r="0.5"/>
		<circle class="st1" cx="117.7" cy="22" r="0.5"/>
		<circle class="st1" cx="121.3" cy="22" r="0.5"/>
		<circle class="st1" cx="124.8" cy="22" r="0.5"/>
		<circle class="st1" cx="99.8" cy="25.1" r="0.5"/>
		<circle class="st1" cx="103.3" cy="25.1" r="0.5"/>
		<circle class="st1" cx="106.9" cy="25.1" r="0.5"/>
		<circle class="st1" cx="110.5" cy="25.1" r="0.5"/>
		<circle class="st1" cx="114.1" cy="25.1" r="0.5"/>
		<circle class="st1" cx="117.7" cy="25.1" r="0.5"/>
		<circle class="st1" cx="121.3" cy="25.1" r="0.5"/>
		<circle class="st1" cx="124.8" cy="25.1" r="0.5"/>
		<circle class="st1" cx="99.8" cy="28.3" r="0.5"/>
		<circle class="st1" cx="103.4" cy="28.2" r="0.5"/>
		<circle class="st1" cx="106.9" cy="28.2" r="0.5"/>
		<circle class="st1" cx="110.5" cy="28.2" r="0.5"/>
		<circle class="st1" cx="114.1" cy="28.2" r="0.5"/>
		<circle class="st1" cx="117.7" cy="28.2" r="0.5"/>
		<circle class="st1" cx="121.3" cy="28.2" r="0.5"/>
		<circle class="st1" cx="124.9" cy="28.2" r="0.5"/>
		<circle class="st1" cx="99.8" cy="31.3" r="0.5"/>
		<circle class="st1" cx="103.4" cy="31.3" r="0.5"/>
		<circle class="st1" cx="106.9" cy="31.3" r="0.5"/>
		<circle class="st1" cx="110.5" cy="31.3" r="0.5"/>
		<circle class="st1" cx="114.1" cy="31.2" r="0.5"/>
		<circle class="st1" cx="117.7" cy="31.2" r="0.5"/>
		<circle class="st1" cx="121.3" cy="31.2" r="0.5"/>
		<circle class="st1" cx="124.9" cy="31.2" r="0.5"/>
		<circle class="st1" cx="99.8" cy="34" r="0.5"/>
		<circle class="st1" cx="103.4" cy="34" r="0.5"/>
		<circle class="st1" cx="107" cy="33.9" r="0.5"/>
		<circle class="st1" cx="110.5" cy="33.9" r="0.5"/>
		<circle class="st1" cx="114.1" cy="33.9" r="0.5"/>
		<circle class="st1" cx="117.7" cy="33.9" r="0.5"/>
		<circle class="st1" cx="121.3" cy="33.9" r="0.5"/>
		<circle class="st1" cx="124.9" cy="33.9" r="0.5"/>
		<circle class="st1" cx="99.8" cy="37" r="0.5"/>
		<circle class="st1" cx="103.4" cy="37" r="0.5"/>
		<circle class="st1" cx="107" cy="37" r="0.5"/>
		<circle class="st1" cx="110.5" cy="37" r="0.5"/>
		<circle class="st1" cx="114.1" cy="37" r="0.5"/>
		<circle class="st1" cx="117.7" cy="36.9" r="0.5"/>
		<circle class="st1" cx="121.3" cy="36.9" r="0.5"/>
		<circle class="st1" cx="124.9" cy="36.9" r="0.5"/>
		<circle class="st1" cx="99.8" cy="40.1" r="0.5"/>
		<circle class="st1" cx="103.4" cy="40.1" r="0.5"/>
		<circle class="st1" cx="107" cy="40.1" r="0.5"/>
		<circle class="st1" cx="110.6" cy="40.1" r="0.5"/>
		<circle class="st1" cx="114.1" cy="40.1" r="0.5"/>
		<circle class="st1" cx="117.7" cy="40.1" r="0.5"/>
		<circle class="st1" cx="121.3" cy="40" r="0.5"/>
		<circle class="st1" cx="124.9" cy="40" r="0.5"/>
		<circle class="st1" cx="99.8" cy="43.2" r="0.5"/>
		<circle class="st1" cx="103.4" cy="43.1" r="0.5"/>
		<circle class="st1" cx="107" cy="43.1" r="0.5"/>
		<circle class="st1" cx="110.6" cy="43.1" r="0.5"/>
		<circle class="st1" cx="114.2" cy="43.1" r="0.5"/>
		<circle class="st1" cx="117.7" cy="43.1" r="0.5"/>
		<circle class="st1" cx="121.3" cy="43.1" r="0.5"/>
		<circle class="st1" cx="124.9" cy="43.1" r="0.5"/>
	</g>
</g>
</svg>
