<?xml version="1.0" encoding="utf-8"?>
<!-- Generator: Adobe Illustrator 23.0.0, SVG Export Plug-In . SVG Version: 6.00 Build 0)  -->
<svg version="1.1" id="Layer_1" xmlns="http://www.w3.org/2000/svg" xmlns:xlink="http://www.w3.org/1999/xlink" x="0px" y="0px"
	 viewBox="0 0 182.1 140" style="enable-background:new 0 0 182.1 140;" xml:space="preserve">
<style type="text/css">
	.st0{opacity:7.000000e-02;}
	.st1{fill:#030C30;}
</style>
<g class="st0">
	<circle class="st1" cx="5.2" cy="4.2" r="1.5"/>
	<circle class="st1" cx="15.3" cy="4.2" r="1.5"/>
	<circle class="st1" cx="25.3" cy="4.2" r="1.5"/>
	<circle class="st1" cx="35.4" cy="4.1" r="1.5"/>
	<circle class="st1" cx="45.5" cy="4.1" r="1.5"/>
	<circle class="st1" cx="55.5" cy="4.1" r="1.5"/>
	<circle class="st1" cx="65.6" cy="4" r="1.5"/>
	<circle class="st1" cx="75.7" cy="4" r="1.5"/>
	<circle class="st1" cx="85.8" cy="4" r="1.5"/>
	<circle class="st1" cx="95.8" cy="3.9" r="1.5"/>
	<circle class="st1" cx="5.2" cy="12.8" r="1.5"/>
	<circle class="st1" cx="15.3" cy="12.7" r="1.5"/>
	<circle class="st1" cx="25.4" cy="12.7" r="1.5"/>
	<circle class="st1" cx="35.4" cy="12.7" r="1.5"/>
	<circle class="st1" cx="45.5" cy="12.6" r="1.5"/>
	<circle class="st1" cx="55.6" cy="12.6" r="1.5"/>
	<circle class="st1" cx="65.6" cy="12.6" r="1.5"/>
	<circle class="st1" cx="75.7" cy="12.5" r="1.5"/>
	<circle class="st1" cx="85.8" cy="12.5" r="1.5"/>
	<circle class="st1" cx="95.9" cy="12.5" r="1.5"/>
	<circle class="st1" cx="5.2" cy="21.5" r="1.5"/>
	<circle class="st1" cx="15.3" cy="21.5" r="1.5"/>
	<circle class="st1" cx="25.4" cy="21.4" r="1.5"/>
	<circle class="st1" cx="35.5" cy="21.4" r="1.5"/>
	<circle class="st1" cx="45.5" cy="21.4" r="1.5"/>
	<circle class="st1" cx="55.6" cy="21.4" r="1.5"/>
	<circle class="st1" cx="65.7" cy="21.3" r="1.5"/>
	<circle class="st1" cx="75.7" cy="21.3" r="1.5"/>
	<circle class="st1" cx="85.8" cy="21.3" r="1.5"/>
	<circle class="st1" cx="95.9" cy="21.2" r="1.5"/>
	<circle class="st1" cx="5.3" cy="30.1" r="1.5"/>
	<circle class="st1" cx="15.3" cy="30" r="1.5"/>
	<circle class="st1" cx="25.4" cy="30" r="1.5"/>
	<circle class="st1" cx="35.5" cy="30" r="1.5"/>
	<circle class="st1" cx="45.6" cy="29.9" r="1.5"/>
	<circle class="st1" cx="55.6" cy="29.9" r="1.5"/>
	<circle class="st1" cx="65.7" cy="29.9" r="1.5"/>
	<circle class="st1" cx="75.8" cy="29.8" r="1.5"/>
	<circle class="st1" cx="85.8" cy="29.8" r="1.5"/>
	<circle class="st1" cx="95.9" cy="29.8" r="1.5"/>
	<circle class="st1" cx="5.3" cy="37.6" r="1.5"/>
	<circle class="st1" cx="15.4" cy="37.5" r="1.5"/>
	<circle class="st1" cx="25.4" cy="37.5" r="1.5"/>
	<circle class="st1" cx="35.5" cy="37.5" r="1.5"/>
	<circle class="st1" cx="45.6" cy="37.4" r="1.5"/>
	<circle class="st1" cx="55.6" cy="37.4" r="1.5"/>
	<circle class="st1" cx="65.7" cy="37.4" r="1.5"/>
	<circle class="st1" cx="75.8" cy="37.3" r="1.5"/>
	<circle class="st1" cx="85.9" cy="37.3" r="1.5"/>
	<circle class="st1" cx="95.9" cy="37.3" r="1.5"/>
	<circle class="st1" cx="5.3" cy="46.1" r="1.5"/>
	<circle class="st1" cx="15.4" cy="46.1" r="1.5"/>
	<circle class="st1" cx="25.5" cy="46" r="1.5"/>
	<circle class="st1" cx="35.5" cy="46" r="1.5"/>
	<circle class="st1" cx="45.6" cy="46" r="1.5"/>
	<circle class="st1" cx="55.7" cy="45.9" r="1.5"/>
	<circle class="st1" cx="65.7" cy="45.9" r="1.5"/>
	<circle class="st1" cx="75.8" cy="45.9" r="1.5"/>
	<circle class="st1" cx="85.9" cy="45.9" r="1.5"/>
	<circle class="st1" cx="96" cy="45.8" r="1.5"/>
	<circle class="st1" cx="5.3" cy="54.9" r="1.5"/>
	<circle class="st1" cx="15.4" cy="54.8" r="1.5"/>
	<circle class="st1" cx="25.5" cy="54.8" r="1.5"/>
	<circle class="st1" cx="35.6" cy="54.8" r="1.5"/>
	<circle class="st1" cx="45.6" cy="54.7" r="1.5"/>
	<circle class="st1" cx="55.7" cy="54.7" r="1.5"/>
	<circle class="st1" cx="65.8" cy="54.7" r="1.5"/>
	<circle class="st1" cx="75.8" cy="54.6" r="1.5"/>
	<circle class="st1" cx="85.9" cy="54.6" r="1.5"/>
	<circle class="st1" cx="96" cy="54.6" r="1.5"/>
	<circle class="st1" cx="5.4" cy="63.4" r="1.5"/>
	<circle class="st1" cx="15.4" cy="63.4" r="1.5"/>
	<circle class="st1" cx="25.5" cy="63.3" r="1.5"/>
	<circle class="st1" cx="35.6" cy="63.3" r="1.5"/>
	<circle class="st1" cx="45.7" cy="63.3" r="1.5"/>
	<circle class="st1" cx="55.7" cy="63.2" r="1.5"/>
	<circle class="st1" cx="65.8" cy="63.2" r="1.5"/>
	<circle class="st1" cx="75.9" cy="63.2" r="1.5"/>
	<circle class="st1" cx="85.9" cy="63.1" r="1.5"/>
	<circle class="st1" cx="96" cy="63.1" r="1.5"/>
	<circle class="st1" cx="5.4" cy="72.2" r="1.5"/>
	<circle class="st1" cx="15.5" cy="72.2" r="1.5"/>
	<circle class="st1" cx="25.5" cy="72.2" r="1.5"/>
	<circle class="st1" cx="35.6" cy="72.1" r="1.5"/>
	<circle class="st1" cx="45.7" cy="72.1" r="1.5"/>
	<circle class="st1" cx="55.8" cy="72.1" r="1.5"/>
	<circle class="st1" cx="65.8" cy="72" r="1.5"/>
	<circle class="st1" cx="75.9" cy="72" r="1.5"/>
	<circle class="st1" cx="86" cy="72" r="1.5"/>
	<circle class="st1" cx="96" cy="71.9" r="1.5"/>
	<circle class="st1" cx="5.4" cy="80.8" r="1.5"/>
	<circle class="st1" cx="15.5" cy="80.7" r="1.5"/>
	<circle class="st1" cx="25.6" cy="80.7" r="1.5"/>
	<circle class="st1" cx="35.6" cy="80.7" r="1.5"/>
	<circle class="st1" cx="45.7" cy="80.6" r="1.5"/>
	<circle class="st1" cx="55.8" cy="80.6" r="1.5"/>
	<circle class="st1" cx="65.9" cy="80.6" r="1.5"/>
	<circle class="st1" cx="75.9" cy="80.6" r="1.5"/>
	<circle class="st1" cx="86" cy="80.5" r="1.5"/>
	<circle class="st1" cx="96.1" cy="80.5" r="1.5"/>
	<circle class="st1" cx="5.5" cy="89.5" r="1.5"/>
	<circle class="st1" cx="15.5" cy="89.5" r="1.5"/>
	<circle class="st1" cx="25.6" cy="89.5" r="1.5"/>
	<circle class="st1" cx="35.7" cy="89.4" r="1.5"/>
	<circle class="st1" cx="45.7" cy="89.4" r="1.5"/>
	<circle class="st1" cx="55.8" cy="89.4" r="1.5"/>
	<circle class="st1" cx="65.9" cy="89.3" r="1.5"/>
	<circle class="st1" cx="76" cy="89.3" r="1.5"/>
	<circle class="st1" cx="86" cy="89.3" r="1.5"/>
	<circle class="st1" cx="96.1" cy="89.2" r="1.5"/>
	<circle class="st1" cx="5.5" cy="98.1" r="1.5"/>
	<circle class="st1" cx="15.6" cy="98" r="1.5"/>
	<circle class="st1" cx="25.6" cy="98" r="1.5"/>
	<circle class="st1" cx="35.7" cy="98" r="1.5"/>
	<circle class="st1" cx="45.8" cy="97.9" r="1.5"/>
	<circle class="st1" cx="55.8" cy="97.9" r="1.5"/>
	<circle class="st1" cx="65.9" cy="97.9" r="1.5"/>
	<circle class="st1" cx="76" cy="97.8" r="1.5"/>
	<circle class="st1" cx="86.1" cy="97.8" r="1.5"/>
	<circle class="st1" cx="96.1" cy="97.8" r="1.5"/>
	<circle class="st1" cx="5.5" cy="105.6" r="1.5"/>
	<circle class="st1" cx="15.6" cy="105.5" r="1.5"/>
	<circle class="st1" cx="25.6" cy="105.5" r="1.5"/>
	<circle class="st1" cx="35.7" cy="105.5" r="1.5"/>
	<circle class="st1" cx="45.8" cy="105.5" r="1.5"/>
	<circle class="st1" cx="55.9" cy="105.4" r="1.5"/>
	<circle class="st1" cx="65.9" cy="105.4" r="1.5"/>
	<circle class="st1" cx="76" cy="105.4" r="1.5"/>
	<circle class="st1" cx="86.1" cy="105.3" r="1.5"/>
	<circle class="st1" cx="96.1" cy="105.3" r="1.5"/>
	<circle class="st1" cx="5.5" cy="114.1" r="1.5"/>
	<circle class="st1" cx="15.6" cy="114.1" r="1.5"/>
	<circle class="st1" cx="25.7" cy="114.1" r="1.5"/>
	<circle class="st1" cx="35.7" cy="114" r="1.5"/>
	<circle class="st1" cx="45.8" cy="114" r="1.5"/>
	<circle class="st1" cx="55.9" cy="114" r="1.5"/>
	<circle class="st1" cx="66" cy="113.9" r="1.5"/>
	<circle class="st1" cx="76" cy="113.9" r="1.5"/>
	<circle class="st1" cx="86.1" cy="113.9" r="1.5"/>
	<circle class="st1" cx="96.2" cy="113.8" r="1.5"/>
	<circle class="st1" cx="5.6" cy="122.9" r="1.5"/>
	<circle class="st1" cx="15.6" cy="122.8" r="1.5"/>
	<circle class="st1" cx="25.7" cy="122.8" r="1.5"/>
	<circle class="st1" cx="35.8" cy="122.8" r="1.5"/>
	<circle class="st1" cx="45.8" cy="122.7" r="1.5"/>
	<circle class="st1" cx="55.9" cy="122.7" r="1.5"/>
	<circle class="st1" cx="66" cy="122.7" r="1.5"/>
	<circle class="st1" cx="76.1" cy="122.6" r="1.5"/>
	<circle class="st1" cx="86.1" cy="122.6" r="1.5"/>
	<circle class="st1" cx="96.2" cy="122.6" r="1.5"/>
	<circle class="st1" cx="5.6" cy="131.4" r="1.5"/>
	<circle class="st1" cx="15.7" cy="131.4" r="1.5"/>
	<circle class="st1" cx="25.7" cy="131.3" r="1.5"/>
	<circle class="st1" cx="35.8" cy="131.3" r="1.5"/>
	<circle class="st1" cx="45.9" cy="131.3" r="1.5"/>
	<circle class="st1" cx="55.9" cy="131.3" r="1.5"/>
	<circle class="st1" cx="66" cy="131.2" r="1.5"/>
	<circle class="st1" cx="76.1" cy="131.2" r="1.5"/>
	<circle class="st1" cx="86.2" cy="131.2" r="1.5"/>
	<circle class="st1" cx="96.2" cy="131.1" r="1.5"/>
	<circle class="st1" cx="104.9" cy="3.9" r="1.5"/>
	<circle class="st1" cx="115" cy="3.9" r="1.5"/>
	<circle class="st1" cx="125.1" cy="3.8" r="1.5"/>
	<circle class="st1" cx="135.1" cy="3.8" r="1.5"/>
	<circle class="st1" cx="145.2" cy="3.8" r="1.5"/>
	<circle class="st1" cx="155.3" cy="3.7" r="1.5"/>
	<circle class="st1" cx="165.3" cy="3.7" r="1.5"/>
	<circle class="st1" cx="175.4" cy="3.7" r="1.5"/>
	<circle class="st1" cx="104.9" cy="12.4" r="1.5"/>
	<circle class="st1" cx="115" cy="12.4" r="1.5"/>
	<circle class="st1" cx="125.1" cy="12.4" r="1.5"/>
	<circle class="st1" cx="135.2" cy="12.4" r="1.5"/>
	<circle class="st1" cx="145.2" cy="12.3" r="1.5"/>
	<circle class="st1" cx="155.3" cy="12.3" r="1.5"/>
	<circle class="st1" cx="165.4" cy="12.3" r="1.5"/>
	<circle class="st1" cx="175.4" cy="12.2" r="1.5"/>
	<circle class="st1" cx="105" cy="21.2" r="1.5"/>
	<circle class="st1" cx="115" cy="21.2" r="1.5"/>
	<circle class="st1" cx="125.1" cy="21.1" r="1.5"/>
	<circle class="st1" cx="135.2" cy="21.1" r="1.5"/>
	<circle class="st1" cx="145.3" cy="21.1" r="1.5"/>
	<circle class="st1" cx="155.3" cy="21" r="1.5"/>
	<circle class="st1" cx="165.4" cy="21" r="1.5"/>
	<circle class="st1" cx="175.5" cy="21" r="1.5"/>
	<circle class="st1" cx="105" cy="29.7" r="1.5"/>
	<circle class="st1" cx="115.1" cy="29.7" r="1.5"/>
	<circle class="st1" cx="125.1" cy="29.7" r="1.5"/>
	<circle class="st1" cx="135.2" cy="29.6" r="1.5"/>
	<circle class="st1" cx="145.3" cy="29.6" r="1.5"/>
	<circle class="st1" cx="155.4" cy="29.6" r="1.5"/>
	<circle class="st1" cx="165.4" cy="29.6" r="1.5"/>
	<circle class="st1" cx="175.5" cy="29.5" r="1.5"/>
	<circle class="st1" cx="105" cy="37.2" r="1.5"/>
	<circle class="st1" cx="115.1" cy="37.2" r="1.5"/>
	<circle class="st1" cx="125.2" cy="37.2" r="1.5"/>
	<circle class="st1" cx="135.2" cy="37.2" r="1.5"/>
	<circle class="st1" cx="145.3" cy="37.1" r="1.5"/>
	<circle class="st1" cx="155.4" cy="37.1" r="1.5"/>
	<circle class="st1" cx="165.4" cy="37.1" r="1.5"/>
	<circle class="st1" cx="175.5" cy="37" r="1.5"/>
	<circle class="st1" cx="105" cy="45.8" r="1.5"/>
	<circle class="st1" cx="115.1" cy="45.8" r="1.5"/>
	<circle class="st1" cx="125.2" cy="45.7" r="1.5"/>
	<circle class="st1" cx="135.3" cy="45.7" r="1.5"/>
	<circle class="st1" cx="145.3" cy="45.7" r="1.5"/>
	<circle class="st1" cx="155.4" cy="45.6" r="1.5"/>
	<circle class="st1" cx="165.5" cy="45.6" r="1.5"/>
	<circle class="st1" cx="175.5" cy="45.6" r="1.5"/>
	<circle class="st1" cx="105.1" cy="54.5" r="1.5"/>
	<circle class="st1" cx="115.1" cy="54.5" r="1.5"/>
	<circle class="st1" cx="125.2" cy="54.5" r="1.5"/>
	<circle class="st1" cx="135.3" cy="54.4" r="1.5"/>
	<circle class="st1" cx="145.4" cy="54.4" r="1.5"/>
	<circle class="st1" cx="155.4" cy="54.4" r="1.5"/>
	<circle class="st1" cx="165.5" cy="54.4" r="1.5"/>
	<circle class="st1" cx="175.6" cy="54.3" r="1.5"/>
	<circle class="st1" cx="105.1" cy="63.1" r="1.5"/>
	<circle class="st1" cx="115.2" cy="63.1" r="1.5"/>
	<circle class="st1" cx="125.2" cy="63" r="1.5"/>
	<circle class="st1" cx="135.3" cy="63" r="1.5"/>
	<circle class="st1" cx="145.4" cy="63" r="1.5"/>
	<circle class="st1" cx="155.5" cy="62.9" r="1.5"/>
	<circle class="st1" cx="165.5" cy="62.9" r="1.5"/>
	<circle class="st1" cx="175.6" cy="62.9" r="1.5"/>
	<circle class="st1" cx="105.1" cy="71.9" r="1.5"/>
	<circle class="st1" cx="115.2" cy="71.9" r="1.5"/>
	<circle class="st1" cx="125.3" cy="71.9" r="1.5"/>
	<circle class="st1" cx="135.3" cy="71.8" r="1.5"/>
	<circle class="st1" cx="145.4" cy="71.8" r="1.5"/>
	<circle class="st1" cx="155.5" cy="71.8" r="1.5"/>
	<circle class="st1" cx="165.6" cy="71.7" r="1.5"/>
	<circle class="st1" cx="175.6" cy="71.7" r="1.5"/>
	<circle class="st1" cx="105.2" cy="80.5" r="1.5"/>
	<circle class="st1" cx="115.2" cy="80.4" r="1.5"/>
	<circle class="st1" cx="125.3" cy="80.4" r="1.5"/>
	<circle class="st1" cx="135.4" cy="80.4" r="1.5"/>
	<circle class="st1" cx="145.4" cy="80.3" r="1.5"/>
	<circle class="st1" cx="155.5" cy="80.3" r="1.5"/>
	<circle class="st1" cx="165.6" cy="80.3" r="1.5"/>
	<circle class="st1" cx="175.7" cy="80.2" r="1.5"/>
	<circle class="st1" cx="105.2" cy="89.2" r="1.5"/>
	<circle class="st1" cx="115.2" cy="89.2" r="1.5"/>
	<circle class="st1" cx="125.3" cy="89.2" r="1.5"/>
	<circle class="st1" cx="135.4" cy="89.1" r="1.5"/>
	<circle class="st1" cx="145.5" cy="89.1" r="1.5"/>
	<circle class="st1" cx="155.5" cy="89.1" r="1.5"/>
	<circle class="st1" cx="165.6" cy="89" r="1.5"/>
	<circle class="st1" cx="175.7" cy="89" r="1.5"/>
	<circle class="st1" cx="105.2" cy="97.8" r="1.5"/>
	<circle class="st1" cx="115.3" cy="97.7" r="1.5"/>
	<circle class="st1" cx="125.3" cy="97.7" r="1.5"/>
	<circle class="st1" cx="135.4" cy="97.7" r="1.5"/>
	<circle class="st1" cx="145.5" cy="97.6" r="1.5"/>
	<circle class="st1" cx="155.6" cy="97.6" r="1.5"/>
	<circle class="st1" cx="165.6" cy="97.6" r="1.5"/>
	<circle class="st1" cx="175.7" cy="97.5" r="1.5"/>
	<circle class="st1" cx="105.2" cy="105.3" r="1.5"/>
	<circle class="st1" cx="115.3" cy="105.2" r="1.5"/>
	<circle class="st1" cx="125.4" cy="105.2" r="1.5"/>
	<circle class="st1" cx="135.4" cy="105.2" r="1.5"/>
	<circle class="st1" cx="145.5" cy="105.1" r="1.5"/>
	<circle class="st1" cx="155.6" cy="105.1" r="1.5"/>
	<circle class="st1" cx="165.7" cy="105.1" r="1.5"/>
	<circle class="st1" cx="175.7" cy="105" r="1.5"/>
	<circle class="st1" cx="105.3" cy="113.8" r="1.5"/>
	<circle class="st1" cx="115.3" cy="113.8" r="1.5"/>
	<circle class="st1" cx="125.4" cy="113.7" r="1.5"/>
	<circle class="st1" cx="135.5" cy="113.7" r="1.5"/>
	<circle class="st1" cx="145.5" cy="113.7" r="1.5"/>
	<circle class="st1" cx="155.6" cy="113.6" r="1.5"/>
	<circle class="st1" cx="165.7" cy="113.6" r="1.5"/>
	<circle class="st1" cx="175.8" cy="113.6" r="1.5"/>
	<circle class="st1" cx="105.3" cy="122.6" r="1.5"/>
	<circle class="st1" cx="115.4" cy="122.5" r="1.5"/>
	<circle class="st1" cx="125.4" cy="122.5" r="1.5"/>
	<circle class="st1" cx="135.5" cy="122.5" r="1.5"/>
	<circle class="st1" cx="145.6" cy="122.4" r="1.5"/>
	<circle class="st1" cx="155.6" cy="122.4" r="1.5"/>
	<circle class="st1" cx="165.7" cy="122.4" r="1.5"/>
	<circle class="st1" cx="175.8" cy="122.3" r="1.5"/>
	<circle class="st1" cx="105.3" cy="131.1" r="1.5"/>
	<circle class="st1" cx="115.4" cy="131.1" r="1.5"/>
	<circle class="st1" cx="125.5" cy="131" r="1.5"/>
	<circle class="st1" cx="135.5" cy="131" r="1.5"/>
	<circle class="st1" cx="145.6" cy="131" r="1.5"/>
	<circle class="st1" cx="155.7" cy="130.9" r="1.5"/>
	<circle class="st1" cx="165.7" cy="130.9" r="1.5"/>
	<circle class="st1" cx="175.8" cy="130.9" r="1.5"/>
</g>
</svg>
