<?xml version="1.0" encoding="utf-8"?>
<!-- Generator: Adobe Illustrator 23.0.0, SVG Export Plug-In . SVG Version: 6.00 Build 0)  -->
<svg version="1.1" id="Layer_1" xmlns="http://www.w3.org/2000/svg" xmlns:xlink="http://www.w3.org/1999/xlink" x="0px" y="0px"
	 viewBox="0 0 100 51.7" style="enable-background:new 0 0 100 51.7;" xml:space="preserve">
<style type="text/css">
	.st0{opacity:7.000000e-02;}
	.st1{fill:#030C30;}
</style>
<g class="st0">
	<circle class="st1" cx="6.5" cy="4.9" r="1.5"/>
	<circle class="st1" cx="16.2" cy="4.8" r="1.5"/>
	<circle class="st1" cx="25.8" cy="4.8" r="1.5"/>
	<circle class="st1" cx="35.5" cy="4.8" r="1.5"/>
	<circle class="st1" cx="45.1" cy="4.8" r="1.5"/>
	<circle class="st1" cx="54.8" cy="4.7" r="1.5"/>
	<circle class="st1" cx="64.5" cy="4.7" r="1.5"/>
	<circle class="st1" cx="74.1" cy="4.7" r="1.5"/>
	<circle class="st1" cx="83.8" cy="4.6" r="1.5"/>
	<circle class="st1" cx="93.4" cy="4.6" r="1.5"/>
	<circle class="st1" cx="6.5" cy="13.1" r="1.5"/>
	<circle class="st1" cx="16.2" cy="13" r="1.5"/>
	<circle class="st1" cx="25.8" cy="13" r="1.5"/>
	<circle class="st1" cx="35.5" cy="13" r="1.5"/>
	<circle class="st1" cx="45.2" cy="12.9" r="1.5"/>
	<circle class="st1" cx="54.8" cy="12.9" r="1.5"/>
	<circle class="st1" cx="64.5" cy="12.9" r="1.5"/>
	<circle class="st1" cx="74.1" cy="12.9" r="1.5"/>
	<circle class="st1" cx="83.8" cy="12.8" r="1.5"/>
	<circle class="st1" cx="93.5" cy="12.8" r="1.5"/>
	<circle class="st1" cx="6.6" cy="20.3" r="1.5"/>
	<circle class="st1" cx="16.2" cy="20.2" r="1.5"/>
	<circle class="st1" cx="25.9" cy="20.2" r="1.5"/>
	<circle class="st1" cx="35.5" cy="20.2" r="1.5"/>
	<circle class="st1" cx="45.2" cy="20.1" r="1.5"/>
	<circle class="st1" cx="54.8" cy="20.1" r="1.5"/>
	<circle class="st1" cx="64.5" cy="20.1" r="1.5"/>
	<circle class="st1" cx="74.2" cy="20.1" r="1.5"/>
	<circle class="st1" cx="83.8" cy="20" r="1.5"/>
	<circle class="st1" cx="93.5" cy="20" r="1.5"/>
	<circle class="st1" cx="6.6" cy="28.5" r="1.5"/>
	<circle class="st1" cx="16.2" cy="28.4" r="1.5"/>
	<circle class="st1" cx="25.9" cy="28.4" r="1.5"/>
	<circle class="st1" cx="35.6" cy="28.4" r="1.5"/>
	<circle class="st1" cx="45.2" cy="28.3" r="1.5"/>
	<circle class="st1" cx="54.9" cy="28.3" r="1.5"/>
	<circle class="st1" cx="64.5" cy="28.3" r="1.5"/>
	<circle class="st1" cx="74.2" cy="28.3" r="1.5"/>
	<circle class="st1" cx="83.8" cy="28.2" r="1.5"/>
	<circle class="st1" cx="93.5" cy="28.2" r="1.5"/>
	<circle class="st1" cx="6.6" cy="36.9" r="1.5"/>
	<circle class="st1" cx="16.3" cy="36.8" r="1.5"/>
	<circle class="st1" cx="25.9" cy="36.8" r="1.5"/>
	<circle class="st1" cx="35.6" cy="36.8" r="1.5"/>
	<circle class="st1" cx="45.2" cy="36.7" r="1.5"/>
	<circle class="st1" cx="54.9" cy="36.7" r="1.5"/>
	<circle class="st1" cx="64.6" cy="36.7" r="1.5"/>
	<circle class="st1" cx="74.2" cy="36.6" r="1.5"/>
	<circle class="st1" cx="83.9" cy="36.6" r="1.5"/>
	<circle class="st1" cx="93.5" cy="36.6" r="1.5"/>
	<circle class="st1" cx="6.6" cy="45" r="1.5"/>
	<circle class="st1" cx="16.3" cy="45" r="1.5"/>
	<circle class="st1" cx="25.9" cy="45" r="1.5"/>
	<circle class="st1" cx="35.6" cy="45" r="1.5"/>
	<circle class="st1" cx="45.3" cy="44.9" r="1.5"/>
	<circle class="st1" cx="54.9" cy="44.9" r="1.5"/>
	<circle class="st1" cx="64.6" cy="44.9" r="1.5"/>
	<circle class="st1" cx="74.2" cy="44.8" r="1.5"/>
	<circle class="st1" cx="83.9" cy="44.8" r="1.5"/>
	<circle class="st1" cx="93.6" cy="44.8" r="1.5"/>
</g>
</svg>
