<?xml version="1.0" encoding="utf-8"?>
<!-- Generator: Adobe Illustrator 23.0.0, SVG Export Plug-In . SVG Version: 6.00 Build 0)  -->
<svg version="1.1" id="Layer_1" xmlns="http://www.w3.org/2000/svg" xmlns:xlink="http://www.w3.org/1999/xlink" x="0px" y="0px"
	 viewBox="0 0 72 72" style="enable-background:new 0 0 72 72;" xml:space="preserve">
<style type="text/css">
	.st0{fill:#FFFFFF;}
	.st1{fill:#030C30;}
</style>
<g id="Facebook-11_3_">
	<circle id="back-104_3_" class="st0" cx="36" cy="36" r="36"/>
	<path class="st1" d="M39.2,24.5V30h8.6l-1.1,8.6h-7.4v21.3h-9V38.6h-7.5V30h7.5v-6.4c0-7.4,4.6-11.4,11.1-11.4
		c2.2,0,4.4,0.1,6.7,0.4v7.8h-4.6C39.9,20.3,39.2,22,39.2,24.5z"/>
</g>
<g id="Twitter-11_3_">
	<circle id="back-93_3_" class="st0" cx="137.8" cy="36" r="36"/>
	<path id="Twitter-12_3_" class="st1" d="M158,23.5c-1.5,0.7-3.1,1.1-4.7,1.3c1.7-1,3-2.6,3.6-4.6c-1.6,0.9-3.4,1.6-5.3,2
		c-3.1-3.3-8.4-3.5-11.7-0.3c-1.7,1.5-2.6,3.7-2.6,6c0,0.7,0.1,1.3,0.3,1.9c-6.6-0.3-12.9-3.5-17-8.6c-2.2,3.7-1.1,8.6,2.5,11
		c-1.4,0-2.6-0.4-3.7-1v0.1c0,3.9,2.8,7.4,6.6,8.1c-1.2,0.3-2.5,0.3-3.7,0.2c1.1,3.4,4.2,5.7,7.7,5.8c-3,2.3-6.5,3.6-10.2,3.6
		c-0.7,0-1.4,0-1.9-0.1c3.8,2.5,8.2,3.7,12.7,3.7c15.2,0,23.5-12.6,23.5-23.5c0-0.3,0-0.8,0-1.1C155.5,26.6,156.9,25.2,158,23.5z"/>
</g>
<g id="Instagram-6_3_">
	<circle id="back-101_3_" class="st0" cx="-105.4" cy="36" r="36"/>
	<path class="st1" d="M-105.4,19.5c5.3,0,6,0,8.1,0.1c1.3,0,2.5,0.3,3.7,0.7c1.8,0.7,3.1,2,3.8,3.8c0.4,1.2,0.7,2.5,0.7,3.7
		c0.1,2.1,0.1,2.8,0.1,8.1s0,6-0.1,8.1c0,1.3-0.3,2.5-0.7,3.7c-0.7,1.8-2,3.1-3.8,3.8c-1.2,0.4-2.5,0.7-3.7,0.7
		c-2.1,0.1-2.8,0.1-8.1,0.1c-5.3,0-6,0-8.1-0.1c-1.3,0-2.5-0.3-3.7-0.7c-1.8-0.7-3.1-2.1-3.8-3.8c-0.4-1.2-0.7-2.5-0.7-3.7
		c-0.1-2.1-0.1-2.8-0.1-8.1s0-6,0.1-8.1c0-1.3,0.3-2.5,0.7-3.7c0.7-1.7,2-3.1,3.8-3.8c1.2-0.4,2.5-0.7,3.7-0.7
		C-111.5,19.6-110.9,19.5-105.4,19.5 M-105.4,15.8c-5.5,0-6.2,0-8.3,0.1c-1.7,0-3.3,0.3-4.9,0.9c-2.7,1-4.9,3.2-5.9,5.9
		c-0.6,1.6-0.9,3.2-0.9,4.9c-0.1,2.1-0.1,2.9-0.1,8.3s0,6.2,0.1,8.3c0.1,1.7,0.4,3.3,1,4.8c1,2.7,3.2,4.9,5.9,5.9
		c1.6,0.6,3.2,0.9,4.9,0.9c2.1,0.1,2.8,0.1,8.3,0.1s6.2,0,8.3-0.1c1.7,0,3.3-0.3,4.9-0.9c2.7-1,4.9-3.2,5.9-5.9
		c0.6-1.6,0.9-3.2,0.9-4.9c0.1-2.1,0.1-2.9,0.1-8.3s0-6.2-0.1-8.3c0-1.7-0.3-3.3-0.9-4.9c-1-2.7-3.2-4.9-5.9-5.9
		c-1.6-0.6-3.2-0.9-4.9-0.9C-99.2,15.8-99.9,15.8-105.4,15.8L-105.4,15.8z"/>
	<path class="st1" d="M-105.4,25.7c-5.7,0-10.3,4.7-10.3,10.3s4.7,10.3,10.3,10.3c5.7,0,10.3-4.7,10.3-10.3S-99.8,25.7-105.4,25.7
		L-105.4,25.7z M-105.4,42.7c-3.7,0-6.7-3-6.7-6.7c0-3.7,3-6.7,6.7-6.7s6.7,3,6.7,6.7l0,0C-98.8,39.7-101.7,42.7-105.4,42.7z"/>
	<circle class="st1" cx="-94.7" cy="25.2" r="2.5"/>
</g>
</svg>
