<?xml version="1.0" encoding="utf-8"?>
<!-- Generator: Adobe Illustrator 23.0.0, SVG Export Plug-In . SVG Version: 6.00 Build 0)  -->
<svg version="1.1" id="Layer_1" xmlns="http://www.w3.org/2000/svg" xmlns:xlink="http://www.w3.org/1999/xlink" x="0px" y="0px"
	 viewBox="0 0 204.8 62.8" style="enable-background:new 0 0 204.8 62.8;" xml:space="preserve">
<style type="text/css">
	.st0{fill:#FFFFFF;}
	.st1{fill:url(#SVGID_1_);}
</style>
<g>
	<path class="st0" d="M28.7,20.3v4.1h8.1v5.7h-8.1V37H22V14.7h16v5.7H28.7z"/>
	<path class="st0" d="M39.9,28.8c0-5.5,3.5-9,9.1-9c5.6,0,9,3.3,9,8.7s-3.5,9-9.1,9C43.2,37.5,39.9,34.2,39.9,28.8z M51.6,28.6
		c0-2.4-1-3.5-2.7-3.5c-1.7,0-2.7,1.1-2.7,3.5c0,2.4,1,3.5,2.7,3.5C50.7,32.1,51.6,31,51.6,28.6z"/>
	<path class="st0" d="M60.7,13.1h6.4V37h-6.4V13.1z"/>
	<path class="st0" d="M70.7,13.1H77V37h-6.4V13.1z"/>
	<path class="st0" d="M79.7,28.8c0-5.5,3.5-9,9.1-9c5.6,0,9,3.3,9,8.7s-3.5,9-9.1,9C83.1,37.5,79.7,34.2,79.7,28.8z M91.5,28.6
		c0-2.4-1-3.5-2.7-3.5c-1.7,0-2.7,1.1-2.7,3.5c0,2.4,1,3.5,2.7,3.5C90.5,32.1,91.5,31,91.5,28.6z"/>
	<path class="st0" d="M126.4,20.2L120.9,37h-6.1l-2.2-8.4l-2.2,8.4h-6.1l-5.5-16.7h7l2,10.1l2.3-10.1h5.2l2.4,10.1l2-10.1H126.4z"/>
	<path class="st0" d="M141.7,14.7v13.1c0,2.8,0.8,4.3,3.3,4.3c2.5,0,3.2-1.5,3.2-4.3V14.7h6.6v12.5c0,6.5-2.9,10.4-9.9,10.4
		c-7.1,0-9.8-3.7-9.8-10.2V14.7H141.7z"/>
	<path class="st0" d="M157.9,36.4v-5c1.7,0.9,4.1,1.3,6.2,1.3c2.1,0,2.7-0.2,2.7-0.7c0-0.5-0.4-0.7-3.6-1.2
		c-3.3-0.6-5.3-2.1-5.3-5.3c0-3.8,2.5-5.8,7.7-5.8c2.5,0,4.5,0.3,6.5,1v4.7c-2.1-0.6-4.1-1-6.1-1c-1.7,0-2.2,0.2-2.2,0.6
		s0.2,0.6,3.4,1.2c4,0.7,5.9,1.8,5.9,5.5c0,3.8-2.7,5.7-8.3,5.7C162.1,37.5,159.5,37.1,157.9,36.4z"/>
</g>
<g>
	<linearGradient id="SVGID_1_" gradientUnits="userSpaceOnUse" x1="24.0258" y1="50.7977" x2="116.1721" y2="50.7977">
		<stop  offset="4.102398e-07" style="stop-color:#00C7EF"/>
		<stop  offset="1" style="stop-color:#5300AA"/>
	</linearGradient>
	<rect x="24" y="50" class="st1" width="92.1" height="1.6"/>
</g>
</svg>
