<?xml version="1.0" encoding="utf-8"?>
<!-- Generator: Adobe Illustrator 23.0.0, SVG Export Plug-In . SVG Version: 6.00 Build 0)  -->
<svg version="1.1" id="Layer_1" xmlns="http://www.w3.org/2000/svg" xmlns:xlink="http://www.w3.org/1999/xlink" x="0px" y="0px"
	 viewBox="0 0 72 72" style="enable-background:new 0 0 72 72;" xml:space="preserve">
<style type="text/css">
	.st0{fill:#FFFFFF;}
	.st1{fill:#030C30;}
</style>
<g id="Instagram-6_3_">
	<circle id="back-101_3_" class="st0" cx="36" cy="36" r="36"/>
	<path class="st1" d="M36,19.5c5.3,0,6,0,8.1,0.1c1.3,0,2.5,0.3,3.7,0.7c1.8,0.7,3.1,2,3.8,3.8c0.4,1.2,0.7,2.5,0.7,3.7
		c0.1,2.1,0.1,2.8,0.1,8.1s0,6-0.1,8.1c0,1.3-0.3,2.5-0.7,3.7c-0.7,1.8-2,3.1-3.8,3.8c-1.2,0.4-2.5,0.7-3.7,0.7
		c-2.1,0.1-2.8,0.1-8.1,0.1s-6,0-8.1-0.1c-1.3,0-2.5-0.3-3.7-0.7c-1.8-0.7-3.1-2.1-3.8-3.8c-0.4-1.2-0.7-2.5-0.7-3.7
		c-0.1-2.1-0.1-2.8-0.1-8.1s0-6,0.1-8.1c0-1.3,0.3-2.5,0.7-3.7c0.7-1.7,2-3.1,3.8-3.8c1.2-0.4,2.5-0.7,3.7-0.7
		C30,19.6,30.6,19.5,36,19.5 M36,15.8c-5.5,0-6.2,0-8.3,0.1c-1.7,0-3.3,0.3-4.9,0.9c-2.7,1-4.9,3.2-5.9,5.9
		c-0.6,1.6-0.9,3.2-0.9,4.9c-0.1,2.1-0.1,2.9-0.1,8.3s0,6.2,0.1,8.3c0.1,1.7,0.4,3.3,1,4.8c1,2.7,3.2,4.9,5.9,5.9
		c1.6,0.6,3.2,0.9,4.9,0.9c2.1,0.1,2.8,0.1,8.3,0.1s6.2,0,8.3-0.1c1.7,0,3.3-0.3,4.9-0.9c2.7-1,4.9-3.2,5.9-5.9
		c0.6-1.6,0.9-3.2,0.9-4.9c0.1-2.1,0.1-2.9,0.1-8.3s0-6.2-0.1-8.3c0-1.7-0.3-3.3-0.9-4.9c-1-2.7-3.2-4.9-5.9-5.9
		c-1.6-0.6-3.2-0.9-4.9-0.9C42.3,15.8,41.6,15.8,36,15.8L36,15.8z"/>
	<path class="st1" d="M36,25.7c-5.7,0-10.3,4.7-10.3,10.3S30.3,46.3,36,46.3S46.3,41.7,46.3,36S41.7,25.7,36,25.7L36,25.7z M36,42.7
		c-3.7,0-6.7-3-6.7-6.7c0-3.7,3-6.7,6.7-6.7c3.6,0,6.7,3,6.7,6.7l0,0C42.7,39.7,39.7,42.7,36,42.7z"/>
	<circle class="st1" cx="46.8" cy="25.2" r="2.5"/>
</g>
</svg>
