<?xml version="1.0" encoding="utf-8"?>
<!-- Generator: Adobe Illustrator 23.0.0, SVG Export Plug-In . SVG Version: 6.00 Build 0)  -->
<svg version="1.1" id="Layer_1" xmlns="http://www.w3.org/2000/svg" xmlns:xlink="http://www.w3.org/1999/xlink" x="0px" y="0px"
	 viewBox="0 0 159.6 62.8" style="enable-background:new 0 0 159.6 62.8;" xml:space="preserve">
<style type="text/css">
	.st0{fill:#FFFFFF;}
	.st1{fill:url(#SVGID_1_);}
</style>
<g>
	<path class="st0" d="M39,31.3V37H23.3V14.7h6.6v16.6H39z"/>
	<path class="st0" d="M40.5,14.6c0-2.3,1.6-3.4,3.9-3.4c2.3,0,3.9,1.1,3.9,3.4c0,2.3-1.6,3.3-3.9,3.3C42.1,17.9,40.5,16.9,40.5,14.6
		z M41.2,20.2h6.4V37h-6.4V20.2z"/>
	<path class="st0" d="M68,26.7V37h-6.4v-9.8c0-1.6-0.7-2.1-1.9-2.1c-0.8,0-1.5,0.3-2.2,0.8V37h-6.4V20.2h5.3l0.3,1.1
		c1.4-1.1,3-1.6,4.8-1.6C66,19.7,68,22.1,68,26.7z"/>
	<path class="st0" d="M89.1,37H82l-1.8-4.2c-0.4-1-1.1-1.3-1.7-1.3h-0.6V37h-6.4V13.1h6.4v12.7h0.6c0.6,0,0.9-0.3,1.2-0.9l2.3-4.5
		l6.9,0l-3,5.6c-0.6,1.1-1.3,1.8-2.1,2.1c0.7,0.3,1.5,0.9,2,2.1L89.1,37z"/>
	<path class="st0" d="M90.8,36.4v-5c1.7,0.9,4.1,1.3,6.2,1.3c2.1,0,2.7-0.2,2.7-0.7c0-0.5-0.4-0.7-3.6-1.2c-3.3-0.6-5.3-2.1-5.3-5.3
		c0-3.8,2.5-5.8,7.7-5.8c2.5,0,4.5,0.3,6.5,1v4.8c-2.1-0.6-4.1-1-6.1-1c-1.7,0-2.2,0.2-2.2,0.6c0,0.5,0.2,0.6,3.4,1.2
		c4,0.7,5.9,1.8,5.9,5.5c0,3.8-2.7,5.7-8.3,5.7C94.9,37.5,92.3,37.1,90.8,36.4z"/>
</g>
<g>
	<linearGradient id="SVGID_1_" gradientUnits="userSpaceOnUse" x1="21.2414" y1="50.798" x2="113.3877" y2="50.798">
		<stop  offset="4.102398e-07" style="stop-color:#00C7EF"/>
		<stop  offset="1" style="stop-color:#5300AA"/>
	</linearGradient>
	<rect x="21.2" y="50" class="st1" width="92.1" height="1.6"/>
</g>
</svg>
