<?xml version="1.0" encoding="utf-8"?>
<!-- Generator: Adobe Illustrator 23.0.0, SVG Export Plug-In . SVG Version: 6.00 Build 0)  -->
<svg version="1.1" id="Layer_1" xmlns="http://www.w3.org/2000/svg" xmlns:xlink="http://www.w3.org/1999/xlink" x="0px" y="0px"
	 viewBox="0 0 159.6 62.8" style="enable-background:new 0 0 159.6 62.8;" xml:space="preserve">
<style type="text/css">
	.st0{fill:#FFFFFF;}
	.st1{fill:none;stroke:url(#SVGID_1_);stroke-width:3;stroke-miterlimit:10;}
</style>
<g>
	<path class="st0" d="M37.9,31.3V37H22.1V14.7h6.6v16.6H37.9z"/>
	<path class="st0" d="M39.2,28.8c0-5.5,3.5-9,9.1-9c5.6,0,9,3.3,9,8.7s-3.5,9-9.1,9C42.6,37.5,39.2,34.2,39.2,28.8z M51,28.6
		c0-2.4-1-3.5-2.7-3.5c-1.7,0-2.7,1.1-2.7,3.5c0,2.4,1,3.5,2.7,3.5C50,32.1,51,31,51,28.6z"/>
	<path class="st0" d="M59.2,28.7c0-5.4,3.4-9,9.3-9c1.4,0,3.3,0.4,4.2,0.7v5.3c-0.8-0.4-1.9-0.7-3.2-0.7c-2.6,0-3.9,1.1-3.9,3.5
		c0,2.4,1.3,3.5,3.6,3.5c1.5,0,2.6-0.3,3.6-0.9v5.4c-1.4,0.5-2.6,0.8-4.7,0.8C62.3,37.5,59.2,34,59.2,28.7z"/>
	<path class="st0" d="M90.9,27.4V37h-5.3l-0.3-1.1c-1.2,1.1-2.8,1.6-5,1.6c-3.4,0-5.5-2.1-5.5-5.2c0-3.4,2.5-5.5,6.4-5.5
		c1.4,0,2.4,0.1,3.3,0.4v-0.3c0-1.4-0.8-1.9-3.3-1.9c-2,0-3.6,0.4-4.9,0.8v-5.1c1.5-0.5,3.9-0.9,6.6-0.9
		C88.8,19.7,90.9,21.9,90.9,27.4z M82.6,33.2c0.8,0,1.4-0.3,1.9-0.7v-1.8c-0.5-0.1-1-0.2-1.6-0.2c-1.1,0-1.8,0.5-1.8,1.3
		C81.1,32.8,81.7,33.2,82.6,33.2z"/>
	<path class="st0" d="M107.4,31.7v5.2c-1.5,0.4-2.8,0.6-5,0.6c-5.3,0-7.1-2.8-7.1-7.4v-4.5h-2v-5.3h2.3l1.6-4.6h4.4v4.6h5.5v5.3
		h-5.5v3.6c0,2.1,0.7,3.1,2.6,3.1C105.2,32.2,106.2,32.1,107.4,31.7z"/>
	<path class="st0" d="M109.2,14.6c0-2.3,1.6-3.4,3.9-3.4s3.9,1.1,3.9,3.4s-1.6,3.3-3.9,3.3S109.2,16.9,109.2,14.6z M109.9,20.2h6.4
		V37h-6.4V20.2z"/>
	<path class="st0" d="M118.9,28.8c0-5.5,3.5-9,9.1-9c5.6,0,9,3.3,9,8.7s-3.5,9-9.1,9C122.3,37.5,118.9,34.2,118.9,28.8z M130.7,28.6
		c0-2.4-1-3.5-2.7-3.5c-1.7,0-2.7,1.1-2.7,3.5c0,2.4,1,3.5,2.7,3.5C129.7,32.1,130.7,31,130.7,28.6z"/>
	<path class="st0" d="M156.6,26.7V37h-6.4v-9.8c0-1.6-0.7-2.1-1.9-2.1c-0.8,0-1.5,0.3-2.2,0.8V37h-6.4V20.2h5.3l0.3,1.1
		c1.4-1.1,3-1.6,4.8-1.6C154.6,19.7,156.6,22.1,156.6,26.7z"/>
</g>
<linearGradient id="SVGID_1_" gradientUnits="userSpaceOnUse" x1="16.2541" y1="50.7978" x2="131.4701" y2="50.7978">
	<stop  offset="4.102398e-07" style="stop-color:#00C7EF"/>
	<stop  offset="1" style="stop-color:#5300AA"/>
</linearGradient>
<line class="st1" x1="16.3" y1="50.8" x2="131.5" y2="50.8"/>
</svg>
