<?xml version="1.0" encoding="utf-8"?>
<!-- Generator: Adobe Illustrator 23.0.0, SVG Export Plug-In . SVG Version: 6.00 Build 0)  -->
<svg version="1.1" id="Layer_1" xmlns="http://www.w3.org/2000/svg" xmlns:xlink="http://www.w3.org/1999/xlink" x="0px" y="0px"
	 viewBox="0 0 100 70" style="enable-background:new 0 0 100 70;" xml:space="preserve">
<style type="text/css">
	.st0{fill:#001E42;}
	.st1{fill:url(#SVGID_1_);}
	.st2{fill:url(#SVGID_2_);}
</style>
<path class="st0" d="M55.8,39.3c-1.3,4.2-2.2,8.9-2.6,14.4h0l-2.6-5.3l-5.1-10.5l-1.6-3.4c1.5-4.5,2.6-9.9,3.2-16l2.3,5.4l4.7,11.3
	L55.8,39.3z"/>
<path class="st0" d="M94.8,41.1c0,8.9-6.2,12.9-17,12.9c-5.1,0-9.5-0.9-12.1-2.1l1.5-9.1c3,1.8,6.9,2.9,11.2,2.9
	c4.9,0,6.7-1,6.7-2.9c0-1.6-1.1-2.3-7-3.6c-4.1-0.9-6.8-2.7-8-5.6c2.4-3.5,5.6-6.5,9.9-7.9c-0.6,0.5-1,1.1-1,1.9
	c0,1.5,1.2,2.1,5.5,3.2C91.6,32.5,94.8,35.4,94.8,41.1z"/>
<path class="st0" d="M16.2,28.8c0,1.5,1.2,2.1,5.5,3.2c3.8,1,6.4,2.2,8.1,4c0,0,0.1,0.1,0.1,0.1c0.4,0.4,0.7,0.9,1,1.4
	c-2.3,3.6-5.4,6.6-9.4,8.2c0.5-0.5,0.8-1,0.8-1.6c0-0.1,0-0.1,0-0.2c0-0.3-0.1-0.7-0.2-0.9c-0.5-1-2.2-1.7-6.8-2.7
	c-5.9-1.3-8.9-4.4-8.9-10c0-8.3,6.1-12.4,16.1-12.4c3.8,0,7.3,0.5,10.9,1.8l-1.3,8.5c-3.4-1.3-6.8-1.9-10.6-1.9
	C18,26.4,16.2,27.1,16.2,28.8z"/>
<linearGradient id="SVGID_1_" gradientUnits="userSpaceOnUse" x1="-6.2197" y1="52.6038" x2="105.3639" y2="4.278">
	<stop  offset="4.102398e-07" style="stop-color:#00C7EF"/>
	<stop  offset="1" style="stop-color:#5300AA"/>
</linearGradient>
<path class="st1" d="M47.1,18.4c-0.5,6.2-1.6,11.5-3.2,16c-6.5,19.2-21.4,24-39,19.1c0.5-1.5,1.6-6.1,1.9-8.5c6,2.2,10.8,2,14.8,0.5
	c4-1.6,7.1-4.6,9.4-8.2c4.2-6.6,5.8-14.9,6.1-18.8H47.1z"/>
<linearGradient id="SVGID_2_" gradientUnits="userSpaceOnUse" x1="-0.5124" y1="65.7956" x2="111.0819" y2="17.4652">
	<stop  offset="4.102398e-07" style="stop-color:#00C7EF"/>
	<stop  offset="1" style="stop-color:#5300AA"/>
</linearGradient>
<path class="st2" d="M96,18.8c-0.4,3-0.8,6.3-1.2,8.9c-6.2-2.5-11.2-2.7-15.3-1.3c-4.2,1.4-7.5,4.3-9.9,7.9
	c-4.5,6.7-6.2,15.4-6.5,19.5h-10c0.5-5.4,1.4-10.2,2.6-14.4C62.1,18.5,77.6,13.3,96,18.8z"/>
</svg>
