<?xml version="1.0" encoding="utf-8"?>
<!-- Generator: Adobe Illustrator 23.0.0, SVG Export Plug-In . SVG Version: 6.00 Build 0)  -->
<svg version="1.1" id="Layer_1" xmlns="http://www.w3.org/2000/svg" xmlns:xlink="http://www.w3.org/1999/xlink" x="0px" y="0px"
	 viewBox="0 0 157.9 70" style="enable-background:new 0 0 157.9 70;" xml:space="preserve">
<style type="text/css">
	.st0{fill:url(#SVGID_1_);}
	.st1{fill:url(#SVGID_2_);}
	.st2{fill:url(#SVGID_3_);}
	.st3{fill:url(#SVGID_4_);}
	.st4{fill:url(#SVGID_5_);}
	.st5{fill:#0C122F;}
</style>
<g>
	<g>
		<g>
			<linearGradient id="SVGID_1_" gradientUnits="userSpaceOnUse" x1="-42.7995" y1="-8.6865" x2="87.6321" y2="45.7631">
				<stop  offset="4.102398e-07" style="stop-color:#23C2E9"/>
				<stop  offset="1" style="stop-color:#563493"/>
			</linearGradient>
			<path class="st0" d="M17.9,26.1c-5.7,0-9.2-3.5-9.2-9.3c0-5.9,3.4-9.4,9.2-9.4c5.7,0,9.2,3.5,9.2,9.3
				C27.1,22.5,23.7,26.1,17.9,26.1z M17.9,7.8c-5.4,0-8.7,3.3-8.7,9c0,5.6,3.2,8.9,8.7,8.9c5.4,0,8.7-3.3,8.7-9
				C26.6,11.1,23.4,7.8,17.9,7.8z M17.9,21.7c-2.5,0-4-1.8-4-5c0-3.1,1.5-5,4-5c2.5,0,4,1.9,4,5S20.4,21.7,17.9,21.7z M17.9,12.1
				c-2.2,0-3.5,1.7-3.5,4.5c0,2.9,1.2,4.5,3.5,4.5c2.2,0,3.5-1.7,3.5-4.5C21.4,13.8,20.2,12.1,17.9,12.1z"/>
		</g>
		<g>
			<linearGradient id="SVGID_2_" gradientUnits="userSpaceOnUse" x1="-39.67" y1="-16.1832" x2="90.7617" y2="38.2665">
				<stop  offset="4.102398e-07" style="stop-color:#23C2E9"/>
				<stop  offset="1" style="stop-color:#563493"/>
			</linearGradient>
			<path class="st1" d="M36.8,26.1c-5.3,0-7.9-2.7-7.9-8.2V7.8h5.6v10.4c0,2.2,0.6,3.1,2.3,3.1c1.6,0,2.3-0.9,2.3-3.1V7.8h5.6v10
				C44.7,23.3,42.1,26.1,36.8,26.1z M29.4,8.3v9.7c0,5.2,2.3,7.7,7.4,7.7c5,0,7.4-2.6,7.4-7.8V8.3h-4.6v9.9c0,1.7-0.3,3.6-2.7,3.6
				c-2.4,0-2.8-1.8-2.8-3.6V8.3H29.4z"/>
		</g>
		<g>
			<linearGradient id="SVGID_3_" gradientUnits="userSpaceOnUse" x1="-37.6987" y1="-20.9053" x2="92.733" y2="33.5443">
				<stop  offset="4.102398e-07" style="stop-color:#23C2E9"/>
				<stop  offset="1" style="stop-color:#563493"/>
			</linearGradient>
			<path class="st2" d="M63.4,25.6h-6.3l-2-4.1c-0.4-0.7-0.8-1.1-1.6-1.1H53v5.2h-5.6V7.8h7.4c4.9,0,7.6,2.3,7.6,6.4
				c0,2.6-1.4,4.1-2.7,5c0.4,0.4,0.8,0.9,1,1.3L63.4,25.6z M57.4,25.1h5.2l-2.3-4.4c-0.3-0.5-0.6-1-1.1-1.4l-0.3-0.2l0.4-0.2
				c1.3-0.7,2.7-2.1,2.7-4.7c0-4.8-3.9-5.9-7.1-5.9h-6.9v16.8h4.7v-5.2h1c1.2,0,1.7,0.8,2,1.3L57.4,25.1z M54.6,16.3h-2V12h2
				c1.8,0,2.7,0.7,2.7,2.1C57.3,15.5,56.3,16.3,54.6,16.3z M53,15.8h1.6c0.8,0,2.2-0.2,2.2-1.7c0-0.7-0.2-1.6-2.2-1.6H53V15.8z"/>
		</g>
	</g>
	<radialGradient id="SVGID_4_" cx="143.1764" cy="44.7502" r="20.3977" gradientUnits="userSpaceOnUse">
		<stop  offset="0" style="stop-color:#23C2E9"/>
		<stop  offset="1" style="stop-color:#563493"/>
	</radialGradient>
	<circle class="st3" cx="150.3" cy="53.7" r="2.7"/>
	<g>
		<linearGradient id="SVGID_5_" gradientUnits="userSpaceOnUse" x1="9.1446" y1="64.9881" x2="106.9053" y2="64.9881">
			<stop  offset="4.102398e-07" style="stop-color:#23C2E9"/>
			<stop  offset="1" style="stop-color:#563493"/>
		</linearGradient>
		<rect x="9.1" y="64.6" class="st4" width="97.8" height="0.8"/>
	</g>
	<g>
		<path class="st5" d="M16.8,32.6V56h-7V32.6H16.8z"/>
		<path class="st5" d="M42,32.6V56h-6l-8.2-12.1c0,1,0,2.1,0,3.1V56h-6.5V32.6h6l8.2,12.1c0-1.1,0-2.2,0-3.3v-8.7H42z"/>
		<path class="st5" d="M45.8,55.3v-6.2c2.3,1.3,5,1.9,8.2,1.9c2.9,0,4-0.5,4-1.7c0-1.1-0.9-1.5-5.3-2.4c-4.9-1.1-7-3.2-7-7.3
			c0-5,3.7-7.7,9.8-7.7c3.3,0,5.7,0.4,7.8,1.2v5.8c-2.5-0.8-5-1.2-7.2-1.2c-2.7,0-4,0.3-4,1.4c0,0.9,0.7,1.2,4.3,1.9
			c5.9,1.3,8.4,3.2,8.4,7.7c0,5.2-3.7,8-10.7,8C50.5,56.7,47.7,56.2,45.8,55.3z"/>
		<path class="st5" d="M74.9,32.6V56h-7V32.6H74.9z"/>
		<path class="st5" d="M99.6,42.3v12.9c-2.4,0.8-5.5,1.4-8.9,1.4c-8,0-12.3-4.5-12.3-12.2c0-7.5,4.2-12.6,13.6-12.6
			c2.4,0,4.3,0.3,6.6,1.1v6c-2.1-0.8-4-1.2-6.5-1.2c-4.8,0-6.7,2.6-6.7,6.6c0,4,1.7,6.6,6.1,6.6c0.6,0,1.2-0.1,1.8-0.2v-3.1h-3.5
			v-5.3H99.6z"/>
		<path class="st5" d="M124.1,32.6V56h-7v-8.7h-6.8V56h-7V32.6h7V41h6.8v-8.4H124.1z"/>
		<path class="st5" d="M148.2,38.5H141V56h-7V38.5h-7.2v-6h21.4V38.5z"/>
	</g>
</g>
</svg>
