<?xml version="1.0" encoding="utf-8"?>
<!-- Generator: Adobe Illustrator 23.0.0, SVG Export Plug-In . SVG Version: 6.00 Build 0)  -->
<svg version="1.1" id="Layer_1" xmlns="http://www.w3.org/2000/svg" xmlns:xlink="http://www.w3.org/1999/xlink" x="0px" y="0px"
	 viewBox="0 0 171.9 70" style="enable-background:new 0 0 171.9 70;" xml:space="preserve">
<style type="text/css">
	.st0{fill:#030C30;}
	.st1{fill:url(#SVGID_1_);}
	.st2{fill:url(#SVGID_2_);}
	.st3{fill:url(#SVGID_3_);}
	.st4{fill:url(#SVGID_4_);}
	.st5{fill:url(#SVGID_5_);}
</style>
<path class="st0" d="M6.8,49.9V44c2.2,1.2,4.7,1.8,7.7,1.8c2.8,0,3.8-0.5,3.8-1.6c0-1-0.9-1.4-5-2.3c-4.6-1-6.6-3.1-6.6-6.9
	c0-4.7,3.6-7.3,9.3-7.3c3.1,0,5.4,0.3,7.4,1.1v5.5c-2.4-0.8-4.7-1.2-6.9-1.2c-2.6,0-3.8,0.3-3.8,1.3c0,0.9,0.6,1.1,4.1,1.8
	c5.6,1.2,7.9,3.1,7.9,7.3c0,4.9-3.6,7.6-10.2,7.6C11.3,51.2,8.7,50.7,6.8,49.9z"/>
<path class="st0" d="M44.1,45.5v5.1H27.9V28.3h16v5.1h-9.4v3.3h8.8v5.1h-8.8v3.6h9.6V45.5z"/>
<path class="st0" d="M67.4,50.5H60l-2.5-5.1c-0.4-0.9-1.1-1.5-2.3-1.5h-0.9v6.7h-6.6V28.3h9.2c6,0,9.5,2.7,9.5,7.8
	c0,3-1.5,5.1-3.7,6.3c0.7,0.4,1.2,1.2,1.6,1.9L67.4,50.5z M56.6,38.7c2,0,3.1-0.9,3.1-2.5s-1-2.4-3.1-2.4h-2.3v4.9H56.6z"/>
<path class="st0" d="M90,28.3l-8.3,22.2h-6l-8.2-22.2h7.3l2.9,9.1c0.5,1.6,1,3.5,1.4,5c0.4-1.6,0.9-3.5,1.4-5.1l2.8-9
	C83.3,28.3,90,28.3,90,28.3z"/>
<path class="st0" d="M98.7,28.3v22.2h-6.6V28.3H98.7z"/>
<path class="st0" d="M102,39.7c0-7.7,4.4-12,12-12c2.4,0,4.2,0.3,5.5,0.8v5.6c-1-0.5-2.6-0.9-4.7-0.9c-4,0-6.2,2-6.2,6.3
	s2.1,6.1,6.2,6.1c2.1,0,3.6-0.4,4.8-1.1V50c-1.4,0.7-3.6,1.1-5.9,1.1C106.2,51.2,102,47.1,102,39.7z"/>
<path class="st0" d="M139.1,45.5v5.1H123V28.3h16v5.1h-9.4v3.3h8.8v5.1h-8.8v3.6h9.5V45.5z"/>
<path class="st0" d="M142,49.9V44c2.2,1.2,4.7,1.8,7.7,1.8c2.8,0,3.8-0.5,3.8-1.6c0-1-0.9-1.4-5-2.3c-4.6-1-6.6-3.1-6.6-6.9
	c0-4.7,3.6-7.3,9.3-7.3c3.1,0,5.4,0.3,7.4,1.1v5.5c-2.4-0.8-4.7-1.2-6.9-1.2c-2.6,0-3.8,0.3-3.8,1.3c0,0.9,0.6,1.1,4.1,1.8
	c5.6,1.2,7.9,3.1,7.9,7.3c0,4.9-3.6,7.6-10.2,7.6C146.5,51.2,143.8,50.7,142,49.9z"/>
<radialGradient id="SVGID_1_" cx="157.357" cy="1167.165" r="19.9932" gradientTransform="matrix(1 0 0 1 0 -1128)" gradientUnits="userSpaceOnUse">
	<stop  offset="0" style="stop-color:#00C7EF"/>
	<stop  offset="1" style="stop-color:#5300AA"/>
</radialGradient>
<circle class="st1" cx="164.3" cy="47.9" r="2.6"/>
<g>
	
		<linearGradient id="SVGID_2_" gradientUnits="userSpaceOnUse" x1="6.2" y1="1189.6" x2="102" y2="1189.6" gradientTransform="matrix(1 0 0 1 0 -1128)">
		<stop  offset="4.102398e-07" style="stop-color:#00C7EF"/>
		<stop  offset="1" style="stop-color:#5300AA"/>
	</linearGradient>
	<rect x="6.2" y="61.2" class="st2" width="95.8" height="0.8"/>
</g>
<g>
	<g>
		
			<linearGradient id="SVGID_3_" gradientUnits="userSpaceOnUse" x1="-11.2853" y1="66.9696" x2="77.2254" y2="34.5441" gradientTransform="matrix(1 0 0 -1 0 72)">
			<stop  offset="4.102398e-07" style="stop-color:#00C7EF"/>
			<stop  offset="1" style="stop-color:#5300AA"/>
		</linearGradient>
		<path class="st3" d="M14.7,24.3c-6,0-9.5-3.6-9.5-9.7c0-6,3.6-9.8,9.5-9.8c6,0,9.5,3.6,9.5,9.7S20.6,24.3,14.7,24.3z M14.7,6
			c-5.2,0-8.3,3.2-8.3,8.6s3,8.5,8.3,8.5S23,20,23,14.5C23,9.1,20,6,14.7,6z M14.7,19.9c-2.7,0-4.3-2-4.3-5.4s1.6-5.4,4.3-5.4
			s4.3,2.1,4.3,5.4C19,17.9,17.4,19.9,14.7,19.9z M14.7,10.3c-2.7,0-3.1,2.6-3.1,4.2s0.4,4.2,3.1,4.2s3.1-2.6,3.1-4.2
			C17.8,11.9,16.7,10.3,14.7,10.3z"/>
	</g>
	<g>
		
			<linearGradient id="SVGID_4_" gradientUnits="userSpaceOnUse" x1="-8.7846" y1="73.7954" x2="79.7261" y2="41.3699" gradientTransform="matrix(1 0 0 -1 0 72)">
			<stop  offset="4.102398e-07" style="stop-color:#00C7EF"/>
			<stop  offset="1" style="stop-color:#5300AA"/>
		</linearGradient>
		<path class="st4" d="M33.5,24.3c-5.5,0-8.2-2.8-8.2-8.5V5.3h6.3V16c0,2.3,0.7,2.8,1.9,2.8s1.9-0.5,1.9-2.8V5.3h6.3v10.3
			C41.8,21.3,39,24.3,33.5,24.3z M26.5,6.5v9.3c0,5.1,2.2,7.3,7,7.3c4.7,0,7.1-2.4,7.1-7.5V6.5h-3.9V16c0,1.7-0.3,4-3.1,4
			s-3.1-2.3-3.1-4V6.5H26.5z"/>
	</g>
	<g>
		
			<linearGradient id="SVGID_5_" gradientUnits="userSpaceOnUse" x1="-7.2357" y1="78.0235" x2="81.275" y2="45.598" gradientTransform="matrix(1 0 0 -1 0 72)">
			<stop  offset="4.102398e-07" style="stop-color:#00C7EF"/>
			<stop  offset="1" style="stop-color:#5300AA"/>
		</linearGradient>
		<path class="st5" d="M60.7,23.8h-7.1l-2.1-4.3c-0.3-0.6-0.7-0.9-1.2-0.9h-0.1v5.2h-6.3V5.3h7.8c5.1,0,8,2.4,8,6.7
			c0,2.1-0.9,3.8-2.5,5c0.3,0.4,0.6,0.8,0.7,1.1L60.7,23.8z M54.3,22.6h4.4l-2-3.9c-0.2-0.4-0.6-0.9-1-1.2L54.9,17l0.9-0.5
			c1.2-0.7,2.6-2,2.6-4.4c0-4.5-3.7-5.5-6.8-5.5H45v16.1h3.9v-5.2h1.3c1,0,1.8,0.5,2.3,1.5L54.3,22.6z M51.3,14.5h-2.4v-5h2.4
			c2.6,0,3,1.5,3,2.5C54.3,13.5,53.1,14.5,51.3,14.5z M50.1,13.3h1.2c1.2,0,1.8-0.5,1.8-1.4c0-0.4,0-1.3-1.8-1.3h-1.2V13.3z"/>
	</g>
</g>
</svg>
