<?xml version="1.0" encoding="utf-8"?>
<!-- Generator: Adobe Illustrator 23.0.0, SVG Export Plug-In . SVG Version: 6.00 Build 0)  -->
<svg version="1.1" id="Layer_1" xmlns="http://www.w3.org/2000/svg" xmlns:xlink="http://www.w3.org/1999/xlink" x="0px" y="0px"
	 viewBox="0 0 233.5 70" style="enable-background:new 0 0 233.5 70;" xml:space="preserve">
<style type="text/css">
	.st0{fill:url(#SVGID_1_);}
	.st1{fill:#030C30;}
	.st2{fill:url(#SVGID_2_);}
	.st3{fill:url(#SVGID_3_);}
	.st4{fill:url(#SVGID_4_);}
	.st5{fill:url(#SVGID_5_);}
	.st6{fill:url(#SVGID_6_);}
	.st7{fill:url(#SVGID_7_);}
	.st8{fill:url(#SVGID_8_);}
	.st9{fill:url(#SVGID_9_);}
	.st10{fill:url(#SVGID_10_);}
	.st11{fill:url(#SVGID_11_);}
	.st12{fill:url(#SVGID_12_);}
	.st13{fill:url(#SVGID_13_);}
	.st14{fill:url(#SVGID_14_);}
	.st15{fill:url(#SVGID_15_);}
	.st16{fill:url(#SVGID_16_);}
	.st17{fill:url(#SVGID_17_);}
	.st18{fill:url(#SVGID_18_);}
	.st19{fill:url(#SVGID_19_);}
</style>
<g>
	<g>
		<linearGradient id="SVGID_1_" gradientUnits="userSpaceOnUse" x1="9.8009" y1="65.9127" x2="126.1638" y2="65.9127">
			<stop  offset="4.102398e-07" style="stop-color:#00C7EF"/>
			<stop  offset="1" style="stop-color:#5300AA"/>
		</linearGradient>
		<rect x="9.8" y="65.4" class="st0" width="116.4" height="1"/>
	</g>
	<g>
		<path class="st1" d="M33.9,18.8c0,6.9-4.1,10.4-11.7,10.4h-3.6V35h-7.9V8.3h11.5C29.8,8.3,33.9,11.9,33.9,18.8z M26,18.8
			c0-2.4-1.3-3.8-4.5-3.8h-2.8v7.6h2.8C24.7,22.6,26,21.1,26,18.8z"/>
		<path class="st1" d="M61,35h-8.8l-3-6.2c-0.5-1.1-1.3-1.8-2.7-1.8h-1.1v8h-7.9V8.3h11c7.2,0,11.4,3.2,11.4,9.4
			c0,3.6-1.8,6.1-4.4,7.6c0.8,0.5,1.4,1.4,1.9,2.2L61,35z M48.1,20.8c2.4,0,3.8-1.1,3.8-3c0-1.9-1.2-2.9-3.8-2.9h-2.8v5.9H48.1z"/>
		<path class="st1" d="M90.5,21.6c0,8.9-5.1,14.2-13.8,14.2c-8.6,0-13.8-5.1-13.8-14c0-8.8,5.1-14.2,13.8-14.2
			C85.4,7.6,90.5,12.8,90.5,21.6z M71,21.7c0,4.8,2.2,7.4,5.8,7.4c3.5,0,5.8-2.6,5.8-7.4c0-4.7-2.2-7.4-5.8-7.4
			C73.2,14.3,71,17,71,21.7z"/>
		<path class="st1" d="M116.6,15.1h-8.2V35h-7.9V15.1h-8.2V8.3h24.3V15.1z"/>
		<path class="st1" d="M127.5,15.1v5h9.7v6.8h-9.7V35h-7.9V8.3h19.2v6.8H127.5z"/>
		<path class="st1" d="M150.3,8.3V35h-7.9V8.3H150.3z"/>
		<path class="st1" d="M174.4,28.2V35h-18.9V8.3h7.9v19.9H174.4z"/>
		<path class="st1" d="M203.7,21.6c0,8.9-5.1,14.2-13.8,14.2c-8.6,0-13.8-5.1-13.8-14c0-8.8,5.1-14.2,13.8-14.2
			C198.5,7.6,203.7,12.8,203.7,21.6z M184.1,21.7c0,4.8,2.2,7.4,5.8,7.4c3.5,0,5.8-2.6,5.8-7.4c0-4.7-2.2-7.4-5.8-7.4
			C186.3,14.3,184.1,17,184.1,21.7z"/>
	</g>
	<g>
		<linearGradient id="SVGID_2_" gradientUnits="userSpaceOnUse" x1="-0.3364" y1="48.7297" x2="252.763" y2="94.4822">
			<stop  offset="4.102398e-07" style="stop-color:#00C7EF"/>
			<stop  offset="1" style="stop-color:#5300AA"/>
		</linearGradient>
		<path class="st2" d="M8.1,48.7h4.4v10.8h4.9V48.7h4.4v-4.3H8.1V48.7z M8.7,45h12.6v3h-4.4v10.8h-3.7V48H8.7V45z"/>
		<linearGradient id="SVGID_3_" gradientUnits="userSpaceOnUse" x1="5.721470e-02" y1="46.5521" x2="253.1566" y2="92.3047">
			<stop  offset="4.102398e-07" style="stop-color:#00C7EF"/>
			<stop  offset="1" style="stop-color:#5300AA"/>
		</linearGradient>
		<path class="st3" d="M31.4,49.6h-3.6v-5.2h-4.9v15.1h4.9v-5.4h3.6v5.4h4.9V44.3h-4.9V49.6z M32.1,45h3.7v13.9h-3.7v-5.4h-4.8v5.4
			h-3.7V45h3.7v5.2h4.8V45z"/>
		<linearGradient id="SVGID_4_" gradientUnits="userSpaceOnUse" x1="0.4171" y1="44.561" x2="253.5165" y2="90.3136">
			<stop  offset="4.102398e-07" style="stop-color:#00C7EF"/>
			<stop  offset="1" style="stop-color:#5300AA"/>
		</linearGradient>
		<path class="st4" d="M38.5,59.5h4.9V44.3h-4.9V59.5z M39.2,45h3.7v13.9h-3.7V45z"/>
		<linearGradient id="SVGID_5_" gradientUnits="userSpaceOnUse" x1="0.776" y1="42.5756" x2="253.8754" y2="88.3282">
			<stop  offset="4.102398e-07" style="stop-color:#00C7EF"/>
			<stop  offset="1" style="stop-color:#5300AA"/>
		</linearGradient>
		<path class="st5" d="M54.4,50c0,0.3,0,0.7,0,1l-4.5-6.7h-4.2v15.1h4.6v-5.8c0-0.3,0-0.6,0-0.9l4.5,6.7H59V44.3h-4.6V50z M55.1,45
			h3.4v13.9h-3.2l-5.6-8.2l0,1.1c0,0.6,0,1.3,0,1.9v5.2h-3.4V45h3.2l5.6,8.2l0-1.1c0-0.7,0-1.4,0-2.1V45z"/>
		<linearGradient id="SVGID_6_" gradientUnits="userSpaceOnUse" x1="1.3006" y1="39.6737" x2="254.4" y2="85.4262">
			<stop  offset="4.102398e-07" style="stop-color:#00C7EF"/>
			<stop  offset="1" style="stop-color:#5300AA"/>
		</linearGradient>
		<path class="st6" d="M67.6,54.3h2.2v1.3c-0.3,0-0.6,0.1-0.8,0.1c-2.3,0-3.4-1.2-3.4-3.8c0-2.5,1.3-3.7,3.8-3.7
			c1.4,0,2.5,0.2,3.9,0.7l0.4,0.2v-4.4l-0.2-0.1c-1.4-0.5-2.7-0.7-4.2-0.7c-5.6,0-8.7,2.9-8.7,8.1c0,5,2.9,7.9,7.9,7.9
			c1.9,0,3.8-0.3,5.6-0.9l0.2-0.1v-8.5h-6.7V54.3z M68.2,51h5.4v7.4c-1.7,0.5-3.4,0.8-5.2,0.8c-4.7,0-7.3-2.6-7.3-7.2
			c0-4.8,2.9-7.4,8.1-7.4c1.4,0,2.5,0.2,3.8,0.6v3c-1.2-0.4-2.3-0.6-3.7-0.6c-2.9,0-4.4,1.5-4.4,4.4c0,2.9,1.4,4.4,4.1,4.4
			c0.3,0,0.7,0,1.2-0.1l0.3,0v-2.5h-2.2V51z"/>
		<linearGradient id="SVGID_7_" gradientUnits="userSpaceOnUse" x1="1.6945" y1="37.4945" x2="254.7939" y2="83.2471">
			<stop  offset="4.102398e-07" style="stop-color:#00C7EF"/>
			<stop  offset="1" style="stop-color:#5300AA"/>
		</linearGradient>
		<path class="st7" d="M82.5,49.5c-2.2-0.4-2.4-0.6-2.4-0.9c0-0.3,0.4-0.6,2.1-0.6c1.3,0,2.8,0.3,4.4,0.8L87,49v-4.2l-0.2-0.1
			c-1.4-0.5-2.9-0.8-4.9-0.8c-4,0-6.4,1.9-6.4,5.1c0,2.6,1.4,4.1,4.6,4.8c2.6,0.5,3,0.8,3,1.2c0,0.2,0,0.7-2.2,0.7
			c-1.9,0-3.5-0.4-4.9-1.1l-0.5-0.3v4.6l0.2,0.1c1.3,0.6,3,0.9,5.2,0.9c4.5,0,6.9-1.9,6.9-5.3C87.9,51.4,85.8,50.3,82.5,49.5z
			 M80.9,59.2c-2,0-3.6-0.3-4.8-0.7v-3.1c1.4,0.6,2.9,1,4.7,1c1.4,0,2.8-0.2,2.8-1.3c0-1-0.9-1.3-3.5-1.8c-2.9-0.6-4.1-1.8-4.1-4.2
			c0-2.8,2.1-4.4,5.7-4.4c1.9,0,3.3,0.2,4.5,0.6v2.9c-1.5-0.4-2.9-0.7-4.2-0.7c-1.5,0-2.8,0.1-2.8,1.2c0,0.8,0.7,1.1,2.9,1.5
			c3.6,0.8,4.9,2,4.9,4.5C87.2,58.4,83.8,59.2,80.9,59.2z"/>
		<linearGradient id="SVGID_8_" gradientUnits="userSpaceOnUse" x1="2.4445" y1="33.3459" x2="255.5439" y2="79.0985">
			<stop  offset="4.102398e-07" style="stop-color:#00C7EF"/>
			<stop  offset="1" style="stop-color:#5300AA"/>
		</linearGradient>
		<path class="st8" d="M106.8,51.8l-1.9-7.5h-4.1l-2,7.5l-1.8-7.5h-5.4l4.8,15.1h4.2l2.1-7.4l2.2,7.4h4.2l4.8-15.1h-5.3L106.8,51.8z
			 M112.9,45l-4.4,13.9h-3.2l-2.6-9.1l-2.6,9.1h-3.2L92.4,45h4l2.3,9.4l2.5-9.4h3.1l2.5,9.5L109,45H112.9z"/>
		<linearGradient id="SVGID_9_" gradientUnits="userSpaceOnUse" x1="2.9185" y1="30.724" x2="256.0178" y2="76.4765">
			<stop  offset="4.102398e-07" style="stop-color:#00C7EF"/>
			<stop  offset="1" style="stop-color:#5300AA"/>
		</linearGradient>
		<path class="st9" d="M119.5,53.8h5.7v-3.9h-5.7v-1.5h6.1v-3.9h-11.1v15.1h11.2v-3.9h-6.3V53.8z M125.1,56.1v2.7h-9.9V45h9.8v2.7
			h-6.1v2.8h5.7v2.7h-5.7v3H125.1z"/>
		<linearGradient id="SVGID_10_" gradientUnits="userSpaceOnUse" x1="4.3196" y1="22.9727" x2="257.419" y2="68.7253">
			<stop  offset="4.102398e-07" style="stop-color:#00C7EF"/>
			<stop  offset="1" style="stop-color:#5300AA"/>
		</linearGradient>
		<path class="st10" d="M129.5,41.1c-1.7,0-2.8,1-2.8,2.7c0,1.4,0.8,2.4,2.1,2.5c-0.1,1-0.6,2-1.5,2.9l-0.5,0.5h3.7l0.1-0.1
			c1-1.1,1.9-3,1.9-4.8C132.5,41.7,130.9,41.1,129.5,41.1z M130.2,49h-1.9c0.8-1,1.2-2,1.2-3.1v-0.3h-0.4c-1.1,0-1.8-0.7-1.8-1.9
			c0-1.3,0.8-2,2.2-2c1.6,0,2.4,1,2.4,3C131.9,46.4,131,48.1,130.2,49z"/>
		<linearGradient id="SVGID_11_" gradientUnits="userSpaceOnUse" x1="3.6694" y1="26.5698" x2="256.7688" y2="72.3224">
			<stop  offset="4.102398e-07" style="stop-color:#00C7EF"/>
			<stop  offset="1" style="stop-color:#5300AA"/>
		</linearGradient>
		<path class="st11" d="M141.7,50.5c-0.2,0.7-0.4,1.4-0.6,2.1c-0.2-0.8-0.4-1.5-0.6-2.1l-1.9-6.1h-5.5l5.6,15.1h4.4l5.7-15.1h-5.2
			L141.7,50.5z M147.9,45l-5.2,13.9h-3.5L134.1,45h4.1l1.8,5.7c0.3,0.9,0.6,2.1,0.9,3.3l0.3,1.2l0.4-1.5c0.3-1,0.6-2.1,0.8-3
			l1.8-5.7H147.9z"/>
		<linearGradient id="SVGID_12_" gradientUnits="userSpaceOnUse" x1="4.0242" y1="24.6068" x2="257.1236" y2="70.3594">
			<stop  offset="4.102398e-07" style="stop-color:#00C7EF"/>
			<stop  offset="1" style="stop-color:#5300AA"/>
		</linearGradient>
		<path class="st12" d="M154.4,53.8h5.7v-3.9h-5.7v-1.5h6.1v-3.9h-11.1v15.1h11.2v-3.9h-6.3V53.8z M160,56.1v2.7h-9.9V45h9.8v2.7
			h-6.1v2.8h5.7v2.7h-5.7v3H160z"/>
		<linearGradient id="SVGID_13_" gradientUnits="userSpaceOnUse" x1="4.6487" y1="21.1521" x2="257.7481" y2="66.9047">
			<stop  offset="4.102398e-07" style="stop-color:#00C7EF"/>
			<stop  offset="1" style="stop-color:#5300AA"/>
		</linearGradient>
		<path class="st13" d="M174.7,50.3l-3.7-6h-4.4v15.1h4.6v-7l2.1,3.3h2.9l2.1-3.5v7.2h4.6V44.3h-4.4L174.7,50.3z M182.2,45v13.9
			h-3.4v-9.2l-0.6,1.2c-0.2,0.3-0.3,0.7-0.5,1l-2,3.3h-2.1l-2-3.3c-0.2-0.2-0.3-0.5-0.4-0.7l-0.6-1.2v8.9h-3.4V45h3.4l4.1,6.5l4-6.5
			H182.2z"/>
		<linearGradient id="SVGID_14_" gradientUnits="userSpaceOnUse" x1="5.1803" y1="18.2119" x2="258.2796" y2="63.9645">
			<stop  offset="4.102398e-07" style="stop-color:#00C7EF"/>
			<stop  offset="1" style="stop-color:#5300AA"/>
		</linearGradient>
		<path class="st14" d="M189.7,54.4h3.4l-1.7-5.3L189.7,54.4z M190.6,53.8l0.8-2.6l0.8,2.6H190.6z"/>
		<linearGradient id="SVGID_15_" gradientUnits="userSpaceOnUse" x1="5.0864" y1="18.7311" x2="258.1858" y2="64.4837">
			<stop  offset="4.102398e-07" style="stop-color:#00C7EF"/>
			<stop  offset="1" style="stop-color:#5300AA"/>
		</linearGradient>
		<path class="st15" d="M189.3,44.3l-5.7,15.1h5.2l0.6-2h4l0.6,2h5.3l-5.7-15.1H189.3z M194.5,58.8l-0.6-2h-4.9l-0.6,2h-3.8
			l5.3-13.9h3.5l5.3,13.9H194.5z"/>
		<linearGradient id="SVGID_16_" gradientUnits="userSpaceOnUse" x1="5.6216" y1="15.7705" x2="258.7209" y2="61.5231">
			<stop  offset="4.102398e-07" style="stop-color:#00C7EF"/>
			<stop  offset="1" style="stop-color:#5300AA"/>
		</linearGradient>
		<path class="st16" d="M206.1,47.9h-1.8v7.9h1.8c2.5,0,3.6-1.3,3.6-4S208.6,47.9,206.1,47.9z M206.1,55.2H205v-6.6h1.2
			c2.1,0,3,1,3,3.3S208.2,55.2,206.1,55.2z"/>
		<linearGradient id="SVGID_17_" gradientUnits="userSpaceOnUse" x1="5.5663" y1="16.076" x2="258.6657" y2="61.8286">
			<stop  offset="4.102398e-07" style="stop-color:#00C7EF"/>
			<stop  offset="1" style="stop-color:#5300AA"/>
		</linearGradient>
		<path class="st17" d="M206.4,44.3H200v15.1h6.3c5,0,7.7-2.7,7.7-7.6S211.4,44.3,206.4,44.3z M206.4,58.8h-5.7V45h5.7
			c4.7,0,7.1,2.4,7.1,6.9S211,58.8,206.4,58.8z"/>
		<linearGradient id="SVGID_18_" gradientUnits="userSpaceOnUse" x1="6.1169" y1="13.0305" x2="259.2163" y2="58.7831">
			<stop  offset="4.102398e-07" style="stop-color:#00C7EF"/>
			<stop  offset="1" style="stop-color:#5300AA"/>
		</linearGradient>
		<path class="st18" d="M220.5,55.5v-1.7h5.7v-3.9h-5.7v-1.5h6.1v-3.9h-11.1v15.1h11.2v-3.9H220.5z M226.2,58.8h-9.9V45h9.8v2.7
			h-6.1v2.8h5.7v2.7h-5.7v3h6.3V58.8z"/>
	</g>
	<radialGradient id="SVGID_19_" cx="198.8465" cy="21.2057" r="24.279" gradientUnits="userSpaceOnUse">
		<stop  offset="0" style="stop-color:#00C7EF"/>
		<stop  offset="1" style="stop-color:#5300AA"/>
	</radialGradient>
	<circle class="st19" cx="207.3" cy="31.8" r="3.2"/>
</g>
</svg>
