<?xml version="1.0" encoding="utf-8"?>
<!-- Generator: Adobe Illustrator 23.0.0, SVG Export Plug-In . SVG Version: 6.00 Build 0)  -->
<svg version="1.1" id="Layer_1" xmlns="http://www.w3.org/2000/svg" xmlns:xlink="http://www.w3.org/1999/xlink" x="0px" y="0px"
	 viewBox="0 0 416.9 70" style="enable-background:new 0 0 416.9 70;" xml:space="preserve">
<style type="text/css">
	.st0{fill:url(#SVGID_1_);}
	.st1{fill:url(#SVGID_2_);}
	.st2{fill:url(#SVGID_3_);}
	.st3{fill:url(#SVGID_4_);}
	.st4{fill:url(#SVGID_5_);}
	.st5{fill:#030C30;}
	.st6{fill:none;stroke:url(#SVGID_6_);stroke-width:3;stroke-miterlimit:10;}
	.st7{fill:url(#SVGID_7_);}
	.st8{fill:url(#SVGID_8_);}
	.st9{fill:url(#SVGID_9_);}
	.st10{fill:url(#SVGID_10_);}
	.st11{fill:url(#SVGID_11_);}
	.st12{fill:none;stroke:url(#SVGID_12_);stroke-width:2;stroke-miterlimit:10;}
</style>
<g>
	<g>
		<radialGradient id="SVGID_1_" cx="661.1334" cy="155.1285" r="520.7672" gradientUnits="userSpaceOnUse">
			<stop  offset="0" style="stop-color:#00C7EF"/>
			<stop  offset="1" style="stop-color:#5300AA"/>
		</radialGradient>
		<path class="st0" d="M755.2,364.8c-16.4,0-24.6-6.1-26.4-19.7c-18.8-3.4-29.6-17.4-29.6-38.7c0-24.9,14.4-39.8,38.6-39.8
			c24.2,0,38.6,14.7,38.6,39.4c0,19.8-9.4,33.6-25.8,38.1c1.1,0.9,3.3,1.6,8.8,1.6c2.9,0,6.2-0.2,9.4-1.3l1.8-0.6v18.6l-0.8,0.3
			C767.6,363.7,763.2,364.8,755.2,364.8z M737.8,269.4c-22.5,0-35.9,13.9-35.9,37.1c0,20.5,10.1,33.3,28.3,36.2l1,0.2l0.1,1
			c1.4,13,8.3,18.3,23.9,18.3c6.9,0,10.8-0.8,12.8-1.5v-13c-2.9,0.8-5.9,0.9-8.5,0.9c-7.7,0-11-1.3-12.2-4.7l-0.5-1.4l1.5-0.3
			c16.4-3.7,25.5-16.5,25.5-36C773.7,282.7,760.6,269.4,737.8,269.4z M737.8,327.5c-10.8,0-16.9-7.8-16.9-21.3
			c0-13.3,6.3-21.3,16.9-21.3c10.6,0,16.9,8,16.9,21.3C754.7,319.5,748.4,327.5,737.8,327.5z M737.8,287.6
			c-9.1,0-14.3,6.8-14.3,18.6c0,12,5.1,18.6,14.3,18.6c9.1,0,14.3-6.8,14.3-18.6S746.9,287.6,737.8,287.6z"/>
	</g>
	<g>
		<radialGradient id="SVGID_2_" cx="661.1334" cy="155.1285" r="520.7672" gradientUnits="userSpaceOnUse">
			<stop  offset="0" style="stop-color:#00C7EF"/>
			<stop  offset="1" style="stop-color:#5300AA"/>
		</radialGradient>
		<path class="st1" d="M816.6,345.8c-22.3,0-33.2-11.3-33.2-34.4v-42.7h24.2v43.7c0,9.1,2.6,12.7,9.2,12.7c6.5,0,9.1-3.6,9.1-12.7
			v-43.7H850v41.9C850,334,838.8,345.8,816.6,345.8z M786.1,271.4v40c0,21.6,9.7,31.7,30.5,31.7c20.6,0,30.7-10.6,30.7-32.4v-39.3
			h-18.7v41c0,7.2-1.3,15.4-11.8,15.4c-10.5,0-11.9-8.2-11.9-15.4v-41H786.1z"/>
	</g>
	<g>
		<radialGradient id="SVGID_3_" cx="661.1334" cy="155.1285" r="520.7672" gradientUnits="userSpaceOnUse">
			<stop  offset="0" style="stop-color:#00C7EF"/>
			<stop  offset="1" style="stop-color:#5300AA"/>
		</radialGradient>
		<path class="st2" d="M884.7,343.7h-24.2v-75h24.2V343.7z M863.2,341H882v-69.6h-18.8V341z"/>
	</g>
	<g>
		<radialGradient id="SVGID_4_" cx="661.1334" cy="155.1285" r="520.7672" gradientUnits="userSpaceOnUse">
			<stop  offset="0" style="stop-color:#00C7EF"/>
			<stop  offset="1" style="stop-color:#5300AA"/>
		</radialGradient>
		<path class="st3" d="M932.2,345.8c-25.6,0-39.7-13.7-39.7-38.6c0-25.7,14.7-40.5,40.3-40.5c8.1,0,14,0.9,18.5,2.7l0.8,0.3v21.3
			l-1.9-1c-2.4-1.2-6.9-2.6-14.6-2.6c-12.6,0-18.7,6.3-18.7,19.1c0,12.9,5.6,18.4,18.7,18.4c5.9,0,10.9-1.1,15.1-3.4l2-1.1v21.3
			l-0.8,0.4C947,344.3,939.6,345.8,932.2,345.8z M932.8,269.4c-24.2,0-37.6,13.4-37.6,37.8c0,23.2,13.1,35.9,37,35.9
			c6.6,0,13.2-1.2,17.8-3.2v-15.1c-4.1,1.9-8.9,2.8-14.4,2.8c-14.6,0-21.4-6.7-21.4-21.1c0-14.3,7.4-21.8,21.4-21.8
			c5.5,0,10.2,0.7,13.8,2.1v-15.2C945.4,270,940,269.4,932.8,269.4z"/>
	</g>
	<g>
		<radialGradient id="SVGID_5_" cx="661.1334" cy="155.1285" r="520.7672" gradientUnits="userSpaceOnUse">
			<stop  offset="0" style="stop-color:#00C7EF"/>
			<stop  offset="1" style="stop-color:#5300AA"/>
		</radialGradient>
		<path class="st4" d="M1032.2,343.7h-27.3L994,323.1c-2.3-4.4-3.4-6.2-7.1-6.2h-2v26.9h-24.2v-75H985v26h1.2c3.7,0,5.5-1.3,8.1-5.9
			l11.5-20.1h25.9l-17.6,30.6c-1.3,2.3-2.6,4.3-4.4,5.6c2.8,2.2,4.9,5.7,6.8,9.3L1032.2,343.7z M1006.5,341h21.2l-13.5-25.5
			c-2.1-3.8-4.5-8.1-7.7-9.4l-3.2-1.4l3.4-1.1c2.4-0.8,3.7-2.9,5.2-5.6l15.3-26.6h-19.7l-10.8,18.7c-2.7,4.7-5.1,7.3-10.5,7.3h-3.9
			v-26h-18.8V341h18.8v-26.9h4.6c5.5,0,7.2,3.4,9.5,7.7l0.3,0.6L1006.5,341z"/>
	</g>
	<path class="st5" d="M1053,307.2c0-25.1,14.3-39.1,38.9-39.1c7.9,0,13.6,0.8,18,2.6v18.2c-3.3-1.7-8.4-2.8-15.2-2.8
		c-13,0-20,6.5-20,20.5c0,14.2,6.7,19.7,20,19.7c6.8,0,11.8-1.4,15.7-3.6v18.2c-4.6,2.3-11.7,3.7-19.1,3.7
		C1066.8,344.4,1053,331.3,1053,307.2z"/>
	<path class="st5" d="M1191.6,306c0,24.2-13.9,38.4-37.3,38.4s-37.3-13.8-37.3-38c0-24,13.9-38.4,37.3-38.4S1191.6,282.1,1191.6,306
		z M1138.7,306.2c0,13,5.9,19.9,15.6,19.9c9.6,0,15.6-6.9,15.6-19.9c0-12.8-6-19.9-15.6-19.9
		C1144.6,286.3,1138.7,293.4,1138.7,306.2z"/>
	<path class="st5" d="M1265.7,270.1v72.3h-18.6l-25.2-37.2c0.1,3.2,0.1,6.4,0.1,9.6v27.6h-19.9v-72.3h18.6l25.2,37.2
		c-0.1-3.4-0.1-6.9-0.1-10.3v-26.9H1265.7z"/>
	<path class="st5" d="M1339.9,288.5h-22.2v53.9h-21.5v-53.9H1274v-18.4h65.9V288.5z"/>
	<path class="st5" d="M1381.7,332.4h-22.3l-3.2,10h-22.6l27.5-72.3h19.5l27.5,72.3h-23.1L1381.7,332.4z M1376.9,317.1l-6.3-19.8
		l-6.3,19.8H1376.9z"/>
	<path class="st5" d="M1409.3,307.2c0-25.1,14.3-39.1,38.9-39.1c7.9,0,13.6,0.8,18,2.6v18.2c-3.3-1.7-8.4-2.8-15.2-2.8
		c-13,0-20,6.5-20,20.5c0,14.2,6.7,19.7,20,19.7c6.8,0,11.8-1.4,15.7-3.6v18.2c-4.6,2.3-11.7,3.7-19.1,3.7
		C1423,344.4,1409.3,331.3,1409.3,307.2z"/>
	<path class="st5" d="M1537.7,288.5h-22.2v53.9H1494v-53.9h-22.2v-18.4h65.9V288.5z"/>
</g>
<linearGradient id="SVGID_6_" gradientUnits="userSpaceOnUse" x1="699.1723" y1="388.3867" x2="1547.5157" y2="388.3867">
	<stop  offset="4.102398e-07" style="stop-color:#00C7EF"/>
	<stop  offset="1" style="stop-color:#5300AA"/>
</linearGradient>
<line class="st6" x1="699.2" y1="388.4" x2="1547.5" y2="388.4"/>
<g>
	<g>
		<radialGradient id="SVGID_7_" cx="-3.4179" cy="-44.4586" r="238.5897" gradientUnits="userSpaceOnUse">
			<stop  offset="0" style="stop-color:#00C7EF"/>
			<stop  offset="1" style="stop-color:#5300AA"/>
		</radialGradient>
		<path class="st7" d="M39.7,51.6c-7.5,0-11.3-2.8-12.1-9C18.9,41,14,34.6,14,24.9c0-11.4,6.6-18.2,17.7-18.2s17.7,6.7,17.7,18
			c0,9.1-4.3,15.4-11.8,17.5c0.5,0.4,1.5,0.7,4,0.7c1.3,0,2.8-0.1,4.3-0.6l0.8-0.3v8.5l-0.4,0.2C45.3,51.1,43.4,51.6,39.7,51.6z
			 M31.7,7.9c-10.3,0-16.5,6.4-16.5,17c0,9.4,4.6,15.3,13,16.6l0.5,0.1l0,0.5c0.6,6,3.8,8.4,10.9,8.4c3.2,0,4.9-0.4,5.9-0.7v-6
			c-1.4,0.3-2.7,0.4-3.9,0.4c-3.5,0-5-0.6-5.6-2.2l-0.2-0.7l0.7-0.2c7.5-1.7,11.7-7.6,11.7-16.5C48.2,14,42.2,7.9,31.7,7.9z
			 M31.7,34.5c-4.9,0-7.8-3.6-7.8-9.7c0-6.1,2.9-9.7,7.8-9.7s7.8,3.6,7.8,9.7C39.5,30.9,36.6,34.5,31.7,34.5z M31.7,16.2
			c-4.2,0-6.5,3.1-6.5,8.5c0,5.5,2.3,8.5,6.5,8.5c4.2,0,6.5-3.1,6.5-8.5S35.9,16.2,31.7,16.2z"/>
	</g>
	<g>
		<radialGradient id="SVGID_8_" cx="-3.4179" cy="-44.4586" r="238.5897" gradientUnits="userSpaceOnUse">
			<stop  offset="0" style="stop-color:#00C7EF"/>
			<stop  offset="1" style="stop-color:#5300AA"/>
		</radialGradient>
		<path class="st8" d="M67.8,42.9c-10.2,0-15.2-5.2-15.2-15.8V7.6h11.1v20c0,4.2,1.2,5.8,4.2,5.8c3,0,4.2-1.6,4.2-5.8v-20h11v19.2
			C83.1,37.5,78,42.9,67.8,42.9z M53.9,8.8v18.3c0,9.9,4.4,14.5,14,14.5c9.5,0,14.1-4.9,14.1-14.9v-18h-8.6v18.8
			c0,3.3-0.6,7.1-5.4,7.1c-4.8,0-5.4-3.8-5.4-7.1V8.8H53.9z"/>
	</g>
	<g>
		<radialGradient id="SVGID_9_" cx="-3.4179" cy="-44.4586" r="238.5897" gradientUnits="userSpaceOnUse">
			<stop  offset="0" style="stop-color:#00C7EF"/>
			<stop  offset="1" style="stop-color:#5300AA"/>
		</radialGradient>
		<path class="st9" d="M99,41.9H87.9V7.6H99V41.9z M89.2,40.7h8.6V8.8h-8.6V40.7z"/>
	</g>
	<g>
		<radialGradient id="SVGID_10_" cx="-3.4179" cy="-44.4586" r="238.5897" gradientUnits="userSpaceOnUse">
			<stop  offset="0" style="stop-color:#00C7EF"/>
			<stop  offset="1" style="stop-color:#5300AA"/>
		</radialGradient>
		<path class="st10" d="M120.8,42.9c-11.7,0-18.2-6.3-18.2-17.7c0-11.8,6.7-18.6,18.5-18.6c3.7,0,6.4,0.4,8.5,1.2l0.4,0.2v9.7
			l-0.9-0.4c-1.1-0.6-3.2-1.2-6.7-1.2c-5.8,0-8.6,2.9-8.6,8.8c0,5.9,2.6,8.4,8.6,8.4c2.7,0,5-0.5,6.9-1.6l0.9-0.5V41l-0.3,0.2
			C127.5,42.2,124.2,42.9,120.8,42.9z M121.1,7.9c-11.1,0-17.2,6.2-17.2,17.3c0,10.6,6,16.5,16.9,16.5c3,0,6-0.5,8.1-1.5v-6.9
			c-1.9,0.9-4.1,1.3-6.6,1.3c-6.7,0-9.8-3.1-9.8-9.7c0-6.5,3.4-10,9.8-10c2.5,0,4.7,0.3,6.3,1v-7C126.8,8.2,124.4,7.9,121.1,7.9z"/>
	</g>
	<g>
		<radialGradient id="SVGID_11_" cx="-3.4179" cy="-44.4586" r="238.5897" gradientUnits="userSpaceOnUse">
			<stop  offset="0" style="stop-color:#00C7EF"/>
			<stop  offset="1" style="stop-color:#5300AA"/>
		</radialGradient>
		<path class="st11" d="M166.6,41.9h-12.5l-5-9.4c-1.1-2-1.6-2.9-3.2-2.9H145v12.3h-11.1V7.6H145v11.9h0.6c1.7,0,2.5-0.6,3.7-2.7
			l5.3-9.2h11.9l-8.1,14c-0.6,1-1.2,2-2,2.6c1.3,1,2.2,2.6,3.1,4.3L166.6,41.9z M154.8,40.7h9.7L158.4,29c-0.9-1.8-2.1-3.7-3.5-4.3
			l-1.5-0.6l1.5-0.5c1.1-0.4,1.7-1.3,2.4-2.6l7-12.2h-9l-4.9,8.6c-1.2,2.2-2.4,3.3-4.8,3.3h-1.8V8.8h-8.6v31.9h8.6V28.4h2.1
			c2.5,0,3.3,1.6,4.3,3.5l0.1,0.3L154.8,40.7z"/>
	</g>
	<path class="st5" d="M176.1,25.2c0-11.5,6.5-17.9,17.8-17.9c3.6,0,6.2,0.4,8.2,1.2v8.3c-1.5-0.8-3.8-1.3-7-1.3c-6,0-9.2,3-9.2,9.4
		c0,6.5,3.1,9,9.2,9c3.1,0,5.4-0.7,7.2-1.7v8.3c-2.1,1-5.3,1.7-8.8,1.7C182.4,42.3,176.1,36.3,176.1,25.2z"/>
	<path class="st5" d="M239.6,24.7c0,11.1-6.4,17.6-17.1,17.6c-10.7,0-17.1-6.3-17.1-17.4c0-11,6.4-17.6,17.1-17.6
		C233.2,7.3,239.6,13.7,239.6,24.7z M215.4,24.8c0,6,2.7,9.1,7.1,9.1c4.4,0,7.1-3.2,7.1-9.1c0-5.9-2.7-9.1-7.1-9.1
		C218.1,15.6,215.4,18.9,215.4,24.8z"/>
	<path class="st5" d="M273.6,8.2v33.1h-8.5l-11.5-17c0,1.5,0,2.9,0,4.4v12.6h-9.1V8.2h8.5l11.5,17c0-1.6,0-3.2,0-4.7V8.2H273.6z"/>
	<path class="st5" d="M307.6,16.6h-10.2v24.7h-9.8V16.6h-10.2V8.2h30.2V16.6z"/>
	<path class="st5" d="M326.7,36.7h-10.2l-1.5,4.6h-10.4l12.6-33.1h8.9l12.6,33.1h-10.6L326.7,36.7z M324.5,29.7l-2.9-9.1l-2.9,9.1
		H324.5z"/>
	<path class="st5" d="M339.4,25.2c0-11.5,6.5-17.9,17.8-17.9c3.6,0,6.2,0.4,8.2,1.2v8.3c-1.5-0.8-3.8-1.3-7-1.3c-6,0-9.2,3-9.2,9.4
		c0,6.5,3.1,9,9.2,9c3.1,0,5.4-0.7,7.2-1.7v8.3c-2.1,1-5.3,1.7-8.8,1.7C345.6,42.3,339.4,36.3,339.4,25.2z"/>
	<path class="st5" d="M398.2,16.6H388v24.7h-9.8V16.6H368V8.2h30.2V16.6z"/>
</g>
<linearGradient id="SVGID_12_" gradientUnits="userSpaceOnUse" x1="14.0096" y1="62.4087" x2="402.6784" y2="62.4087">
	<stop  offset="4.102398e-07" style="stop-color:#00C7EF"/>
	<stop  offset="1" style="stop-color:#5300AA"/>
</linearGradient>
<line class="st12" x1="14" y1="62.4" x2="402.7" y2="62.4"/>
</svg>
