<?xml version="1.0" encoding="utf-8"?>
<!-- Generator: Adobe Illustrator 23.0.0, SVG Export Plug-In . SVG Version: 6.00 Build 0)  -->
<svg version="1.1" id="Layer_1" xmlns="http://www.w3.org/2000/svg" xmlns:xlink="http://www.w3.org/1999/xlink" x="0px" y="0px"
	 viewBox="0 0 100 40" style="enable-background:new 0 0 100 40;" xml:space="preserve">
<style type="text/css">
	.st0{fill:url(#SVGID_1_);}
	.st1{fill:#FFFFFF;}
</style>
<radialGradient id="SVGID_1_" cx="-10.4504" cy="-12.5939" r="138.2478" gradientUnits="userSpaceOnUse">
	<stop  offset="0" style="stop-color:#00C7EF"/>
	<stop  offset="1" style="stop-color:#5300AA"/>
</radialGradient>
<path class="st0" d="M86,8.6H14c-3.5,0-6.3,2.8-6.3,6.3v10.1c0,3.5,2.8,6.3,6.3,6.3H86c3.5,0,6.3-2.8,6.3-6.3V14.9
	C92.3,11.4,89.5,8.6,86,8.6z"/>
<g>
	<path class="st1" d="M30.3,24.6v-2.7c1,0.6,2.2,0.8,3.6,0.8c1.3,0,1.8-0.2,1.8-0.7c0-0.5-0.4-0.7-2.3-1.1c-2.2-0.5-3.1-1.4-3.1-3.2
		c0-2.2,1.7-3.4,4.3-3.4c1.4,0,2.5,0.2,3.4,0.5v2.5c-1.1-0.4-2.2-0.5-3.2-0.5c-1.2,0-1.8,0.1-1.8,0.6c0,0.4,0.3,0.5,1.9,0.9
		c2.6,0.6,3.7,1.4,3.7,3.4c0,2.3-1.7,3.5-4.7,3.5C32.3,25.2,31.1,25,30.3,24.6z"/>
	<path class="st1" d="M47.6,22.5v2.4H40V14.6h7.4v2.4h-4.4v1.5h4.1v2.4h-4.1v1.7H47.6z"/>
	<path class="st1" d="M58.3,14.6v10.3h-2.7l-3.6-5.3c0,0.5,0,0.9,0,1.4v3.9h-2.8V14.6h2.7l3.6,5.3c0-0.5,0-1,0-1.5v-3.8H58.3z"/>
	<path class="st1" d="M69.9,19.7c0,3.3-1.8,5.2-5.3,5.2h-4.3V14.6h4.3C68.1,14.6,69.9,16.4,69.9,19.7z M66.8,19.7
		c0-1.7-0.7-2.6-2.4-2.6h-1v5.2h1C66.1,22.3,66.8,21.5,66.8,19.7z"/>
</g>
</svg>
