<?xml version="1.0" encoding="utf-8"?>
<!-- Generator: Adobe Illustrator 23.0.0, SVG Export Plug-In . SVG Version: 6.00 Build 0)  -->
<svg version="1.1" id="Layer_1" xmlns="http://www.w3.org/2000/svg" xmlns:xlink="http://www.w3.org/1999/xlink" x="0px" y="0px"
	 viewBox="0 0 72 72" style="enable-background:new 0 0 72 72;" xml:space="preserve">
<style type="text/css">
	.st0{fill:#FFFFFF;}
	.st1{fill:#030C30;}
</style>
<g id="Twitter-11_3_">
	<circle id="back-93_3_" class="st0" cx="36" cy="36" r="36"/>
	<path id="Twitter-12_3_" class="st1" d="M56.1,23.5c-1.5,0.7-3.1,1.1-4.7,1.3c1.7-1,3-2.6,3.6-4.6c-1.6,0.9-3.4,1.6-5.3,2
		c-3.1-3.3-8.4-3.5-11.7-0.3c-1.7,1.5-2.6,3.7-2.6,6c0,0.7,0.1,1.3,0.3,1.9c-6.6-0.3-12.9-3.5-17-8.6c-2.2,3.7-1.1,8.6,2.5,11
		c-1.4,0-2.6-0.4-3.7-1v0.1c0,3.9,2.8,7.4,6.6,8.1c-1.2,0.3-2.5,0.3-3.7,0.2c1.1,3.4,4.2,5.7,7.7,5.8c-3,2.3-6.5,3.6-10.2,3.6
		c-0.7,0-1.4,0-1.9-0.1c3.8,2.5,8.2,3.7,12.7,3.7c15.2,0,23.5-12.6,23.5-23.5c0-0.3,0-0.8,0-1.1C53.7,26.6,55,25.2,56.1,23.5z"/>
</g>
</svg>
