<?xml version="1.0" encoding="utf-8"?>
<!-- Generator: Adobe Illustrator 23.0.0, SVG Export Plug-In . SVG Version: 6.00 Build 0)  -->
<svg version="1.1" id="Layer_1" xmlns="http://www.w3.org/2000/svg" xmlns:xlink="http://www.w3.org/1999/xlink" x="0px" y="0px"
	 viewBox="0 0 164.4 140" style="enable-background:new 0 0 164.4 140;" xml:space="preserve">
<style type="text/css">
	.st0{fill:#030C30;}
	.st1{fill:url(#SVGID_1_);}
</style>
<g>
	<path class="st0" d="M60.5,41.6l-9,24H45l-8.9-24h7.9l3.1,9.8c0.5,1.7,1.1,3.8,1.5,5.5c0.4-1.7,1-3.8,1.5-5.5l3-9.8H60.5z"/>
	<path class="st0" d="M69.8,41.6v24h-7.1v-24H69.8z"/>
	<path class="st0" d="M91.7,60.2v5.5H74.2v-24h17.3v5.5H81.3v3.6h9.5v5.5h-9.5v3.9H91.7z"/>
	<path class="st0" d="M128.6,41.6l-7.7,24h-6.1l-4-13.7l-3.9,13.7h-6.1l-7.7-24h7.8l3.4,14l3.8-14h5.9l3.6,14.1l3.3-14.1H128.6z"/>
	<path class="st0" d="M66.4,96.7H59L58,100h-7.5l9.1-24h6.5l9.1,24h-7.7L66.4,96.7z M64.8,91.6L62.7,85l-2.1,6.6H64.8z"/>
	<path class="st0" d="M94.3,93.9v6.1h-17V76h7.1v17.9H94.3z"/>
	<path class="st0" d="M113.8,93.9v6.1h-17V76h7.1v17.9H113.8z"/>
</g>
<g>
	<radialGradient id="SVGID_1_" cx="5.2681" cy="-2.7248" r="308.7535" gradientUnits="userSpaceOnUse">
		<stop  offset="0" style="stop-color:#00C7EF"/>
		<stop  offset="1" style="stop-color:#5300AA"/>
	</radialGradient>
	<path class="st1" d="M130.6,131.9H33.8c-11.7,0-21.1-9.5-21.1-21.1V29.3c0-11.7,9.5-21.1,21.1-21.1h96.8c11.7,0,21.1,9.5,21.1,21.1
		v81.4C151.7,122.4,142.3,131.9,130.6,131.9z M33.8,9.6C22.9,9.6,14,18.4,14,29.3v81.4c0,10.9,8.9,19.7,19.7,19.7h96.8
		c10.9,0,19.7-8.9,19.7-19.7V29.3c0-10.9-8.9-19.7-19.7-19.7H33.8z"/>
</g>
</svg>
