<?xml version="1.0" encoding="utf-8"?>
<!-- Generator: Adobe Illustrator 23.0.0, SVG Export Plug-In . SVG Version: 6.00 Build 0)  -->
<svg version="1.1" id="Layer_1" xmlns="http://www.w3.org/2000/svg" xmlns:xlink="http://www.w3.org/1999/xlink" x="0px" y="0px"
	 viewBox="0 0 173.9 29.4" style="enable-background:new 0 0 173.9 29.4;" xml:space="preserve">
<style type="text/css">
	.st0{fill:#010101;}
	.st1{fill:url(#SVGID_1_);}
	.st2{fill:url(#SVGID_2_);}
	.st3{fill:url(#SVGID_3_);}
	.st4{fill:url(#SVGID_4_);}
	.st5{fill:url(#SVGID_5_);}
	.st6{fill:url(#SVGID_6_);}
	.st7{fill:url(#SVGID_7_);}
	.st8{fill:url(#SVGID_8_);}
	.st9{fill:url(#SVGID_9_);}
	.st10{fill:url(#SVGID_10_);}
	.st11{fill:url(#SVGID_11_);}
	.st12{fill:url(#SVGID_12_);}
	.st13{fill:url(#SVGID_13_);}
	.st14{fill:url(#SVGID_14_);}
	.st15{fill:url(#SVGID_15_);}
</style>
<g>
	<g>
		<g>
			<path class="st0" d="M75.3,11.4l-2.2,6.9h-1.6L70.4,14l-1.2,4.3h-1.6l-2.2-6.9h2l1.1,4.4l1.2-4.4h1.5l1.1,4.4l1.1-4.4H75.3z"/>
			<path class="st0" d="M78.8,17.1c0.7,0,1.1-0.1,1.7-0.3v1.3c-0.6,0.2-1.2,0.3-2,0.3c-1.8,0-2.8-1-2.8-2.7c0-1.7,1-2.8,2.7-2.8
				c1.4,0,2.3,0.7,2.3,2.4c0,0.3,0,0.5,0,0.8h-3.2C77.6,16.8,78,17.1,78.8,17.1z M77.5,15.2h1.6c0-0.6-0.3-0.8-0.8-0.8
				C77.9,14.4,77.6,14.6,77.5,15.2z"/>
			<path class="st0" d="M86.8,15.6c0,1.7-0.9,2.8-2.8,2.8c-1,0-1.8-0.1-2.4-0.3v-7.2h1.7v2.5c0.3-0.3,0.8-0.4,1.4-0.4
				C86.1,13,86.8,14,86.8,15.6z M85.1,15.7c0-0.8-0.3-1.3-0.9-1.3c-0.4,0-0.7,0.2-0.9,0.4v2.1c0.2,0,0.5,0.1,0.7,0.1
				C84.8,17,85.1,16.5,85.1,15.7z"/>
			<path class="st0" d="M96,11.4v6.9h-1.8v-2.7h-2.4v2.7H90v-6.9h1.8V14h2.4v-2.6H96z"/>
			<path class="st0" d="M97,15.7c0-1.7,1.1-2.8,2.8-2.8c1.7,0,2.7,1,2.7,2.7c0,1.7-1.1,2.8-2.8,2.8C98.1,18.4,97,17.4,97,15.7z
				 M100.8,15.7c0-0.8-0.4-1.3-1-1.3c-0.6,0-1,0.4-1,1.3c0,0.8,0.4,1.3,1,1.3C100.4,17,100.8,16.5,100.8,15.7z"/>
			<path class="st0" d="M103.3,18.1v-1.4c0.5,0.3,1.2,0.4,1.9,0.4c0.7,0,0.9-0.1,0.9-0.3c0-0.2-0.1-0.3-1.2-0.5
				c-1.1-0.2-1.7-0.6-1.7-1.6c0-1.1,0.8-1.7,2.3-1.7c0.8,0,1.3,0.1,1.9,0.3v1.3c-0.6-0.2-1.2-0.3-1.8-0.3c-0.6,0-0.8,0.1-0.8,0.3
				c0,0.2,0.1,0.3,1.1,0.5c1.2,0.2,1.8,0.6,1.8,1.7c0,1.1-0.8,1.7-2.5,1.7C104.5,18.4,103.8,18.3,103.3,18.1z"/>
			<path class="st0" d="M112.6,16.8v1.4c-0.5,0.1-0.9,0.2-1.5,0.2c-1.5,0-2.1-0.8-2.1-2.2v-1.7h-0.7v-1.4h0.7l0.4-1.4h1.2v1.4h1.8
				v1.4h-1.8V16c0,0.7,0.2,1,0.8,1C111.9,17,112.2,17,112.6,16.8z"/>
			<path class="st0" d="M113.2,11.4c0-0.6,0.4-1,1.1-1s1.1,0.3,1.1,1s-0.4,0.9-1.1,0.9S113.2,12,113.2,11.4z M113.4,13.1h1.7v5.2
				h-1.7V13.1z"/>
			<path class="st0" d="M121.4,15.1v3.2h-1.7v-3c0-0.6-0.3-0.8-0.7-0.8c-0.3,0-0.6,0.1-0.9,0.4v3.5h-1.7v-5.2h1.4l0.1,0.4
				c0.4-0.4,1-0.5,1.6-0.5C120.7,13,121.4,13.7,121.4,15.1z"/>
			<path class="st0" d="M127.4,18.6c0,1.1-1.1,1.7-2.9,1.7c-1.7,0-2.4-0.4-2.4-1.2c0-0.6,0.3-0.9,0.7-1.2c-0.3-0.2-0.4-0.4-0.4-0.9
				c0-0.4,0.2-0.7,0.5-1c-0.3-0.3-0.5-0.7-0.5-1.2c0-1.1,0.8-1.8,2.3-1.8c0.2,0,0.3,0,0.5,0c0.8-0.3,1.5-0.4,2.2-0.4v1.1
				c-0.3,0-0.5,0-0.8,0c0.3,0.3,0.4,0.6,0.4,1.1c0,1-0.8,1.8-2.3,1.8c-0.3,0-0.6,0-0.8-0.1c0,0.1-0.1,0.1-0.1,0.2
				c0,0.2,0.1,0.3,0.6,0.3l1.5,0.1C126.8,17.3,127.4,17.7,127.4,18.6z M125.9,18.8c0-0.2-0.2-0.3-0.5-0.3l-1.6-0.1
				c-0.1,0.1-0.2,0.3-0.2,0.4c0,0.3,0.2,0.5,1.1,0.5C125.5,19.3,125.9,19.1,125.9,18.8z M124,14.8c0,0.4,0.2,0.6,0.7,0.6
				c0.5,0,0.7-0.2,0.7-0.6c0-0.4-0.2-0.6-0.7-0.6C124.2,14.2,124,14.4,124,14.8z"/>
		</g>
	</g>
	<g>
		<linearGradient id="SVGID_1_" gradientUnits="userSpaceOnUse" x1="43.3061" y1="2.9225" x2="63.7052" y2="19.6622">
			<stop  offset="4.102398e-07" style="stop-color:#25C3EA"/>
			<stop  offset="1" style="stop-color:#573594"/>
		</linearGradient>
		<path class="st1" d="M50.5,8.7h-0.7c-0.1,0-0.2-0.1-0.2-0.2s0.1-0.2,0.2-0.2h0.7c0.1,0,0.2,0.1,0.2,0.2S50.6,8.7,50.5,8.7z"/>
		<linearGradient id="SVGID_2_" gradientUnits="userSpaceOnUse" x1="42.9882" y1="3.31" x2="63.3872" y2="20.0497">
			<stop  offset="4.102398e-07" style="stop-color:#25C3EA"/>
			<stop  offset="1" style="stop-color:#573594"/>
		</linearGradient>
		<path class="st2" d="M59.1,13H44.8c-0.4,0-0.7-0.3-0.7-0.7V9c0-0.4,0.3-0.7,0.7-0.7H46c0.1,0,0.2,0.1,0.2,0.2S46.2,8.7,46,8.7
			h-1.2c-0.1,0-0.2,0.1-0.2,0.2v3.3c0,0.1,0.1,0.2,0.2,0.2h14.3c0.1,0,0.2-0.1,0.2-0.2V9c0-0.1-0.1-0.2-0.2-0.2h-7
			c-0.1,0-0.2-0.1-0.2-0.2s0.1-0.2,0.2-0.2h7c0.4,0,0.7,0.3,0.7,0.7v3.3C59.7,12.7,59.4,13,59.1,13z"/>
		<linearGradient id="SVGID_3_" gradientUnits="userSpaceOnUse" x1="42.4143" y1="4.0094" x2="62.8133" y2="20.7491">
			<stop  offset="4.102398e-07" style="stop-color:#25C3EA"/>
			<stop  offset="1" style="stop-color:#573594"/>
		</linearGradient>
		<path class="st3" d="M48.2,8.7h-0.7c-0.1,0-0.2-0.1-0.2-0.2s0.1-0.2,0.2-0.2h0.7c0.1,0,0.2,0.1,0.2,0.2S48.4,8.7,48.2,8.7z"/>
		<linearGradient id="SVGID_4_" gradientUnits="userSpaceOnUse" x1="44.9629" y1="0.9036" x2="65.3619" y2="17.6433">
			<stop  offset="4.102398e-07" style="stop-color:#25C3EA"/>
			<stop  offset="1" style="stop-color:#573594"/>
		</linearGradient>
		<path class="st4" d="M56.8,11.9c-0.7,0-1.2-0.5-1.2-1.2s0.5-1.2,1.2-1.2c0.7,0,1.2,0.5,1.2,1.2l0,0C58.1,11.3,57.5,11.9,56.8,11.9
			z M56.8,9.9c-0.4,0-0.8,0.3-0.8,0.8c0,0.4,0.3,0.8,0.8,0.8s0.8-0.3,0.8-0.8C57.6,10.2,57.3,9.9,56.8,9.9z"/>
		<linearGradient id="SVGID_5_" gradientUnits="userSpaceOnUse" x1="43.6612" y1="2.4898" x2="64.0603" y2="19.2295">
			<stop  offset="4.102398e-07" style="stop-color:#25C3EA"/>
			<stop  offset="1" style="stop-color:#573594"/>
		</linearGradient>
		<path class="st5" d="M53.6,11.9c-0.7,0-1.2-0.5-1.2-1.2s0.5-1.2,1.2-1.2c0.7,0,1.2,0.5,1.2,1.2l0,0C54.8,11.3,54.3,11.9,53.6,11.9
			z M53.6,9.9c-0.4,0-0.8,0.3-0.8,0.8c0,0.4,0.3,0.8,0.8,0.8s0.8-0.3,0.8-0.8C54.4,10.2,54,9.9,53.6,9.9z"/>
		<linearGradient id="SVGID_6_" gradientUnits="userSpaceOnUse" x1="41.5965" y1="5.0058" x2="61.9956" y2="21.7455">
			<stop  offset="4.102398e-07" style="stop-color:#25C3EA"/>
			<stop  offset="1" style="stop-color:#573594"/>
		</linearGradient>
		<path class="st6" d="M50.9,10.9H46c-0.1,0-0.2-0.1-0.2-0.2s0.1-0.2,0.2-0.2h4.9c0.1,0,0.2,0.1,0.2,0.2S51,10.9,50.9,10.9z"/>
		<linearGradient id="SVGID_7_" gradientUnits="userSpaceOnUse" x1="40.1984" y1="6.7096" x2="60.5975" y2="23.4493">
			<stop  offset="4.102398e-07" style="stop-color:#25C3EA"/>
			<stop  offset="1" style="stop-color:#573594"/>
		</linearGradient>
		<path class="st7" d="M59.1,18.7H44.8c-0.4,0-0.7-0.3-0.7-0.7v-3.3c0-0.4,0.3-0.7,0.7-0.7h14.3c0.4,0,0.7,0.3,0.7,0.7V18
			C59.7,18.4,59.4,18.7,59.1,18.7z M44.8,14.4c-0.1,0-0.2,0.1-0.2,0.2V18c0,0.1,0.1,0.2,0.2,0.2h14.3c0.1,0,0.2-0.1,0.2-0.2v-3.3
			c0-0.1-0.1-0.2-0.2-0.2H44.8z"/>
		<linearGradient id="SVGID_8_" gradientUnits="userSpaceOnUse" x1="42.1734" y1="4.3029" x2="62.5724" y2="21.0426">
			<stop  offset="4.102398e-07" style="stop-color:#25C3EA"/>
			<stop  offset="1" style="stop-color:#573594"/>
		</linearGradient>
		<path class="st8" d="M56.8,17.6c-0.7,0-1.2-0.5-1.2-1.2s0.5-1.2,1.2-1.2c0.7,0,1.2,0.5,1.2,1.2C58.1,17,57.5,17.6,56.8,17.6z
			 M56.8,15.6c-0.4,0-0.8,0.3-0.8,0.8s0.3,0.8,0.8,0.8s0.8-0.3,0.8-0.8S57.3,15.6,56.8,15.6z"/>
		<linearGradient id="SVGID_9_" gradientUnits="userSpaceOnUse" x1="40.8717" y1="5.8891" x2="61.2708" y2="22.6288">
			<stop  offset="4.102398e-07" style="stop-color:#25C3EA"/>
			<stop  offset="1" style="stop-color:#573594"/>
		</linearGradient>
		<path class="st9" d="M53.6,17.6c-0.7,0-1.2-0.5-1.2-1.2s0.5-1.2,1.2-1.2c0.7,0,1.2,0.5,1.2,1.2C54.8,17,54.3,17.6,53.6,17.6z
			 M53.6,15.6c-0.4,0-0.8,0.3-0.8,0.8s0.3,0.8,0.8,0.8s0.8-0.3,0.8-0.8S54,15.6,53.6,15.6z"/>
		<linearGradient id="SVGID_10_" gradientUnits="userSpaceOnUse" x1="38.807" y1="8.4051" x2="59.2061" y2="25.1448">
			<stop  offset="4.102398e-07" style="stop-color:#25C3EA"/>
			<stop  offset="1" style="stop-color:#573594"/>
		</linearGradient>
		<path class="st10" d="M50.9,16.6H46c-0.1,0-0.2-0.1-0.2-0.2c0-0.1,0.1-0.2,0.2-0.2h4.9c0.1,0,0.2,0.1,0.2,0.2
			C51.1,16.5,51,16.6,50.9,16.6z"/>
		<linearGradient id="SVGID_11_" gradientUnits="userSpaceOnUse" x1="41.5932" y1="5.0099" x2="61.9923" y2="21.7496">
			<stop  offset="4.102398e-07" style="stop-color:#25C3EA"/>
			<stop  offset="1" style="stop-color:#573594"/>
		</linearGradient>
		<path class="st11" d="M51.9,14.4c-0.1,0-0.2-0.1-0.2-0.2v-1.4c0-0.1,0.1-0.2,0.2-0.2s0.2,0.1,0.2,0.2v1.4
			C52.1,14.3,52,14.4,51.9,14.4z"/>
		<linearGradient id="SVGID_12_" gradientUnits="userSpaceOnUse" x1="38.7483" y1="8.4767" x2="59.1474" y2="25.2164">
			<stop  offset="4.102398e-07" style="stop-color:#25C3EA"/>
			<stop  offset="1" style="stop-color:#573594"/>
		</linearGradient>
		<path class="st12" d="M51.9,20.4c-0.1,0-0.2-0.1-0.2-0.2v-1.7c0-0.1,0.1-0.2,0.2-0.2s0.2,0.1,0.2,0.2v1.7
			C52.1,20.3,52,20.4,51.9,20.4z"/>
		<linearGradient id="SVGID_13_" gradientUnits="userSpaceOnUse" x1="37.9808" y1="9.4119" x2="58.3799" y2="26.1516">
			<stop  offset="4.102398e-07" style="stop-color:#25C3EA"/>
			<stop  offset="1" style="stop-color:#573594"/>
		</linearGradient>
		<path class="st13" d="M53.2,21.8h-2.5c-0.1,0-0.2-0.1-0.2-0.2v-1.5c0-0.1,0.1-0.2,0.2-0.2h2.5c0.1,0,0.2,0.1,0.2,0.2v1.5
			C53.4,21.7,53.3,21.8,53.2,21.8z M50.9,21.4h2v-1h-2V21.4z"/>
		<linearGradient id="SVGID_14_" gradientUnits="userSpaceOnUse" x1="38.996" y1="8.1748" x2="59.3951" y2="24.9145">
			<stop  offset="4.102398e-07" style="stop-color:#25C3EA"/>
			<stop  offset="1" style="stop-color:#573594"/>
		</linearGradient>
		<path class="st14" d="M55.7,21.1h-2.6c-0.1,0-0.2-0.1-0.2-0.2c0-0.1,0.1-0.2,0.2-0.2h2.6c0.1,0,0.2,0.1,0.2,0.2
			C55.9,21,55.9,21.1,55.7,21.1z"/>
		<linearGradient id="SVGID_15_" gradientUnits="userSpaceOnUse" x1="36.9652" y1="10.6496" x2="57.3643" y2="27.3893">
			<stop  offset="4.102398e-07" style="stop-color:#25C3EA"/>
			<stop  offset="1" style="stop-color:#573594"/>
		</linearGradient>
		<path class="st15" d="M50.7,21.1h-2.6c-0.1,0-0.2-0.1-0.2-0.2c0-0.1,0.1-0.2,0.2-0.2h2.6c0.1,0,0.2,0.1,0.2,0.2
			C50.9,21,50.8,21.1,50.7,21.1z"/>
	</g>
</g>
</svg>
