<?xml version="1.0" encoding="utf-8"?>
<!-- Generator: Adobe Illustrator 23.0.0, SVG Export Plug-In . SVG Version: 6.00 Build 0)  -->
<svg version="1.1" id="Layer_1" xmlns="http://www.w3.org/2000/svg" xmlns:xlink="http://www.w3.org/1999/xlink" x="0px" y="0px"
	 viewBox="0 0 173.9 29.4" style="enable-background:new 0 0 173.9 29.4;" xml:space="preserve">
<style type="text/css">
	.st0{fill:#010101;}
	.st1{fill:url(#SVGID_1_);}
	.st2{fill:url(#SVGID_2_);}
	.st3{fill:url(#SVGID_3_);}
	.st4{fill:url(#SVGID_4_);}
	.st5{fill:url(#SVGID_5_);}
	.st6{fill:url(#SVGID_6_);}
	.st7{fill:url(#SVGID_7_);}
	.st8{fill:url(#SVGID_8_);}
	.st9{fill:url(#SVGID_9_);}
	.st10{fill:url(#SVGID_10_);}
	.st11{fill:url(#SVGID_11_);}
</style>
<g>
	<g>
		<path class="st0" d="M46,10.6l-2.2,6.9h-1.6L41,13.2l-1.2,4.3h-1.6L36,10.6h2l1.1,4.4l1.2-4.4h1.5L43,15l1.1-4.4H46z"/>
		<path class="st0" d="M49.4,16.3c0.7,0,1.1-0.1,1.7-0.3v1.3c-0.6,0.2-1.2,0.3-2,0.3c-1.8,0-2.8-1-2.8-2.7s1-2.8,2.7-2.8
			c1.4,0,2.3,0.7,2.3,2.4c0,0.3,0,0.6,0,0.8h-3.2C48.3,16,48.7,16.3,49.4,16.3z M48.1,14.3h1.6c0-0.6-0.3-0.8-0.8-0.8
			C48.6,13.5,48.2,13.8,48.1,14.3z"/>
		<path class="st0" d="M57.5,14.8c0,1.7-0.9,2.8-2.8,2.8c-1,0-1.8-0.1-2.4-0.3v-7.2H54v2.5c0.3-0.3,0.8-0.4,1.4-0.4
			C56.8,12.1,57.5,13.1,57.5,14.8z M55.8,14.9c0-0.8-0.3-1.3-0.9-1.3c-0.4,0-0.7,0.2-0.9,0.4v2.1c0.2,0,0.5,0.1,0.7,0.1
			C55.4,16.2,55.8,15.7,55.8,14.9z"/>
		<path class="st0" d="M66.9,14c0,2.2-1.2,3.4-3.5,3.4h-2.8v-6.9h2.8C65.7,10.6,66.9,11.8,66.9,14z M65.1,14c0-1.3-0.6-1.9-1.8-1.9
			h-0.9V16h0.9C64.6,15.9,65.1,15.3,65.1,14z"/>
		<path class="st0" d="M70.7,16.3c0.7,0,1.1-0.1,1.7-0.3v1.3c-0.6,0.2-1.2,0.3-2,0.3c-1.8,0-2.8-1-2.8-2.7s1-2.8,2.7-2.8
			c1.4,0,2.3,0.7,2.3,2.4c0,0.3,0,0.6,0,0.8h-3.2C69.5,16,69.9,16.3,70.7,16.3z M69.4,14.3H71c0-0.6-0.3-0.8-0.8-0.8
			C69.8,13.5,69.5,13.8,69.4,14.3z"/>
		<path class="st0" d="M73.4,17.3v-1.4c0.5,0.3,1.2,0.4,1.9,0.4c0.7,0,0.9-0.1,0.9-0.3s-0.1-0.3-1.1-0.5c-1.1-0.2-1.7-0.6-1.7-1.6
			c0-1.1,0.8-1.7,2.3-1.7c0.8,0,1.3,0.1,1.9,0.3v1.3c-0.6-0.2-1.2-0.3-1.8-0.3c-0.6,0-0.8,0.1-0.8,0.3s0.1,0.3,1.1,0.5
			c1.2,0.2,1.8,0.6,1.8,1.7s-0.8,1.7-2.5,1.7C74.7,17.6,73.9,17.5,73.4,17.3z"/>
		<path class="st0" d="M78.6,10.5c0-0.6,0.4-1,1.1-1s1.1,0.3,1.1,1s-0.4,0.9-1.1,0.9S78.6,11.2,78.6,10.5z M78.8,12.3h1.7v5.2h-1.7
			V12.3z"/>
		<path class="st0" d="M86.6,17.7c0,1.1-1.1,1.7-2.9,1.7c-1.7,0-2.4-0.4-2.4-1.2c0-0.6,0.3-0.9,0.7-1.2c-0.3-0.2-0.4-0.4-0.4-0.9
			c0-0.4,0.2-0.7,0.5-1c-0.3-0.3-0.5-0.7-0.5-1.2c0-1.1,0.8-1.8,2.3-1.8c0.2,0,0.3,0,0.5,0c0.8-0.3,1.5-0.4,2.2-0.4v1.1
			c-0.3,0-0.6,0-0.8,0c0.3,0.3,0.4,0.6,0.4,1.1c0,1-0.8,1.8-2.3,1.8c-0.3,0-0.6,0-0.8-0.1c0,0.1-0.1,0.1-0.1,0.2
			c0,0.2,0.1,0.3,0.6,0.3l1.5,0.1C86,16.4,86.6,16.9,86.6,17.7z M85.1,18c0-0.2-0.2-0.3-0.5-0.3L83,17.5c-0.1,0.1-0.2,0.3-0.2,0.4
			c0,0.3,0.2,0.5,1.1,0.5C84.7,18.4,85.1,18.3,85.1,18z M83.2,14c0,0.4,0.2,0.6,0.7,0.6s0.7-0.2,0.7-0.6c0-0.4-0.2-0.6-0.7-0.6
			C83.4,13.3,83.2,13.5,83.2,14z"/>
		<path class="st0" d="M92.5,14.3v3.2h-1.7v-3c0-0.6-0.3-0.8-0.7-0.8c-0.3,0-0.6,0.1-0.9,0.4v3.5h-1.7v-5.2h1.4l0.1,0.4
			c0.4-0.4,1-0.5,1.6-0.5C91.8,12.1,92.5,12.9,92.5,14.3z"/>
		<path class="st0" d="M101.9,17.7c-0.9,0-1.5-0.1-1.9-0.6c-0.6,0.3-1.2,0.5-2,0.5c-1.6,0-2.5-0.7-2.5-2c0-0.9,0.5-1.6,1.3-2
			c-0.3-0.5-0.5-0.9-0.5-1.4c0-1.2,0.9-1.9,2.2-1.9c1.3,0,2.1,0.6,2.1,1.7c0,0.9-0.5,1.5-1.5,1.9l1,1.1c0.1-0.3,0.2-0.6,0.2-1h1.4
			c0,0.8-0.2,1.5-0.6,2c0.3,0.2,0.5,0.2,0.8,0.2V17.7z M98.2,16.3c0.3,0,0.6,0,0.8-0.1l-1.4-1.5c-0.3,0.2-0.5,0.4-0.5,0.8
			C97.2,16,97.6,16.3,98.2,16.3z M97.8,12.3c0,0.3,0.1,0.5,0.4,0.8c0.6-0.2,0.9-0.4,0.9-0.8c0-0.4-0.2-0.5-0.6-0.5
			C98,11.7,97.8,12,97.8,12.3z"/>
	</g>
	<g>
		<g>
			
				<linearGradient id="SVGID_1_" gradientUnits="userSpaceOnUse" x1="9.7758" y1="30.9679" x2="37.0107" y2="10.8278" gradientTransform="matrix(1 0 0 -1 0 32)">
				<stop  offset="4.102398e-07" style="stop-color:#25C3EA"/>
				<stop  offset="1" style="stop-color:#573594"/>
			</linearGradient>
			<path class="st1" d="M28.7,7.8h-0.8c-0.1,0-0.2,0.1-0.2,0.2c0,0.1,0.1,0.2,0.2,0.2h0.8c0.4,0,0.7,0.3,0.7,0.7V10H14.5V8.9
				c0-0.4,0.3-0.7,0.7-0.7h11.7c0.1,0,0.2-0.1,0.2-0.2c0-0.1-0.1-0.2-0.2-0.2H15.2C14.6,7.8,14,8.3,14,9v2.6c0,0.1,0.1,0.2,0.2,0.2
				s0.2-0.1,0.2-0.2v-1h14.9v6c0,0.1,0.1,0.2,0.2,0.2s0.2-0.1,0.2-0.2V8.9C29.9,8.3,29.4,7.8,28.7,7.8z"/>
			
				<linearGradient id="SVGID_2_" gradientUnits="userSpaceOnUse" x1="6.0097" y1="25.8753" x2="33.2446" y2="5.7352" gradientTransform="matrix(1 0 0 -1 0 32)">
				<stop  offset="4.102398e-07" style="stop-color:#25C3EA"/>
				<stop  offset="1" style="stop-color:#573594"/>
			</linearGradient>
			<path class="st2" d="M29.7,17.2c-0.1,0-0.2,0.1-0.2,0.2V18c0,0.4-0.3,0.7-0.7,0.7H15.2c-0.4,0-0.7-0.3-0.7-0.7v-5.5
				c0-0.1-0.1-0.2-0.2-0.2s-0.2,0.1-0.2,0.2V18c0,0.6,0.5,1.2,1.2,1.2h13.5c0.6,0,1.2-0.5,1.2-1.2v-0.6
				C29.9,17.3,29.8,17.2,29.7,17.2z"/>
			
				<linearGradient id="SVGID_3_" gradientUnits="userSpaceOnUse" x1="6.0275" y1="25.8993" x2="33.2624" y2="5.7592" gradientTransform="matrix(1 0 0 -1 0 32)">
				<stop  offset="4.102398e-07" style="stop-color:#25C3EA"/>
				<stop  offset="1" style="stop-color:#573594"/>
			</linearGradient>
			<path class="st3" d="M17.4,12.8c-0.1-0.1-0.2-0.1-0.3,0l-1.4,1.4c0,0-0.1,0.1-0.1,0.2s0,0.1,0.1,0.2l1.4,1.4c0,0,0.1,0.1,0.2,0.1
				s0.1,0,0.2-0.1s0.1-0.2,0-0.3l-1.2-1.2l1.2-1.2C17.5,13.1,17.5,12.9,17.4,12.8L17.4,12.8z"/>
			
				<linearGradient id="SVGID_4_" gradientUnits="userSpaceOnUse" x1="7.295" y1="27.6133" x2="34.5299" y2="7.4732" gradientTransform="matrix(1 0 0 -1 0 32)">
				<stop  offset="4.102398e-07" style="stop-color:#25C3EA"/>
				<stop  offset="1" style="stop-color:#573594"/>
			</linearGradient>
			<path class="st4" d="M20.5,15.9c0,0,0.1,0.1,0.2,0.1s0.1,0,0.2-0.1l1.4-1.4c0,0,0.1-0.1,0.1-0.2c0-0.1,0-0.1-0.1-0.2l-1.4-1.4
				c-0.1-0.1-0.2-0.1-0.3,0c-0.1,0.1-0.1,0.2,0,0.3l1.2,1.2l-1.2,1.2C20.4,15.7,20.4,15.8,20.5,15.9L20.5,15.9z"/>
			
				<linearGradient id="SVGID_5_" gradientUnits="userSpaceOnUse" x1="6.6053" y1="26.6807" x2="33.8402" y2="6.5406" gradientTransform="matrix(1 0 0 -1 0 32)">
				<stop  offset="4.102398e-07" style="stop-color:#25C3EA"/>
				<stop  offset="1" style="stop-color:#573594"/>
			</linearGradient>
			<path class="st5" d="M18.1,16.8c0.1,0,0.2-0.1,0.2-0.1l1.6-4.3c0-0.1,0-0.3-0.1-0.3s-0.3,0-0.3,0.1l-1.6,4.3
				C17.9,16.6,17.9,16.7,18.1,16.8L18.1,16.8L18.1,16.8z"/>
			
				<linearGradient id="SVGID_6_" gradientUnits="userSpaceOnUse" x1="8.0485" y1="28.6322" x2="35.2834" y2="8.4921" gradientTransform="matrix(1 0 0 -1 0 32)">
				<stop  offset="4.102398e-07" style="stop-color:#25C3EA"/>
				<stop  offset="1" style="stop-color:#573594"/>
			</linearGradient>
			<path class="st6" d="M15.1,9.1c0,0.4,0.3,0.7,0.7,0.7c0.4,0,0.7-0.3,0.7-0.7s-0.3-0.7-0.7-0.7S15.1,8.8,15.1,9.1z M16,9.1
				c0,0.1-0.1,0.2-0.2,0.2c-0.1,0-0.2-0.1-0.2-0.2s0.1-0.2,0.2-0.2C15.9,8.9,16,9,16,9.1z"/>
			
				<linearGradient id="SVGID_7_" gradientUnits="userSpaceOnUse" x1="8.6848" y1="29.4927" x2="35.9197" y2="9.3526" gradientTransform="matrix(1 0 0 -1 0 32)">
				<stop  offset="4.102398e-07" style="stop-color:#25C3EA"/>
				<stop  offset="1" style="stop-color:#573594"/>
			</linearGradient>
			<path class="st7" d="M16.9,9.1c0,0.4,0.3,0.7,0.7,0.7s0.7-0.3,0.7-0.7S18,8.4,17.6,8.4S16.9,8.8,16.9,9.1z M17.8,9.1
				c0,0.1-0.1,0.2-0.2,0.2s-0.2-0.1-0.2-0.2s0.1-0.2,0.2-0.2S17.8,9,17.8,9.1z"/>
			
				<linearGradient id="SVGID_8_" gradientUnits="userSpaceOnUse" x1="9.3212" y1="30.3532" x2="36.5562" y2="10.2131" gradientTransform="matrix(1 0 0 -1 0 32)">
				<stop  offset="4.102398e-07" style="stop-color:#25C3EA"/>
				<stop  offset="1" style="stop-color:#573594"/>
			</linearGradient>
			<path class="st8" d="M18.7,9.1c0,0.4,0.3,0.7,0.7,0.7s0.7-0.3,0.7-0.7s-0.3-0.7-0.7-0.7S18.7,8.8,18.7,9.1z M19.6,9.1
				c0,0.1-0.1,0.2-0.2,0.2s-0.2-0.1-0.2-0.2s0.1-0.2,0.2-0.2S19.6,9,19.6,9.1z"/>
			
				<linearGradient id="SVGID_9_" gradientUnits="userSpaceOnUse" x1="9.7839" y1="30.9789" x2="37.0188" y2="10.8388" gradientTransform="matrix(1 0 0 -1 0 32)">
				<stop  offset="4.102398e-07" style="stop-color:#25C3EA"/>
				<stop  offset="1" style="stop-color:#573594"/>
			</linearGradient>
			<path class="st9" d="M24.4,13.1h1.5c0.4,0,0.7-0.3,0.7-0.7s-0.3-0.7-0.7-0.7h-1.5c-0.4,0-0.7,0.3-0.7,0.7S24.1,13.1,24.4,13.1z
				 M24.4,12.1h1.5c0.1,0,0.2,0.1,0.2,0.2c0,0.1-0.1,0.2-0.2,0.2h-1.5c-0.1,0-0.2-0.1-0.2-0.2C24.2,12.2,24.3,12.1,24.4,12.1z"/>
			
				<linearGradient id="SVGID_10_" gradientUnits="userSpaceOnUse" x1="9.3299" y1="30.365" x2="36.5648" y2="10.2249" gradientTransform="matrix(1 0 0 -1 0 32)">
				<stop  offset="4.102398e-07" style="stop-color:#25C3EA"/>
				<stop  offset="1" style="stop-color:#573594"/>
			</linearGradient>
			<path class="st10" d="M24.4,14.9h3.8c0.4,0,0.7-0.3,0.7-0.7s-0.3-0.7-0.7-0.7h-3.8c-0.4,0-0.7,0.3-0.7,0.7S24.1,14.9,24.4,14.9z
				 M24.4,14h3.8c0.1,0,0.2,0.1,0.2,0.2s-0.1,0.2-0.2,0.2h-3.8c-0.1,0-0.2-0.1-0.2-0.2S24.3,14,24.4,14z"/>
			
				<linearGradient id="SVGID_11_" gradientUnits="userSpaceOnUse" x1="8.2272" y1="28.8738" x2="35.4621" y2="8.7337" gradientTransform="matrix(1 0 0 -1 0 32)">
				<stop  offset="4.102398e-07" style="stop-color:#25C3EA"/>
				<stop  offset="1" style="stop-color:#573594"/>
			</linearGradient>
			<path class="st11" d="M24.4,16.8h2.7c0.4,0,0.7-0.3,0.7-0.7s-0.3-0.7-0.7-0.7h-2.7c-0.4,0-0.7,0.3-0.7,0.7S24.1,16.8,24.4,16.8z
				 M24.4,15.9h2.7c0.1,0,0.2,0.1,0.2,0.2s-0.1,0.2-0.2,0.2h-2.7c-0.1,0-0.2-0.1-0.2-0.2C24.2,16,24.3,15.9,24.4,15.9z"/>
		</g>
	</g>
</g>
<g>
	<path d="M111.3,14.1c0,2.3-1.3,3.6-3.6,3.6h-2.8v-7.2h2.8C110,10.5,111.3,11.8,111.3,14.1z M109.7,14.1c0-1.5-0.7-2.2-2.1-2.2h-1.1
		v4.5h1.1C108.9,16.3,109.7,15.6,109.7,14.1z"/>
	<path d="M115.2,16.6c0.7,0,1.2-0.1,1.7-0.3v1.2c-0.6,0.2-1.2,0.3-2,0.3c-1.8,0-2.8-1-2.8-2.8c0-1.7,1-2.9,2.7-2.9
		c1.4,0,2.4,0.8,2.4,2.6c0,0.2,0,0.5,0,0.7h-3.5C113.8,16.3,114.3,16.6,115.2,16.6z M113.6,14.5h2.1c0-0.8-0.4-1.1-1-1.1
		C114.2,13.4,113.8,13.7,113.6,14.5z"/>
	<path d="M123.4,12.3l-2.1,5.4h-1.5l-2.1-5.4h1.7l0.6,1.9c0.2,0.6,0.4,1.2,0.6,2c0.2-0.8,0.4-1.4,0.6-2l0.6-1.9H123.4z"/>
	<path d="M126.7,16.6c0.7,0,1.2-0.1,1.7-0.3v1.2c-0.6,0.2-1.2,0.3-2,0.3c-1.8,0-2.8-1-2.8-2.8c0-1.7,1-2.9,2.7-2.9
		c1.4,0,2.4,0.8,2.4,2.6c0,0.2,0,0.5,0,0.7h-3.5C125.3,16.3,125.8,16.6,126.7,16.6z M125.2,14.5h2.1c0-0.8-0.4-1.1-1-1.1
		C125.8,13.4,125.3,13.7,125.2,14.5z"/>
	<path d="M129.9,10h1.5v7.7h-1.5V10z"/>
	<path d="M132.5,15c0-1.8,1.1-2.9,2.8-2.9c1.7,0,2.8,1.1,2.8,2.8c0,1.8-1.1,2.9-2.8,2.9C133.5,17.9,132.5,16.8,132.5,15z M136.5,15
		c0-1-0.5-1.6-1.3-1.6c-0.8,0-1.3,0.6-1.3,1.6c0,1,0.5,1.6,1.3,1.6C136.1,16.6,136.5,16,136.5,15z"/>
	<path d="M144.4,14.9c0,1.7-0.9,2.9-2.8,2.9c-0.3,0-0.6,0-1-0.1v1.9h-1.5v-7.3h1.3l0.1,0.5c0.5-0.4,1.1-0.6,1.7-0.6
		C143.6,12.2,144.4,13.2,144.4,14.9z M142.9,15c0-1-0.4-1.5-1.1-1.5c-0.5,0-0.9,0.2-1.1,0.5v2.5c0.3,0.1,0.6,0.1,0.9,0.1
		C142.5,16.6,142.9,15.9,142.9,15z"/>
	<path d="M153.4,14.1v3.6h-1.5v-3.4c0-0.6-0.2-0.9-0.7-0.9c-0.4,0-0.7,0.2-0.9,0.5v3.7h-1.5v-3.4c0-0.6-0.2-0.8-0.7-0.8
		c-0.3,0-0.6,0.2-0.9,0.5v3.7h-1.5v-5.4h1.3l0.1,0.4c0.4-0.4,1-0.6,1.6-0.6c0.7,0,1.2,0.3,1.4,0.7c0.5-0.5,1-0.7,1.7-0.7
		C152.9,12.2,153.4,13.1,153.4,14.1z"/>
	<path d="M157.5,16.6c0.7,0,1.2-0.1,1.7-0.3v1.2c-0.6,0.2-1.2,0.3-2,0.3c-1.8,0-2.8-1-2.8-2.8c0-1.7,1-2.9,2.7-2.9
		c1.4,0,2.4,0.8,2.4,2.6c0,0.2,0,0.5,0,0.7H156C156.1,16.3,156.6,16.6,157.5,16.6z M156,14.5h2.1c0-0.8-0.4-1.1-1-1.1
		C156.5,13.4,156.1,13.7,156,14.5z"/>
	<path d="M165.7,14.4v3.3h-1.5v-3.2c0-0.7-0.3-1.1-1-1.1c-0.4,0-0.8,0.2-1.1,0.5v3.8h-1.5v-5.4h1.3l0.1,0.5c0.5-0.4,1-0.6,1.7-0.6
		C165.1,12.2,165.7,12.9,165.7,14.4z"/>
	<path d="M170.9,16.4v1.2c-0.5,0.2-0.9,0.2-1.5,0.2c-1.5,0-2-0.8-2-2.2v-2h-0.8v-1.3h0.8l0.4-1.4h1.1v1.4h1.9v1.3h-1.9v1.8
		c0,0.8,0.3,1.1,1,1.1C170.2,16.6,170.5,16.5,170.9,16.4z"/>
</g>
</svg>
