<?xml version="1.0" encoding="utf-8"?>
<!-- Generator: Adobe Illustrator 23.0.0, SVG Export Plug-In . SVG Version: 6.00 Build 0)  -->
<svg version="1.1" id="Layer_1" xmlns="http://www.w3.org/2000/svg" xmlns:xlink="http://www.w3.org/1999/xlink" x="0px" y="0px"
	 viewBox="0 0 77 70" style="enable-background:new 0 0 77 70;" xml:space="preserve">
<style type="text/css">
	.st0{opacity:0.47;}
</style>
<g class="st0">
	<path d="M33.9,17.5h-2c-0.4,0-0.7-0.3-0.7-0.7s0.3-0.7,0.7-0.7h2c0.4,0,0.7,0.3,0.7,0.7S34.3,17.5,33.9,17.5z"/>
	<path d="M60.8,30.7H16.2c-1.2,0-2.1-0.9-2.1-2.1V18.2c0-1.2,0.9-2.1,2.1-2.1h3.9c0.4,0,0.7,0.3,0.7,0.7s-0.3,0.7-0.7,0.7h-3.9
		c-0.4,0-0.7,0.3-0.7,0.7v10.5c0,0.4,0.3,0.7,0.7,0.7h44.6c0.4,0,0.7-0.3,0.7-0.7V18.2c0-0.4-0.3-0.7-0.7-0.7h-22
		c-0.4,0-0.7-0.3-0.7-0.7s0.3-0.7,0.7-0.7h22c1.2,0,2.1,0.9,2.1,2.1v10.5C62.9,29.8,62,30.7,60.8,30.7z"/>
	<path d="M27,17.5h-2c-0.4,0-0.7-0.3-0.7-0.7s0.3-0.7,0.7-0.7h2c0.4,0,0.7,0.3,0.7,0.7S27.4,17.5,27,17.5z"/>
	<path d="M53.8,27.2c-2.1,0-3.8-1.7-3.8-3.8s1.7-3.8,3.8-3.8s3.8,1.7,3.8,3.8l0,0C57.7,25.5,56,27.2,53.8,27.2z M53.8,20.9
		c-1.3,0-2.4,1.1-2.4,2.4c0,1.3,1.1,2.4,2.4,2.4s2.4-1.1,2.4-2.4C56.3,22,55.2,20.9,53.8,20.9z"/>
	<path d="M43.7,27.2c-2.1,0-3.8-1.7-3.8-3.8s1.7-3.8,3.8-3.8c2.1,0,3.8,1.7,3.8,3.8l0,0C47.6,25.5,45.8,27.2,43.7,27.2z M43.7,20.9
		c-1.3,0-2.4,1.1-2.4,2.4c0,1.3,1.1,2.4,2.4,2.4s2.4-1.1,2.4-2.4C46.2,22,45.1,20.9,43.7,20.9z"/>
	<path d="M35.4,24.1H20c-0.4,0-0.7-0.3-0.7-0.7c0-0.4,0.3-0.7,0.7-0.7h15.3c0.4,0,0.7,0.3,0.7,0.7C36.1,23.8,35.7,24.1,35.4,24.1z"
		/>
	<path d="M60.8,48.5H16.2c-1.2,0-2.1-0.9-2.1-2.1V35.9c0-1.2,0.9-2.1,2.1-2.1h44.6c1.2,0,2.1,0.9,2.1,2.1v10.5
		C62.9,47.5,62,48.5,60.8,48.5z M16.2,35.2c-0.4,0-0.7,0.3-0.7,0.7v10.5c0,0.4,0.3,0.7,0.7,0.7h44.6c0.4,0,0.7-0.3,0.7-0.7V35.9
		c0-0.4-0.3-0.7-0.7-0.7H16.2z"/>
	<path d="M53.8,45c-2.1,0-3.8-1.7-3.8-3.8s1.7-3.8,3.8-3.8s3.8,1.7,3.8,3.8C57.7,43.3,56,45,53.8,45z M53.8,38.7
		c-1.3,0-2.4,1.1-2.4,2.4s1.1,2.4,2.4,2.4s2.4-1.1,2.4-2.4S55.2,38.7,53.8,38.7z"/>
	<path d="M43.7,45c-2.1,0-3.8-1.7-3.8-3.8s1.7-3.8,3.8-3.8c2.1,0,3.8,1.7,3.8,3.8C47.6,43.3,45.8,45,43.7,45z M43.7,38.7
		c-1.3,0-2.4,1.1-2.4,2.4s1.1,2.4,2.4,2.4s2.4-1.1,2.4-2.4S45.1,38.7,43.7,38.7z"/>
	<path d="M35.4,41.9H20c-0.4,0-0.7-0.3-0.7-0.7s0.3-0.7,0.7-0.7h15.3c0.4,0,0.7,0.3,0.7,0.7S35.7,41.9,35.4,41.9z"/>
	<path d="M38.5,35.2c-0.4,0-0.7-0.3-0.7-0.7V30c0-0.4,0.3-0.7,0.7-0.7s0.7,0.3,0.7,0.7v4.5C39.2,34.9,38.9,35.2,38.5,35.2z"/>
	<path d="M38.5,53.7c-0.4,0-0.7-0.3-0.7-0.7v-5.2c0-0.4,0.3-0.7,0.7-0.7s0.7,0.3,0.7,0.7V53C39.2,53.4,38.9,53.7,38.5,53.7z"/>
	<path d="M42.4,58.3h-7.8c-0.4,0-0.7-0.3-0.7-0.7V53c0-0.4,0.3-0.7,0.7-0.7h7.8c0.4,0,0.7,0.3,0.7,0.7v4.5
		C43.1,58,42.8,58.3,42.4,58.3z M35.3,56.9h6.4v-3.2h-6.4V56.9z"/>
	<path d="M50.4,56h-8c-0.4,0-0.7-0.3-0.7-0.7c0-0.4,0.3-0.7,0.7-0.7h8c0.4,0,0.7,0.3,0.7,0.7C51.1,55.7,50.8,56,50.4,56z"/>
	<path d="M34.6,56h-8c-0.4,0-0.7-0.3-0.7-0.7c0-0.4,0.3-0.7,0.7-0.7h8c0.4,0,0.7,0.3,0.7,0.7C35.3,55.7,35,56,34.6,56z"/>
</g>
</svg>
