<?xml version="1.0" encoding="utf-8"?>
<!-- Generator: Adobe Illustrator 23.0.0, SVG Export Plug-In . SVG Version: 6.00 Build 0)  -->
<svg version="1.1" id="Layer_1" xmlns="http://www.w3.org/2000/svg" xmlns:xlink="http://www.w3.org/1999/xlink" x="0px" y="0px"
	 viewBox="0 0 77 70" style="enable-background:new 0 0 77 70;" xml:space="preserve">
<style type="text/css">
	.st0{opacity:0.47;}
	.st1{fill:#030C30;}
</style>
<g class="st0">
	<g>
		<path class="st1" d="M59.2,17.5h-2.5c-0.4,0-0.7,0.3-0.7,0.7s0.3,0.7,0.7,0.7h2.5c1.2,0,2.1,1,2.1,2.1v3.3H15.7v-3.3
			c0-1.2,1-2.1,2.1-2.1h35.8c0.4,0,0.7-0.3,0.7-0.7s-0.3-0.7-0.7-0.7H17.8c-2,0-3.6,1.6-3.6,3.6v7.8c0,0.4,0.3,0.7,0.7,0.7
			c0.4,0,0.7-0.3,0.7-0.7v-3.1h45.7v18.3c0,0.4,0.3,0.7,0.7,0.7c0.4,0,0.7-0.3,0.7-0.7v-23C62.8,19.1,61.2,17.5,59.2,17.5z"/>
		<path class="st1" d="M62,46.4c-0.4,0-0.7,0.3-0.7,0.7v1.8c0,1.2-1,2.1-2.1,2.1H17.8c-1.2,0-2.1-1-2.1-2.1V32
			c0-0.4-0.3-0.7-0.7-0.7s-0.7,0.3-0.7,0.7v17c0,2,1.6,3.6,3.6,3.6h41.4c2,0,3.6-1.6,3.6-3.6v-1.8C62.8,46.7,62.4,46.4,62,46.4z"/>
		<path class="st1" d="M24.5,33c-0.3-0.3-0.7-0.3-1,0l-4.3,4.3c-0.1,0.1-0.2,0.3-0.2,0.5s0.1,0.4,0.2,0.5l4.2,4.2
			c0.1,0.1,0.3,0.2,0.5,0.2s0.4-0.1,0.5-0.2c0.3-0.3,0.3-0.7,0-1l-3.7-3.7l3.8-3.8C24.8,33.7,24.8,33.2,24.5,33L24.5,33z"/>
		<path class="st1" d="M34.1,42.4c0.1,0.1,0.3,0.2,0.5,0.2s0.4-0.1,0.5-0.2l4.2-4.2c0.1-0.1,0.2-0.3,0.2-0.5s-0.1-0.4-0.2-0.5L35,33
			c-0.3-0.3-0.7-0.3-1,0c-0.3,0.3-0.3,0.7,0,1l3.8,3.8l-3.7,3.7C33.8,41.7,33.8,42.2,34.1,42.4L34.1,42.4z"/>
		<path class="st1" d="M26.7,45.1c0.3,0,0.6-0.2,0.7-0.5l5-13.3c0.1-0.4,0-0.8-0.4-0.9c-0.4-0.1-0.8,0-0.9,0.4l-5,13.3
			c-0.1,0.4,0,0.8,0.4,0.9C26.6,45.1,26.7,45.1,26.7,45.1L26.7,45.1z"/>
		<path class="st1" d="M17.4,21.7c0,1.2,1,2.1,2.1,2.1c1.2,0,2.1-1,2.1-2.1c0-1.2-1-2.1-2.1-2.1S17.4,20.5,17.4,21.7z M20.2,21.7
			c0,0.4-0.3,0.7-0.7,0.7c-0.4,0-0.7-0.3-0.7-0.7s0.3-0.7,0.7-0.7C19.9,21,20.2,21.3,20.2,21.7z"/>
		<path class="st1" d="M22.9,21.7c0,1.2,1,2.1,2.1,2.1c1.2,0,2.1-1,2.1-2.1c0-1.2-1-2.1-2.1-2.1C23.8,19.5,22.9,20.5,22.9,21.7z
			 M25.7,21.7c0,0.4-0.3,0.7-0.7,0.7c-0.4,0-0.7-0.3-0.7-0.7S24.6,21,25,21C25.4,21,25.7,21.3,25.7,21.7z"/>
		<path class="st1" d="M28.4,21.7c0,1.2,1,2.1,2.1,2.1s2.1-1,2.1-2.1c0-1.2-1-2.1-2.1-2.1S28.4,20.5,28.4,21.7z M31.2,21.7
			c0,0.4-0.3,0.7-0.7,0.7c-0.4,0-0.7-0.3-0.7-0.7s0.3-0.7,0.7-0.7C30.9,21,31.2,21.3,31.2,21.7z"/>
		<path class="st1" d="M46,33.7h4.5c1.2,0,2.1-1,2.1-2.1c0-1.2-1-2.1-2.1-2.1H46c-1.2,0-2.1,1-2.1,2.1C43.9,32.8,44.9,33.7,46,33.7z
			 M46,30.9h4.5c0.4,0,0.7,0.3,0.7,0.7c0,0.4-0.3,0.7-0.7,0.7H46c-0.4,0-0.7-0.3-0.7-0.7C45.3,31.2,45.6,30.9,46,30.9z"/>
		<path class="st1" d="M46,39.4h11.7c1.2,0,2.1-1,2.1-2.1c0-1.2-1-2.1-2.1-2.1H46c-1.2,0-2.1,1-2.1,2.1C43.9,38.4,44.9,39.4,46,39.4
			z M46,36.6h11.7c0.4,0,0.7,0.3,0.7,0.7S58.2,38,57.8,38H46c-0.4,0-0.7-0.3-0.7-0.7S45.6,36.6,46,36.6z"/>
		<path class="st1" d="M46,45.1h8.3c1.2,0,2.1-1,2.1-2.1c0-1.2-1-2.1-2.1-2.1H46c-1.2,0-2.1,1-2.1,2.1C43.9,44.1,44.9,45.1,46,45.1z
			 M46,42.2h8.3c0.4,0,0.7,0.3,0.7,0.7s-0.3,0.7-0.7,0.7H46c-0.4,0-0.7-0.3-0.7-0.7S45.6,42.2,46,42.2z"/>
	</g>
</g>
</svg>
